<svg width="26" height="26" viewBox="0 0 26 26" fill="none" xmlns="http://www.w3.org/2000/svg">
<path fill-rule="evenodd" clip-rule="evenodd" d="M5 0H21C23.8 0 26 0.599988 26 1.29999V24.7C26 25.4 23.8 26 21 26H5C2.2 26 0 25.4 0 24.7V1.29999C0 0.499988 2.2 0 5 0Z" fill="#4C2BEF"/>
<path d="M18.7984 10.3H6.89844V9.5H18.7984V10.3Z" fill="#FEFEFE"/>
<path d="M18.7984 14.8H6.89844V14H18.7984V14.8Z" fill="#FEFEFE"/>
<path d="M12.498 14.5999V9.8999H13.298V14.5999H12.498Z" fill="#FEFEFE"/>
<path d="M8.79767 20.3H7.09766V19.5H8.79767V20.3Z" fill="#FEFEFE"/>
<path d="M18.698 20.3H16.998V19.5H18.698V20.3Z" fill="#FEFEFE"/>
<path d="M19.2988 11.4V9.5H20.0988V11.4H19.2988Z" fill="#FEFEFE"/>
<path d="M5.59766 11.4V9.5H6.39767V11.4H5.59766Z" fill="#FEFEFE"/>
<path d="M17.4988 16.9999H15.7988V16.2H17.4988V16.9999Z" fill="#FEFEFE"/>
<path d="M9.99884 16.9999H8.29883V16.2H9.99884V16.9999Z" fill="#FEFEFE"/>
<path d="M18.9988 19.6H6.69882V18.8H18.9988L19.3988 19.2L18.9988 19.6ZM19.4988 19.2V19.6H19.0988L19.4988 19.2ZM19.4988 7.79999V19.2H18.6988V7.79999L19.0988 7.39996L19.4988 7.79999ZM18.9988 7.39996H19.3988V7.79999L18.9988 7.39996ZM18.2988 7.39996H19.0988V8.20001H18.2988L17.8988 7.70001L18.2988 7.39996ZM18.2988 8.20001H17.7988L17.8988 7.70001L18.2988 8.20001ZM18.8988 6.79999L18.6988 7.79999L17.8988 7.70001L18.0988 6.70001L18.5988 6.39996L18.8988 6.79999ZM18.4988 6.39996L18.8988 6.5L18.7988 6.89996L18.4988 6.39996ZM7.69882 6.70001L6.89883 6.79999L7.19882 6.29999L7.49884 6.20001L7.79883 6.09998L8.09882 6H8.39883H8.69882H9.09882H9.49884H9.89883H10.2988H10.6988H11.0988H11.4988H11.8988H12.2988H12.6988H13.0988H13.4988H13.8988H14.2988H14.6988H15.0988H15.4988H15.8988H16.2988H16.6988H17.0988H17.3988H17.6988L17.9988 6.09998H18.2988L18.5988 6.20001L18.8988 6.29999L18.6988 7.09998L18.3988 7H18.0988L17.7988 6.89996H17.4988H17.1988H16.8988H16.5988H16.1988H15.7988H15.3988H14.9988H14.5988H14.1988H13.7988H13.2988H12.8988H12.4988H12.0988H11.6988H11.2988H10.8988H10.4988H10.0988H9.69882H9.29883H8.99884H8.69882H8.39883H8.09882H7.79883L7.49884 7L7.19882 7.09998L7.69882 6.70001ZM6.79883 6.79999L6.69882 6.39996L7.09882 6.29999L6.79883 6.79999ZM6.99884 7.89996L6.79883 6.89996L7.59882 6.79999L7.79883 7.79999L7.39883 8.29999L6.99884 7.89996ZM7.79883 7.70001L7.89883 8.20001H7.39883L7.79883 7.70001ZM6.69882 7.39996H7.39883V8.20001H6.69882L6.29883 7.79999L6.69882 7.39996ZM6.29883 7.79999V7.39996H6.69882L6.29883 7.79999ZM6.29883 19.2V7.79999H7.09882V19.2L6.69882 19.6L6.29883 19.2ZM6.69882 19.6H6.29883V19.2L6.69882 19.6Z" fill="#FEFEFE"/>
<path d="M21.9984 21.1H3.89844V20.3H21.9984V21.1Z" fill="#FEFEFE"/>
</svg>
