<svg width="66" height="66" viewBox="0 0 66 66" fill="none" xmlns="http://www.w3.org/2000/svg">
<rect width="66" height="66" fill="#5DC482"/>
<path d="M4.71571 50.9002C4.78361 50.8235 4.86774 50.7541 4.91793 50.667C7.76081 45.7517 10.5993 40.8349 13.4392 35.9181C13.4761 35.8546 13.5041 35.7868 13.4717 35.8517C12.3897 34.0529 11.2591 32.3706 10.3291 30.5851C8.50769 27.0805 7.46707 23.353 7.59844 19.3614C7.66044 17.4903 8.05455 15.6841 8.83686 13.9754C9.13797 13.3187 9.73135 13.0619 10.3232 13.3054C10.9107 13.5474 11.1675 14.1672 10.8974 14.8209C9.30033 18.6841 9.5734 22.5429 10.9447 26.3855C12.2834 30.1409 14.4385 33.4183 16.9935 36.4434C20.6069 40.7212 24.7605 44.3823 29.5872 47.2436C30.5142 47.794 31.5165 48.2278 32.5113 48.6513C32.7932 48.7709 33.2051 48.7561 33.5017 48.6484C35.3808 47.9637 37.0827 46.9381 38.7108 45.7975C43.3707 42.5319 47.5331 38.7439 50.8513 34.0897C53.1643 30.8463 54.9651 27.3638 55.8227 23.4327C57.0345 17.8814 55.0684 12.4569 50.6816 9.37285C45.4799 5.7177 38.7905 6.20761 34.1748 10.5814C34.1084 10.6448 34.042 10.7083 33.9756 10.7718C33.2552 11.455 32.7342 11.4579 32.0242 10.7747C30.2249 9.04674 28.151 7.81605 25.6993 7.25826C22.911 6.62373 20.2246 6.96608 17.615 8.07281C17.4467 8.14512 17.2814 8.22627 17.1087 8.28825C16.4872 8.50959 15.9382 8.29415 15.6725 7.73341C15.4083 7.17709 15.5691 6.55142 16.1847 6.29614C17.2991 5.83426 18.4268 5.33846 19.5988 5.09055C24.6115 4.03252 29.0544 5.30305 33.0014 8.59667C33.239 8.41074 33.4958 8.21151 33.7512 8.01083C42.4894 1.13289 54.9016 5.64392 57.7991 15.752C58.8353 19.3688 58.4707 22.9605 57.3681 26.5006C56.3806 29.6732 54.8145 32.5492 52.8204 35.1994C52.6993 35.3603 52.5798 35.5241 52.4425 35.71C53.7458 37.9677 55.0477 40.2255 56.3511 42.4832C57.9039 45.1733 59.4611 47.8604 61.011 50.5519C61.5822 51.5436 61.2501 52.302 60.1298 52.4658C57.7489 52.8111 55.3607 53.1166 52.9768 53.4368C52.9045 53.4472 52.8307 53.4545 52.7569 53.453C51.6956 53.4383 51.0063 53.9488 50.3863 54.815C48.9738 56.788 47.446 58.6798 45.9537 60.5966C45.756 60.8504 45.4947 61.057 45.263 61.2842H44.4895C44.209 60.9567 43.871 60.663 43.6585 60.2971C41.6319 56.8205 39.6259 53.332 37.614 49.8481C37.5151 49.6769 37.4044 49.5146 37.3011 49.3508C36.6192 49.6902 35.9963 50.0517 35.3365 50.3217C32.7903 51.3606 33.2154 51.3813 30.6161 50.2937C29.9636 50.0207 29.3422 49.671 28.6928 49.3493C28.5761 49.5367 28.4758 49.6887 28.3857 49.8466C26.3739 53.332 24.3679 56.8219 22.3413 60.2985C22.1273 60.6645 21.7892 60.9581 21.5088 61.2857H20.7353C20.5051 61.057 20.2438 60.8519 20.0475 60.5981C18.3796 58.4496 16.716 56.2981 15.0702 54.1333C14.8178 53.8013 14.5359 53.6242 14.13 53.5711C11.8185 53.2745 9.50403 52.9897 7.19843 52.6488C6.32903 52.5204 5.3268 52.6872 4.71423 51.7871C4.71423 51.4919 4.71423 51.1983 4.71423 50.9032L4.71571 50.9002ZM15.0466 37.6018C12.5609 41.9062 10.1122 46.1487 7.62649 50.4531C9.92028 50.76 12.1181 51.095 14.3263 51.3311C15.3773 51.4432 16.1965 51.7443 16.7972 52.6916C17.395 53.636 18.1508 54.4786 18.8371 55.367C19.5427 56.2804 20.2482 57.1953 20.9995 58.1692C22.9435 54.8033 24.8506 51.5023 26.7783 48.1659C22.359 45.2102 18.508 41.6789 15.0496 37.6003L15.0466 37.6018ZM39.2259 48.1673C41.1654 51.5259 43.0666 54.8151 45.0017 58.1648C45.1892 57.9301 45.3368 57.7486 45.4814 57.5627C46.8748 55.7565 48.2549 53.9385 49.6734 52.153C49.9066 51.8609 50.286 51.5672 50.6373 51.5067C52.103 51.2573 53.585 51.0994 55.0595 50.9032C56.14 50.7586 57.2205 50.6051 58.3733 50.4457C55.8758 46.1221 53.4285 41.8841 50.9561 37.6032C47.5036 41.6745 43.6541 45.2087 39.2274 48.1688L39.2259 48.1673Z" fill="white"/>
<path d="M27.8086 24.054C27.8086 23.688 27.8086 23.3811 27.8086 23.0727C27.8086 21.2325 27.8056 19.3924 27.8086 17.5538C27.81 16.7333 28.2056 16.332 29.0189 16.3231C30.0108 16.3128 31.0072 16.2655 31.9533 16.661C34.1202 17.5671 35.3217 19.1814 35.5372 21.5232C35.5446 21.6118 35.5549 21.6988 35.5697 21.8434C35.7852 21.8434 35.983 21.8434 36.1808 21.8434C37.8561 21.8449 39.5299 21.8302 41.2053 21.8523C42.9234 21.8759 44.3655 23.3235 44.3758 25.0323C44.3891 27.3682 44.3965 29.7057 44.3729 32.0416C44.3448 34.7627 41.9152 37.2697 39.186 37.2933C33.9416 37.3391 28.6972 37.3125 23.4513 37.3081C22.7236 37.3081 22.2866 36.861 22.2866 36.135C22.2822 32.4916 22.2822 28.8498 22.2866 25.2064C22.2866 24.4745 22.7147 24.0599 23.4631 24.0554C24.8801 24.0466 26.2956 24.0525 27.8086 24.0525V24.054ZM30.0374 35.0725C30.1658 35.0844 30.2382 35.0976 30.309 35.0976C33.1253 35.0976 35.9431 35.1197 38.7594 35.0917C40.7787 35.0711 42.1603 33.6323 42.1691 31.6018C42.1795 29.5595 42.1735 27.5158 42.1691 25.4735C42.1691 24.4612 41.7706 24.0613 40.7713 24.0599C38.6915 24.0584 36.6103 24.0643 34.5305 24.0569C33.7645 24.0539 33.3526 23.6186 33.3275 22.8587C33.3084 22.2729 33.3128 21.6782 33.2139 21.1027C32.9969 19.8454 31.6965 18.4864 30.0345 18.5926V35.0725H30.0374ZM24.5155 35.0563H27.782V26.2984H24.5155V35.0563Z" fill="white"/>
<path d="M11.5646 10.1653C11.575 9.53223 12.0827 9.04231 12.6968 9.07182C13.2916 9.09986 13.7669 9.59419 13.7684 10.1889C13.7684 10.8086 13.2636 11.3133 12.6466 11.3074C12.0222 11.3015 11.5543 10.8087 11.5646 10.1653Z" fill="white"/>
</svg>
