<svg width="66" height="66" viewBox="0 0 66 66" fill="none" xmlns="http://www.w3.org/2000/svg">
<rect width="66" height="66" fill="#5DC482"/>
<path d="M56.2019 4.71568C56.7569 5.11342 56.9433 5.6548 56.8715 6.32324C56.8328 6.68508 56.8784 7.05521 56.8591 7.42119C56.8259 8.02334 56.322 8.48047 55.7324 8.4639C55.1649 8.44871 54.6844 7.99848 54.6623 7.41981C54.6416 6.87153 54.5754 6.30391 54.6844 5.77772C54.7645 5.39654 55.0973 5.06647 55.3182 4.71429C55.6123 4.71429 55.9078 4.71429 56.2019 4.71429V4.71568Z" fill="white"/>
<path d="M61.2842 10.5714C60.9929 11.1763 60.5124 11.4083 59.8496 11.3503C59.4492 11.3158 59.0419 11.3545 58.6387 11.3407C57.9981 11.3199 57.5203 10.8214 57.5369 10.2109C57.5521 9.61847 58.0174 9.15719 58.6401 9.13785C59.0433 9.12543 59.4506 9.1641 59.851 9.12819C60.5138 9.07018 60.9943 9.3022 61.2856 9.90711V10.57L61.2842 10.5714Z" fill="white"/>
<path d="M33.0442 53.1995C36.8385 53.0421 40.3552 52.0781 43.5792 50.088C44.4697 49.5383 45.1077 49.5894 45.4915 50.2454C45.8546 50.8683 45.6033 51.4718 44.7611 51.9925C31.8236 59.9875 14.8282 52.9799 11.2797 38.1859C8.40919 26.2203 15.8168 14.1636 27.8112 11.2813C40.1025 8.32719 52.3772 16.1717 54.8763 28.6179C56.0472 34.4501 54.973 39.9012 51.8622 44.9601C51.4549 45.6216 50.9661 45.8246 50.3958 45.5981C49.8877 45.3965 49.5784 44.8855 49.7041 44.3607C49.7662 44.101 49.9181 43.8552 50.0617 43.6232C52.0997 40.3349 53.0924 36.7468 53.0758 32.8909C53.0358 23.1226 45.9499 14.792 36.3607 13.2065C25.8975 11.4774 16.0391 17.8966 13.4999 28.2174C10.7937 39.2134 17.6159 50.1336 28.5817 52.556C30.0452 52.8791 31.5572 52.9896 33.0456 53.1995H33.0442Z" fill="white"/>
<path d="M33.301 44.2143C29.903 44.2143 27.1775 41.5778 26.9924 38.11C26.951 37.3448 27.3915 36.7952 28.0625 36.7717C28.6949 36.7496 29.2016 37.2537 29.2237 37.987C29.2555 39.0491 29.6214 39.9689 30.3656 40.716C31.5489 41.9024 32.9752 42.2808 34.5658 41.7546C36.1771 41.2215 37.0994 40.0642 37.3369 38.3737C37.3617 38.1914 37.3797 38.0078 37.4032 37.8255C37.4832 37.1888 37.9527 36.7524 38.5326 36.7731C39.1332 36.7938 39.622 37.291 39.6151 37.9428C39.6013 39.4082 39.1346 40.7271 38.2054 41.8596C36.9406 43.3994 35.2934 44.1728 33.301 44.2157V44.2143Z" fill="white"/>
<path d="M29.0124 28.8609C29.0055 29.4755 28.6038 29.9561 28.0487 30.0169C27.3942 30.0887 26.922 29.7365 26.8047 29.0598C26.7287 28.6261 26.592 28.2463 26.0756 28.2574C25.591 28.2671 25.4626 28.6344 25.388 29.0446C25.2638 29.7365 24.8137 30.0818 24.1564 30.0169C23.5807 29.9602 23.1692 29.4589 23.1761 28.8195C23.1927 27.2837 24.5458 26.0104 26.1419 26.027C27.6994 26.0435 29.0304 27.3569 29.0124 28.8595V28.8609Z" fill="white"/>
<path d="M43.3941 28.8084C43.4024 29.4852 43.0352 29.9547 42.4497 30.0169C41.7787 30.0887 41.2775 29.7061 41.1905 29.0045C41.1353 28.5571 40.9516 28.2519 40.4836 28.2601C40.0445 28.2684 39.8788 28.564 39.8194 28.988C39.7159 29.7268 39.194 30.1108 38.5133 30.0155C37.9278 29.9326 37.5537 29.3968 37.6047 28.7131C37.7249 27.1139 39.0186 25.9786 40.6603 26.0325C42.1473 26.0822 43.3776 27.3307 43.3955 28.8084H43.3941Z" fill="white"/>
<path d="M52.0969 11.3435C51.8208 11.3435 51.5446 11.3573 51.2685 11.3407C50.6527 11.3048 50.2219 10.8242 50.2357 10.2068C50.2495 9.61851 50.6789 9.16275 51.2795 9.14204C51.8304 9.1227 52.3841 9.12132 52.935 9.14204C53.519 9.16413 53.9692 9.64613 53.9816 10.2179C53.994 10.8104 53.5329 11.3076 52.924 11.3407C52.6492 11.3559 52.3717 11.3435 52.0955 11.3435H52.0969Z" fill="white"/>
<path d="M9.1341 52.0366C9.1341 51.7784 9.12168 51.5201 9.13687 51.2632C9.17277 50.6708 9.63255 50.2454 10.2235 50.2399C10.8158 50.2343 11.3046 50.6528 11.3322 51.2384C11.3598 51.8074 11.3571 52.3805 11.3322 52.9495C11.3088 53.5323 10.8214 53.9798 10.2484 53.9867C9.65603 53.995 9.16448 53.5296 9.13549 52.9205C9.12168 52.6263 9.13272 52.3322 9.13272 52.0366H9.1341Z" fill="white"/>
<path d="M6.57558 54.6606C6.86967 54.6606 7.16653 54.6427 7.45925 54.6648C8.03087 54.7076 8.47409 55.2144 8.46166 55.7834C8.45062 56.3331 8.01984 56.8275 7.47031 56.8565C6.8835 56.8869 6.29116 56.8855 5.70435 56.8565C5.1203 56.8275 4.70607 56.3331 4.71436 55.7392C4.72264 55.1495 5.15204 54.6952 5.74714 54.662C6.02191 54.6468 6.29943 54.6592 6.57558 54.6592V54.6606Z" fill="white"/>
<path d="M56.8618 13.8873C56.8618 14.1635 56.8743 14.4398 56.8591 14.716C56.8259 15.3375 56.3551 15.7725 55.7393 15.7642C55.1497 15.7559 54.683 15.3278 54.661 14.7339C54.6389 14.1829 54.6402 13.6291 54.661 13.078C54.6817 12.4704 55.1856 12.0077 55.778 12.0174C56.351 12.027 56.8232 12.4759 56.8591 13.0601C56.8756 13.3349 56.8618 13.6125 56.8618 13.8887V13.8873Z" fill="white"/>
<path d="M11.3406 59.4337C11.3406 59.6919 11.3502 59.9488 11.3392 60.2071C11.313 60.8382 10.8615 61.2802 10.2498 61.2857C9.63399 61.2912 9.16041 60.8548 9.1397 60.2305C9.12175 59.6795 9.11899 59.1257 9.14108 58.5746C9.16455 57.9918 9.65195 57.5457 10.2263 57.5388C10.798 57.5319 11.295 57.9753 11.3364 58.5512C11.3572 58.8439 11.3406 59.1395 11.3406 59.4337C11.3406 59.4337 11.3406 59.4337 11.342 59.4337H11.3406Z" fill="white"/>
<path d="M13.8659 56.8648C13.5897 56.8648 13.3122 56.88 13.0374 56.8621C12.4589 56.8234 12.0129 56.3359 12.0129 55.7641C12.0129 55.1924 12.4575 54.6924 13.0361 54.6676C13.6049 54.6427 14.1779 54.6427 14.7468 54.6676C15.3364 54.6924 15.7589 55.1717 15.7602 55.7628C15.7602 56.3539 15.3377 56.8234 14.7496 56.8635C14.4568 56.8828 14.1614 56.8662 13.8659 56.8662V56.8648Z" fill="white"/>
<path d="M47.9713 49.1351C47.3582 49.1378 46.839 48.6296 46.8418 48.0302C46.8446 47.4446 47.372 46.9157 47.9685 46.9032C48.5967 46.8894 49.1062 47.3659 49.12 47.9805C49.1338 48.5937 48.5967 49.1337 47.9713 49.1351Z" fill="white"/>
</svg>
