<svg width="26" height="26" viewBox="0 0 26 26" fill="none" xmlns="http://www.w3.org/2000/svg">
<path fill-rule="evenodd" clip-rule="evenodd" d="M5 0H21C23.8 0 26 0.599988 26 1.29999V24.7C26 25.4 23.8 26 21 26H5C2.2 26 0 25.4 0 24.7V1.29999C0 0.599988 2.2 0 5 0Z" fill="#00A0E3"/>
<path d="M10.2984 13.6002H14.0984C14.8984 13.6002 15.5984 13.3002 16.0984 12.8002C16.5984 12.3002 16.8984 11.6002 16.8984 10.8002C16.8984 10.0002 16.5984 9.30017 16.0984 8.80017C15.5984 8.30017 14.8984 8.00018 14.0984 8.00018H10.2984V13.6002ZM9.49844 6.90015H14.0984C15.0984 6.90015 16.0984 7.30018 16.7984 8.00018C17.4984 8.70018 17.8984 9.60013 17.8984 10.7001C17.8984 11.8001 17.4984 12.7001 16.7984 13.4001C16.0984 14.1001 15.1984 14.5002 14.0984 14.5002H10.2984V19.2001H9.39844V7.00018L9.49844 6.90015Z" fill="#FEFEFE"/>
</svg>
