<svg width="144" height="22" viewBox="0 0 144 22" fill="none" xmlns="http://www.w3.org/2000/svg">
<g clip-path="url(#clip0_296_1108)">
<mask id="mask0_296_1108" style="mask-type:luminance" maskUnits="userSpaceOnUse" x="0" y="0" width="144" height="22">
<path d="M144 0H0V22H144V0Z" fill="white"/>
</mask>
<g mask="url(#mask0_296_1108)">
<path d="M32.1704 3.00012C40.0269 3.00012 40.5419 10.082 40.5419 10.082H35.7588C35.7588 10.082 35.5875 6.6275 32.1704 6.6275C29.1296 6.6275 28.0723 9.2531 28.0723 12.4994C28.0723 15.7457 29.1296 18.3726 32.1704 18.3726C35.5875 18.3726 35.7588 14.9181 35.7588 14.9181H40.5419C40.5419 14.9181 40.0295 22 32.1704 22C26.3611 22 23.2878 17.7519 23.2878 12.5007C23.2878 7.24953 26.3624 3.00143 32.1704 3.00143V3.00012Z" fill="white"/>
<path d="M64.5327 21.4775H59.7496V8.87067H59.5783L55.99 21.4775H51.5481L47.9597 8.87067H47.7885V21.4775H43.0054V3.51733H50.1794L53.7677 15.9513L57.3561 3.51733H64.5301V21.4775H64.5327Z" fill="white"/>
<path d="M67.6956 3.51733H72.4787V10.0794H74.5284C79.4815 10.0794 82.2149 12.3252 82.2149 15.7797C82.2149 19.2342 79.4815 21.4801 74.5284 21.4801H67.6969V3.51733H67.6956ZM72.4787 13.5339V18.0242H73.8447C76.4069 18.0242 77.4331 17.3328 77.4331 15.7784C77.4331 14.224 76.4069 13.5326 73.8447 13.5326H72.4787V13.5339ZM88.3654 21.4775H83.5823V3.51733H88.3654V21.4775Z" fill="white"/>
<path d="M98.2663 3.00012C106.123 3.00012 106.638 10.082 106.638 10.082H101.855C101.855 10.082 101.683 6.6275 98.2663 6.6275C95.2254 6.6275 94.1681 9.2531 94.1681 12.4994C94.1681 15.7457 95.2254 18.3726 98.2663 18.3726C101.683 18.3726 101.855 14.9181 101.855 14.9181H106.638C106.638 14.9181 106.125 22 98.2663 22C92.457 22 89.385 17.7519 89.385 12.5007C89.385 7.24953 92.4596 3.00143 98.2663 3.00143V3.00012Z" fill="white"/>
<path d="M135.457 3.00012C141.298 3.00012 143.997 7.24822 143.997 12.4994C143.997 12.9145 143.964 13.5366 143.964 13.5366H131.392C131.597 16.2983 132.759 18.3713 135.629 18.3713C138.498 18.3713 139.046 15.6095 139.046 15.6095H143.829C143.829 15.6095 142.803 21.9987 135.457 21.9987C129.478 21.9987 126.575 17.7506 126.575 12.4994C126.575 7.24822 129.616 3.00012 135.457 3.00012ZM131.528 10.4264H139.079C138.772 8.21726 137.816 6.6275 135.457 6.6275C133.099 6.6275 131.936 8.21596 131.528 10.4264Z" fill="white"/>
<path d="M107.427 21.5809V17.8016C108.078 17.926 108.579 17.9169 108.933 17.7768C109.284 17.6366 109.553 17.359 109.734 16.94C109.916 16.5222 110.074 15.9487 110.205 15.2245C110.383 14.2659 110.54 13.145 110.679 11.863C110.816 10.5809 110.934 9.22426 111.034 7.78902C111.132 6.3564 111.222 4.93164 111.299 3.51343H124.8V21.4762H120.017V8.34688H115.238C115.195 8.927 115.135 9.03831 115.065 9.83974C114.994 10.6425 114.917 11.4753 114.834 12.3396C114.751 13.2026 114.66 14.0289 114.56 14.8146C114.461 15.6003 114.355 16.2734 114.245 16.83C113.981 18.2456 113.589 19.36 113.071 20.1758C112.552 20.989 111.841 21.5115 110.937 21.7407C110.032 21.9685 108.863 21.9149 107.429 21.5809H107.425H107.427Z" fill="white"/>
<path d="M17.9468 10.5063H15.3924V7.9148H12.829V3.70468C11.7315 3.25027 10.4718 3.00147 9.05384 3.00147C3.21341 3.00016 0 7.24694 0 12.5008C0 17.7546 3.21341 21.9987 9.05513 21.9987C14.8969 21.9987 18.1103 17.7506 18.1103 12.5008C18.1103 11.8185 18.0558 11.1506 17.9468 10.5063ZM9.05254 18.3687C6.01038 18.3687 4.78184 15.7431 4.78184 12.4968C4.78184 9.25051 6.01038 6.6223 9.05254 6.6223C12.0947 6.6223 13.3219 9.24789 13.3219 12.4968C13.3219 15.7458 12.0947 18.3687 9.05254 18.3687Z" fill="white"/>
<path d="M21.792 0V7.76941H19.2273V5.17786H16.6638V0H21.792Z" fill="white"/>
</g>
</g>
<defs>
<clipPath id="clip0_296_1108">
<rect width="144" height="22" fill="white"/>
</clipPath>
</defs>
</svg>
