<svg width="1523" height="1125" viewBox="0 0 1523 1125" fill="none" xmlns="http://www.w3.org/2000/svg">
<path fill-rule="evenodd" clip-rule="evenodd" d="M975.91 917.79L984.05 922.48L1012.73 870.67L1018.19 870.32L1036.63 837.21L1014.5 825.36L982.62 884.91L975.91 917.79ZM875.55 265.47L946.88 330.54L1000.21 379.27L1101.7 436.99L1124.79 396.45L1205.18 439.48L1217.52 446.09L1150.29 571.68L1108.54 649.67L1112.35 651.93L1130.1 661.49L1282.5 389.18L1255.67 374.82L1348.07 202.21L1410.16 86.21L1424.78 50.56L1459.34 4H1448.2L1417.86 45.7L1405.25 78.44L1302.17 266.7L1245.35 243.25L1178.62 241L1025.4 265.43L989.45 279.92L973.21 290.23L967.02 270.12L932.48 269.09L923.2 222.94L874.73 228.1L877.05 255.94L867.6 259.15L786.36 194.6L760.11 220.45L755.42 222.89C757.64 225.81 759.05 229.69 759.29 234.5L744.22 250.73L747.42 304.72L764.67 333.48L760.07 360.32L740.9 350.35L715.21 319.29L657.28 325.89L654.63 326.19L660.98 405.69L612.27 403.6L418.6 432.57L419.18 454.31C419.18 454.31 426.43 455.47 426.43 459.82C426.43 464.17 413.96 463.88 405.56 465.33C397.15 466.78 384.1 469.09 383.23 465.33C382.36 461.56 378.59 438.94 378.01 431.7C377.43 424.45 383.81 391.11 383.81 391.11L363.52 384.73C363.52 384.73 362.07 378.94 360.33 376.33C358.59 373.72 351.05 368.21 348.16 364.15C345.26 360.09 340.62 360.67 338.88 365.02C337.14 369.37 340.91 372.27 341.78 376.33C342.65 380.39 349.02 382.7 349.02 382.7C349.02 382.7 347.58 389.66 347 393.14C346.42 396.62 343.94 400.8 343.94 400.8L356.98 414.76C356.98 414.76 360.37 457.3 363.04 464.41C365.71 471.52 383.78 470.93 389.41 474.78C395.04 478.63 390.15 512.27 390.15 512.27C390.15 512.27 403.19 509.31 409.11 514.64C415.04 519.97 399.34 530.05 399.34 530.05L401.71 554.04C401.71 554.04 434.29 551.97 433.11 557.01C431.93 562.04 424.22 597.3 422.15 602.04C420.07 606.78 410.3 605.89 397.26 606.78C384.23 607.67 389.86 615.37 383.63 620.4C377.41 625.44 376.82 644.7 376.82 644.7C376.82 644.7 370.9 651.51 369.41 645.29C367.93 639.07 355.49 637.29 355.49 637.29C355.49 637.29 359.05 657.73 361.42 666.32C363.79 674.92 354.9 675.81 344.82 676.69C334.75 677.58 324.68 650.03 320.53 644.4C316.38 638.77 330.01 636.7 329.42 631.07C328.83 625.44 303.05 609.15 305.42 619.52C307.79 629.89 302.16 642.33 296.54 643.81C290.91 645.29 268.98 624.55 268.98 624.55C268.98 624.55 282.02 615.66 282.02 611.22C282.02 606.78 276.69 610.63 275.2 607.96C273.72 605.3 274.91 583.37 278.46 581.89C282.02 580.41 278.17 573 283.5 565.6C288.83 558.19 288.54 553.45 295.35 549.01C302.16 544.56 309.27 533.01 309.87 527.68C310.46 522.34 303.35 507.83 303.35 507.83L281.13 506.64L278.17 501.01L261.58 499.83L256.84 487.68L214.23 509.25L244.18 539.72L230.16 558.41L223.02 579.64L228.69 633.89L235.28 696.96L300.07 698.13L433.15 681.76L447.16 680.04L445.99 640.35L451.83 606.49L442.87 527.1L437.82 467.14C437.82 467.14 437.44 448.69 461.27 442.54C485.11 436.39 568.15 425.62 568.15 425.62C568.15 425.62 608.89 419.85 616.97 421.39C625.04 422.93 636.96 434.85 646.57 434.85C649.19 434.85 657.99 434.08 669.4 432.95C687.27 431.19 711.54 428.57 728.53 426.71L768.56 382.81L870.27 271.27L875.55 265.47ZM245.38 798.01C224.38 800.81 195.53 784.56 193.95 761.41C193.95 761.41 191.99 744.4 189.32 720.23C186.74 696.86 183.49 666.79 180.69 638.91C178.11 613.1 175.91 589.17 175 574.13C174.7 569.31 174.54 565.4 174.54 562.64C174.54 534.42 204.91 508.21 209.02 504.79L196.99 494.5C196.99 494.5 167.53 541.31 165.51 542.66C163.5 544 160.14 557.44 160.59 562.59C161.03 567.75 153.64 569.31 153.64 569.31L157 597.76L147.37 599.56L160.81 669L152.05 671.65C152.21 672.11 152.35 672.56 152.47 673.01C159.76 699.46 181.01 774.91 181.78 789.56C182.55 804.21 181.78 837.37 186.41 846.62C191.03 855.87 200.28 871.29 184.86 887.48C169.44 903.67 128.58 918.32 127.81 925.26C127.04 932.2 125.97 932.5 129.8 938.63C133.63 944.77 134.78 956.27 130.95 963.17C127.11 970.07 96.8298 997.67 87.2498 1001.12C77.6598 1004.57 58.3198 1013.75 56.5698 1020.17C56.4298 1020.7 56.1998 1021.26 55.8998 1021.82C65.6798 1020.69 80.9898 1018.41 87.2798 1014.6C96.8698 1008.8 110.74 1000.72 125.12 979.79C139.5 958.85 160.43 932.11 174.06 925.8C182.51 921.89 192.67 917.29 211.34 913.39L211.22 902.89L235.08 884.33L253.65 880.79L250.24 846.69L245.38 798.01ZM75.0598 503.7C75.0598 503.7 93.5298 479.37 107.05 479.37C120.57 479.37 174.59 481.92 174.59 481.92L124.72 426.69L59.0198 478.32C59.0198 478.32 36.8898 535.3 40.2398 546.03C43.5998 556.76 64.6898 600.94 72.7398 607.07C77.6498 610.82 103.53 624.69 124.63 640.94L101.19 597.86C101.19 597.86 70.0998 587.05 67.8498 574.88C65.5998 562.72 75.0598 503.7 75.0598 503.7ZM974.09 313.23L982.09 302.04L1235.12 271.69L1287.98 298.35L1214.02 435.45L1120.66 386.29L1099.47 424.17L1003.41 370.51L986.27 352.47L999.35 338.49L974.09 313.23ZM1027.7 275.2L1179.79 250.3L1246.23 252.83L1295.84 273.58L1289.53 287.56L1238.13 262.54L997.68 290.48L991.89 289.52L1027.7 275.2Z" fill="#F24D44"/>
<path fill-rule="evenodd" clip-rule="evenodd" d="M418.6 432.57L643.34 417.59L660.98 405.69L654.63 326.19L657.28 325.89C654.94 305.17 652.56 284.11 650.26 263.63C641.88 266.17 635.66 268 635.66 268C635.66 268 627.32 283 620.32 284.67C613.32 286.33 606.65 280 598.65 278C590.65 276 583.65 278 578.31 282.33C572.98 286.67 574.31 293.67 563.64 292C552.97 290.34 537.63 279 518.96 281.67C500.29 284.33 495.62 290.67 487.29 286.67C478.95 282.67 467.73 251.92 464.88 250.82C462.03 249.73 448.43 245.12 446.9 242.71C445.37 240.3 449.97 222.1 454.14 218.59C458.3 215.09 466.63 212.02 467.29 207.85C467.95 203.69 465.31 186.18 454.78 186.18C444.25 186.18 398.65 199.77 391.64 199.33C384.62 198.89 376.51 201.09 359.41 179.38C342.31 157.67 321.64 104.67 323.94 98.54C326.24 92.4 345.8 78.21 366.89 78.21C366.89 78.21 342.46 78.1 329.33 78.1C316.2 78.1 303.46 73.85 268.32 73.85C233.18 73.85 210.78 64.97 183.75 44.12C163.14 28.21 161.84 11.19 162.38 4H4V1097.55C4 1074.17 16.66 1064.44 24.59 1058.71C32.52 1052.98 33.41 1043.72 37.38 1039.31C41.01 1035.27 52.63 1027.95 55.9 1021.82C56.2 1021.26 56.43 1020.7 56.57 1020.17C58.32 1013.75 77.66 1004.57 87.25 1001.12C96.83 997.67 127.11 970.07 130.95 963.17C134.78 956.27 133.63 944.77 129.8 938.63C125.97 932.5 127.04 932.2 127.81 925.26C128.58 918.32 169.44 903.67 184.86 887.48C200.28 871.29 191.03 855.87 186.41 846.62C181.78 837.37 182.55 804.21 181.78 789.56C181.01 774.91 159.76 699.46 152.47 673.01C152.35 672.56 152.21 672.11 152.05 671.65C148.63 661.71 137.52 650.88 124.63 640.94C103.53 624.69 77.65 610.82 72.74 607.07C64.69 600.94 43.6 556.76 40.24 546.03C36.89 535.3 59.02 478.32 59.02 478.32L124.72 426.69L174.59 481.92L189.8 478.37L196.9 486.99C196.9 486.99 200.96 482.43 210.08 482.43C219.2 482.43 228.33 481.41 236.45 474.82C244.56 468.23 254.7 460.12 262.31 460.12C269.92 460.12 275.49 460.62 282.08 453.53C288.67 446.43 296.28 436.8 299.83 429.7C303.38 422.6 311.99 393.7 317.06 389.64C322.13 385.59 328.22 382.04 331.77 386.09C335.32 390.15 343.94 400.8 343.94 400.8C343.94 400.8 346.42 396.62 347 393.14C347.58 389.66 349.02 382.7 349.02 382.7C349.02 382.7 342.65 380.39 341.78 376.33C340.91 372.27 337.14 369.37 338.88 365.02C340.62 360.67 345.26 360.09 348.16 364.15C351.05 368.21 358.59 373.72 360.33 376.33C362.07 378.94 363.52 384.73 363.52 384.73L383.81 391.11C383.81 391.11 377.43 424.45 378.01 431.7C378.59 438.94 382.36 461.56 383.23 465.33C384.1 469.09 397.15 466.78 405.56 465.33C413.96 463.88 426.43 464.16 426.43 459.82C426.43 455.48 419.18 454.31 419.18 454.31L418.6 432.57Z" fill="#F24D44" stroke="#F24D44" stroke-width="2" stroke-miterlimit="22.93"/>
<path fill-rule="evenodd" clip-rule="evenodd" d="M498.55 956.3C457.96 945.23 448.05 919.63 449.54 888.01C433.75 889.7 404.99 892.76 373.77 895.99L358.7 782.91L311.08 789.26L321.15 872.72L253.65 880.79L235.08 884.33L211.22 902.89L211.34 913.39C192.67 917.29 182.51 921.89 174.06 925.8C160.43 932.11 139.5 958.85 125.12 979.79C110.74 1000.72 96.87 1008.8 87.28 1014.6C80.99 1018.41 65.68 1020.69 55.9 1021.82C52.63 1027.95 41.01 1035.27 37.38 1039.31C33.41 1043.72 32.52 1052.98 24.59 1058.71C16.66 1064.44 4 1074.17 4 1097.55V1120.14H681.76L648.24 1086.36L565.69 1003.16L547.14 984.46L545.85 983.16C545.85 983.16 530.67 965.06 498.55 956.3ZM341.56 873.4L344.97 895.01L292.23 900.96L288.66 879.87L341.56 873.4Z" fill="#F24D44"/>
<path d="M211.34 913.39C222.75 911.01 237.35 908.89 256.68 907.36C281.26 905.41 329.95 900.53 373.77 895.99M211.34 913.39L211.22 902.89L235.08 884.33L253.65 880.79L321.15 872.72L311.08 789.26L358.7 782.91L373.77 895.99M211.34 913.39C192.67 917.29 182.51 921.89 174.06 925.8C160.43 932.11 139.5 958.85 125.12 979.79C110.74 1000.72 96.87 1008.8 87.28 1014.6C80.99 1018.41 65.68 1020.69 55.9 1021.82C52.63 1027.95 41.01 1035.27 37.38 1039.31C33.41 1043.72 32.52 1052.98 24.59 1058.71C16.66 1064.44 4 1074.17 4 1097.55V1120.14H681.76L648.24 1086.36L565.69 1003.16L547.14 984.46L545.85 983.16C545.85 983.16 530.67 965.06 498.55 956.3C457.96 945.23 448.05 919.63 449.54 888.01C433.75 889.7 404.99 892.76 373.77 895.99M341.56 873.4L344.97 895.01L292.23 900.96L288.66 879.87L341.56 873.4Z" stroke="#F24D44" stroke-width="8" stroke-miterlimit="22.93"/>
<path fill-rule="evenodd" clip-rule="evenodd" d="M896.67 1005.7L840.9 1059.58L796.66 1102.33L778.22 1120.14H1110.37L1129.8 1086.33L971.72 991.97L955.6 974.31C955.6 974.31 954.97 973.67 953.77 972.46L935.26 990.68L896.67 1005.7Z" fill="#F24D44" stroke="#F24D44" stroke-width="8" stroke-miterlimit="22.93"/>
<path fill-rule="evenodd" clip-rule="evenodd" d="M1110.31 1120.11L1186.45 1120.14H1518.22V390.15L1110.31 1120.11Z" fill="#F24D44" stroke="#F24D44" stroke-width="8" stroke-miterlimit="22.93"/>
<path fill-rule="evenodd" clip-rule="evenodd" d="M1129.81 1086.33L1518.22 390.15V301.04L1348.07 202.21L1255.67 374.82L1282.5 389.18L1130.1 661.49L1112.35 651.93L1108.54 649.67L1082.8 697.76L1024.76 806.19L1014.5 825.36L1036.63 837.21L1018.19 870.32L1012.73 870.67L984.05 922.48L975.91 917.79L968.39 954.65L953.77 972.46C954.97 973.67 955.6 974.31 955.6 974.31L971.72 991.97L1129.81 1086.33ZM1077.65 763.47L1040.52 833.81L1022.54 823.8L1035.35 798.13L1056.75 792.69L1055.73 785.39L1046.05 779.27L1058.62 757.19L1077.65 763.47Z" fill="#F24D44" stroke="#F24D44" stroke-width="8" stroke-miterlimit="22.93"/>
<path fill-rule="evenodd" clip-rule="evenodd" d="M1348.07 202.21L1518.22 301.04V4H1459.34L1424.78 50.56L1410.16 86.21L1348.07 202.21Z" fill="#F24D44" stroke="#F24D44" stroke-width="8" stroke-miterlimit="22.93"/>
<path fill-rule="evenodd" clip-rule="evenodd" d="M650.26 263.63C652.56 284.11 654.94 305.17 657.28 325.89L715.21 319.29L740.9 350.35L760.07 360.32L764.67 333.48L747.42 304.72L744.22 250.73L759.29 234.5C759.05 229.69 757.64 225.81 755.42 222.89C749.74 215.4 738.76 214.11 728.35 219.32C717.68 224.65 696.68 245.66 694.01 248.66C692.23 250.66 666.95 258.57 650.26 263.63Z" fill="#F24D44" stroke="#F24D44" stroke-width="2" stroke-miterlimit="22.93"/>
<path fill-rule="evenodd" clip-rule="evenodd" d="M568.77 666.67L624.5 660.54L691.87 653.14L677.28 502.27L676.44 502.36L442.87 527.1L451.83 606.49L445.99 640.35L447.16 680.04L568.77 666.67Z" fill="#E0292E" stroke="#F24D44" stroke-width="8" stroke-linecap="round" stroke-linejoin="round"/>
<path fill-rule="evenodd" clip-rule="evenodd" d="M646.57 434.85C636.96 434.85 625.04 422.93 616.97 421.39C608.89 419.85 568.15 425.62 568.15 425.62C568.15 425.62 485.11 436.39 461.27 442.54C437.44 448.69 437.82 467.14 437.82 467.14L442.87 527.1L676.44 502.36L677.28 502.27L802.14 489.05C802.14 489.05 798.85 456.36 793.81 437.54C788.76 418.71 748.83 424.47 748.83 424.47C748.83 424.47 740.48 425.4 728.53 426.71C711.54 428.57 687.27 431.19 669.4 432.95C657.99 434.08 649.19 434.85 646.57 434.85Z" fill="#E0292E"/>
<path d="M669.4 432.95C674 473.46 677.16 501.26 677.28 502.25V502.27M669.4 432.95C687.27 431.19 711.54 428.57 728.53 426.71C740.48 425.4 748.83 424.47 748.83 424.47C748.83 424.47 788.76 418.71 793.81 437.54C798.85 456.36 802.14 489.05 802.14 489.05L677.28 502.27M669.4 432.95C657.99 434.08 649.19 434.85 646.57 434.85C636.96 434.85 625.04 422.93 616.97 421.39C608.89 419.85 568.15 425.62 568.15 425.62C568.15 425.62 485.11 436.39 461.27 442.54C437.44 448.69 437.82 467.14 437.82 467.14L442.87 527.1L676.44 502.36L677.28 502.27" stroke="#F24D44" stroke-width="8" stroke-linecap="round" stroke-linejoin="round"/>
<path fill-rule="evenodd" clip-rule="evenodd" d="M802.14 489.05L677.28 502.27L691.87 653.14C691.87 653.14 695.58 692.12 700.19 703.75C704.8 715.39 706.77 721.31 713.36 728.11C714.28 729.07 719.69 734.58 728.31 743.35L792.12 667.22L829.46 622.66C828.08 621.58 827.19 619.89 827.19 618C827.19 615.58 828.63 613.51 830.71 612.59L814.5 595.45L802.14 489.05Z" fill="#E0292E" stroke="#F24D44" stroke-width="8" stroke-linecap="round" stroke-linejoin="round"/>
<path fill-rule="evenodd" clip-rule="evenodd" d="M748.83 424.47C748.83 424.47 788.76 418.71 793.81 437.54C798.85 456.36 802.14 489.05 802.14 489.05L880.43 403.31L946.88 330.54L875.55 265.47L728.53 426.71C740.48 425.4 748.83 424.47 748.83 424.47Z" fill="#E0292E" stroke="#F24D44" stroke-width="8" stroke-linecap="round" stroke-linejoin="round"/>
<path fill-rule="evenodd" clip-rule="evenodd" d="M880.43 403.31L802.14 489.05L814.5 595.45L830.71 612.59C831.44 612.26 832.25 612.08 833.11 612.08C836.37 612.08 839.02 614.73 839.02 618C839.02 618.91 838.81 619.78 838.44 620.55L930.53 622.27L943.84 622.51L987.49 646.15L1055.78 521.09L951.03 465.02L880.43 403.31Z" fill="#E0292E" stroke="#F24D44" stroke-width="8" stroke-linecap="round" stroke-linejoin="round"/>
<path fill-rule="evenodd" clip-rule="evenodd" d="M880.43 403.31L951.03 465.02L1055.78 521.09L1101.7 436.99L1000.21 379.27L946.88 330.54L880.43 403.31Z" fill="#E0292E" stroke="#F24D44" stroke-width="8" stroke-linecap="round" stroke-linejoin="round"/>
<path fill-rule="evenodd" clip-rule="evenodd" d="M1055.78 521.09L987.49 646.15L1082.8 697.76L1150.29 571.68L1055.78 521.09Z" fill="#E0292E" stroke="#F24D44" stroke-width="8" stroke-linecap="round" stroke-linejoin="round"/>
<path fill-rule="evenodd" clip-rule="evenodd" d="M1055.78 521.09L1150.29 571.68L1217.52 446.09L1205.18 439.48L1124.79 396.45L1101.7 436.99L1055.78 521.09Z" fill="#E0292E" stroke="#F24D44" stroke-width="8" stroke-linecap="round" stroke-linejoin="round"/>
<path fill-rule="evenodd" clip-rule="evenodd" d="M1082.8 697.76L987.49 646.15L939.49 734.06L927.86 755.35L1024.76 806.19L1082.8 697.76Z" fill="#E0292E" stroke="#F24D44" stroke-width="8" stroke-linecap="round" stroke-linejoin="round"/>
<path fill-rule="evenodd" clip-rule="evenodd" d="M939.49 734.06L987.49 646.15L943.84 622.51L930.53 622.27L882.06 704.17L939.49 734.06Z" fill="#E0292E" stroke="#F24D44" stroke-width="8" stroke-linecap="round" stroke-linejoin="round"/>
<path fill-rule="evenodd" clip-rule="evenodd" d="M939.49 734.06L882.06 704.17L867.27 729.17L852.47 754.17L900.63 805.22L927.86 755.35L939.49 734.06Z" fill="#E0292E" stroke="#F24D44" stroke-width="8" stroke-linecap="round" stroke-linejoin="round"/>
<path fill-rule="evenodd" clip-rule="evenodd" d="M882.06 704.17L930.53 622.27L838.44 620.55C837.49 622.54 835.46 623.91 833.11 623.91C831.73 623.91 830.47 623.45 829.46 622.66L792.12 667.22L867.27 729.17L882.06 704.17Z" fill="#E0292E" stroke="#F24D44" stroke-width="8" stroke-linecap="round" stroke-linejoin="round"/>
<path fill-rule="evenodd" clip-rule="evenodd" d="M867.27 729.17L792.12 667.22L728.31 743.35C740.61 755.86 759.46 775.02 781.14 797.06C805.85 822.17 834.25 851.02 860.86 878.06L900.63 805.22L852.47 754.17L867.27 729.17Z" fill="#E0292E" stroke="#F24D44" stroke-width="8" stroke-linecap="round" stroke-linejoin="round"/>
<path fill-rule="evenodd" clip-rule="evenodd" d="M927.86 755.35L900.63 805.22L860.86 878.06L860.09 879.46L791 947.64L770.7 986.92L840.9 1059.58L896.67 1005.7L935.26 990.68L953.77 972.46L968.39 954.65L982.62 884.91L1024.76 806.19L927.86 755.35Z" fill="#E0292E"/>
<path d="M953.77 972.46C944.97 963.51 905.42 923.34 860.86 878.06M953.77 972.46L935.26 990.68L896.67 1005.7L840.9 1059.58L770.7 986.92L791 947.64L860.09 879.46L860.86 878.06M953.77 972.46L968.39 954.65L982.62 884.91L1024.76 806.19L927.86 755.35L900.63 805.22L860.86 878.06" stroke="#F24D44" stroke-width="8" stroke-linecap="round" stroke-linejoin="round"/>
<path fill-rule="evenodd" clip-rule="evenodd" d="M840.9 1059.58L770.7 986.92L750.84 1009.43L733.5 1015C733.85 1015.84 734.04 1016.75 734.04 1017.71C734.04 1021.59 730.89 1024.74 727.01 1024.74C726.61 1024.74 726.22 1024.71 725.84 1024.64L796.66 1102.33L840.9 1059.58Z" fill="#E0292E" stroke="#F24D44" stroke-width="8" stroke-linecap="round" stroke-linejoin="round"/>
<path fill-rule="evenodd" clip-rule="evenodd" d="M796.66 1102.33L725.84 1024.64C723.39 1024.23 721.37 1022.56 720.48 1020.31L681.5 1055.94L648.24 1086.36L681.76 1120.14H778.22L796.66 1102.33Z" fill="#E0292E" stroke="#F24D44" stroke-width="8" stroke-linecap="round" stroke-linejoin="round"/>
<path fill-rule="evenodd" clip-rule="evenodd" d="M681.5 1055.94L597.31 972.91L565.69 1003.16L648.24 1086.36L681.5 1055.94Z" fill="#E0292E" stroke="#F24D44" stroke-width="8" stroke-linecap="round" stroke-linejoin="round"/>
<path fill-rule="evenodd" clip-rule="evenodd" d="M597.31 972.91L681.5 1055.94L720.48 1020.31C720.15 1019.51 719.98 1018.63 719.98 1017.71C719.98 1015.38 721.11 1013.31 722.86 1012.03L710.24 991.34L708.03 960.44L691.97 944.23L660.5 912.47L597.31 972.91Z" fill="#E0292E" stroke="#F24D44" stroke-width="8" stroke-linecap="round" stroke-linejoin="round"/>
<path fill-rule="evenodd" clip-rule="evenodd" d="M708.03 960.44L710.24 991.34L722.86 1012.03C724.02 1011.18 725.46 1010.68 727.01 1010.68C729.93 1010.68 732.44 1012.46 733.5 1015L750.84 1009.43L770.7 986.92L791 947.64C791 947.64 771.05 914 741.82 914C712.59 914 691.97 944.23 691.97 944.23L708.03 960.44Z" fill="#E0292E" stroke="#F24D44" stroke-width="8" stroke-linecap="round" stroke-linejoin="round"/>
<path fill-rule="evenodd" clip-rule="evenodd" d="M741.82 914C771.05 914 791 947.64 791 947.64L860.09 879.46L860.86 878.06C834.25 851.02 805.85 822.17 781.14 797.06L727.07 848.78L660.5 912.47L691.97 944.23C691.97 944.23 712.59 914 741.82 914Z" fill="#E0292E" stroke="#F24D44" stroke-width="8" stroke-linecap="round" stroke-linejoin="round"/>
<path fill-rule="evenodd" clip-rule="evenodd" d="M660.5 912.47L727.07 848.78L675.07 796.15L611.03 859.46L609.12 860.62L640.27 892.06L660.5 912.47Z" fill="#E0292E" stroke="#F24D44" stroke-width="8" stroke-linecap="round" stroke-linejoin="round"/>
<path fill-rule="evenodd" clip-rule="evenodd" d="M675.07 796.15L727.07 848.78L781.14 797.06C759.46 775.02 740.61 755.86 728.31 743.35L727.52 744.29L675.07 796.15Z" fill="#E0292E" stroke="#F24D44" stroke-width="8" stroke-linecap="round" stroke-linejoin="round"/>
<path fill-rule="evenodd" clip-rule="evenodd" d="M675.07 796.15L727.52 744.29L728.31 743.35C719.69 734.58 714.28 729.07 713.36 728.11C706.77 721.31 704.8 715.39 700.19 703.75C695.58 692.12 691.87 653.14 691.87 653.14L624.5 660.54L632.06 752.62L675.07 796.15Z" fill="#E0292E" stroke="#F24D44" stroke-width="8" stroke-linecap="round" stroke-linejoin="round"/>
<path fill-rule="evenodd" clip-rule="evenodd" d="M632.06 752.62L624.5 660.54L568.77 666.67C568.77 666.67 572.32 711.65 576.89 753.82C579.33 776.33 582.06 798.04 584.71 811.67C592.31 850.84 609.12 860.62 609.12 860.62L611.03 859.46L675.07 796.15L632.06 752.62Z" fill="#E0292E" stroke="#F24D44" stroke-width="8" stroke-linecap="round" stroke-linejoin="round"/>
<path fill-rule="evenodd" clip-rule="evenodd" d="M576.89 753.82C572.32 711.65 568.77 666.67 568.77 666.67L447.16 680.04L433.15 681.76L445.05 771.4L576.89 753.82Z" fill="#E0292E" stroke="#F24D44" stroke-width="8" stroke-linecap="round" stroke-linejoin="round"/>
<path fill-rule="evenodd" clip-rule="evenodd" d="M576.89 753.82L445.05 771.4L455.35 848.87C452.44 862.49 450.13 875.71 449.54 888.01C457.54 887.16 462.22 886.65 462.22 886.65L591.78 871.19L609.12 860.62C609.12 860.62 592.31 850.84 584.71 811.67C582.06 798.04 579.33 776.33 576.89 753.82Z" fill="#E0292E" stroke="#F24D44" stroke-width="8" stroke-linecap="round" stroke-linejoin="round"/>
<path fill-rule="evenodd" clip-rule="evenodd" d="M591.78 871.19L462.22 886.65C462.22 886.65 457.54 887.16 449.54 888.01C448.05 919.63 457.96 945.23 498.55 956.3C530.67 965.06 545.85 983.16 545.85 983.16L547.14 984.46L640.27 892.06L609.12 860.62L591.78 871.19Z" fill="#E0292E" stroke="#F24D44" stroke-width="8" stroke-linecap="round" stroke-linejoin="round"/>
<path fill-rule="evenodd" clip-rule="evenodd" d="M640.27 892.06L547.14 984.46L565.69 1003.16L597.31 972.91L660.5 912.47L640.27 892.06Z" fill="#E0292E" stroke="#F24D44" stroke-width="8" stroke-linecap="round" stroke-linejoin="round"/>
<path fill-rule="evenodd" clip-rule="evenodd" d="M449.54 888.01C450.13 875.71 452.44 862.49 455.35 848.87L445.05 771.4L358.7 782.91L373.77 895.99C404.99 892.76 433.75 889.7 449.54 888.01Z" fill="#E0292E" stroke="#F24D44" stroke-width="8" stroke-linecap="round" stroke-linejoin="round"/>
<path fill-rule="evenodd" clip-rule="evenodd" d="M358.7 782.91L445.05 771.4L433.15 681.76L300.07 698.13L311.08 789.26L358.7 782.91Z" fill="#E0292E" stroke="#F24D44" stroke-width="8" stroke-linecap="round" stroke-linejoin="round"/>
<path fill-rule="evenodd" clip-rule="evenodd" d="M311.08 789.26L300.07 698.13L235.28 696.96L237.13 715.45L245.38 798.01L311.08 789.26Z" fill="#E0292E" stroke="#F24D44" stroke-width="8" stroke-linecap="round" stroke-linejoin="round"/>
<path fill-rule="evenodd" clip-rule="evenodd" d="M311.08 789.26L245.38 798.01L250.24 846.69L253.65 880.79L321.15 872.72L311.08 789.26Z" fill="#E0292E" stroke="#F24D44" stroke-width="8" stroke-linecap="round" stroke-linejoin="round"/>
<path fill-rule="evenodd" clip-rule="evenodd" d="M321.15 872.72L253.65 880.79L235.08 884.33L211.22 902.89L211.34 913.39C222.75 911.01 237.35 908.89 256.68 907.36C281.26 905.41 329.95 900.53 373.77 895.99L358.7 782.91L311.08 789.26L321.15 872.72Z" fill="#E0292E" stroke="#F24D44" stroke-width="8" stroke-linecap="round" stroke-linejoin="round"/>
<path fill-rule="evenodd" clip-rule="evenodd" d="M245.38 798.01L237.13 715.45L189.32 720.23C191.99 744.4 193.95 761.41 193.95 761.41C195.53 784.56 224.38 800.81 245.38 798.01Z" fill="#E0292E" stroke="#F24D44" stroke-width="8" stroke-linecap="round" stroke-linejoin="round"/>
<path fill-rule="evenodd" clip-rule="evenodd" d="M189.32 720.23L237.13 715.45L235.28 696.96L228.69 633.89L180.69 638.91C183.49 666.79 186.74 696.86 189.32 720.23Z" fill="#E0292E" stroke="#F24D44" stroke-width="8" stroke-linecap="round" stroke-linejoin="round"/>
<path fill-rule="evenodd" clip-rule="evenodd" d="M180.69 638.91L228.69 633.89L223.02 579.64L175 574.13C175.91 589.17 178.11 613.1 180.69 638.91Z" fill="#E0292E" stroke="#F24D44" stroke-width="8" stroke-linecap="round" stroke-linejoin="round"/>
<path fill-rule="evenodd" clip-rule="evenodd" d="M175 574.13L223.02 579.64L230.16 558.41L244.18 539.72L209.48 504.41C209.48 504.41 174.54 532.36 174.54 562.64C174.54 565.4 174.7 569.31 175 574.13Z" fill="#E0292E" stroke="#F24D44" stroke-width="8" stroke-linecap="round" stroke-linejoin="round"/>
<path d="M844 1121.09L965.74 998.59L997.32 955.78L1509.13 4.93994" stroke="#E22B30" stroke-width="6" stroke-miterlimit="22.93" stroke-linecap="round"/>
<path d="M1287.86 519.7L1214.05 654.19L1142.44 701.09M1044.47 868.18C1042.77 871.27 1039.4 876.72 1040.36 884.86C1042.77 905.19 1056.85 935.96 1098.13 951.99C1155.97 974.45 1405.15 1121.09 1405.15 1121.09" stroke="#E22B30" stroke-width="6" stroke-miterlimit="22.93" stroke-linecap="round"/>
<path d="M1270.28 707.78C1270.28 707.78 1227.47 684.41 1185.18 695.32C1142.88 706.22 1125.65 730.5 1125.65 730.5" stroke="#E22B30" stroke-width="6" stroke-miterlimit="22.93" stroke-linecap="round"/>
<path d="M629.07 14.8901C629.07 14.8901 624.39 25.4101 624.98 36.5201C625.56 47.6301 669.65 435.09 669.65 435.09" stroke="#E0292E" stroke-width="8" stroke-miterlimit="22.93"/>
<path fill-rule="evenodd" clip-rule="evenodd" d="M562.23 141.48L601.63 84.32L609.74 87.79L618.24 75.43L613.21 68.09L630.21 43.37L604.33 23.29L589.65 27.15L554.89 71.18L525.92 109.04L562.23 141.48Z" fill="#F24D44"/>
<path fill-rule="evenodd" clip-rule="evenodd" d="M366.89 78.21C387.99 78.21 473.78 73.87 507.76 50.03C540.56 27.02 555.88 23.39 560.55 4H162.38C161.84 11.19 163.14 28.21 183.75 44.12C210.78 64.97 233.18 73.85 268.32 73.85C303.46 73.85 316.2 78.1 329.33 78.1C342.46 78.1 366.89 78.21 366.89 78.21Z" fill="#FB7E68"/>
<mask id="mask0_2009_427" style="mask-type:luminance" maskUnits="userSpaceOnUse" x="162" y="4" width="399" height="75">
<path d="M366.89 78.21C387.99 78.21 473.78 73.87 507.76 50.03C540.56 27.02 555.88 23.39 560.55 4H162.38C161.84 11.19 163.14 28.21 183.75 44.12C210.78 64.97 233.18 73.85 268.32 73.85C303.46 73.85 316.2 78.1 329.33 78.1C342.46 78.1 366.89 78.21 366.89 78.21Z" fill="white"/>
</mask>
<g mask="url(#mask0_2009_427)">
<path d="M166.27 -42.58H159.54V124.8H166.27V-42.58Z" fill="#F24D44"/>
<path d="M173 -42.58H166.27V124.8H173V-42.58Z" fill="#FB7E68"/>
<path d="M179.73 -42.58H173V124.8H179.73V-42.58Z" fill="#F24D44"/>
<path d="M186.46 -42.58H179.73V124.8H186.46V-42.58Z" fill="#FB7E68"/>
<path d="M193.19 -42.58H186.46V124.8H193.19V-42.58Z" fill="#F24D44"/>
<path d="M199.91 -42.58H193.18V124.8H199.91V-42.58Z" fill="#FB7E68"/>
<path d="M206.64 -42.58H199.91V124.8H206.64V-42.58Z" fill="#F24D44"/>
<path d="M213.37 -42.58H206.64V124.8H213.37V-42.58Z" fill="#FB7E68"/>
<path d="M220.1 -42.58H213.37V124.8H220.1V-42.58Z" fill="#F24D44"/>
<path d="M226.83 -42.58H220.1V124.8H226.83V-42.58Z" fill="#FB7E68"/>
<path d="M233.56 -42.58H226.83V124.8H233.56V-42.58Z" fill="#F24D44"/>
<path d="M240.29 -42.58H233.56V124.8H240.29V-42.58Z" fill="#FB7E68"/>
<path d="M247.02 -42.58H240.29V124.8H247.02V-42.58Z" fill="#F24D44"/>
<path d="M253.75 -42.58H247.02V124.8H253.75V-42.58Z" fill="#FB7E68"/>
<path d="M260.48 -42.58H253.75V124.8H260.48V-42.58Z" fill="#F24D44"/>
<path d="M267.21 -42.58H260.48V124.8H267.21V-42.58Z" fill="#FB7E68"/>
<path d="M273.94 -42.58H267.21V124.8H273.94V-42.58Z" fill="#F24D44"/>
<path d="M280.67 -42.58H273.94V124.8H280.67V-42.58Z" fill="#FB7E68"/>
<path d="M287.4 -42.58H280.67V124.8H287.4V-42.58Z" fill="#F24D44"/>
<path d="M294.13 -42.58H287.4V124.8H294.13V-42.58Z" fill="#FB7E68"/>
<path d="M300.86 -42.58H294.13V124.8H300.86V-42.58Z" fill="#F24D44"/>
<path d="M307.59 -42.58H300.86V124.8H307.59V-42.58Z" fill="#FB7E68"/>
<path d="M314.32 -42.58H307.59V124.8H314.32V-42.58Z" fill="#F24D44"/>
<path d="M321.05 -42.58H314.32V124.8H321.05V-42.58Z" fill="#FB7E68"/>
<path d="M327.77 -42.58H321.04V124.8H327.77V-42.58Z" fill="#F24D44"/>
<path d="M334.5 -42.58H327.77V124.8H334.5V-42.58Z" fill="#FB7E68"/>
<path d="M341.23 -42.58H334.5V124.8H341.23V-42.58Z" fill="#F24D44"/>
<path d="M347.96 -42.58H341.23V124.8H347.96V-42.58Z" fill="#FB7E68"/>
<path d="M354.69 -42.58H347.96V124.8H354.69V-42.58Z" fill="#F24D44"/>
<path d="M361.42 -42.58H354.69V124.8H361.42V-42.58Z" fill="#FB7E68"/>
<path d="M368.15 -42.58H361.42V124.8H368.15V-42.58Z" fill="#F24D44"/>
<path d="M374.88 -42.58H368.15V124.8H374.88V-42.58Z" fill="#FB7E68"/>
<path d="M381.61 -42.58H374.88V124.8H381.61V-42.58Z" fill="#F24D44"/>
<path d="M388.34 -42.58H381.61V124.8H388.34V-42.58Z" fill="#FB7E68"/>
<path d="M395.07 -42.58H388.34V124.8H395.07V-42.58Z" fill="#F24D44"/>
<path d="M401.8 -42.58H395.07V124.8H401.8V-42.58Z" fill="#FB7E68"/>
<path d="M408.53 -42.58H401.8V124.8H408.53V-42.58Z" fill="#F24D44"/>
<path d="M415.26 -42.58H408.53V124.8H415.26V-42.58Z" fill="#FB7E68"/>
<path d="M421.99 -42.58H415.26V124.8H421.99V-42.58Z" fill="#F24D44"/>
<path d="M428.72 -42.58H421.99V124.8H428.72V-42.58Z" fill="#FB7E68"/>
<path d="M435.45 -42.58H428.72V124.8H435.45V-42.58Z" fill="#F24D44"/>
<path d="M442.18 -42.58H435.45V124.8H442.18V-42.58Z" fill="#FB7E68"/>
<path d="M448.91 -42.58H442.18V124.8H448.91V-42.58Z" fill="#F24D44"/>
<path d="M455.63 -42.58H448.9V124.8H455.63V-42.58Z" fill="#FB7E68"/>
<path d="M462.36 -42.58H455.63V124.8H462.36V-42.58Z" fill="#F24D44"/>
<path d="M469.09 -42.58H462.36V124.8H469.09V-42.58Z" fill="#FB7E68"/>
<path d="M475.82 -42.58H469.09V124.8H475.82V-42.58Z" fill="#F24D44"/>
<path d="M482.55 -42.58H475.82V124.8H482.55V-42.58Z" fill="#FB7E68"/>
<path d="M489.28 -42.58H482.55V124.8H489.28V-42.58Z" fill="#F24D44"/>
<path d="M496.01 -42.58H489.28V124.8H496.01V-42.58Z" fill="#FB7E68"/>
<path d="M502.74 -42.58H496.01V124.8H502.74V-42.58Z" fill="#F24D44"/>
<path d="M509.47 -42.58H502.74V124.8H509.47V-42.58Z" fill="#FB7E68"/>
<path d="M516.2 -42.58H509.47V124.8H516.2V-42.58Z" fill="#F24D44"/>
<path d="M522.93 -42.58H516.2V124.8H522.93V-42.58Z" fill="#FB7E68"/>
<path d="M529.66 -42.58H522.93V124.8H529.66V-42.58Z" fill="#F24D44"/>
<path d="M536.39 -42.58H529.66V124.8H536.39V-42.58Z" fill="#FB7E68"/>
<path d="M543.12 -42.58H536.39V124.8H543.12V-42.58Z" fill="#F24D44"/>
<path d="M549.85 -42.58H543.12V124.8H549.85V-42.58Z" fill="#FB7E68"/>
<path d="M556.58 -42.58H549.85V124.8H556.58V-42.58Z" fill="#F24D44"/>
<path d="M563.31 -42.58H556.58V124.8H563.31V-42.58Z" fill="#FB7E68"/>
</g>
<path fill-rule="evenodd" clip-rule="evenodd" d="M601.63 84.32L562.23 141.48L525.92 109.04L554.89 71.18L589.65 27.15L604.33 23.29L630.21 43.37L613.21 68.09L618.24 75.43L609.74 87.79L601.63 84.32ZM1120.66 386.29L1214.02 435.45L1287.98 298.35L1235.12 271.69L982.09 302.04L974.09 313.23L999.35 338.49L986.27 352.47L1003.41 370.51L1099.47 424.17L1120.66 386.29ZM997.68 290.48L1238.13 262.54L1289.53 287.56L1295.84 273.58L1246.23 252.83L1179.79 250.3L1027.7 275.2L991.89 289.52L997.68 290.48ZM1025.4 265.43L1178.62 241L1245.35 243.25L1302.17 266.7L1405.25 78.44L1417.86 45.7L1448.2 4H560.55C555.88 23.39 540.56 27.02 507.76 50.03C473.78 73.87 387.99 78.21 366.89 78.21C345.79 78.21 326.24 92.4 323.94 98.54C321.64 104.67 342.31 157.67 359.41 179.38C376.51 201.09 384.62 198.89 391.64 199.33C398.65 199.77 444.26 186.18 454.78 186.18C465.3 186.18 467.95 203.69 467.29 207.85C466.63 212.02 458.3 215.09 454.14 218.59C449.97 222.1 445.37 240.3 446.9 242.71C448.43 245.12 462.03 249.73 464.88 250.82C467.73 251.92 478.95 282.67 487.29 286.67C495.62 290.67 500.29 284.33 518.96 281.67C537.63 279 552.97 290.34 563.64 292C574.31 293.67 572.98 286.67 578.31 282.33C583.65 278 590.65 276 598.65 278C606.65 280 613.32 286.33 620.32 284.67C627.32 283 635.66 268 635.66 268C635.66 268 641.88 266.17 650.26 263.63C666.95 258.57 692.23 250.66 694.01 248.66C696.68 245.66 717.68 224.65 728.35 219.32C738.76 214.11 749.74 215.4 755.42 222.89L760.11 220.45L786.36 194.6L867.6 259.15L877.05 255.94L874.73 228.1L923.2 222.94L932.48 269.09L967.02 270.12L973.21 290.23L989.45 279.92L1025.4 265.43ZM390.15 512.27C390.15 512.27 395.04 478.63 389.41 474.78C383.78 470.93 365.71 471.52 363.04 464.41C360.37 457.3 356.98 414.76 356.98 414.76L343.94 400.8C343.94 400.8 335.32 390.15 331.77 386.09C328.22 382.04 322.13 385.59 317.06 389.64C311.99 393.7 303.38 422.6 299.83 429.7C296.28 436.8 288.67 446.43 282.08 453.53C275.49 460.62 269.91 460.12 262.31 460.12C254.71 460.12 244.56 468.23 236.45 474.82C228.33 481.41 219.21 482.43 210.08 482.43C200.95 482.43 196.9 486.99 196.9 486.99L189.8 478.37L174.59 481.92C174.59 481.92 120.56 479.37 107.05 479.37C93.5399 479.37 75.0599 503.7 75.0599 503.7C75.0599 503.7 65.5999 562.72 67.8499 574.88C70.0999 587.05 101.19 597.86 101.19 597.86L124.63 640.94C137.52 650.88 148.63 661.71 152.05 671.65L160.81 669L147.37 599.56L157 597.76L153.64 569.31C153.64 569.31 161.03 567.75 160.59 562.59C160.14 557.44 163.5 544 165.51 542.66C167.53 541.31 196.99 494.5 196.99 494.5L209.02 504.79C209.32 504.54 209.48 504.41 209.48 504.41L214.23 509.25L256.84 487.68L261.58 499.83L278.17 501.01L281.13 506.64L303.35 507.83C303.35 507.83 310.46 522.34 309.87 527.68C309.27 533.01 302.16 544.56 295.35 549.01C288.54 553.45 288.83 558.19 283.5 565.6C278.17 573 282.02 580.41 278.46 581.89C274.91 583.37 273.72 605.3 275.2 607.96C276.69 610.63 282.02 606.78 282.02 611.22C282.02 615.66 268.98 624.55 268.98 624.55C268.98 624.55 290.91 645.29 296.54 643.81C302.16 642.33 307.79 629.89 305.42 619.52C303.05 609.15 328.83 625.44 329.42 631.07C330.01 636.7 316.38 638.77 320.53 644.4C324.68 650.03 334.75 677.58 344.82 676.69C354.9 675.81 363.79 674.92 361.42 666.32C359.05 657.73 355.49 637.29 355.49 637.29C355.49 637.29 367.93 639.07 369.41 645.29C370.9 651.51 376.82 644.7 376.82 644.7C376.82 644.7 377.41 625.44 383.63 620.4C389.86 615.37 384.23 607.67 397.26 606.78C410.3 605.89 420.07 606.78 422.15 602.04C424.22 597.3 431.93 562.04 433.11 557.01C434.29 551.97 401.71 554.04 401.71 554.04L399.34 530.05C399.34 530.05 415.04 519.97 409.11 514.64C403.19 509.31 390.15 512.27 390.15 512.27Z" fill="#FB7E68" stroke="#FB7E68" stroke-width="2" stroke-miterlimit="22.93"/>
<path fill-rule="evenodd" clip-rule="evenodd" d="M814.43 493.25L882.63 418.91L942.91 474.21L1015.15 513.32L976.26 591.89C976.26 591.89 933.86 578.88 924.2 583.92C914.54 588.95 902.37 588.11 902.37 593.15C902.37 598.19 882.63 592.73 882.63 592.73L875.5 606.59L852.82 608.27L850.3 597.77L863.32 580.56C863.32 580.56 848.21 570.48 845.27 570.48C842.33 570.48 846.53 538.15 839.39 534.79C832.25 531.43 819.14 526.39 819.14 526.39L814.43 493.25Z" fill="#FB7E68"/>
<path fill-rule="evenodd" clip-rule="evenodd" d="M712.77 716.06C713.28 715.16 721.76 707.45 721.76 707.45L736.37 720.8L726.75 731.55L712.77 716.06Z" fill="#FB7E68"/>
<path fill-rule="evenodd" clip-rule="evenodd" d="M889.29 743.17L897.83 726.77L922.99 739.13L912.43 758.45L889.29 743.17Z" fill="#FB7E68"/>
<path fill-rule="evenodd" clip-rule="evenodd" d="M1026.12 821.75L1038.93 796.08L1060.34 790.64L1059.32 783.34L1049.63 777.22L1062.21 755.14L1081.23 761.42L1044.11 831.75L1026.12 821.75Z" fill="#FB7E68"/>
<path fill-rule="evenodd" clip-rule="evenodd" d="M448.9 853.26L406.72 856.99L407.49 862.13L417.14 861.36L419.07 877.31L403.12 879.11L403.76 886.31L443.63 882.45C443.63 882.45 442.73 868.3 448.9 853.26Z" fill="#FB7E68"/>
<path fill-rule="evenodd" clip-rule="evenodd" d="M290.27 881.74L340.98 876.85L344.38 893.91L291.65 898.61L290.27 881.74Z" fill="#FB7E68"/>
<path fill-rule="evenodd" clip-rule="evenodd" d="M356.48 741.3L381.16 738.44L382.53 753.49L358.58 756.57L356.48 741.3Z" fill="#FB7E68"/>
<path fill-rule="evenodd" clip-rule="evenodd" d="M452.02 717.92L459.52 717.15L461.85 734.48L454.35 735.52L452.02 717.92Z" fill="#FB7E68"/>
<path fill-rule="evenodd" clip-rule="evenodd" d="M766.31 1017.22L780.01 1004.11L808.57 1032.09L800.94 1039.13L806.03 1044.61L793.9 1049.31L782.78 1042.27L769.44 1045L778.24 1034.83L769.05 1025.63L766.31 1017.22Z" fill="#FB7E68"/>
<path fill-rule="evenodd" clip-rule="evenodd" d="M847.22 394.33L864.58 404.47L933.8 332.09L875.32 280.37L789.09 378.04C790.01 382.95 789.74 386.99 787.26 389.82C784.79 392.65 779.6 401.31 783.66 403.79C787.72 406.27 806.42 408.75 809.81 413.26C813.19 417.77 817.02 422.95 822.65 420.47C828.29 417.99 847.22 394.33 847.22 394.33Z" fill="#FB7E68"/>
<path fill-rule="evenodd" clip-rule="evenodd" d="M695.93 603.54L715.81 602.04L733.85 581.66L731.85 565.46L780.96 561.78L783.96 582L802.67 595.36L792.32 606.88L813.2 625.26L775.28 670.36L762.25 660.68L755.4 667.86L748.55 662.01L755.73 654.49L735.35 637.79L732.51 609.73L695.43 613.57L694.6 603.64L695.93 603.54Z" fill="#FB7E68"/>
</svg>
