<svg width="26" height="26" viewBox="0 0 26 26" fill="none" xmlns="http://www.w3.org/2000/svg">
<path fill-rule="evenodd" clip-rule="evenodd" d="M5 0H21C23.8 0 26 0.599988 26 1.29999V24.7C26 25.4 23.8 26 21 26H5C2.2 26 0 25.4 0 24.7V1.29999C0 0.499988 2.2 0 5 0Z" fill="#EF7F1A"/>
<path d="M18.3981 11.7001H7.49805V10.9H18.3981V11.7001Z" fill="#FEFEFE"/>
<path d="M18.3981 15.7999H7.49805V14.9999H18.3981V15.7999Z" fill="#FEFEFE"/>
<path d="M12.5996 15.5999V11.2999H13.3996V15.5999H12.5996Z" fill="#FEFEFE"/>
<path d="M12.5996 8.00006V5.40002H13.3996V8.00006H12.5996Z" fill="#FEFEFE"/>
<path d="M15.5984 20.2001H10.1984V19.4H15.5984V20.2001ZM18.1984 16.9H18.9984V17.1V17.3V17.5001V17.7001V17.9V18.1L18.8985 18.3L18.7984 18.5001L18.6984 18.7001L18.5984 18.8L18.4984 18.9L18.3985 19.0001L18.2984 19.1L18.1984 19.2001L18.0984 19.3L17.9984 19.4L17.8985 19.5001L17.7984 19.6L17.6984 19.7001L17.5984 19.8L17.4984 19.9L17.1984 19.8L17.0984 19.9L16.9984 20.0001L16.8985 20.1L16.7984 20.2001L16.5984 20.3H16.3985H16.1984H15.9984H15.7984H15.5984V19.5001H15.6984H15.7984H15.8985H15.9984H16.0984H16.1984H16.2984L16.3985 19.4L16.4984 19.3L16.5984 19.2001L16.6984 19.1L16.7984 19.0001L16.8985 18.9L16.9984 18.8L17.0984 18.7001L17.1984 18.6L17.2984 18.5001L17.3985 18.4L17.4984 18.3L17.5984 18.2001L17.6984 18.1L17.7984 18.0001L17.8985 17.9L17.9984 17.8V17.7001V17.6V17.5001V17.4V17.3V17.2001V17.1L18.1984 16.9ZM18.9984 9.40002V16.9H18.1984V9.40002L18.5984 9.00006L18.9984 9.40002ZM18.5984 9.00006H18.9984V9.40002L18.5984 9.00006ZM17.8985 9.00006H18.5984V9.80005H17.8985L17.4984 9.40002L17.8985 9.00006ZM17.8985 9.80005H17.4984L17.5984 9.40002L17.8985 9.80005ZM18.3985 8.50006L18.2984 9.40002L17.4984 9.30005L17.5984 8.40002L18.0984 8.10004L18.3985 8.50006ZM18.0984 8.10004L18.4984 8.20007L18.3985 8.60004L18.0984 8.10004ZM8.19844 8.40002L7.39845 8.50006L7.69844 8.10004L7.99843 8.00006H8.29845L8.59843 7.90002H8.89845H9.19844H9.49843H9.79845H10.0984H10.3985H10.6984H11.0984H11.4984H11.8985H12.2984H12.6984H13.0984H13.4984H13.8985H14.2984H14.6984H15.0984H15.4984H15.7984H16.0984H16.3985H16.6984H16.9984H17.2984H17.5984H17.8985L18.1984 8.00006L18.4984 8.10004L18.2984 8.90002L18.0984 8.80005L17.7984 8.70007H17.4984H17.1984H16.8985H16.5984H16.2984H15.9984H15.6984H15.3985H15.0984H14.6984H14.3985H13.9984H13.5984H13.1984H12.7984H12.1984H11.7984H11.3985H11.0984H10.7984H10.4984H10.1984H9.89845H9.59843H9.29845H8.99843H8.69844H8.39845H8.09843L7.89845 8.80005L8.19844 8.40002ZM7.39845 8.50006L7.29845 8.10004L7.69844 8.00006L7.39845 8.50006ZM7.59843 9.40002L7.49843 8.50006L8.29845 8.40002L8.39845 9.30005L7.99843 9.70007L7.59843 9.40002ZM8.29845 9.30005L8.39845 9.70007H7.89845L8.29845 9.30005ZM7.29845 9.00006H7.89845V9.80005H7.29845L6.89844 9.40002L7.29845 9.00006ZM6.89844 9.40002V9.00006H7.29845L6.89844 9.40002ZM6.89844 16.9V9.40002H7.69844V16.9H6.89844ZM10.2984 19.5001V20.3H10.0984H9.89845H9.69844H9.49843H9.29845L9.09843 20.2001L8.99843 20.1L8.89845 20.0001L8.79845 19.9L8.69844 19.8L8.59843 19.7001L8.49843 19.6L8.39845 19.5001L8.29845 19.4L8.19844 19.3L8.09843 19.2001L7.99843 19.1L7.89845 19.0001L7.79845 18.9L7.69844 18.8L7.59843 18.7001L7.49843 18.6L7.39845 18.5001L7.29845 18.3L7.19844 18.1L7.09843 17.9L6.99844 17.7001V17.5001V17.3V17.1V16.9V16.7001H7.79845V16.8V16.9V17.0001V17.1V17.2001V17.3V17.4L7.89845 17.5001V17.6L7.99843 17.7001L8.09843 17.8L8.19844 17.9L8.29845 18.0001L8.39845 18.1L8.49843 18.2001L8.59843 18.3L8.69844 18.4L8.79845 18.5001L8.89845 18.6L8.99843 18.7001L9.09843 18.8L9.19844 18.9L9.29845 19.0001L9.39845 19.1L9.49843 19.2001H9.59843H9.69844H9.79845H9.89845H9.99843H10.0984L10.2984 19.5001Z" fill="#FEFEFE"/>
<path d="M18.3988 5.70001L18.2988 6.59998L17.4988 6.5L17.5988 5.59998L18.0988 5.29999L18.3988 5.70001ZM18.0988 5.29999L18.4988 5.39996L18.3988 5.79999L18.0988 5.29999ZM8.19882 5.59998L7.39883 5.70001L7.69882 5.29999L7.99881 5.20001L8.29883 5.09998H8.59882H8.89883H9.19882H9.49881H9.79883H10.0988H10.3988H10.6988H11.0988H11.4988H11.8988H12.2988H12.6988H13.0988H13.4988H13.8988H14.2988H14.6988H15.0988H15.4988H15.7988H16.0988H16.3988H16.6988H16.9988H17.2988H17.5988L17.8988 5.20001L18.1988 5.29999L18.4988 5.39996L18.2988 6.09998H18.0988L17.7988 6H17.4988H17.1988H16.8988H16.5988H16.2988H15.9988H15.6988H15.3988H15.0988H14.6988H14.3988H13.9988H13.5988H13.1988H12.7988H12.3988H11.9988H11.5988H11.2988H10.9988H10.6988H10.3988H10.0988H9.79883H9.49881H9.19882H8.89883H8.59882L8.29883 6.09998H8.09882L8.19882 5.59998ZM7.39883 5.70001L7.29883 5.29999L7.69882 5.20001L7.39883 5.70001ZM7.59882 6.70001L7.49881 5.79999L8.29883 5.70001L8.39883 6.59998L7.59882 6.70001Z" fill="#FEFEFE"/>
<path d="M9.99841 17.3998C9.99841 17.6998 9.79841 17.9998 9.49841 17.9998C9.19841 17.9998 8.89844 17.7998 8.89844 17.3998C8.89844 17.0998 9.09841 16.7998 9.49841 16.7998C9.79841 16.8998 9.99841 17.0998 9.99841 17.3998Z" fill="#FEFEFE"/>
<path d="M16.9984 17.3998C16.9984 17.6998 16.7984 17.9998 16.4984 17.9998C16.1984 17.9998 15.8984 17.7998 15.8984 17.3998C15.8984 17.0998 16.0984 16.7998 16.4984 16.7998C16.8984 16.7998 16.9984 17.0998 16.9984 17.3998Z" fill="#FEFEFE"/>
<path d="M8.79922 20.2001L6.49922 21.0001L6.19922 20.3L8.49921 19.5001H8.59921L8.79922 20.2001ZM17.1992 20.2001H8.59921V19.4H17.1992H17.2992L17.1992 20.2001ZM19.3992 21.0001L17.0992 20.2001L17.3992 19.5001L19.6992 20.3L19.3992 21.0001Z" fill="#FEFEFE"/>
</svg>
