<svg width="307" height="131" viewBox="0 0 307 131" fill="none" xmlns="http://www.w3.org/2000/svg">
<path d="M105.784 68.3203C105.832 68.2979 105.876 68.2883 105.921 68.2787C106.062 67.8267 106.203 67.3779 106.344 66.9291C101.357 68.596 96.6925 71.0066 91.9803 73.3178C91.0026 73.7986 90.0185 74.2635 89.0344 74.7283C89.5409 75.1578 90.0474 75.5841 90.5603 76.0041C93.0221 74.4045 95.6635 73.1928 98.3306 71.9715C100.85 70.8207 103.251 69.4455 105.78 68.3171L105.784 68.3203Z" fill="#C6B3FA"/>
<path d="M92.6538 77.6966C93.1667 78.1069 93.6796 78.5172 94.1925 78.9276C95.9427 78.1903 97.5872 77.235 99.3759 76.5587C100.911 75.9785 102.418 74.9943 104.053 74.7603C104.236 74.0519 104.421 73.3467 104.62 72.6447C102.78 73.555 100.812 74.2891 98.9527 75.1514C96.898 76.1035 94.8047 76.9818 92.6538 77.6966Z" fill="#C6B3FA"/>
<path d="M127.658 35.3927C123.001 33.3828 118.058 32.4051 113.112 31.405C107.829 30.3375 102.636 28.7796 97.4651 27.2666C86.9477 24.1924 76.4655 21.0285 65.8711 18.2301C61.9699 17.1979 58.0623 16.1913 54.1547 15.188C52.6289 16.0471 51.0485 16.826 49.4329 17.3774C49.0547 17.5056 48.8078 16.8902 49.1701 16.7267C50.3401 16.201 51.414 15.4861 52.4814 14.7585C52.0455 14.6463 51.6095 14.5341 51.1735 14.4219C50.3048 14.861 49.4425 15.3002 48.6347 15.8003C48.2244 16.0535 47.891 15.422 48.2757 15.1591C48.7918 14.8033 49.3175 14.4411 49.8528 14.0853C44.5412 12.7293 39.2264 11.3766 33.918 9.99497C28.8211 8.66787 23.7659 7.19972 18.7492 5.59693C14.1685 4.13199 9.39858 2.08042 4.55176 1.73743C10.6776 3.08697 18.762 7.4177 25.061 10.7643C32.687 14.8194 40.3868 18.7558 48.1218 22.6057C48.8623 22.4037 49.7631 22.4422 50.5068 22.4262C50.7985 22.4198 50.8145 22.8461 50.526 22.8749C50.0965 22.923 49.6637 22.9807 49.2374 23.0416C49.1797 23.0513 49.1188 23.0609 49.0611 23.0705C49.4778 23.2789 49.8977 23.484 50.3144 23.6892C51.1992 23.6218 52.0775 23.5064 52.9398 23.2564C53.2475 23.1667 53.4014 23.6379 53.0937 23.7308C52.4782 23.9168 51.8595 24.045 51.2377 24.1444C51.5967 24.3239 51.9557 24.5002 52.3179 24.6797C53.754 24.545 55.1933 24.4104 56.6326 24.3078C56.8666 24.2918 56.8762 24.638 56.6487 24.6669C55.5299 24.8143 54.4144 25.0163 53.2924 25.1573C53.6547 25.3368 54.0169 25.5163 54.3791 25.6959C54.5746 25.792 54.7702 25.8882 54.9657 25.9844C57.0654 25.7215 59.1426 25.3464 61.2422 25.0708C61.4794 25.0387 61.4891 25.4009 61.2583 25.4394C59.4631 25.7343 57.6776 26.1927 55.8665 26.4299C56.4884 26.7345 57.1135 27.0422 57.7353 27.3467C59.8702 26.8627 62.1109 26.6735 64.2651 26.3209C64.4766 26.2857 64.544 26.6511 64.3324 26.6928C62.4539 27.055 60.5434 27.5006 58.6329 27.7891C59.1105 28.0231 59.585 28.2571 60.0626 28.4911C62.6783 28.1289 65.2748 27.6673 67.8778 27.2281C68.1631 27.18 68.1791 27.6288 67.897 27.6769C65.5762 28.0776 63.2714 28.5809 60.9441 28.9239C61.4955 29.1963 62.05 29.4656 62.6014 29.7381C65.5986 29.2733 68.6022 28.9431 71.5385 28.1481C71.8494 28.0648 72.0033 28.536 71.6924 28.6225C69.035 29.3694 66.3102 29.815 63.5855 30.2221C64.2747 30.5587 64.9607 30.8985 65.6499 31.2351C68.9644 30.5747 72.2726 29.6579 75.6256 29.2893C75.8596 29.2636 75.866 29.6131 75.6416 29.6483C72.5996 30.1291 69.6601 31.094 66.6468 31.7223C67.3264 32.0557 68.0092 32.3891 68.6888 32.7225C68.7112 32.7064 68.7304 32.6904 68.7593 32.684C70.564 32.1166 72.497 31.8537 74.3402 31.405C76.084 30.9786 77.7958 30.6196 79.5973 30.6004C79.8281 30.6004 79.8473 30.9498 79.6133 30.9594C76.1641 31.1165 72.8881 32.4756 69.503 33.1231C70.0864 33.4084 70.673 33.6937 71.2596 33.979C75.2185 33.386 79.2447 32.2384 83.242 32.0236C83.335 32.0172 83.3606 32.1583 83.2709 32.1871C79.7832 33.2706 75.9878 34.0464 72.3239 34.4983C73.1958 34.9215 74.0709 35.3446 74.946 35.7677C78.9434 34.9952 82.9856 34.5015 86.9797 33.6873C87.1496 33.6521 87.2394 33.8957 87.0663 33.9502C83.5273 35.0978 79.6903 35.8415 75.959 36.2582C76.7732 36.6493 77.5874 37.0404 78.4016 37.4314C82.2195 36.7999 86.0084 35.9889 89.8551 35.5466C89.9641 35.5337 89.9962 35.7164 89.8904 35.7357C86.3835 36.4185 82.9151 37.2551 79.405 37.9123C80.0814 38.236 80.7577 38.5566 81.4341 38.8771C83.21 38.563 84.957 38.1078 86.7489 37.8546C88.7813 37.5693 90.8168 37.3545 92.7978 36.7903C92.9453 36.7487 93.0158 36.9666 92.8716 37.0147C90.8809 37.7007 88.8518 38.0854 86.7778 38.422C85.3032 38.6592 83.8607 39.0342 82.4022 39.3323C83.3478 39.7779 84.2903 40.2235 85.2391 40.6658C88.5985 40.0985 91.9868 39.5631 95.3142 38.9252C95.5162 38.8868 95.6188 39.1689 95.4136 39.2362C93.2691 39.9318 90.9162 40.092 88.7043 40.5216C87.8324 40.6915 86.9637 40.8806 86.095 41.0665C95.3527 45.3844 104.697 49.51 114.233 53.2317C114.339 53.2733 114.426 53.3278 114.509 53.3887C118.526 47.0578 124.975 42.3808 128.001 35.4792C127.892 35.4664 127.78 35.444 127.662 35.3927H127.658ZM106.569 48.8753C107.685 47.4841 108.653 45.9775 109.813 44.6119C109.983 44.4132 110.336 44.692 110.172 44.9004C109.531 45.721 108.967 46.593 108.345 47.4264C107.88 48.0483 107.537 48.7599 107.018 49.3401C106.736 49.6575 106.316 49.1927 106.569 48.8753ZM107.874 49.6735C108.566 48.1348 110.012 46.8045 111.082 45.5223C111.419 45.1184 112.291 43.647 112.887 43.5541C112.929 43.5477 112.954 43.5829 112.938 43.6214C111.881 45.9999 109.598 47.7149 108.454 50.0229C108.258 50.4172 107.704 50.0614 107.88 49.6735H107.874ZM108.928 49.9203C109.582 48.5836 110.861 47.42 111.868 46.3461C113.102 45.0286 114.407 43.8009 115.766 42.6148C115.993 42.4161 116.314 42.7399 116.093 42.9546C114.801 44.2048 113.506 45.4678 112.329 46.8302C111.387 47.9265 110.233 49.0292 109.537 50.2954C109.313 50.7025 108.726 50.3306 108.928 49.9235V49.9203ZM110.602 50.9012C112.012 48.9426 113.394 47.0289 115.016 45.237C115.984 44.1663 117.407 42.1276 118.866 41.7621C118.958 41.7397 119.042 41.8679 118.962 41.9321C115.868 44.3683 113.535 48.138 111.275 51.3115C110.983 51.7219 110.31 51.3147 110.605 50.9044L110.602 50.9012ZM111.954 51.2827C114.41 47.2886 117.939 43.9259 121.263 40.6723C121.452 40.4863 121.725 40.7748 121.549 40.9672C118.414 44.349 115.08 47.7662 112.583 51.6642C112.326 52.0616 111.704 51.6866 111.954 51.2827ZM124.023 39.8933C122.815 42.025 120.834 43.6406 119.247 45.4902C117.426 47.6155 115.519 50.0197 114.102 52.4463C113.858 52.863 113.221 52.4752 113.461 52.0584C114.641 50.0293 116.208 47.9842 117.734 46.1891C119.609 43.9804 122.065 42.0859 123.664 39.6785C123.812 39.4541 124.152 39.6593 124.02 39.8933H124.023Z" fill="#C6B3FA"/>
<path d="M103.985 65.6085C100.536 64.0441 97.308 61.8163 94.2563 59.6525C89.9224 56.5752 85.5276 53.5812 81.0398 50.7282C72.4617 45.2723 63.4797 40.6755 54.6227 35.7133C45.5606 30.6357 36.8094 25.0484 28.1832 19.2656C20.3488 14.0116 12.2771 8.95325 4.62866 3.41724C9.03311 9.98224 13.9697 16.1786 18.0792 22.9359C22.7594 30.6293 27.5004 38.2906 31.9561 46.1154C36.165 53.5074 40.4733 60.954 44.1597 68.6217C45.942 72.3273 47.3781 76.1067 48.7501 79.9758C49.9842 83.4507 50.8305 87.105 52.7026 90.3106C55.9338 87.932 59.649 86.31 63.2906 84.6431C68.0316 82.473 72.7245 80.1778 77.4431 77.9499C82.447 75.5874 87.499 73.3211 92.4516 70.8528C96.2342 68.9647 100.026 67.0894 103.985 65.6085ZM25.5931 19.865C19.791 16.7941 14.8801 12.4217 9.38572 8.8699C8.76705 8.46921 9.36008 7.48831 9.98196 7.89221C15.4507 11.4568 20.243 16.1081 25.8848 19.3874C26.1989 19.5701 25.9104 20.0349 25.5931 19.8682V19.865ZM84.3992 72.9011C87.4189 71.3977 90.5154 70.0514 93.5223 68.5223C95.5899 67.4709 97.5709 66.2207 99.7058 65.3103C94.641 62.8869 90.4706 58.8832 85.8898 55.7321C85.627 55.5526 85.861 55.1775 86.143 55.3154C91.5604 57.9375 95.7822 62.7491 101.482 64.9481C102.116 65.1917 101.815 66.2207 101.18 65.9675C101.075 65.9258 100.972 65.8777 100.866 65.8329C100.812 65.9739 100.703 66.0989 100.526 66.163C97.7312 67.192 95.1667 68.8525 92.4516 70.077C89.8615 71.2471 87.2233 72.3145 84.5787 73.3499C84.3191 73.4525 84.1524 73.0229 84.3992 72.9011Z" fill="#C6B3FA"/>
<path d="M94.6123 79.2738C95.1124 79.6777 95.6092 80.0816 96.1029 80.4951C96.1221 80.5111 96.1382 80.5271 96.1574 80.5432C98.6 79.7033 101.059 78.5782 103.408 77.4818C103.517 76.9786 103.633 76.4721 103.755 75.9688C102.155 76.3823 100.498 77.1998 98.9623 77.7191C97.5069 78.2095 96.0805 78.8154 94.6155 79.2738H94.6123Z" fill="#C6B3FA"/>
<path d="M90.9485 76.3183C91.4037 76.6901 91.8621 77.0587 92.3205 77.4274C96.6352 75.7284 100.838 73.3787 104.957 71.2567C104.982 71.2438 105.005 71.2374 105.031 71.2278C105.188 70.6925 105.348 70.1572 105.511 69.625C103.021 70.7887 100.616 72.1254 98.0681 73.1608C95.6639 74.1385 93.2469 75.0969 90.9549 76.3183H90.9485Z" fill="#C6B3FA"/>
<path d="M113.631 55.2705C103.694 51.9623 94.0994 47.3655 84.6846 42.82C74.9974 38.1399 65.339 33.3732 55.7255 28.5424C45.8235 23.5642 35.9984 18.4321 26.2856 13.0948C22.6793 11.1106 18.5441 9.61677 14.9956 7.53635C12.1907 5.8919 9.73844 4.33719 6.68994 3.12549C14.3769 7.60687 21.6792 12.9025 29.1289 17.7236C37.6076 23.2148 46.1441 28.6546 54.9786 33.5559C63.8516 38.4797 72.8817 43.0028 81.479 48.4202C85.97 51.2507 90.3937 54.187 94.7341 57.2419C98.4429 59.8512 102.415 62.7202 106.713 64.2461C106.957 64.3326 107.136 64.4736 107.261 64.6435C108.076 64.8583 108.271 66.2463 107.29 66.615C106.668 69.8526 106.13 73.0902 105.623 76.331C106.518 74.4205 107.419 72.5228 108.249 70.6219C110.432 65.6277 112.474 60.6334 114.051 55.4179C114.028 55.3891 114.009 55.3602 113.99 55.3314C113.878 55.3314 113.759 55.3185 113.631 55.2737V55.2705Z" fill="#C6B3FA"/>
<path d="M96.7854 81.1105C97.2662 81.5657 97.715 82.0466 98.1606 82.5338C99.7185 81.8703 101.264 81.1779 102.825 80.5143C102.918 79.9501 103.02 79.386 103.129 78.8218C102.097 79.2257 101.033 79.5655 100.004 79.979C98.946 80.4053 97.8913 80.8413 96.7854 81.1105Z" fill="#C6B3FA"/>
<path d="M101.668 85.8099C101.866 85.2105 102.075 84.6142 102.296 84.0212C101.68 84.3385 101.027 84.6078 100.366 84.8065C100.77 85.1688 101.206 85.5022 101.668 85.8067V85.8099Z" fill="#C6B3FA"/>
<path d="M98.7346 83.1589C99.0616 83.5147 99.3886 83.8673 99.7283 84.2071C100.712 83.8192 101.575 83.239 102.504 82.7293C102.543 82.4184 102.585 82.1107 102.626 81.7997C102.046 82.0273 101.431 82.1876 100.86 82.3959C100.151 82.6556 99.4463 82.9185 98.7346 83.1557V83.1589Z" fill="#C6B3FA"/>
<path d="M103.168 87.5473C103.553 87.5665 103.925 87.3774 103.998 86.9126C104.107 86.217 104.216 85.5214 104.322 84.8258C106.108 80.5207 107.765 76.1451 109.56 71.8464C111.727 66.6598 113.753 61.329 114.961 55.825C115.208 55.7993 115.442 55.6647 115.606 55.3762C119.882 47.8624 127.524 42.6437 130.027 34.0912C130.265 33.2866 129.143 32.8379 128.774 33.4918C128.659 33.3572 128.511 33.2418 128.319 33.1584C123.658 31.1613 118.709 30.1901 113.759 29.2124C108.47 28.1673 103.277 26.6094 98.1 25.1188C87.2908 22.0062 76.5201 18.8007 65.6276 15.983C62.6368 15.2104 59.646 14.4539 56.6488 13.7006C56.8027 13.6044 56.9565 13.5083 57.1104 13.4121C57.7772 12.9922 57.2258 12.0818 56.527 12.3703C55.934 12.6139 55.3698 12.9153 54.8184 13.2422C54.4979 13.1621 54.1773 13.0819 53.86 13.005C54.5331 12.6107 55.1775 12.1876 55.7673 11.7036C56.2289 11.3221 55.6615 10.6489 55.1678 10.899C54.1677 11.4054 53.1676 11.9792 52.1803 12.5883C45.9967 11.056 39.81 9.54941 33.62 8.04279C28.5103 6.79582 23.4519 5.3437 18.3936 3.91722C13.7102 2.59653 8.57491 0.496877 3.63192 1.16684C3.51652 1.18287 3.45882 1.25661 3.43959 1.34636C3.25687 1.33354 3.103 1.42008 3.00363 1.55151C2.72795 1.62204 2.50997 1.91695 2.67346 2.26636C6.12265 9.73533 11.9408 15.9798 16.1304 23.0288C20.7304 30.7767 25.3977 38.4861 29.8567 46.3141C34.0816 53.7285 38.2745 61.2392 42.0475 68.8941C44.0157 72.885 45.5255 77.0042 46.9936 81.1938C48.231 84.72 49.0741 88.3839 51.0134 91.6151C51.0295 91.6376 51.0455 91.6568 51.0615 91.6793C50.7249 92.221 51.5135 92.9166 52.0905 92.4486C55.6455 89.57 59.973 87.9095 64.1402 86.1464C68.6825 84.2231 73.1318 82.0241 77.6196 79.9693C81.072 78.389 84.5437 76.8407 87.9832 75.2347C89.929 77.7222 92.4614 79.6648 94.8047 81.7548C97.0101 83.723 98.4847 86.3388 101.152 87.7813C101.27 87.8454 101.386 87.8775 101.498 87.8967C101.934 88.3294 102.831 88.2878 103.171 87.5505L103.168 87.5473ZM108.249 70.6187C107.419 72.5164 106.518 74.4173 105.623 76.3278C106.13 73.0838 106.668 69.8461 107.29 66.6117C108.271 66.2463 108.076 64.8583 107.262 64.6403C107.137 64.4704 106.957 64.3293 106.713 64.2428C102.418 62.7169 98.4462 59.848 94.7342 57.2386C90.3938 54.1837 85.9701 51.2474 81.4791 48.4169C72.8818 42.9995 63.8517 38.4764 54.9787 33.5527C46.141 28.6514 37.6077 23.2083 29.129 17.7204C21.6793 12.896 14.3802 7.60362 6.69003 3.12224C9.73853 4.33394 12.194 5.88865 14.9957 7.5331C18.5442 9.61352 22.6794 11.1105 26.2857 13.0916C35.9985 18.432 45.8236 23.5609 55.7256 28.5392C65.3391 33.3732 74.9943 38.1367 84.6847 42.8168C94.0995 47.3655 103.697 51.9623 113.631 55.2672C113.759 55.3089 113.878 55.3249 113.99 55.3249C114.009 55.3538 114.028 55.3826 114.051 55.4115C112.471 60.6269 110.429 65.6244 108.249 70.6155V70.6187ZM18.7494 5.60015C23.7661 7.20293 28.8213 8.67429 33.9181 9.99819C39.2266 11.3798 44.5382 12.7293 49.853 14.0885C49.3177 14.4475 48.792 14.8065 48.2759 15.1624C47.8944 15.4284 48.2278 16.0567 48.6349 15.8035C49.4395 15.3066 50.3018 14.8642 51.1737 14.4251C51.6097 14.5373 52.0456 14.6495 52.4816 14.7617C51.4141 15.4861 50.3403 16.201 49.1702 16.7299C48.8048 16.8934 49.0516 17.5088 49.4331 17.3806C51.0455 16.8325 52.629 16.0503 54.1549 15.1912C58.0625 16.1945 61.9701 17.2011 65.8712 18.2333C76.4656 21.035 86.9478 24.1956 97.4653 27.2698C102.636 28.7796 107.829 30.3375 113.112 31.4082C118.058 32.4083 123.004 33.386 127.659 35.3959C127.78 35.4472 127.889 35.4696 127.998 35.4824C124.969 42.384 118.523 47.061 114.506 53.392C114.426 53.3311 114.336 53.2766 114.23 53.2349C104.694 49.51 95.3496 45.3877 86.092 41.0698C86.9607 40.8838 87.8294 40.6915 88.7013 40.5248C90.9163 40.0953 93.266 39.935 95.4105 39.2394C95.6157 39.1721 95.5099 38.89 95.3112 38.9284C91.9806 39.5663 88.5955 40.1049 85.2361 40.6691C84.2904 40.2267 83.3448 39.7811 82.3991 39.3355C83.8577 39.0374 85.3034 38.6624 86.7747 38.4252C88.8487 38.0886 90.8779 37.7039 92.8685 37.0179C93.0128 36.9698 92.9423 36.7518 92.7948 36.7935C90.8138 37.3545 88.7782 37.5693 86.7459 37.8578C84.954 38.111 83.2069 38.5662 81.4311 38.8803C80.7547 38.5598 80.0783 38.2392 79.4019 37.9155C82.912 37.2583 86.3805 36.4249 89.8874 35.7389C89.9963 35.7165 89.9611 35.537 89.8521 35.5498C86.0054 35.9921 82.2164 36.8031 78.3986 37.4346C77.5844 37.0436 76.7702 36.6557 75.9559 36.2614C79.684 35.8479 83.5243 35.101 87.0632 33.9534C87.2364 33.8957 87.1498 33.6553 86.9767 33.6905C82.9826 34.508 78.9371 34.9984 74.943 35.771C74.0679 35.3478 73.196 34.9247 72.3208 34.5015C75.988 34.0496 79.7802 33.2738 83.2678 32.1903C83.3576 32.1615 83.332 32.0236 83.239 32.0268C79.2417 32.2416 75.2155 33.386 71.2566 33.9822C70.6732 33.697 70.0866 33.4149 69.4999 33.1264C72.8818 32.4788 76.1611 31.1197 79.6103 30.9626C79.8443 30.953 79.8251 30.6004 79.5943 30.6036C77.7895 30.626 76.081 30.9818 74.3371 31.4082C72.4939 31.8602 70.561 32.123 68.7562 32.6872C68.7274 32.6968 68.7082 32.7128 68.6857 32.7257C68.0061 32.3923 67.3234 32.0589 66.6438 31.7255C69.6602 31.0972 72.5965 30.1324 75.6386 29.6515C75.863 29.6163 75.8566 29.2669 75.6226 29.2925C72.2728 29.6611 68.9614 30.5779 65.6468 31.2383C64.9576 30.9017 64.2717 30.5619 63.5825 30.2253C66.3104 29.8182 69.0351 29.3758 71.6893 28.6257C72.0003 28.5392 71.8464 28.068 71.5355 28.1513C68.5992 28.9463 65.5956 29.2765 62.5984 29.7413C62.047 29.4688 61.4924 29.1995 60.9411 28.9271C63.2715 28.5841 65.5763 28.0808 67.8939 27.6801C68.176 27.632 68.16 27.18 67.8747 27.2313C65.2718 27.6705 62.6753 28.1353 60.0595 28.4943C59.5819 28.2603 59.1075 28.0263 58.6299 27.7923C60.5372 27.507 62.4477 27.0582 64.3294 26.696C64.5409 26.6543 64.4736 26.2889 64.262 26.3241C62.1079 26.6768 59.8672 26.8659 57.7323 27.3499C57.1104 27.0422 56.4853 26.7377 55.8634 26.4331C57.6714 26.1991 59.4569 25.7375 61.2552 25.4426C61.4828 25.4041 61.4764 25.0451 61.2392 25.074C59.1427 25.3496 57.0623 25.7247 54.9627 25.9876C54.7671 25.8914 54.5716 25.7952 54.3761 25.6991C54.0138 25.5227 53.6516 25.34 53.2894 25.1605C54.4113 25.0195 55.5301 24.8175 56.6456 24.6701C56.8732 24.6412 56.8636 24.2918 56.6296 24.311C55.1903 24.4104 53.7542 24.5451 52.3149 24.6829C51.9559 24.5066 51.5968 24.3271 51.2346 24.1476C51.8597 24.0482 52.4784 23.9168 53.0906 23.734C53.3984 23.6411 53.2445 23.1699 52.9368 23.2596C52.0777 23.5129 51.1961 23.6251 50.3114 23.6924C49.8947 23.484 49.4748 23.2789 49.058 23.0737C49.1157 23.0641 49.1766 23.0513 49.2343 23.0448C49.6639 22.9839 50.0934 22.9262 50.523 22.8782C50.8115 22.8461 50.7954 22.4198 50.5037 22.4294C49.76 22.4454 48.8593 22.4069 48.1188 22.6089C40.3838 18.7558 32.684 14.8194 25.0579 10.7675C18.759 7.42091 10.6713 3.09018 4.54871 1.74064C9.39233 2.08043 14.1654 4.1352 18.7462 5.60015H18.7494ZM77.4465 77.953C72.728 80.1809 68.035 82.4729 63.294 84.6462C59.6524 86.3131 55.9372 87.9384 52.706 90.3137C50.8339 87.1081 49.9876 83.4538 48.7535 79.9789C47.3783 76.1098 45.9422 72.3305 44.1631 68.6248C40.4799 60.9539 36.1684 53.5106 31.9595 46.1185C27.5038 38.2905 22.7628 30.6324 18.0826 22.9391C13.9731 16.1817 9.0333 9.98536 4.63206 3.42035C12.2773 8.95637 20.349 14.0148 28.1866 19.2687C36.8128 25.0515 45.564 30.6388 54.6261 35.7164C63.4831 40.6787 72.4619 45.2755 81.0432 50.7313C85.5278 53.5843 89.9226 56.5815 94.2597 59.6556C97.3114 61.8226 100.539 64.0473 103.989 65.6116C100.03 67.0926 96.2376 68.9678 92.455 70.8559C87.5024 73.3274 82.4504 75.5905 77.4465 77.953ZM89.0379 74.7282C90.022 74.2634 91.0061 73.7954 91.9838 73.3178C96.696 71.0065 101.363 68.5928 106.348 66.9291C106.207 67.3778 106.066 67.8266 105.925 68.2786C105.88 68.2882 105.832 68.2979 105.787 68.3203C103.258 69.4519 100.857 70.8238 98.3372 71.9746C95.6702 73.1927 93.0288 74.4077 90.5669 76.0072C90.054 75.5873 89.5476 75.161 89.0411 74.7314L89.0379 74.7282ZM90.9484 76.3182C93.2404 75.0969 95.6574 74.1384 98.0616 73.1607C100.61 72.1221 103.017 70.7886 105.505 69.625C105.341 70.1571 105.181 70.6924 105.024 71.2277C104.998 71.2374 104.976 71.2438 104.95 71.2566C100.831 73.3787 96.6287 75.7283 92.314 77.4273C91.8556 77.0587 91.4004 76.69 90.942 76.3182H90.9484ZM92.6538 77.6966C94.8047 76.9817 96.8979 76.1066 98.9527 75.1514C100.812 74.2891 102.777 73.5582 104.62 72.6446C104.425 73.3466 104.235 74.0518 104.053 74.7603C102.418 74.9943 100.911 75.9816 99.3758 76.5586C97.5871 77.235 95.9427 78.187 94.1924 78.9275C93.6795 78.514 93.1666 78.1069 92.6538 77.6966ZM96.1029 80.4918C95.6093 80.0783 95.1124 79.6744 94.6124 79.2705C96.0805 78.8121 97.5038 78.2095 98.9591 77.7158C100.495 77.1965 102.155 76.3791 103.751 75.9656C103.63 76.4688 103.514 76.9721 103.405 77.4786C101.059 78.5781 98.6001 79.7001 96.1542 80.5399C96.135 80.5239 96.119 80.5079 96.0997 80.4918H96.1029ZM101.668 85.8099C101.203 85.5053 100.77 85.172 100.366 84.8097C101.027 84.6078 101.681 84.3417 102.296 84.0244C102.075 84.6174 101.863 85.2136 101.668 85.8131V85.8099ZM102.504 82.7293C101.575 83.239 100.713 83.8192 99.7284 84.2071C99.3886 83.8673 99.0585 83.5147 98.7347 83.1589C99.4496 82.9216 100.152 82.6588 100.86 82.3991C101.431 82.1908 102.046 82.0305 102.626 81.8029C102.585 82.1138 102.54 82.4216 102.504 82.7325V82.7293ZM98.1609 82.5306C97.7186 82.0465 97.2666 81.5657 96.7857 81.1073C97.8917 80.838 98.9463 80.4021 100.004 79.9757C101.033 79.559 102.094 79.2224 103.13 78.8185C103.017 79.3827 102.918 79.9469 102.825 80.5111C101.267 81.1714 99.722 81.867 98.1609 82.5306Z" fill="#231959"/>
<path d="M306.128 88.6788C289.562 84.9475 270.954 84.9571 254.641 89.8681C247.749 91.9421 240.793 95.2951 235.92 100.732C234.311 100.587 232.708 100.539 231.157 100.568C223.918 100.696 216.632 102.395 209.958 105.155C206.272 106.681 202.832 108.81 199.309 110.666C194.696 113.096 189.997 115.388 185.137 117.292C175.982 120.879 165.09 123.565 155.675 119.363C153.854 118.552 152.062 117.458 150.472 116.138C158.659 112.916 165.837 106.281 166.991 97.2505C168.042 89.025 160.589 82.0401 152.444 82.9312C146.113 83.6236 143.02 89.9835 142.026 95.5868C140.936 101.732 141.619 109.14 145.369 114.327C145.587 114.628 145.815 114.92 146.046 115.208C145.52 115.356 144.994 115.493 144.472 115.615C136.137 117.548 126.517 116.022 119.035 111.977C111.377 107.835 106.159 100.571 103.559 92.378C103.296 91.5542 102.001 91.8748 102.248 92.7146C104.934 101.831 110.63 109.553 119.035 114.134C127.517 118.757 138.32 119.802 147.568 117.131C147.629 117.115 147.69 117.093 147.751 117.077C153.399 122.549 161.75 124.514 169.478 123.898C179.515 123.1 189.068 118.795 197.934 114.291C204.993 110.704 211.481 106.758 219.225 104.809C223.954 103.617 229.031 102.879 233.997 103.139C229.81 109.114 228.188 117.022 231.144 123.886C234.619 131.957 245.29 132.294 251.557 127.364C257.917 122.36 255.121 111.807 250.332 106.736C247.316 103.543 243.174 101.886 238.86 101.12C239.052 100.931 239.244 100.745 239.44 100.562C244.886 95.5067 252.246 92.8204 259.35 91.1054C274.127 87.5344 290.607 87.7171 305.414 91.0766C306.978 91.4324 307.69 89.0346 306.119 88.682L306.128 88.6788ZM146.238 111.038C144.69 108.079 144.122 104.601 144.013 101.299C143.831 95.6734 145.344 87.2075 151.707 85.4508C154.768 84.6077 158.262 85.9605 160.785 87.6306C164.381 90.0091 165.205 94.5322 164.426 98.4975C162.884 106.342 155.909 111.682 148.613 114.371C147.677 113.355 146.866 112.24 146.238 111.038ZM241.584 104.421C248.726 106.62 254.48 114.253 252.268 121.972C250.874 126.838 244.598 128.502 240.167 128.04C235.824 127.585 233.295 123.818 232.4 119.888C231.06 113.974 233.154 108.015 236.824 103.392C238.436 103.61 240.03 103.941 241.584 104.421Z" fill="#231959"/>
<path d="M75.2249 83.4281C71.3461 84.8001 67.4289 85.9157 63.6432 87.5537C59.3637 89.4065 55.2862 91.8492 51.135 93.9712C51.0902 93.9937 51.0517 94.0193 51.0164 94.0482C49.6925 91.7434 49.0194 89.086 47.9583 86.6497C46.6537 83.6461 45.1214 80.7419 43.7334 77.7799C40.8644 71.6637 38.5307 65.2654 35.3636 59.2934C35.2963 59.1652 35.0783 59.2485 35.1232 59.3896C37.1459 65.5667 39.8098 71.5868 42.4864 77.5074C43.8456 80.5111 45.2817 83.4794 46.6665 86.4702C47.9263 89.1982 48.6347 92.2274 50.2086 94.7983C50.401 95.1156 50.76 95.1092 50.994 94.9457C51.1735 95.1381 51.4588 95.2406 51.7665 95.0996C55.5299 93.359 59.0528 91.1568 62.7232 89.2366C66.7494 87.1306 71.0448 85.3002 75.2858 83.6718C75.4332 83.6141 75.3755 83.3768 75.2249 83.4313V83.4281Z" fill="#231959"/>
<path d="M72.4812 86.3932C68.4486 87.3068 64.8711 89.6725 61.1495 91.3907C57.1842 93.2211 53.2606 95.2214 49.4588 97.3403C49.4043 97.3723 49.3594 97.4076 49.3177 97.446C48.2759 95.7984 47.8656 93.9071 47.3527 92.035C46.7725 89.9162 45.7243 88.0409 44.7274 86.0983C42.2943 81.3637 40.153 76.6195 38.2457 71.6476C38.1944 71.5098 38.0021 71.5579 38.0245 71.7053C38.7522 76.7156 41.0955 81.4791 43.365 85.9477C44.5382 88.2589 45.7083 90.4515 46.4135 92.9582C46.9681 94.9168 47.5194 96.7985 48.7503 98.4462C48.9299 98.6898 49.2344 98.6417 49.4395 98.475C49.6191 98.6033 49.8595 98.6417 50.1127 98.5039C53.6741 96.526 57.3349 94.6155 61.0213 92.8525C64.8551 91.0189 68.5864 88.3583 72.7056 87.2555C73.2601 87.1081 73.0421 86.2682 72.4844 86.3965L72.4812 86.3932Z" fill="#231959"/>
<path d="M100.53 66.1661C100.706 66.102 100.815 65.977 100.87 65.836C100.975 65.8808 101.078 65.9289 101.184 65.9706C101.818 66.2238 102.12 65.1981 101.485 64.9512C95.7887 62.7554 91.5637 57.9406 86.1463 55.3185C85.8642 55.1807 85.6302 55.5557 85.8931 55.7352C90.4739 58.8863 94.6443 62.8868 99.7091 65.3135C97.5742 66.2238 95.5931 67.474 93.5256 68.5254C90.5187 70.0545 87.4189 71.3976 84.4025 72.9042C84.1589 73.026 84.3224 73.4556 84.582 73.353C87.2266 72.3144 89.8648 71.2502 92.4549 70.0801C95.17 68.8524 97.7345 67.1919 100.53 66.1661Z" fill="#231959"/>
<path d="M25.8883 19.3873C20.2465 16.108 15.4541 11.4567 9.98545 7.8921C9.36677 7.4882 8.77374 8.4691 9.38921 8.8698C14.8836 12.4248 19.7945 16.7972 25.5966 19.8649C25.9139 20.0348 26.2024 19.5668 25.8883 19.3841V19.3873Z" fill="#231959"/>
<path d="M5.35345 8.33766C3.75387 5.60651 1.96837 2.92986 0.589973 0.0865176C0.503423 -0.0897886 0.224537 0.0288154 0.27262 0.214738C1.0067 3.00038 2.77938 5.60651 4.1738 8.10044C5.80223 11.0079 7.81212 13.6781 9.27706 16.6785C9.54312 17.2267 10.3349 16.7651 10.0945 16.2201C8.85072 13.4121 6.90174 10.9822 5.35345 8.34086V8.33766Z" fill="#231959"/>
<path d="M4.5422 9.85393C3.1574 7.83122 1.16033 5.7444 0.435872 3.36908C0.349322 3.08699 -0.0385512 3.19917 0.00312119 3.48126C0.288417 5.51359 1.75336 7.28949 2.84325 8.9692C4.36911 11.3221 5.94304 13.6333 7.39196 16.0343C7.73495 16.6017 8.64213 16.0952 8.28951 15.531C7.09063 13.6045 5.82443 11.7292 4.54541 9.85714L4.5422 9.85393Z" fill="#231959"/>
<path d="M117.734 46.1891C116.208 47.9842 114.641 50.0293 113.461 52.0585C113.217 52.4752 113.859 52.8662 114.102 52.4463C115.519 50.0197 117.423 47.6155 119.247 45.4902C120.834 43.6406 122.812 42.025 124.023 39.8933C124.158 39.6593 123.815 39.4541 123.668 39.6785C122.065 42.0859 119.613 43.9804 117.737 46.1891H117.734Z" fill="#231959"/>
<path d="M111.951 51.2859C111.701 51.6898 112.323 52.0649 112.579 51.6674C115.077 47.7694 118.41 44.3523 121.545 40.9704C121.725 40.7781 121.453 40.4896 121.26 40.6755C117.933 43.9291 114.407 47.2918 111.951 51.2859Z" fill="#231959"/>
<path d="M110.599 50.9012C110.304 51.3115 110.977 51.7186 111.268 51.3083C113.528 48.1348 115.862 44.3651 118.955 41.9288C119.039 41.8647 118.955 41.7365 118.859 41.759C117.401 42.1276 115.977 44.1631 115.009 45.2338C113.387 47.0257 112.009 48.9426 110.595 50.898L110.599 50.9012Z" fill="#231959"/>
<path d="M108.928 49.9203C108.73 50.3274 109.313 50.6993 109.537 50.2921C110.233 49.0259 111.387 47.92 112.329 46.8269C113.503 45.4646 114.801 44.2016 116.093 42.9514C116.314 42.7398 115.993 42.4129 115.766 42.6116C114.407 43.7977 113.102 45.0254 111.868 46.3429C110.861 47.4167 109.582 48.5836 108.928 49.9171V49.9203Z" fill="#231959"/>
<path d="M108.448 50.0229C109.595 47.7149 111.878 45.9999 112.932 43.6214C112.948 43.5829 112.923 43.5476 112.881 43.554C112.285 43.647 111.413 45.1184 111.076 45.5223C110.005 46.8077 108.563 48.1348 107.867 49.6735C107.694 50.0614 108.246 50.4172 108.441 50.0229H108.448Z" fill="#231959"/>
<path d="M107.015 49.3401C107.534 48.7598 107.877 48.0514 108.342 47.4263C108.964 46.5929 109.528 45.7178 110.169 44.9004C110.332 44.692 109.98 44.4131 109.81 44.6118C108.65 45.9774 107.681 47.484 106.566 48.8752C106.313 49.1894 106.729 49.6542 107.015 49.3401Z" fill="#231959"/>
<path d="M124.312 45.9871C122.783 47.561 121.408 49.3176 119.923 50.9429C118.507 52.4944 116.965 54.1997 115.984 56.059C115.939 56.1423 115.936 56.2192 115.949 56.293C115.346 58.2227 114.778 60.1589 114.214 62.1015C113.756 63.6722 113.131 65.1884 112.987 66.8297C112.974 66.9739 113.211 67.0092 113.237 66.8681C113.897 63.3901 115.484 59.7967 116.705 56.4725C116.734 56.3923 116.731 56.325 116.711 56.2609C118.753 52.5425 122.244 49.7472 124.504 46.1441C124.578 46.0255 124.411 45.8877 124.312 45.9903V45.9871Z" fill="#231959"/>
</svg>
