<svg width="77" height="33" viewBox="0 0 77 33" fill="none" xmlns="http://www.w3.org/2000/svg">
<g clip-path="url(#clip0_296_3605)">
<path fill-rule="evenodd" clip-rule="evenodd" d="M0 26.7933H3.35207V23.6733H12.0414V26.7933L15.5562 26.7612L15.4586 23.6412L15.426 20.5211H13.2456V11.0326H11.716H9.69825H5.82545H2.27811V14.1525V17.6907C2.27811 17.6907 2.34319 19.91 0.650888 20.5533H0V26.7933ZM5.82545 17.6907V14.1525H9.69825V20.5533H5.23965C5.23965 20.5533 5.82545 19.5241 5.82545 17.6907Z" fill="#020CFC"/>
<path fill-rule="evenodd" clip-rule="evenodd" d="M23.4973 10.743C27.2399 10.743 30.234 13.3484 30.2665 17.4334C30.299 21.1323 27.2399 24.1237 23.4973 24.1237C19.7547 24.1237 16.728 21.1323 16.728 17.4334C16.7606 13.7344 19.7872 10.743 23.4973 10.743ZM23.4973 14.4742C21.8375 14.4742 20.5032 15.7929 20.5032 17.4334C20.5032 19.0737 21.8375 20.3925 23.4973 20.3925C25.157 20.3925 26.4914 19.0737 26.4914 17.4334C26.4914 15.7929 25.157 14.4742 23.4973 14.4742Z" fill="#020CFC"/>
<path fill-rule="evenodd" clip-rule="evenodd" d="M39.4765 11.5151C43.0238 11.5151 45.9203 14.3455 45.9203 17.8193C45.9203 21.2932 43.0238 24.1236 39.4765 24.1236C33.8788 24.1236 32.2516 20.7785 31.9587 16.0825C31.8285 13.9595 32.4794 11.6759 33.0002 10.3571C34.5622 6.49731 39.151 5.59669 44.7812 4.47092V8.13774L39.7368 9.32782C39.7368 9.32782 36.8403 10.0998 36.5149 12.2227C37.3937 11.7723 38.4025 11.5151 39.4765 11.5151ZM39.0859 14.7959C37.5238 14.7959 36.2546 16.0503 36.2546 17.5942C36.2546 19.1381 37.5238 20.3925 39.0859 20.3925C40.6481 20.3925 41.9173 19.1381 41.9173 17.5942C41.9173 16.0503 40.6481 14.7959 39.0859 14.7959Z" fill="#020CFC"/>
<path fill-rule="evenodd" clip-rule="evenodd" d="M48.4263 29.3022H52.234V22.8049C53.2103 23.609 54.3818 24.0915 55.6836 24.0915C58.873 24.0915 61.4765 21.1323 61.4765 17.4977C61.4765 13.863 58.873 10.9039 55.6836 10.9039C54.3818 10.9039 53.2103 11.3863 52.234 12.1905V11.0004H48.4263V29.077V29.3022ZM54.9352 14.4098C56.4972 14.4098 57.7339 15.6321 57.7339 17.3368C57.7339 19.0416 56.7251 20.3603 54.9026 20.3925C53.3404 20.4247 52.1363 18.9773 52.1363 17.2725C52.1363 15.5678 53.373 14.4098 54.9352 14.4098Z" fill="#020CFC"/>
<path fill-rule="evenodd" clip-rule="evenodd" d="M70.198 10.6465C66.4555 10.6465 63.4614 13.7344 63.4614 17.4334C63.4614 21.1323 66.488 24.1236 70.2307 24.1236C73.973 24.1236 76.9999 21.1323 76.9999 17.4334C76.9672 13.7344 73.941 10.6465 70.198 10.6465ZM70.2307 20.3925C68.5708 20.3925 67.2365 19.0737 67.2365 17.4334C67.2365 15.7929 68.1476 14.3777 70.2307 14.3134C71.8906 14.249 73.2248 15.7929 73.2248 17.4334C73.2248 19.0737 71.8906 20.3925 70.2307 20.3925Z" fill="#020CFC"/>
<path fill-rule="evenodd" clip-rule="evenodd" d="M63.1359 6.85113C63.9495 6.85113 64.6004 6.2078 64.6004 5.40369C64.6004 4.59957 63.9495 3.95627 63.1359 3.95627C62.3223 3.95627 61.6714 4.59957 61.6714 5.40369C61.6714 6.2078 62.3223 6.85113 63.1359 6.85113Z" fill="#020CFC"/>
<path fill-rule="evenodd" clip-rule="evenodd" d="M65.5117 6.65813H67.5295V3.11999C68.1803 1.47959 69.7749 2.05855 69.7749 2.05855V0.0964947C69.7749 0.0964947 68.8311 -0.192989 68.1476 0.289483C67.855 0.514638 67.6271 0.739793 67.4644 0.964947V0H65.5117V6.65813Z" fill="#020CFC"/>
<path fill-rule="evenodd" clip-rule="evenodd" d="M72.6061 4.14926V0H70.6538V4.31009C70.6538 4.7604 70.9468 6.36864 72.6061 6.72246C74.266 7.04409 75.0469 5.9505 75.0469 5.9505V6.69029H76.9998V0H75.0469V3.85978C74.9168 4.24576 74.6244 4.92122 73.7127 4.92122C72.8664 4.95339 72.6061 4.14926 72.6061 4.14926Z" fill="#020CFC"/>
<path fill-rule="evenodd" clip-rule="evenodd" d="M18.6152 26.343V29.2379C18.6152 29.2379 24.0501 32.4865 30.8519 32.4865C37.6537 32.4865 43.5442 29.3022 43.5442 29.3022L43.5117 26.0535C43.4791 26.0857 31.633 33.0976 18.6152 26.343Z" fill="#020CFC"/>
</g>
<defs>
<clipPath id="clip0_296_3605">
<rect width="77" height="33" fill="white"/>
</clipPath>
</defs>
</svg>
