<svg width="124" height="101" viewBox="0 0 124 101" fill="none" xmlns="http://www.w3.org/2000/svg">
<g clip-path="url(#clip0_610_1592)">
<path d="M89.2104 3.59823C87.0326 3.59823 85.589 5.03247 85.589 7.1961C85.589 5.03247 84.1463 3.59823 81.9686 3.59823C84.1463 3.59823 85.589 2.16427 85.589 0C85.589 2.16427 87.0326 3.59823 89.2104 3.59823Z" fill="#FCD945"/>
<path d="M89.2104 70.3803C87.0326 70.3803 85.589 71.8138 85.589 73.9782C85.589 71.8139 84.1463 70.3803 81.9686 70.3803C84.1463 70.3803 85.589 68.9457 85.589 66.782C85.589 68.9457 87.0326 70.3803 89.2104 70.3803Z" fill="#FCD945"/>
<path d="M51.9829 33.3914C51.9829 35.5551 53.4265 36.9892 55.6046 36.9892C53.4265 36.9892 51.9829 38.423 51.9829 40.587C51.9829 38.423 50.5398 36.9892 48.3615 36.9892C50.5398 36.9892 51.9829 35.555 51.9829 33.3914Z" fill="#FCD945"/>
<path d="M119.196 33.3914C119.196 35.5551 120.639 36.9892 122.817 36.9892C120.639 36.9892 119.196 38.423 119.196 40.587C119.196 38.423 117.753 36.9892 115.574 36.9892C117.753 36.9892 119.196 35.555 119.196 33.3914Z" fill="#FCD945"/>
<path d="M64.3866 10.8339C62.8461 12.3641 62.8461 14.3917 64.3866 15.9222C62.8461 14.3917 60.8057 14.3917 59.2662 15.9222C60.8057 14.3917 60.8057 12.364 59.2662 10.8339C60.8057 12.3641 62.8461 12.3641 64.3866 10.8339Z" fill="#FCD945"/>
<path d="M111.913 58.056C110.373 59.5861 110.373 61.6141 111.913 63.1444C110.373 61.614 108.332 61.614 106.793 63.1444C108.332 61.614 108.332 59.586 106.793 58.056C108.332 59.5861 110.373 59.5861 111.913 58.056Z" fill="#FCD945"/>
<path d="M59.2657 58.056C60.8057 59.5861 62.8465 59.5861 64.386 58.056C62.8464 59.5861 62.8464 61.6141 64.386 63.1444C62.8464 61.614 60.8056 61.614 59.2657 63.1444C60.8057 61.614 60.8057 59.586 59.2657 58.056Z" fill="#FCD945"/>
<path d="M106.793 10.8339C108.332 12.3641 110.373 12.3641 111.913 10.8339C110.373 12.3641 110.373 14.3917 111.913 15.9222C110.373 14.3917 108.332 14.3917 106.793 15.9222C108.332 14.3917 108.332 12.364 106.793 10.8339Z" fill="#FCD945"/>
<path d="M75.923 4.80771C73.9144 5.6454 73.1427 7.52267 73.9846 9.51733C73.1426 7.52267 71.2525 6.75487 69.2448 7.59256C71.2525 6.75487 72.0251 4.8775 71.1827 2.88293C72.0252 4.8775 73.9143 5.6454 75.9229 4.80771H75.923Z" fill="#FCD945"/>
<path d="M101.935 66.3857C99.9259 67.2234 99.1542 69.1008 99.9968 71.0959C99.1542 69.1008 97.2641 68.3335 95.2565 69.1707C97.2641 68.3335 98.0368 66.4556 97.1943 64.4611C98.0367 66.4556 99.9259 67.2235 101.935 66.3857Z" fill="#FCD945"/>
<path d="M53.2 46.5941C54.043 48.5897 55.9326 49.3566 57.9403 48.5188C55.9326 49.3565 55.16 51.2339 56.003 53.2291C55.16 51.2339 53.2714 50.4666 51.2628 51.3037C53.2714 50.4667 54.043 48.5897 53.2001 46.5941H53.2Z" fill="#FCD945"/>
<path d="M115.176 20.7491C116.019 22.7451 117.908 23.5116 119.916 22.674C117.908 23.5116 117.136 25.3891 117.979 27.3843C117.136 25.389 115.247 24.6218 113.239 25.4591C115.247 24.6218 116.019 22.7451 115.176 20.7491H115.176Z" fill="#FCD945"/>
<path d="M55.8513 21.0248C55.0271 23.0283 55.8176 24.8988 57.8329 25.7168C55.8176 24.8988 53.9351 25.6833 53.1109 27.6859C53.9351 25.6833 53.1447 23.8126 51.1294 22.9939C53.1447 23.8126 55.0271 23.0283 55.8514 21.0248H55.8513Z" fill="#FCD945"/>
<path d="M118.068 46.2924C117.243 48.2949 118.034 50.1655 120.049 50.9842C118.034 50.1655 116.151 50.9506 115.327 52.9535C116.151 50.9506 115.361 49.0803 113.346 48.2614C115.361 49.0804 117.243 48.2949 118.068 46.2924H118.068Z" fill="#FCD945"/>
<path d="M69.5224 66.5367C71.5377 67.3556 73.4202 66.5702 74.2444 64.5676C73.4202 66.5702 74.2101 68.4402 76.2265 69.2591C74.2101 68.4401 72.3282 69.2253 71.504 71.2281C72.3282 69.2253 71.5378 67.3555 69.5225 66.5367H69.5224Z" fill="#FCD945"/>
<path d="M94.9528 4.71912C96.9681 5.53806 98.8507 4.75279 99.6748 2.75012C98.8507 4.75279 99.6405 6.62297 101.657 7.44209C99.6405 6.62297 97.7586 7.40788 96.9344 9.41137C97.7586 7.40788 96.9681 5.53806 94.9528 4.71912Z" fill="#FCD945"/>
<path d="M76.4904 12.6413C76.1826 13.379 75.3319 13.7286 74.5906 13.4241C73.8489 13.1181 73.4962 12.2733 73.8035 11.5357C74.1109 10.7995 74.9616 10.4493 75.7028 10.7543C76.445 11.059 76.7972 11.9048 76.4904 12.6413Z" fill="#E94290"/>
<path d="M97.3756 62.7383C97.0678 63.4759 96.217 63.8259 95.4763 63.5208C94.7338 63.2151 94.3819 62.3705 94.6887 61.6329C94.996 60.8962 95.8467 60.5466 96.5889 60.8512C97.3301 61.1563 97.6833 62.002 97.3756 62.7383Z" fill="#E94290"/>
<path d="M60.9356 46.1783C61.6777 46.4832 62.03 47.3291 61.7221 48.0653C61.4157 48.803 60.5651 49.153 59.8229 48.8479V48.847C59.0816 48.5421 58.7285 47.6975 59.0363 46.96C59.3431 46.2234 60.1942 45.8729 60.9356 46.1784V46.1783Z" fill="#E94290"/>
<path d="M111.356 25.4266C112.098 25.7325 112.451 26.5774 112.143 27.3146C111.836 28.0513 110.986 28.4014 110.244 28.0963C109.501 27.7904 109.149 26.9459 109.457 26.2092C109.763 25.4717 110.614 25.1221 111.356 25.4266Z" fill="#E94290"/>
<path d="M61.7222 26.2091C62.03 26.9467 61.678 27.7912 60.9355 28.0971C60.1934 28.4022 59.3431 28.052 59.0364 27.3146C58.7286 26.5775 59.0807 25.7325 59.8229 25.4275C60.5647 25.1218 61.4144 25.4724 61.7222 26.2091Z" fill="#E94290"/>
<path d="M112.143 46.96C112.451 47.6963 112.099 48.542 111.356 48.8469C110.614 49.1528 109.764 48.8018 109.457 48.0653C109.149 47.3278 109.501 46.4833 110.244 46.1772C110.985 45.8723 111.835 46.2224 112.143 46.96Z" fill="#E94290"/>
<path d="M74.5909 60.8512C75.333 60.5457 76.1837 60.8963 76.4902 61.6328C76.7979 62.3698 76.4459 63.2153 75.7035 63.5199C74.9622 63.8259 74.111 63.4762 73.8042 62.7383C73.4965 62.002 73.8486 61.1562 74.5909 60.8512Z" fill="#E94290"/>
<path d="M95.4755 10.7543C96.2168 10.4484 97.068 10.7981 97.3748 11.5356C97.6826 12.273 97.3304 13.1181 96.5882 13.4227C95.8459 13.7285 94.9957 13.3776 94.6889 12.6414C94.3811 11.9046 94.7331 11.0588 95.4755 10.7544V10.7543Z" fill="#E94290"/>
<path d="M67.6579 18.0489C67.6623 18.8467 67.0145 19.4969 66.2111 19.5003C65.408 19.5043 64.7539 18.8606 64.7501 18.0629C64.7467 17.2645 65.3945 16.6149 66.1975 16.6113C67.0006 16.6073 67.6545 17.2513 67.6579 18.0489V18.0489Z" fill="#E94290"/>
<path d="M106.429 56.2116C106.433 57.0096 105.785 57.6594 104.981 57.6627C104.179 57.6671 103.525 57.0236 103.521 56.2255C103.517 55.4272 104.165 54.778 104.968 54.7739C105.771 54.77 106.425 55.4139 106.429 56.2116Z" fill="#E94290"/>
<path d="M66.3781 54.9536C67.1815 54.9503 67.8351 55.5942 67.8385 56.3917C67.8429 57.1893 67.195 57.8391 66.392 57.8431C65.5886 57.8465 64.935 57.2025 64.9307 56.405C64.9273 55.6075 65.5751 54.957 66.3781 54.9536Z" fill="#E94290"/>
<path d="M104.787 16.4319C105.591 16.4285 106.244 17.0719 106.248 17.8693C106.251 18.6671 105.603 19.3174 104.801 19.3209C103.998 19.3243 103.344 18.6809 103.34 17.8828C103.336 17.0858 103.984 16.4353 104.787 16.432V16.4319Z" fill="#E94290"/>
<path d="M59.3256 36.2382C59.8969 36.7998 59.9002 37.7144 59.3357 38.2812C58.7702 38.848 57.8497 38.8523 57.2789 38.2906C56.7086 37.7293 56.7043 36.815 57.2692 36.2475C57.8347 35.6811 58.7552 35.6772 59.3256 36.2383V36.2382Z" fill="#E94290"/>
<path d="M113.9 35.984C114.471 36.5459 114.474 37.4602 113.91 38.0269C113.345 38.5938 112.423 38.598 111.853 38.0369C111.283 37.4754 111.278 36.5607 111.844 35.9936C112.409 35.4268 113.329 35.4229 113.9 35.984H113.9Z" fill="#E94290"/>
<path d="M84.6844 63.2328C85.2499 62.666 86.1694 62.6618 86.7407 63.2232C87.3104 63.7851 87.3154 64.6991 86.7508 65.2666C86.1854 65.833 85.2648 65.8372 84.6945 65.2757C84.1237 64.714 84.1189 63.7997 84.6844 63.2328Z" fill="#E94290"/>
<path d="M84.4287 9.00836C84.9941 8.44166 85.9138 8.43747 86.4851 8.9989C87.0548 9.56069 87.0596 10.4748 86.4951 11.0422C85.9292 11.6087 85.0091 11.6131 84.4388 11.0513C83.868 10.4899 83.8631 9.57534 84.4287 9.00836Z" fill="#E94290"/>
<path d="M92.9076 8.43891L91.1033 9.63702L89.8975 7.845L92.7626 1.33435L92.9076 8.43891Z" fill="#52C0DA"/>
<path d="M78.2715 66.0445L80.076 64.8461L81.2815 66.638L78.4165 73.1488L78.2715 66.0445Z" fill="#52C0DA"/>
<path d="M56.6009 29.9708L57.807 31.7628L56.0031 32.9615L49.4507 30.1147L56.6009 29.9708Z" fill="#52C0DA"/>
<path d="M114.578 44.5126L113.372 42.7198L115.176 41.5219L121.728 44.3675L114.578 44.5126Z" fill="#52C0DA"/>
<path d="M70.2658 11.7339L69.8433 13.8483L67.7153 13.4282L65.1074 6.81287L70.2658 11.7339Z" fill="#52C0DA"/>
<path d="M100.913 62.7496L101.336 60.6354L103.464 61.0552L106.072 67.6706L100.913 62.7496Z" fill="#52C0DA"/>
<path d="M59.9171 52.4668L62.0451 52.8868L61.6227 55.0021L54.9644 57.5922L59.9171 52.4668Z" fill="#52C0DA"/>
<path d="M111.262 22.0165L109.134 21.5966L109.556 19.4814L116.215 16.8912L111.262 22.0165Z" fill="#52C0DA"/>
<path d="M81.1187 7.86902L79.9222 9.66805L78.1116 8.47922L78.2181 1.37439L81.1187 7.86902Z" fill="#52C0DA"/>
<path d="M90.0603 66.6141L91.2568 64.8153L93.0674 66.0041L92.9615 73.1086L90.0603 66.6141Z" fill="#52C0DA"/>
<path d="M56.0273 41.6838L57.8379 42.8727L56.6414 44.6718L49.4914 44.566L56.0273 41.6838Z" fill="#52C0DA"/>
<path d="M115.152 32.7992L113.341 31.6103L114.537 29.8113L121.688 29.9168L115.152 32.7992Z" fill="#52C0DA"/>
<path d="M61.5249 19.6131L61.9589 21.7261L59.8326 22.1575L54.8511 17.0594L61.5249 19.6131Z" fill="#52C0DA"/>
<path d="M109.655 54.8699L109.22 52.7573L111.347 52.3257L116.328 57.4235L109.655 54.8699Z" fill="#52C0DA"/>
<path d="M67.8477 61.1522L69.9739 60.7207L70.4085 62.8334L65.2776 67.783L67.8477 61.1522Z" fill="#52C0DA"/>
<path d="M103.331 13.3307L101.205 13.7624L100.772 11.6502L105.901 6.70044L103.331 13.3307Z" fill="#52C0DA"/>
<path fill-rule="evenodd" clip-rule="evenodd" d="M41.583 73.3473H46.7052C47.092 72.5928 47.4619 71.8302 47.8017 71.0504L48.3945 69.5913L48.9249 68.1017C49.2622 67.0856 49.5371 66.0315 49.7487 64.9649C50.1697 62.8285 50.3208 60.6106 50.1417 58.398C49.7818 53.9667 48.0121 49.639 45.2521 46.1686C43.8702 44.4338 42.2647 42.8938 40.5114 41.5699C38.7465 40.2579 36.8299 39.1759 34.8313 38.3096C32.3583 37.2598 29.7539 36.5536 27.1144 36.2076V29.5632H37.8053L40.6877 24.6488H22.1678V36.9738H22.1779V40.9001C25.7968 41.0802 29.3569 41.8682 32.576 43.3567C34.1902 44.0868 35.7152 44.9877 37.1029 46.0486C38.4998 47.0956 39.7633 48.3032 40.8399 49.6445C41.9043 50.9926 42.8272 52.4449 43.4972 54.0118C44.1759 55.5746 44.5979 57.2329 44.8252 58.9271C45.0405 60.6239 45.0093 62.3658 44.7491 64.0985C44.6201 64.9658 44.436 65.8263 44.1961 66.688L43.8137 68.0021L43.3715 69.3033C42.8609 70.6817 42.2608 72.03 41.583 73.3473Z" fill="url(#paint0_linear_610_1592)"/>
<path fill-rule="evenodd" clip-rule="evenodd" d="M7.0697 100.893V100.896C11.0306 101.243 15.0917 100.705 18.9683 99.5641C22.8444 98.4047 26.566 96.6563 29.9748 94.4115C30.3231 94.1858 30.6669 93.9504 31.0089 93.714H25.8877C23.5429 95.3577 21.0337 96.7989 18.3759 97.95C14.8326 99.5016 11.0249 100.543 7.06979 100.893H7.0697Z" fill="url(#paint1_linear_610_1592)"/>
<path d="M11.891 83.6506H3.51638L4.13391 80.184H1.66472L6.10352e-05 89.5177H2.46971L3.15418 85.677H11.5283L10.8443 89.5177H13.3135L14.9776 80.184H12.508L11.891 83.6506Z" fill="white"/>
<path d="M105.678 80.1835H97.5185C95.746 80.1835 94.942 80.8636 94.6202 82.6374L93.8678 86.7979C93.5456 88.5577 94.3519 89.5176 96.1231 89.5176H104.283C106.053 89.5176 106.859 88.8376 107.181 87.0646L107.423 85.7443H105.033L104.886 86.5307C104.739 87.3443 104.443 87.5977 103.638 87.5977H97.3441C96.5382 87.5977 96.2564 87.2646 96.4043 86.4507L96.9954 83.1706C97.1158 82.3575 97.4376 82.1041 98.2434 82.1041H104.538C105.343 82.1041 105.625 82.4372 105.476 83.2503L105.37 83.864H107.758L107.932 82.904C108.242 81.1442 107.449 80.1836 105.678 80.1836L105.678 80.1835Z" fill="white"/>
<path d="M124 80.1835H119.813L112.485 84.424L113.237 80.1835H110.768L109.103 89.5176H111.574L112.378 84.9845L118.485 89.5176H122.389L115.666 84.7574L124 80.1835Z" fill="white"/>
<path d="M28.1322 83.2772L27.5555 86.5043C27.4077 87.304 27.0988 87.5706 26.294 87.5706H19.745C18.9391 87.5706 18.6443 87.2243 18.7913 86.4244L19.3432 83.3404L18.6173 82.1269H20.6915L20.6871 82.1304H27.1794C27.9843 82.1304 28.28 82.4775 28.1322 83.2773V83.2772ZM28.4138 80.1834H19.9054C18.1352 80.1834 17.3293 80.8644 17.0066 82.6368L16.2551 86.7972C15.9335 88.5569 16.7382 89.5182 18.5104 89.5182H27.019C28.7906 89.5182 29.5955 88.8381 29.9172 87.0646L30.6696 82.9033C30.9913 81.1435 30.1854 80.1833 28.4138 80.1833V80.1834Z" fill="white"/>
<path d="M43.2606 84.6104H36.1346C35.4231 84.6104 35.2083 84.3442 35.3288 83.6377L35.4376 83.0655L35.3133 82.8582L34.7367 81.8947H34.9H36.2642H36.4274C36.4607 81.8933 36.4885 81.8907 36.5243 81.8907H43.7437L43.2606 84.6104ZM35.6913 80.1833C34.8725 80.1833 34.2685 80.344 33.8798 80.6641C33.491 80.9972 33.2357 81.5702 33.0879 82.3838L32.8592 83.6505C32.5783 85.2906 33.2628 86.104 34.8862 86.104L35.0331 86.1308L31.3708 89.5179H34.5509L38.0136 86.2638H42.9654L42.3888 89.5179H44.858L46.5222 80.1833H35.6914H35.6913Z" fill="white"/>
<path d="M74.7511 82.9441L74.5632 83.984C74.4154 84.6771 74.2279 84.8779 73.53 84.8779H66.3101L66.604 83.1569L65.8954 81.972H66.8063V81.9705H73.9327C74.6442 81.9705 74.8721 82.2371 74.7511 82.944V82.9441ZM75.2477 80.1835H64.6723L63.0081 89.5183H65.4776L66.0013 86.5837H74.3619C75.1808 86.5837 75.7848 86.4244 76.1745 86.1038C76.5632 85.784 76.818 85.2112 76.9658 84.3842L77.2736 82.6381C77.5554 80.9967 76.8714 80.1835 75.2476 80.1835H75.2477Z" fill="white"/>
<path d="M58.7246 86.2377L58.5901 87.0384C58.4962 87.584 58.3083 87.7578 57.7578 87.7578H50.2295L50.4199 86.6259L49.7161 85.45H51.7892L51.7878 85.4508H58.0661C58.6436 85.4508 58.8181 85.6649 58.7245 86.2378L58.7246 86.2377ZM59.4894 83.8634H50.9131L51.2628 81.9579H61.1667L61.4755 80.1842H49.1015L47.4377 89.518H58.7107C60.0932 89.518 60.7241 89.0107 60.952 87.6249L61.2337 85.9848C61.4621 84.5974 60.8719 83.8634 59.4894 83.8634Z" fill="white"/>
<path d="M89.4895 85.7976L89.3017 86.8377C89.1812 87.5304 88.9669 87.7305 88.2689 87.7305H81.0484L81.3409 86.0636L81.333 86.0715L80.5893 84.8279H81.5575L81.5584 84.824H88.6844C89.3954 84.824 89.6102 85.0906 89.4893 85.7976H89.4895ZM89.9731 83.1171H81.8668L82.3909 80.1835H79.9204L78.2571 89.5176H89.0872C89.9056 89.5176 90.5092 89.3577 90.8984 89.0246C91.288 88.704 91.5428 88.1302 91.6907 87.318L91.9994 85.5706C92.2808 83.9305 91.5963 83.1171 89.973 83.1171H89.9731Z" fill="white"/>
<path d="M51.855 97.7032C51.5929 99.1647 51.1556 99.5994 49.5246 99.5994H47.0685C45.8199 99.5994 45.3262 99.2916 45.3262 98.3752C45.3262 98.1694 45.3508 97.932 45.398 97.6638L45.6767 96.1074C45.9624 94.5035 46.5592 94.0531 48.1811 94.0531H50.3761C51.497 94.0531 52.2128 94.3304 52.2128 95.3881C52.2128 95.562 52.1965 95.7523 52.158 95.965H50.8371C50.845 95.9255 50.8613 95.8224 50.8613 95.7605C50.8613 95.3257 50.5987 95.1437 49.9312 95.1437H48.2366C47.3542 95.1437 47.1404 95.2937 46.989 96.1552L46.7501 97.5139C46.7261 97.6566 46.71 97.7824 46.71 97.893C46.71 98.3984 47.0126 98.5092 47.6325 98.5092H49.3262C50.1133 98.5092 50.4158 98.3668 50.5269 97.7036H51.855V97.7032Z" fill="#FCD945"/>
<path d="M58.8285 99.5993L59.6073 95.2068H59.4247L55.3288 99.5993H53.0631L54.0328 94.1165H55.353L54.5741 98.5089H54.7572L58.9001 94.1165H61.1183L60.1482 99.5993H58.8285Z" fill="#FCD945"/>
<path d="M64.7207 95.1509C64.0849 95.1509 63.7906 95.5542 63.7906 96.257C63.7906 96.6523 64.0045 96.827 64.4664 96.827H67.1855L67.4799 95.1509H64.7207ZM68.0131 99.5992H66.6927L67.0025 97.8607H64.8078L63.1783 99.5992H61.46L63.4085 97.6875C62.8911 97.5605 62.4539 97.0393 62.4539 96.3522C62.4539 96.297 62.4706 96.1466 62.486 96.0441C62.764 94.4877 63.6474 94.1161 64.7924 94.1161H68.9825L68.013 99.5992H68.0131Z" fill="#FCD945"/>
<path d="M76.2021 94.1165L76.0113 95.2066H73.6814L72.9016 99.5992H71.5819L72.3612 95.2066H70.0549L70.2466 94.1165H76.2021Z" fill="#FCD945"/>
<path d="M77.9436 98.5089H80.2258C80.4559 98.5089 80.7668 98.4934 80.9339 98.359C81.1083 98.2244 81.1719 97.7501 81.1719 97.6238C81.1719 97.371 81.0288 97.2529 80.4966 97.2529H78.1661L77.9437 98.5089H77.9436ZM78.7224 94.1169L78.3655 96.1618H80.7743C81.8957 96.1618 82.5161 96.3993 82.5161 97.3482C82.5161 98.0198 82.2694 98.8254 81.8163 99.189C81.4024 99.5203 80.8615 99.5996 80.1935 99.5996H76.4324L77.4026 94.1169H78.7223H78.7224Z" fill="#FCD945"/>
<path d="M89.9346 95.1509C89.2986 95.1509 89.0045 95.5542 89.0045 96.257C89.0045 96.6523 89.2183 96.827 89.6802 96.827H92.3993L92.6936 95.1509H89.9346ZM93.2268 99.5992H91.9065L92.2163 97.8607H90.0217L88.3923 99.5992H86.674L88.6224 97.6875C88.1051 97.5605 87.6678 97.0393 87.6678 96.3522C87.6678 96.297 87.6836 96.1466 87.6999 96.0441C87.978 94.4877 88.8613 94.1161 90.0063 94.1161H94.1965L93.2268 99.5992Z" fill="#FCD945"/>
<path d="M98.6485 96.8894C99.3802 96.8894 99.6899 96.4865 99.6899 95.7517C99.6899 95.3961 99.5078 95.2066 98.9515 95.2066H96.7483L96.4458 96.8894H98.6485ZM95.6188 94.1164H99.3802C100.533 94.1164 101.041 94.4805 101.041 95.3961C101.041 95.5857 101.018 95.7989 100.979 96.0356C100.724 97.4268 100.072 97.98 98.7126 97.98H96.2555L95.9689 99.5993H94.6487L95.6188 94.1163V94.1164Z" fill="#FCD945"/>
<path d="M103.626 96.1625H104.405L107.173 94.1163H109.153L105.447 96.6836L108.31 99.5993H106.37L104.23 97.253H103.428L103.014 99.5993H101.695L102.664 94.1163H103.985L103.626 96.1625Z" fill="#FCD945"/>
<path d="M111.14 97.9404C111.14 98.3825 111.395 98.5084 112.047 98.5084H113.796C114.64 98.5084 114.862 98.3275 114.997 97.5849L115.26 96.1229C115.284 95.9804 115.3 95.8548 115.3 95.7517C115.3 95.2705 115.021 95.1434 114.377 95.1434H112.675C111.849 95.1434 111.578 95.3488 111.443 96.1308L111.18 97.5925C111.157 97.727 111.14 97.8386 111.14 97.9404ZM113.963 99.5993H111.538C110.305 99.5993 109.78 99.2202 109.78 98.3193C109.78 98.1453 109.796 97.9479 109.836 97.7269L110.139 96.0047C110.409 94.5035 111.021 94.0529 112.524 94.0529H114.949C116.086 94.0529 116.667 94.3376 116.667 95.3257C116.667 95.5232 116.643 95.7441 116.595 96.0047L116.293 97.7269C116.047 99.0932 115.506 99.5993 113.963 99.5993Z" fill="#FCD945"/>
<path d="M118.655 94.1165H119.975L119.354 97.6243H118.035L118.655 94.1165ZM117.916 98.2882H119.235L119.005 99.5992H117.684L117.916 98.2882H117.916Z" fill="#FCD945"/>
</g>
<defs>
<linearGradient id="paint0_linear_610_1592" x1="48.9241" y1="31.4196" x2="24.4984" y2="61.156" gradientUnits="userSpaceOnUse">
<stop stop-color="#FCDE47"/>
<stop offset="0.490196" stop-color="#F59D33"/>
<stop offset="1" stop-color="#E94290"/>
</linearGradient>
<linearGradient id="paint1_linear_610_1592" x1="53.6156" y1="35.6183" x2="33.6574" y2="71.4869" gradientUnits="userSpaceOnUse">
<stop stop-color="#FCDE47"/>
<stop offset="0.490196" stop-color="#F59D33"/>
<stop offset="1" stop-color="#E94290"/>
</linearGradient>
<clipPath id="clip0_610_1592">
<rect width="124" height="101" fill="white"/>
</clipPath>
</defs>
</svg>
