<svg width="887" height="678" viewBox="0 0 887 678" fill="none" xmlns="http://www.w3.org/2000/svg">
<path fill-rule="evenodd" clip-rule="evenodd" d="M584.909 551.808L589.995 554.64L607.917 523.354L611.329 523.142L622.852 503.148L609.023 495.992L589.102 531.953L584.909 551.808ZM522.194 157.893L566.768 197.187L600.093 226.613L663.514 261.468L677.942 236.988L728.177 262.972L735.889 266.964L693.877 342.803L667.788 389.899L670.169 391.264L681.261 397.037L776.494 232.598L759.728 223.926L817.468 119.692L856.268 49.6439L865.404 28.1161L887 0H880.039L861.08 25.1813L853.2 44.9519L788.786 158.636L753.279 144.475L711.58 143.117L615.834 157.869L593.37 166.619L583.221 172.845L579.353 160.701L557.769 160.079L551.97 132.211L521.682 135.327L523.132 152.138L517.226 154.077L466.46 115.097L450.057 130.707L447.126 132.18C448.513 133.944 449.394 136.287 449.544 139.191L440.127 148.992L442.127 181.595L452.906 198.962L450.032 215.17L438.053 209.149L421.999 190.393L385.799 194.379L384.143 194.56L388.111 242.567L357.673 241.305L236.65 258.799L237.012 271.927C237.012 271.927 241.543 272.628 241.543 275.255C241.543 277.882 233.75 277.706 228.501 278.582C223.246 279.458 215.091 280.853 214.548 278.582C214.004 276.305 211.648 262.646 211.286 258.274C210.923 253.896 214.91 233.763 214.91 233.763L202.231 229.91C202.231 229.91 201.325 226.414 200.237 224.838C199.15 223.262 194.438 219.934 192.633 217.483C190.82 215.031 187.921 215.381 186.834 218.008C185.746 220.635 188.102 222.386 188.646 224.838C189.189 227.29 193.17 228.684 193.17 228.684C193.17 228.684 192.27 232.887 191.908 234.989C191.545 237.09 189.995 239.614 189.995 239.614L198.144 248.044C198.144 248.044 200.262 273.733 201.931 278.026C203.599 282.32 214.891 281.964 218.409 284.289C221.927 286.613 218.872 306.928 218.872 306.928C218.872 306.928 227.02 305.14 230.72 308.359C234.425 311.577 224.615 317.664 224.615 317.664L226.095 332.151C226.095 332.151 246.454 330.901 245.717 333.945C244.98 336.982 240.162 358.274 238.868 361.137C237.569 363.999 231.463 363.462 223.315 363.999C215.172 364.536 218.691 369.186 214.797 372.224C210.911 375.267 210.542 386.898 210.542 386.898C210.542 386.898 206.843 391.01 205.911 387.254C204.987 383.498 197.213 382.423 197.213 382.423C197.213 382.423 199.438 394.766 200.919 399.953C202.4 405.147 196.844 405.684 190.545 406.215C184.253 406.753 177.96 390.116 175.367 386.716C172.773 383.317 181.291 382.067 180.922 378.667C180.553 375.267 164.444 365.43 165.925 371.692C167.406 377.954 163.887 385.466 160.376 386.36C156.857 387.254 143.154 374.73 143.154 374.73C143.154 374.73 151.302 369.361 151.302 366.68C151.302 363.999 147.971 366.324 147.04 364.712C146.116 363.105 146.859 349.862 149.078 348.969C151.302 348.075 148.896 343.6 152.227 339.132C155.558 334.657 155.376 331.795 159.632 329.114C163.887 326.426 168.33 319.452 168.705 316.233C169.074 313.008 164.631 304.246 164.631 304.246L150.746 303.528L148.896 300.128L138.529 299.415L135.567 292.078L108.941 305.104L127.656 323.504L118.895 334.79L114.434 347.61L117.977 380.37L122.095 418.456L162.581 419.162L245.742 409.277L254.497 408.238L253.766 384.271L257.415 363.824L251.816 315.883L248.66 279.675C248.66 279.675 248.423 268.534 263.314 264.82C278.211 261.106 330.103 254.602 330.103 254.602C330.103 254.602 355.561 251.118 360.61 252.048C365.653 252.978 373.101 260.176 379.107 260.176C380.744 260.176 386.243 259.711 393.373 259.029C404.54 257.966 419.706 256.384 430.323 255.261L455.337 228.751L518.895 161.396L522.194 157.893ZM128.406 479.477C115.283 481.167 97.2552 471.354 96.2679 457.375C96.2679 457.375 95.0431 447.103 93.3747 432.508C91.7625 418.395 89.7316 400.237 87.9819 383.401C86.3696 367.815 84.9949 353.365 84.4262 344.283C84.2387 341.372 84.1388 339.011 84.1388 337.344C84.1388 320.303 103.117 304.476 105.685 302.411L98.1676 296.197C98.1676 296.197 79.7583 324.464 78.496 325.279C77.24 326.088 75.1403 334.204 75.4215 337.314C75.6965 340.43 71.0785 341.372 71.0785 341.372L73.1782 358.552L67.1604 359.639L75.559 401.572L70.0849 403.172C70.1849 403.45 70.2724 403.721 70.3474 403.993C74.9029 419.965 88.1818 465.527 88.663 474.374C89.1442 483.22 88.663 503.245 91.5562 508.831C94.4432 514.416 100.223 523.728 90.5877 533.505C80.9518 543.281 55.4187 552.128 54.9376 556.319C54.4564 560.509 53.7878 560.691 56.1811 564.392C58.5744 568.1 59.2931 575.044 56.8997 579.211C54.5001 583.378 35.5784 600.045 29.5919 602.128C23.5992 604.211 11.5138 609.755 10.4203 613.632C10.3328 613.952 10.189 614.29 10.0016 614.628C16.113 613.946 25.6801 612.569 29.6107 610.268C35.6034 606.766 44.2707 601.886 53.2566 589.247C62.2425 576.603 75.3215 560.455 83.8388 556.645C89.1192 554.284 95.4681 551.506 107.135 549.151L107.06 542.81L121.97 531.602L133.574 529.465L131.443 508.873L128.406 479.477ZM21.9745 301.752C21.9745 301.752 33.5163 287.06 41.9648 287.06C50.4133 287.06 84.17 288.6 84.17 288.6L53.0066 255.249L11.9512 286.426C11.9512 286.426 -1.87762 320.835 0.215765 327.314C2.3154 333.794 15.4944 360.472 20.5248 364.174C23.593 366.439 39.7652 374.814 52.9504 384.627L38.3029 358.613C38.3029 358.613 18.875 352.085 17.469 344.736C16.063 337.393 21.9745 301.752 21.9745 301.752ZM583.771 186.734L588.77 179.977L746.887 161.649L779.919 177.748L733.702 260.538L675.362 230.852L662.12 253.727L602.093 221.323L591.382 210.43L599.556 201.988L583.771 186.734ZM617.272 163.769L712.312 148.732L753.829 150.26L784.83 162.791L780.887 171.233L748.768 156.124L598.512 172.996L594.894 172.416L617.272 163.769Z" fill="#603FFF"/>
<path fill-rule="evenodd" clip-rule="evenodd" d="M381.412 156.782C382.85 169.149 384.337 181.867 385.799 194.379L421.999 190.393L438.053 209.149L450.032 215.17L452.906 198.962L442.127 181.595L440.127 148.992L449.544 139.191C449.394 136.287 448.513 133.944 447.126 132.181C443.577 127.658 436.715 126.879 430.21 130.025C423.543 133.243 410.42 145.931 408.751 147.742C407.639 148.95 391.842 153.727 381.412 156.782Z" fill="#603FFF" stroke="#603FFF" stroke-width="2" stroke-miterlimit="22.93"/>
<path fill-rule="evenodd" clip-rule="evenodd" d="M330.49 400.164L365.315 396.463L407.414 391.994L398.297 300.889L397.772 300.943L251.816 315.883L257.415 363.824L253.766 384.271L254.497 408.238L330.49 400.164Z" fill="#4C2BEF" stroke="#603FFF" stroke-width="8" stroke-linecap="round" stroke-linejoin="round"/>
<path fill-rule="evenodd" clip-rule="evenodd" d="M379.107 260.176C373.102 260.176 365.653 252.978 360.61 252.048C355.561 251.118 330.103 254.602 330.103 254.602C330.103 254.602 278.212 261.106 263.314 264.82C248.423 268.533 248.661 279.675 248.661 279.675L251.816 315.883L397.772 300.943L398.297 300.889L476.321 292.906C476.321 292.906 474.265 273.165 471.116 261.8C467.96 250.43 443.008 253.908 443.008 253.908C443.008 253.908 437.79 254.469 430.323 255.261C419.706 256.384 404.54 257.966 393.373 259.029C386.243 259.711 380.744 260.176 379.107 260.176Z" fill="#4C2BEF"/>
<path d="M393.373 259.029C396.248 283.491 398.222 300.279 398.297 300.877V300.889M393.373 259.029C404.54 257.966 419.706 256.384 430.323 255.261C437.79 254.469 443.008 253.908 443.008 253.908C443.008 253.908 467.96 250.43 471.116 261.8C474.265 273.165 476.321 292.906 476.321 292.906L398.297 300.889M393.373 259.029C386.243 259.711 380.744 260.176 379.107 260.176C373.102 260.176 365.653 252.978 360.61 252.048C355.561 251.118 330.103 254.602 330.103 254.602C330.103 254.602 278.212 261.106 263.314 264.82C248.423 268.533 248.661 279.675 248.661 279.675L251.816 315.883L397.772 300.943L398.297 300.889" stroke="#603FFF" stroke-width="8" stroke-linecap="round" stroke-linejoin="round"/>
<path fill-rule="evenodd" clip-rule="evenodd" d="M476.321 292.906L398.297 300.889L407.414 391.994C407.414 391.994 409.733 415.533 412.613 422.556C415.494 429.585 416.725 433.16 420.843 437.266C421.418 437.846 424.799 441.173 430.185 446.469L470.06 400.497L493.393 373.588C492.531 372.936 491.975 371.916 491.975 370.774C491.975 369.313 492.875 368.063 494.174 367.507L484.045 357.157L476.321 292.906Z" fill="#4C2BEF" stroke="#603FFF" stroke-width="8" stroke-linecap="round" stroke-linejoin="round"/>
<path fill-rule="evenodd" clip-rule="evenodd" d="M443.008 253.908C443.008 253.908 467.96 250.43 471.116 261.8C474.265 273.165 476.321 292.906 476.321 292.906L525.244 241.13L566.768 197.187L522.195 157.893L430.323 255.26C437.79 254.469 443.008 253.908 443.008 253.908Z" fill="#4C2BEF" stroke="#603FFF" stroke-width="8" stroke-linecap="round" stroke-linejoin="round"/>
<path fill-rule="evenodd" clip-rule="evenodd" d="M525.244 241.13L476.321 292.906L484.045 357.157L494.174 367.507C494.631 367.308 495.137 367.199 495.674 367.199C497.711 367.199 499.367 368.8 499.367 370.774C499.367 371.324 499.236 371.849 499.005 372.314L556.551 373.353L564.868 373.498L592.145 387.773L634.819 312.253L569.361 278.395L525.244 241.13Z" fill="#4C2BEF" stroke="#603FFF" stroke-width="8" stroke-linecap="round" stroke-linejoin="round"/>
<path fill-rule="evenodd" clip-rule="evenodd" d="M525.244 241.13L569.361 278.395L634.819 312.253L663.514 261.468L600.093 226.613L566.768 197.187L525.244 241.13Z" fill="#4C2BEF" stroke="#603FFF" stroke-width="8" stroke-linecap="round" stroke-linejoin="round"/>
<path fill-rule="evenodd" clip-rule="evenodd" d="M634.819 312.253L592.145 387.773L651.704 418.939L693.877 342.803L634.819 312.253Z" fill="#4C2BEF" stroke="#603FFF" stroke-width="8" stroke-linecap="round" stroke-linejoin="round"/>
<path fill-rule="evenodd" clip-rule="evenodd" d="M634.819 312.253L693.877 342.803L735.889 266.963L728.178 262.972L677.943 236.987L663.514 261.468L634.819 312.253Z" fill="#4C2BEF" stroke="#603FFF" stroke-width="8" stroke-linecap="round" stroke-linejoin="round"/>
<path fill-rule="evenodd" clip-rule="evenodd" d="M651.703 418.939L592.145 387.773L562.15 440.859L554.883 453.715L615.435 484.416L651.703 418.939Z" fill="#4C2BEF" stroke="#603FFF" stroke-width="8" stroke-linecap="round" stroke-linejoin="round"/>
<path fill-rule="evenodd" clip-rule="evenodd" d="M562.15 440.859L592.145 387.773L564.869 373.498L556.551 373.353L526.263 422.809L562.15 440.859Z" fill="#4C2BEF" stroke="#603FFF" stroke-width="8" stroke-linecap="round" stroke-linejoin="round"/>
<path fill-rule="evenodd" clip-rule="evenodd" d="M562.15 440.859L526.263 422.809L517.02 437.906L507.772 453.003L537.867 483.83L554.883 453.715L562.15 440.859Z" fill="#4C2BEF" stroke="#603FFF" stroke-width="8" stroke-linecap="round" stroke-linejoin="round"/>
<path fill-rule="evenodd" clip-rule="evenodd" d="M526.263 422.809L556.551 373.353L499.005 372.314C498.411 373.516 497.143 374.343 495.674 374.343C494.812 374.343 494.024 374.065 493.393 373.588L470.06 400.497L517.02 437.906L526.263 422.809Z" fill="#4C2BEF" stroke="#603FFF" stroke-width="8" stroke-linecap="round" stroke-linejoin="round"/>
<path fill-rule="evenodd" clip-rule="evenodd" d="M517.021 437.906L470.06 400.497L430.186 446.469C437.872 454.023 449.651 465.593 463.199 478.903C478.64 494.066 496.387 511.487 513.015 527.816L537.867 483.83L507.772 453.003L517.021 437.906Z" fill="#4C2BEF" stroke="#603FFF" stroke-width="8" stroke-linecap="round" stroke-linejoin="round"/>
<path fill-rule="evenodd" clip-rule="evenodd" d="M554.883 453.715L537.867 483.83L513.015 527.816L512.534 528.661L469.36 569.833L456.675 593.553L500.542 637.43L535.392 604.893L559.507 595.823L571.074 584.821L580.209 574.066L589.102 531.952L615.435 484.416L554.883 453.715Z" fill="#4C2BEF"/>
<path d="M571.074 584.821C565.575 579.416 540.86 555.159 513.015 527.816M571.074 584.821L559.507 595.823L535.392 604.893L500.542 637.43L456.675 593.553L469.36 569.833L512.534 528.661L513.015 527.816M571.074 584.821L580.209 574.066L589.102 531.952L615.435 484.416L554.883 453.715L537.867 483.83L513.015 527.816" stroke="#603FFF" stroke-width="8" stroke-linecap="round" stroke-linejoin="round"/>
<path fill-rule="evenodd" clip-rule="evenodd" d="M500.542 637.43L456.674 593.553L444.264 607.146L433.429 610.509C433.647 611.017 433.766 611.566 433.766 612.146C433.766 614.489 431.798 616.391 429.373 616.391C429.123 616.391 428.879 616.373 428.642 616.331L472.897 663.245L500.542 637.43Z" fill="#4C2BEF" stroke="#603FFF" stroke-width="8" stroke-linecap="round" stroke-linejoin="round"/>
<path fill-rule="evenodd" clip-rule="evenodd" d="M472.897 663.245L428.642 616.331C427.111 616.083 425.849 615.075 425.293 613.716L400.934 635.232L380.15 653.601L401.097 674H461.374L472.897 663.245Z" fill="#4C2BEF" stroke="#603FFF" stroke-width="8" stroke-linecap="round" stroke-linejoin="round"/>
<path fill-rule="evenodd" clip-rule="evenodd" d="M400.934 635.232L348.325 585.093L328.565 603.36L380.15 653.601L400.934 635.232Z" fill="#4C2BEF" stroke="#603FFF" stroke-width="8" stroke-linecap="round" stroke-linejoin="round"/>
<path fill-rule="evenodd" clip-rule="evenodd" d="M348.324 585.093L400.934 635.232L425.292 613.716C425.086 613.233 424.98 612.702 424.98 612.146C424.98 610.739 425.686 609.489 426.78 608.716L418.894 596.222L417.513 577.562L407.477 567.774L387.811 548.595L348.324 585.093Z" fill="#4C2BEF" stroke="#603FFF" stroke-width="8" stroke-linecap="round" stroke-linejoin="round"/>
<path fill-rule="evenodd" clip-rule="evenodd" d="M417.513 577.563L418.894 596.222L426.78 608.716C427.505 608.203 428.404 607.901 429.373 607.901C431.198 607.901 432.766 608.976 433.429 610.509L444.264 607.146L456.675 593.553L469.36 569.833C469.36 569.833 456.893 549.519 438.628 549.519C420.362 549.519 407.477 567.774 407.477 567.774L417.513 577.563Z" fill="#4C2BEF" stroke="#603FFF" stroke-width="8" stroke-linecap="round" stroke-linejoin="round"/>
<path fill-rule="evenodd" clip-rule="evenodd" d="M438.628 549.519C456.893 549.519 469.36 569.833 469.36 569.833L512.534 528.661L513.015 527.816C496.387 511.487 478.64 494.066 463.199 478.903L429.411 510.135L387.812 548.595L407.477 567.774C407.477 567.774 420.362 549.519 438.628 549.519Z" fill="#4C2BEF" stroke="#603FFF" stroke-width="8" stroke-linecap="round" stroke-linejoin="round"/>
<path fill-rule="evenodd" clip-rule="evenodd" d="M387.812 548.595L429.411 510.135L396.916 478.353L356.898 516.584L355.705 517.284L375.17 536.27L387.812 548.595Z" fill="#4C2BEF" stroke="#603FFF" stroke-width="8" stroke-linecap="round" stroke-linejoin="round"/>
<path fill-rule="evenodd" clip-rule="evenodd" d="M396.916 478.353L429.411 510.135L463.199 478.903C449.651 465.593 437.872 454.023 430.186 446.469L429.692 447.037L396.916 478.353Z" fill="#4C2BEF" stroke="#603FFF" stroke-width="8" stroke-linecap="round" stroke-linejoin="round"/>
<path fill-rule="evenodd" clip-rule="evenodd" d="M396.916 478.353L429.692 447.037L430.185 446.469C424.799 441.173 421.418 437.846 420.843 437.266C416.725 433.16 415.494 429.585 412.614 422.556C409.733 415.533 407.414 391.994 407.414 391.994L365.315 396.463L370.04 452.067L396.916 478.353Z" fill="#4C2BEF" stroke="#603FFF" stroke-width="8" stroke-linecap="round" stroke-linejoin="round"/>
<path fill-rule="evenodd" clip-rule="evenodd" d="M370.04 452.067L365.315 396.463L330.49 400.164C330.49 400.164 332.709 427.326 335.564 452.791C337.089 466.384 338.795 479.494 340.451 487.725C345.2 511.379 355.705 517.284 355.705 517.284L356.898 516.584L396.916 478.353L370.04 452.067Z" fill="#4C2BEF" stroke="#603FFF" stroke-width="8" stroke-linecap="round" stroke-linejoin="round"/>
<path fill-rule="evenodd" clip-rule="evenodd" d="M335.564 452.791C332.708 427.326 330.49 400.164 330.49 400.164L254.497 408.238L245.742 409.277L253.178 463.407L335.564 452.791Z" fill="#4C2BEF" stroke="#603FFF" stroke-width="8" stroke-linecap="round" stroke-linejoin="round"/>
<path fill-rule="evenodd" clip-rule="evenodd" d="M335.564 452.792L253.178 463.407L259.615 510.189C257.796 518.414 256.353 526.397 255.984 533.824C260.983 533.311 263.908 533.003 263.908 533.003L344.869 523.667L355.705 517.285C355.705 517.285 345.2 511.379 340.451 487.725C338.795 479.494 337.089 466.385 335.564 452.792Z" fill="#4C2BEF" stroke="#603FFF" stroke-width="8" stroke-linecap="round" stroke-linejoin="round"/>
<path fill-rule="evenodd" clip-rule="evenodd" d="M344.869 523.667L263.908 533.003C263.908 533.003 260.983 533.311 255.984 533.824C255.053 552.919 261.246 568.378 286.61 575.062C306.682 580.352 316.167 591.282 316.167 591.282L316.974 592.067L375.17 536.27L355.704 517.284L344.869 523.667Z" fill="#4C2BEF" stroke="#603FFF" stroke-width="8" stroke-linecap="round" stroke-linejoin="round"/>
<path fill-rule="evenodd" clip-rule="evenodd" d="M375.17 536.27L316.974 592.067L328.565 603.36L348.324 585.093L387.811 548.595L375.17 536.27Z" fill="#4C2BEF" stroke="#603FFF" stroke-width="8" stroke-linecap="round" stroke-linejoin="round"/>
<path fill-rule="evenodd" clip-rule="evenodd" d="M255.984 533.824C256.353 526.397 257.796 518.414 259.615 510.189L253.178 463.407L199.219 470.358L208.636 538.643C228.145 536.693 246.117 534.845 255.984 533.824Z" fill="#4C2BEF" stroke="#603FFF" stroke-width="8" stroke-linecap="round" stroke-linejoin="round"/>
<path fill-rule="evenodd" clip-rule="evenodd" d="M199.219 470.358L253.178 463.407L245.742 409.277L162.582 419.162L169.462 474.193L199.219 470.358Z" fill="#4C2BEF" stroke="#603FFF" stroke-width="8" stroke-linecap="round" stroke-linejoin="round"/>
<path fill-rule="evenodd" clip-rule="evenodd" d="M169.462 474.193L162.582 419.162L122.095 418.456L123.251 429.621L128.406 479.476L169.462 474.193Z" fill="#4C2BEF" stroke="#603FFF" stroke-width="8" stroke-linecap="round" stroke-linejoin="round"/>
<path fill-rule="evenodd" clip-rule="evenodd" d="M169.462 474.193L128.406 479.476L131.443 508.873L133.574 529.464L175.754 524.591L169.462 474.193Z" fill="#4C2BEF" stroke="#603FFF" stroke-width="8" stroke-linecap="round" stroke-linejoin="round"/>
<path fill-rule="evenodd" clip-rule="evenodd" d="M175.754 524.591L133.574 529.464L121.97 531.602L107.06 542.81L107.135 549.15C114.265 547.713 123.388 546.433 135.468 545.509C150.827 544.332 181.253 541.385 208.636 538.643L199.219 470.358L169.462 474.192L175.754 524.591Z" fill="#4C2BEF" stroke="#603FFF" stroke-width="8" stroke-linecap="round" stroke-linejoin="round"/>
<path fill-rule="evenodd" clip-rule="evenodd" d="M128.406 479.476L123.251 429.621L93.3748 432.508C95.0432 447.103 96.268 457.375 96.268 457.375C97.2553 471.354 115.283 481.167 128.406 479.476Z" fill="#4C2BEF" stroke="#603FFF" stroke-width="8" stroke-linecap="round" stroke-linejoin="round"/>
<path fill-rule="evenodd" clip-rule="evenodd" d="M93.3748 432.508L123.251 429.621L122.095 418.456L117.977 380.37L87.9819 383.401C89.7316 400.237 91.7625 418.395 93.3748 432.508Z" fill="#4C2BEF" stroke="#603FFF" stroke-width="8" stroke-linecap="round" stroke-linejoin="round"/>
<path fill-rule="evenodd" clip-rule="evenodd" d="M87.9819 383.401L117.977 380.37L114.434 347.61L84.4263 344.283C84.9949 353.365 86.3697 367.815 87.9819 383.401Z" fill="#4C2BEF" stroke="#603FFF" stroke-width="8" stroke-linecap="round" stroke-linejoin="round"/>
<path fill-rule="evenodd" clip-rule="evenodd" d="M84.4264 344.283L114.434 347.61L118.895 334.79L127.656 323.504L105.973 302.181C105.973 302.181 84.1389 319.059 84.1389 337.344C84.1389 339.011 84.2389 341.372 84.4264 344.283Z" fill="#4C2BEF" stroke="#603FFF" stroke-width="8" stroke-linecap="round" stroke-linejoin="round"/>
<path fill-rule="evenodd" clip-rule="evenodd" d="M484.001 295.442L526.619 250.551L564.287 283.944L609.43 307.562L585.128 355.007C585.128 355.007 558.632 347.151 552.596 350.195C546.559 353.232 538.954 352.725 538.954 355.768C538.954 358.812 526.619 355.515 526.619 355.515L522.163 363.884L507.991 364.899L506.416 358.558L514.552 348.166C514.552 348.166 505.11 342.079 503.273 342.079C501.436 342.079 504.06 322.556 499.599 320.527C495.137 318.498 486.944 315.454 486.944 315.454L484.001 295.442Z" fill="#7D68FB"/>
<path fill-rule="evenodd" clip-rule="evenodd" d="M420.475 429.99C420.793 429.446 426.092 424.79 426.092 424.79L435.222 432.852L429.211 439.344L420.475 429.99Z" fill="#7D68FB"/>
<path fill-rule="evenodd" clip-rule="evenodd" d="M530.781 446.36L536.117 436.457L551.839 443.921L545.241 455.588L530.781 446.36Z" fill="#7D68FB"/>
<path fill-rule="evenodd" clip-rule="evenodd" d="M616.285 493.812L624.29 478.311L637.668 475.026L637.031 470.618L630.976 466.922L638.837 453.589L650.722 457.381L627.526 499.851L616.285 493.812Z" fill="#7D68FB"/>
<path fill-rule="evenodd" clip-rule="evenodd" d="M255.584 512.84L229.226 515.093L229.708 518.197L235.738 517.732L236.944 527.363L226.977 528.45L227.377 532.798L252.291 530.467C252.291 530.467 251.729 521.922 255.584 512.84Z" fill="#7D68FB"/>
<path fill-rule="evenodd" clip-rule="evenodd" d="M156.458 530.038L188.146 527.085L190.271 537.387L157.32 540.226L156.458 530.038Z" fill="#7D68FB"/>
<path fill-rule="evenodd" clip-rule="evenodd" d="M197.832 445.231L213.254 443.504L214.11 452.592L199.144 454.452L197.832 445.231Z" fill="#7D68FB"/>
<path fill-rule="evenodd" clip-rule="evenodd" d="M257.534 431.113L262.221 430.648L263.677 441.113L258.99 441.741L257.534 431.113Z" fill="#7D68FB"/>
<path fill-rule="evenodd" clip-rule="evenodd" d="M453.931 611.85L462.492 603.934L480.339 620.83L475.571 625.081L478.752 628.39L471.172 631.228L464.223 626.977L455.887 628.626L461.386 622.484L455.644 616.929L453.931 611.85Z" fill="#7D68FB"/>
<path fill-rule="evenodd" clip-rule="evenodd" d="M504.491 235.707L515.339 241.831L558.594 198.123L522.051 166.891L468.166 225.87C468.741 228.835 468.572 231.275 467.023 232.984C465.479 234.693 462.236 239.922 464.773 241.42C467.31 242.918 478.996 244.415 481.114 247.139C483.226 249.862 485.62 252.99 489.138 251.493C492.662 249.995 504.491 235.707 504.491 235.707Z" fill="#7D68FB"/>
<path fill-rule="evenodd" clip-rule="evenodd" d="M409.951 362.043L422.374 361.137L433.647 348.83L432.398 339.047L463.086 336.825L464.961 349.035L476.652 357.103L470.185 364.059L483.233 375.159L459.537 402.393L451.394 396.547L447.114 400.883L442.833 397.351L447.32 392.81L434.585 382.725L432.81 365.78L409.639 368.099L409.12 362.103L409.951 362.043Z" fill="#7D68FB"/>
<path d="M544.991 443.293C549.305 443.293 552.802 439.913 552.802 435.744C552.802 431.576 549.305 428.196 544.991 428.196C540.677 428.196 537.179 431.576 537.179 435.744C537.179 439.913 540.677 443.293 544.991 443.293Z" fill="#FEFEFE"/>
<path d="M544.991 442.224C543.11 442.224 541.41 441.469 540.191 440.261H549.79C548.571 441.469 546.872 442.224 544.991 442.224ZM542.21 433.13L541.847 432.073C541.879 431.964 542.085 431.753 542.222 431.614C542.322 431.511 542.416 431.421 542.497 431.324C542.579 431.421 542.672 431.511 542.766 431.614C542.91 431.753 543.116 431.964 543.147 432.073L542.779 433.13H542.21ZM543.897 438.885H548.14V439.79H543.897V438.885ZM544.991 429.271C548.69 429.271 551.696 432.176 551.696 435.744C551.696 437.278 551.14 438.679 550.221 439.79H548.621V437.484H548.14V438.414H543.897V437.484H543.416V439.79H542.741V433.595H543.128L543.635 432.139V432.097C543.635 431.813 543.385 431.56 543.122 431.288C542.972 431.137 542.741 430.901 542.741 430.799H542.254C542.254 430.901 542.022 431.137 541.872 431.288C541.61 431.56 541.36 431.813 541.36 432.097V432.139L541.86 433.595H542.254V439.79H539.767C538.842 438.685 538.292 437.278 538.292 435.744C538.292 432.176 541.298 429.271 544.991 429.271ZM544.991 428.8C541.029 428.8 537.804 431.916 537.804 435.744C537.804 439.573 541.029 442.689 544.991 442.689C548.953 442.689 552.177 439.573 552.177 435.744C552.177 431.916 548.953 428.8 544.991 428.8Z" fill="#393185"/>
<path d="M547.946 437.761H544.091V438.226H547.946V437.761Z" fill="#393185"/>
<path d="M547.946 437.103H544.091V437.574H547.946V437.103Z" fill="#393185"/>
<path d="M242.405 521.512C246.719 521.512 250.216 518.132 250.216 513.963C250.216 509.795 246.719 506.415 242.405 506.415C238.091 506.415 234.594 509.795 234.594 513.963C234.594 518.132 238.091 521.512 242.405 521.512Z" fill="#FEFEFE"/>
<path d="M242.405 520.437C240.524 520.437 238.824 519.688 237.606 518.48H247.204C245.986 519.688 244.286 520.437 242.405 520.437ZM239.624 511.343L239.262 510.292C239.293 510.177 239.499 509.972 239.637 509.827C239.737 509.73 239.83 509.634 239.912 509.537C239.993 509.634 240.087 509.73 240.18 509.827C240.318 509.972 240.524 510.177 240.555 510.292L240.193 511.343H239.624ZM241.311 517.098H245.554V518.009H241.311V517.098ZM242.405 507.49C246.098 507.49 249.104 510.395 249.104 513.963C249.104 515.491 248.554 516.898 247.629 518.009H246.036V515.697H245.554V516.633H241.311V515.697H240.824V518.009H240.155V511.814H240.543L241.049 510.358V510.316C241.049 510.026 240.799 509.773 240.53 509.507C240.38 509.35 240.155 509.12 240.155 509.018H239.668C239.668 509.12 239.437 509.35 239.287 509.507C239.024 509.773 238.774 510.026 238.774 510.316V510.358L239.274 511.814H239.668V518.009H237.181C236.256 516.898 235.706 515.491 235.706 513.963C235.706 510.395 238.712 507.49 242.405 507.49ZM242.405 507.019C238.443 507.019 235.219 510.135 235.219 513.963C235.219 517.792 238.443 520.908 242.405 520.908C246.367 520.908 249.591 517.792 249.591 513.963C249.591 510.135 246.367 507.019 242.405 507.019Z" fill="#393185"/>
<path d="M245.354 515.974H241.505V516.445H245.354V515.974Z" fill="#393185"/>
<path d="M245.354 515.322H241.505V515.793H245.354V515.322Z" fill="#393185"/>
<path d="M435.697 598.958C440.011 598.958 443.508 595.578 443.508 591.409C443.508 587.24 440.011 583.861 435.697 583.861C431.383 583.861 427.886 587.24 427.886 591.409C427.886 595.578 431.383 598.958 435.697 598.958Z" fill="#FEFEFE"/>
<path d="M435.697 597.889C433.816 597.889 432.116 597.134 430.898 595.926H440.496C439.278 597.134 437.578 597.889 435.697 597.889ZM436.759 592.925L437.097 593.94H434.26L434.597 592.925H436.759ZM434.453 589.96L435.297 589.845L435.678 589.103L436.053 589.845L436.897 589.96L436.284 590.534L436.434 591.349L435.678 590.962L434.922 591.349L435.066 590.534L434.453 589.96ZM433.672 594.441H437.715L438.297 595.455H433.091L433.672 594.441ZM435.697 584.936C439.39 584.936 442.396 587.84 442.396 591.415C442.396 592.943 441.846 594.35 440.921 595.455H438.853L438.003 593.97H437.615L437.109 592.454H435.922V591.621L437.078 592.206L436.809 590.703L437.94 589.634L436.378 589.417L435.678 588.046L434.978 589.417L433.41 589.634L434.547 590.703L434.278 592.206L435.435 591.621V592.454H434.241L433.741 593.97H433.385L432.535 595.455H430.467C429.548 594.35 428.992 592.943 428.992 591.415C428.992 587.84 431.998 584.936 435.697 584.936ZM435.697 584.465C431.735 584.465 428.511 587.581 428.511 591.415C428.511 595.25 431.735 598.36 435.697 598.36C439.659 598.36 442.883 595.244 442.883 591.415C442.883 587.587 439.659 584.465 435.697 584.465Z" fill="#393185"/>
<path d="M375.813 486.747C380.127 486.747 383.624 483.367 383.624 479.199C383.624 475.03 380.127 471.65 375.813 471.65C371.499 471.65 368.002 475.03 368.002 479.199C368.002 483.367 371.499 486.747 375.813 486.747Z" fill="#FEFEFE"/>
<path d="M375.813 485.672C373.933 485.672 372.233 484.923 371.014 483.715H380.613C379.394 484.923 377.694 485.672 375.813 485.672ZM373.033 476.578L372.67 475.527C372.702 475.418 372.908 475.207 373.045 475.062C373.145 474.965 373.239 474.869 373.32 474.772C373.401 474.869 373.495 474.965 373.589 475.062C373.726 475.207 373.933 475.418 373.964 475.527L373.601 476.578H373.033ZM374.72 482.333H378.957V483.244H374.72V482.333ZM375.813 472.725C379.507 472.725 382.512 475.63 382.512 479.199C382.512 480.726 381.962 482.133 381.038 483.244H379.444V480.932H378.957V481.868H374.72V480.932H374.232V483.244H373.558V477.049H373.951L374.457 475.593V475.551C374.457 475.261 374.207 475.008 373.939 474.742C373.789 474.585 373.558 474.356 373.558 474.253H373.076C373.076 474.356 372.845 474.585 372.695 474.742C372.433 475.008 372.183 475.261 372.183 475.551V475.593L372.683 477.049H373.076V483.244H370.583C369.665 482.133 369.108 480.726 369.108 479.199C369.108 475.63 372.12 472.725 375.813 472.725ZM375.813 472.254C371.852 472.254 368.627 475.37 368.627 479.199C368.627 483.027 371.852 486.143 375.813 486.143C379.775 486.143 383 483.027 383 479.199C383 475.37 379.775 472.254 375.813 472.254Z" fill="#393185"/>
<path d="M378.763 481.209H374.914V481.68H378.763V481.209Z" fill="#393185"/>
<path d="M378.763 480.557H374.914V481.028H378.763V480.557Z" fill="#393185"/>
<path d="M436.347 432.169C440.661 432.169 444.158 428.79 444.158 424.621C444.158 420.452 440.661 417.073 436.347 417.073C432.033 417.073 428.536 420.452 428.536 424.621C428.536 428.79 432.033 432.169 436.347 432.169Z" fill="#FEFEFE"/>
<path d="M436.347 431.095C434.466 431.095 432.766 430.34 431.548 429.132H441.146C439.928 430.34 438.228 431.095 436.347 431.095ZM433.566 422L433.204 420.944C433.235 420.835 433.441 420.624 433.579 420.485C433.679 420.388 433.772 420.291 433.854 420.195C433.935 420.291 434.029 420.388 434.122 420.485C434.266 420.624 434.466 420.835 434.503 420.944L434.135 422H433.566ZM435.253 427.755H439.496V428.661H435.253V427.755ZM436.347 418.142C440.04 418.142 443.052 421.046 443.052 424.615C443.052 426.149 442.496 427.556 441.577 428.661H439.978V426.354H439.496V427.284H435.253V426.354H434.772V428.661H434.097V422.471H434.485L434.991 421.01V420.974C434.991 420.684 434.741 420.43 434.478 420.159C434.322 420.008 434.097 419.772 434.097 419.675H433.61C433.61 419.772 433.379 420.008 433.229 420.159C432.966 420.43 432.716 420.684 432.716 420.974V421.01L433.216 422.471H433.61V428.661H431.123C430.198 427.556 429.648 426.149 429.648 424.615C429.648 421.046 432.654 418.142 436.347 418.142ZM436.347 417.671C432.385 417.671 429.161 420.787 429.161 424.615C429.161 428.444 432.385 431.566 436.347 431.566C440.309 431.566 443.533 428.45 443.533 424.615C443.533 420.781 440.309 417.671 436.347 417.671Z" fill="#393185"/>
<path d="M439.303 426.632H435.447V427.097H439.303V426.632Z" fill="#393185"/>
<path d="M439.303 425.974H435.447V426.445H439.303V425.974Z" fill="#393185"/>
<path d="M484.988 326.819C489.302 326.819 492.799 323.439 492.799 319.271C492.799 315.102 489.302 311.722 484.988 311.722C480.674 311.722 477.177 315.102 477.177 319.271C477.177 323.439 480.674 326.819 484.988 326.819Z" fill="#FEFEFE"/>
<path d="M484.988 325.744C483.114 325.744 481.414 324.995 480.195 323.781H489.787C488.569 324.995 486.869 325.744 484.988 325.744ZM482.214 316.65L481.851 315.599C481.883 315.484 482.083 315.279 482.226 315.134C482.32 315.037 482.414 314.941 482.495 314.844C482.576 314.941 482.67 315.037 482.77 315.134C482.907 315.279 483.114 315.484 483.145 315.599L482.782 316.65H482.214ZM483.901 322.405H488.138V323.316H483.901V322.405ZM484.988 312.791C488.688 312.791 491.693 315.702 491.693 319.271C491.693 320.798 491.137 322.205 490.219 323.316H488.625V321.004H488.138V321.934H483.901V321.004H483.414V323.316H482.739V317.121H483.132L483.632 315.659V315.623C483.632 315.333 483.382 315.08 483.12 314.814C482.97 314.657 482.739 314.428 482.739 314.325H482.251C482.251 314.428 482.026 314.657 481.87 314.814C481.608 315.08 481.358 315.333 481.358 315.623V315.659L481.864 317.121H482.251V323.316H479.764C478.846 322.205 478.289 320.798 478.289 319.271C478.289 315.702 481.295 312.791 484.988 312.791ZM484.988 312.326C481.026 312.326 477.802 315.442 477.802 319.271C477.802 323.099 481.026 326.215 484.988 326.215C488.95 326.215 492.181 323.099 492.181 319.271C492.181 315.442 488.956 312.326 484.988 312.326Z" fill="#393185"/>
<path d="M487.944 321.281H484.095V321.752H487.944V321.281Z" fill="#393185"/>
<path d="M487.944 320.629H484.095V321.094H487.944V320.629Z" fill="#393185"/>
<path d="M472.866 376.819C477.18 376.819 480.677 373.439 480.677 369.271C480.677 365.102 477.18 361.722 472.866 361.722C468.552 361.722 465.054 365.102 465.054 369.271C465.054 373.439 468.552 376.819 472.866 376.819Z" fill="#FEFEFE"/>
<path d="M472.866 375.75C470.985 375.75 469.285 374.995 468.067 373.788H477.665C476.446 374.995 474.747 375.75 472.866 375.75ZM473.928 370.786L474.265 371.801H471.428L471.766 370.786H473.928ZM471.628 367.821L472.472 367.701L472.847 366.964L473.228 367.701L474.072 367.821L473.459 368.395L473.603 369.21L472.847 368.824L472.097 369.21L472.241 368.395L471.628 367.821ZM470.847 372.302H474.89L475.472 373.317H470.26L470.847 372.302ZM472.866 362.797C476.565 362.797 479.571 365.702 479.571 369.271C479.571 370.798 479.015 372.205 478.096 373.317H476.028L475.178 371.831H474.784L474.284 370.315H473.091V369.476L474.247 370.068L473.978 368.558L475.115 367.495L473.547 367.272L472.847 365.907L472.147 367.272L470.585 367.495L471.716 368.558L471.447 370.068L472.603 369.476V370.315H471.416L470.91 371.831H470.56L469.71 373.317H467.642C466.717 372.211 466.167 370.804 466.167 369.271C466.167 365.702 469.173 362.797 472.866 362.797ZM472.866 362.326C468.904 362.326 465.679 365.442 465.679 369.271C465.679 373.099 468.904 376.215 472.866 376.215C476.828 376.215 480.052 373.099 480.052 369.271C480.052 365.442 476.828 362.326 472.866 362.326Z" fill="#393185"/>
<path d="M431.523 380.889C435.837 380.889 439.334 377.51 439.334 373.341C439.334 369.172 435.837 365.792 431.523 365.792C427.209 365.792 423.712 369.172 423.712 373.341C423.712 377.51 427.209 380.889 431.523 380.889Z" fill="#FEFEFE"/>
<path d="M433.41 379.555V378.323L434.96 376.251V375.146C434.997 374.567 434.41 374.216 433.891 373.902C433.46 373.649 433.023 373.383 433.048 373.087V372.894L433.654 372.169V370.792C433.654 369.657 432.698 368.733 431.523 368.733C430.348 368.733 429.392 369.657 429.392 370.792V373.57H429.673C429.523 373.685 429.342 373.794 429.161 373.902C428.636 374.216 428.049 374.567 428.086 375.146V376.251L429.636 378.323H429.642V379.555C426.861 378.77 424.824 376.282 424.824 373.341C424.824 369.772 427.83 366.867 431.523 366.867C435.216 366.867 438.222 369.772 438.222 373.341C438.222 376.282 436.191 378.77 433.41 379.555ZM432.923 379.675C432.473 379.766 432.004 379.82 431.523 379.82C431.042 379.82 430.579 379.772 430.129 379.675V378.323H432.923V379.675ZM433.629 374.301C434.06 374.555 434.497 374.82 434.472 375.122L434.479 376.101L433.16 377.852H432.816C432.685 377.206 432.035 376.541 431.348 375.847C430.679 375.164 429.986 374.464 429.979 373.933C430.173 373.782 430.336 373.619 430.417 373.425L430.567 373.099H429.873V370.792C429.873 369.917 430.617 369.204 431.523 369.204C432.429 369.204 433.173 369.917 433.173 370.792V372L432.56 372.725V373.063C432.523 373.637 433.11 373.987 433.629 374.301ZM428.573 375.122C428.548 374.82 428.992 374.555 429.417 374.301C429.455 374.277 429.498 374.253 429.536 374.229C429.698 374.85 430.329 375.497 430.992 376.167C431.573 376.753 432.167 377.357 432.317 377.852H429.886L428.573 376.101V375.122ZM431.523 366.396C427.561 366.396 424.337 369.512 424.337 373.341C424.337 376.541 426.593 379.247 429.642 380.044C429.804 380.086 429.967 380.122 430.129 380.152C430.579 380.243 431.048 380.285 431.523 380.285C431.998 380.285 432.473 380.243 432.923 380.152C433.091 380.122 433.248 380.086 433.41 380.044C436.46 379.241 438.709 376.541 438.709 373.341C438.709 369.512 435.485 366.396 431.523 366.396Z" fill="#393185"/>
<path d="M431.523 380.889C435.837 380.889 439.334 377.51 439.334 373.341C439.334 369.172 435.837 365.792 431.523 365.792C427.209 365.792 423.712 369.172 423.712 373.341C423.712 377.51 427.209 380.889 431.523 380.889Z" fill="#FEFEFE"/>
<path d="M433.41 379.555V378.323L434.96 376.251V375.146C434.997 374.567 434.41 374.216 433.891 373.902C433.46 373.649 433.023 373.383 433.048 373.087V372.894L433.654 372.169V370.792C433.654 369.657 432.698 368.733 431.523 368.733C430.348 368.733 429.392 369.657 429.392 370.792V373.57H429.673C429.523 373.685 429.342 373.794 429.161 373.902C428.636 374.216 428.049 374.567 428.086 375.146V376.251L429.636 378.323H429.642V379.555C426.861 378.77 424.824 376.282 424.824 373.341C424.824 369.772 427.83 366.867 431.523 366.867C435.216 366.867 438.222 369.772 438.222 373.341C438.222 376.282 436.191 378.77 433.41 379.555ZM432.923 379.675C432.473 379.766 432.004 379.82 431.523 379.82C431.042 379.82 430.579 379.772 430.129 379.675V378.323H432.923V379.675ZM433.629 374.301C434.06 374.555 434.497 374.82 434.472 375.122L434.479 376.101L433.16 377.852H432.816C432.685 377.206 432.035 376.541 431.348 375.847C430.679 375.164 429.986 374.464 429.979 373.933C430.173 373.782 430.336 373.619 430.417 373.425L430.567 373.099H429.873V370.792C429.873 369.917 430.617 369.204 431.523 369.204C432.429 369.204 433.173 369.917 433.173 370.792V372L432.56 372.725V373.063C432.523 373.637 433.11 373.987 433.629 374.301ZM428.573 375.122C428.548 374.82 428.992 374.555 429.417 374.301C429.455 374.277 429.498 374.253 429.536 374.229C429.698 374.85 430.329 375.497 430.992 376.167C431.573 376.753 432.167 377.357 432.317 377.852H429.886L428.573 376.101V375.122ZM431.523 366.396C427.561 366.396 424.337 369.512 424.337 373.341C424.337 376.541 426.593 379.247 429.642 380.044C429.804 380.086 429.967 380.122 430.129 380.152C430.579 380.243 431.048 380.285 431.523 380.285C431.998 380.285 432.473 380.243 432.923 380.152C433.091 380.122 433.248 380.086 433.41 380.044C436.46 379.241 438.709 376.541 438.709 373.341C438.709 369.512 435.485 366.396 431.523 366.396Z" fill="#393185"/>
<path d="M346.937 465.11C351.251 465.11 354.748 461.731 354.748 457.562C354.748 453.393 351.251 450.014 346.937 450.014C342.623 450.014 339.126 453.393 339.126 457.562C339.126 461.731 342.623 465.11 346.937 465.11Z" fill="#FEFEFE"/>
<path d="M348.824 463.776V462.538L350.38 460.473V459.362C350.411 458.788 349.824 458.438 349.305 458.124C348.88 457.87 348.437 457.604 348.462 457.308V457.115L349.074 456.391V455.014C349.074 453.878 348.118 452.955 346.937 452.955C345.756 452.955 344.806 453.878 344.806 455.014V457.791H345.087C344.937 457.906 344.756 458.015 344.575 458.124C344.056 458.438 343.469 458.788 343.5 459.362V460.473L345.056 462.544H345.062V463.776C342.275 462.991 340.238 460.503 340.238 457.562C340.238 453.987 343.244 451.089 346.937 451.089C350.63 451.089 353.642 453.987 353.642 457.562C353.642 460.497 351.605 462.985 348.824 463.776ZM348.343 463.897C347.887 463.987 347.418 464.036 346.937 464.036C346.456 464.036 345.993 463.987 345.543 463.897V462.544H348.343V463.897ZM349.049 458.522C349.474 458.776 349.911 459.042 349.893 459.337V460.322L348.58 462.073H348.237C348.099 461.427 347.449 460.763 346.762 460.068C346.093 459.386 345.4 458.685 345.393 458.154C345.587 458.003 345.75 457.84 345.837 457.647L345.981 457.321H345.294V455.014C345.294 454.138 346.031 453.42 346.937 453.42C347.843 453.42 348.587 454.138 348.587 455.014V456.221L347.974 456.946V457.278C347.937 457.858 348.53 458.208 349.049 458.522ZM343.987 459.337C343.962 459.042 344.406 458.776 344.831 458.522C344.869 458.498 344.912 458.474 344.95 458.45C345.112 459.072 345.743 459.712 346.412 460.388C346.987 460.974 347.581 461.578 347.737 462.073H345.3L343.987 460.322V459.337ZM346.937 450.618C342.975 450.618 339.751 453.734 339.751 457.562C339.751 460.763 342.007 463.462 345.062 464.265C345.219 464.307 345.381 464.343 345.543 464.374C346 464.464 346.462 464.506 346.937 464.506C347.412 464.506 347.887 464.458 348.343 464.374C348.505 464.343 348.668 464.307 348.824 464.265C351.874 463.462 354.123 460.763 354.123 457.562C354.123 453.734 350.905 450.618 346.937 450.618Z" fill="#393185"/>
<path d="M346.937 465.11C351.251 465.11 354.748 461.731 354.748 457.562C354.748 453.393 351.251 450.014 346.937 450.014C342.623 450.014 339.126 453.393 339.126 457.562C339.126 461.731 342.623 465.11 346.937 465.11Z" fill="#FEFEFE"/>
<path d="M348.824 463.776V462.538L350.38 460.473V459.362C350.411 458.788 349.824 458.438 349.305 458.124C348.88 457.87 348.437 457.604 348.462 457.308V457.115L349.074 456.391V455.014C349.074 453.878 348.118 452.955 346.937 452.955C345.756 452.955 344.806 453.878 344.806 455.014V457.791H345.087C344.937 457.906 344.756 458.015 344.575 458.124C344.056 458.438 343.469 458.788 343.5 459.362V460.473L345.056 462.544H345.062V463.776C342.275 462.991 340.238 460.503 340.238 457.562C340.238 453.987 343.244 451.089 346.937 451.089C350.63 451.089 353.642 453.987 353.642 457.562C353.642 460.497 351.605 462.985 348.824 463.776ZM348.343 463.897C347.887 463.987 347.418 464.036 346.937 464.036C346.456 464.036 345.993 463.987 345.543 463.897V462.544H348.343V463.897ZM349.049 458.522C349.474 458.776 349.911 459.042 349.893 459.337V460.322L348.58 462.073H348.237C348.099 461.427 347.449 460.763 346.762 460.068C346.093 459.386 345.4 458.685 345.393 458.154C345.587 458.003 345.75 457.84 345.837 457.647L345.981 457.321H345.294V455.014C345.294 454.138 346.031 453.42 346.937 453.42C347.843 453.42 348.587 454.138 348.587 455.014V456.221L347.974 456.946V457.278C347.937 457.858 348.53 458.208 349.049 458.522ZM343.987 459.337C343.962 459.042 344.406 458.776 344.831 458.522C344.869 458.498 344.912 458.474 344.95 458.45C345.112 459.072 345.743 459.712 346.412 460.388C346.987 460.974 347.581 461.578 347.737 462.073H345.3L343.987 460.322V459.337ZM346.937 450.618C342.975 450.618 339.751 453.734 339.751 457.562C339.751 460.763 342.007 463.462 345.062 464.265C345.219 464.307 345.381 464.343 345.543 464.374C346 464.464 346.462 464.506 346.937 464.506C347.412 464.506 347.887 464.458 348.343 464.374C348.505 464.343 348.668 464.307 348.824 464.265C351.874 463.462 354.123 460.763 354.123 457.562C354.123 453.734 350.905 450.618 346.937 450.618Z" fill="#393185"/>
<path d="M653.928 422.478C658.242 422.478 661.739 419.098 661.739 414.929C661.739 410.76 658.242 407.381 653.928 407.381C649.614 407.381 646.117 410.76 646.117 414.929C646.117 419.098 649.614 422.478 653.928 422.478Z" fill="#FEFEFE"/>
<path d="M655.815 421.143V419.905L657.365 417.84V416.729C657.403 416.155 656.809 415.805 656.29 415.491C655.865 415.237 655.428 414.971 655.447 414.676V414.482L656.059 413.758V412.381C656.059 411.246 655.103 410.322 653.928 410.322C652.753 410.322 651.797 411.246 651.797 412.381V415.159H652.079C651.929 415.273 651.741 415.382 651.56 415.491C651.041 415.805 650.454 416.155 650.491 416.729V417.84L652.041 419.911H652.047V421.143C649.267 420.358 647.223 417.87 647.223 414.929C647.223 411.354 650.235 408.456 653.928 408.456C657.621 408.456 660.627 411.354 660.627 414.929C660.627 417.864 658.596 420.352 655.815 421.143ZM655.328 421.264C654.878 421.354 654.409 421.403 653.928 421.403C653.447 421.403 652.985 421.354 652.535 421.264V419.911H655.328V421.264ZM656.034 415.889C656.459 416.143 656.903 416.409 656.878 416.705V417.689L655.565 419.44H655.222C655.091 418.794 654.434 418.13 653.747 417.435C653.078 416.753 652.391 416.052 652.385 415.521C652.578 415.37 652.735 415.207 652.822 415.014L652.966 414.688H652.278V412.381C652.278 411.505 653.016 410.787 653.928 410.787C654.841 410.787 655.572 411.505 655.572 412.381V413.589L654.966 414.313V414.645C654.928 415.219 655.515 415.575 656.034 415.889ZM650.972 416.705C650.954 416.409 651.391 416.143 651.816 415.889C651.86 415.865 651.897 415.841 651.941 415.817C652.104 416.439 652.735 417.079 653.397 417.755C653.972 418.341 654.566 418.945 654.722 419.44H652.291L650.972 417.689V416.723V416.705ZM653.928 407.985C649.966 407.985 646.742 411.101 646.742 414.929C646.742 418.13 648.992 420.829 652.047 421.632C652.21 421.674 652.372 421.711 652.535 421.741C652.985 421.831 653.453 421.874 653.928 421.874C654.403 421.874 654.878 421.825 655.328 421.741C655.49 421.711 655.653 421.674 655.815 421.632C658.865 420.829 661.114 418.13 661.114 414.929C661.114 411.101 657.89 407.985 653.928 407.985Z" fill="#393185"/>
<path d="M653.928 422.478C658.242 422.478 661.739 419.098 661.739 414.929C661.739 410.76 658.242 407.381 653.928 407.381C649.614 407.381 646.117 410.76 646.117 414.929C646.117 419.098 649.614 422.478 653.928 422.478Z" fill="#FEFEFE"/>
<path d="M655.815 421.143V419.905L657.365 417.84V416.729C657.403 416.155 656.809 415.805 656.29 415.491C655.865 415.237 655.428 414.971 655.447 414.676V414.482L656.059 413.758V412.381C656.059 411.246 655.103 410.322 653.928 410.322C652.753 410.322 651.797 411.246 651.797 412.381V415.159H652.079C651.929 415.273 651.741 415.382 651.56 415.491C651.041 415.805 650.454 416.155 650.491 416.729V417.84L652.041 419.911H652.047V421.143C649.267 420.358 647.223 417.87 647.223 414.929C647.223 411.354 650.235 408.456 653.928 408.456C657.621 408.456 660.627 411.354 660.627 414.929C660.627 417.864 658.596 420.352 655.815 421.143ZM655.328 421.264C654.878 421.354 654.409 421.403 653.928 421.403C653.447 421.403 652.985 421.354 652.535 421.264V419.911H655.328V421.264ZM656.034 415.889C656.459 416.143 656.903 416.409 656.878 416.705V417.689L655.565 419.44H655.222C655.091 418.794 654.434 418.13 653.747 417.435C653.078 416.753 652.391 416.052 652.385 415.521C652.578 415.37 652.735 415.207 652.822 415.014L652.966 414.688H652.278V412.381C652.278 411.505 653.016 410.787 653.928 410.787C654.841 410.787 655.572 411.505 655.572 412.381V413.589L654.966 414.313V414.645C654.928 415.219 655.515 415.575 656.034 415.889ZM650.972 416.705C650.954 416.409 651.391 416.143 651.816 415.889C651.86 415.865 651.897 415.841 651.941 415.817C652.104 416.439 652.735 417.079 653.397 417.755C653.972 418.341 654.566 418.945 654.722 419.44H652.291L650.972 417.689V416.723V416.705ZM653.928 407.985C649.966 407.985 646.742 411.101 646.742 414.929C646.742 418.13 648.992 420.829 652.047 421.632C652.21 421.674 652.372 421.711 652.535 421.741C652.985 421.831 653.453 421.874 653.928 421.874C654.403 421.874 654.878 421.825 655.328 421.741C655.49 421.711 655.653 421.674 655.815 421.632C658.865 420.829 661.114 418.13 661.114 414.929C661.114 411.101 657.89 407.985 653.928 407.985Z" fill="#393185"/>
<path d="M188.146 534.634C192.46 534.634 195.957 531.254 195.957 527.085C195.957 522.917 192.46 519.537 188.146 519.537C183.832 519.537 180.335 522.917 180.335 527.085C180.335 531.254 183.832 534.634 188.146 534.634Z" fill="#FEFEFE"/>
<path d="M190.033 533.299V532.067L191.583 529.996V528.885C191.614 528.311 191.027 527.961 190.508 527.647C190.083 527.393 189.646 527.128 189.665 526.832V526.639L190.277 525.914V524.537C190.277 523.402 189.321 522.478 188.146 522.478C186.971 522.478 186.009 523.402 186.009 524.537V527.315H186.297C186.147 527.43 185.959 527.538 185.778 527.647C185.259 527.961 184.672 528.311 184.709 528.885V529.996L186.259 532.067H186.265V533.299C183.485 532.514 181.441 530.026 181.441 527.085C181.441 523.517 184.447 520.612 188.146 520.612C191.846 520.612 194.845 523.517 194.845 527.085C194.845 530.026 192.808 532.514 190.033 533.299ZM189.546 533.42C189.096 533.511 188.627 533.559 188.146 533.559C187.665 533.559 187.203 533.517 186.753 533.42V532.067H189.546V533.42ZM190.252 528.046C190.677 528.299 191.121 528.565 191.096 528.861V529.845L189.783 531.596H189.44C189.309 530.95 188.652 530.286 187.965 529.592C187.296 528.909 186.603 528.209 186.603 527.677C186.796 527.526 186.953 527.363 187.04 527.17L187.184 526.844H186.496V524.537C186.496 523.662 187.234 522.949 188.146 522.949C189.059 522.949 189.79 523.662 189.79 524.537V525.745L189.177 526.47V526.808C189.146 527.381 189.733 527.732 190.252 528.046ZM185.19 528.861C185.172 528.565 185.609 528.299 186.034 528.046C186.078 528.021 186.115 527.997 186.159 527.973C186.322 528.595 186.953 529.241 187.615 529.912C188.19 530.497 188.784 531.101 188.94 531.596H186.503L185.19 529.845V528.861ZM188.146 520.141C184.184 520.141 180.96 523.257 180.96 527.085C180.96 530.286 183.21 532.991 186.265 533.788C186.422 533.831 186.584 533.867 186.753 533.897C187.203 533.988 187.665 534.03 188.146 534.03C188.627 534.03 189.09 533.988 189.546 533.897C189.708 533.867 189.871 533.831 190.033 533.788C193.083 532.985 195.332 530.286 195.332 527.085C195.332 523.257 192.108 520.141 188.146 520.141Z" fill="#393185"/>
<path d="M188.146 534.634C192.46 534.634 195.957 531.254 195.957 527.085C195.957 522.917 192.46 519.537 188.146 519.537C183.832 519.537 180.335 522.917 180.335 527.085C180.335 531.254 183.832 534.634 188.146 534.634Z" fill="#FEFEFE"/>
<path d="M190.033 533.299V532.067L191.583 529.996V528.885C191.614 528.311 191.027 527.961 190.508 527.647C190.083 527.393 189.646 527.128 189.665 526.832V526.639L190.277 525.914V524.537C190.277 523.402 189.321 522.478 188.146 522.478C186.971 522.478 186.009 523.402 186.009 524.537V527.315H186.297C186.147 527.43 185.959 527.538 185.778 527.647C185.259 527.961 184.672 528.311 184.709 528.885V529.996L186.259 532.067H186.265V533.299C183.485 532.514 181.441 530.026 181.441 527.085C181.441 523.517 184.447 520.612 188.146 520.612C191.846 520.612 194.845 523.517 194.845 527.085C194.845 530.026 192.808 532.514 190.033 533.299ZM189.546 533.42C189.096 533.511 188.627 533.559 188.146 533.559C187.665 533.559 187.203 533.517 186.753 533.42V532.067H189.546V533.42ZM190.252 528.046C190.677 528.299 191.121 528.565 191.096 528.861V529.845L189.783 531.596H189.44C189.309 530.95 188.652 530.286 187.965 529.592C187.296 528.909 186.603 528.209 186.603 527.677C186.796 527.526 186.953 527.363 187.04 527.17L187.184 526.844H186.496V524.537C186.496 523.662 187.234 522.949 188.146 522.949C189.059 522.949 189.79 523.662 189.79 524.537V525.745L189.177 526.47V526.808C189.146 527.381 189.733 527.732 190.252 528.046ZM185.19 528.861C185.172 528.565 185.609 528.299 186.034 528.046C186.078 528.021 186.115 527.997 186.159 527.973C186.322 528.595 186.953 529.241 187.615 529.912C188.19 530.497 188.784 531.101 188.94 531.596H186.503L185.19 529.845V528.861ZM188.146 520.141C184.184 520.141 180.96 523.257 180.96 527.085C180.96 530.286 183.21 532.991 186.265 533.788C186.422 533.831 186.584 533.867 186.753 533.897C187.203 533.988 187.665 534.03 188.146 534.03C188.627 534.03 189.09 533.988 189.546 533.897C189.708 533.867 189.871 533.831 190.033 533.788C193.083 532.985 195.332 530.286 195.332 527.085C195.332 523.257 192.108 520.141 188.146 520.141Z" fill="#393185"/>
<path d="M465.198 467.713C469.512 467.713 473.009 464.334 473.009 460.165C473.009 455.996 469.512 452.616 465.198 452.616C460.884 452.616 457.387 455.996 457.387 460.165C457.387 464.334 460.884 467.713 465.198 467.713Z" fill="#FEFEFE"/>
<path d="M467.085 466.379V465.147L468.635 463.075V461.97C468.672 461.391 468.085 461.04 467.566 460.726C467.141 460.473 466.698 460.207 466.723 459.911V459.718L467.335 458.993V457.616C467.335 456.481 466.373 455.557 465.198 455.557C464.023 455.557 463.067 456.481 463.067 457.616V460.394H463.348C463.198 460.509 463.017 460.618 462.836 460.726C462.317 461.04 461.724 461.391 461.761 461.97V463.075L463.311 465.147H463.317V466.379C460.536 465.593 458.499 463.106 458.499 460.165C458.499 456.596 461.505 453.691 465.198 453.691C468.891 453.691 471.903 456.596 471.903 460.165C471.903 463.106 469.866 465.593 467.085 466.379ZM466.598 466.499C466.148 466.59 465.679 466.644 465.198 466.644C464.717 466.644 464.254 466.596 463.804 466.499V465.147H466.598V466.499ZM467.31 461.125C467.735 461.378 468.172 461.644 468.154 461.946H468.147L468.154 462.924L466.835 464.676H466.498C466.36 464.029 465.71 463.365 465.023 462.671C464.354 461.988 463.661 461.288 463.654 460.757C463.848 460.606 464.011 460.449 464.098 460.249L464.242 459.923H463.555V457.616C463.555 456.741 464.292 456.028 465.198 456.028C466.104 456.028 466.848 456.741 466.848 457.616V458.83L466.235 459.549V459.887C466.198 460.461 466.785 460.811 467.31 461.125ZM462.248 461.946C462.223 461.644 462.667 461.378 463.092 461.125C463.13 461.101 463.173 461.077 463.211 461.052C463.373 461.674 464.004 462.32 464.673 462.991C465.248 463.577 465.842 464.18 465.998 464.676H463.561L462.248 462.924V461.946ZM465.198 453.22C461.236 453.22 458.012 456.336 458.012 460.165C458.012 463.365 460.268 466.071 463.317 466.868C463.48 466.91 463.642 466.946 463.804 466.982C464.254 467.067 464.723 467.109 465.198 467.109C465.673 467.109 466.148 467.067 466.598 466.976C466.766 466.946 466.929 466.91 467.085 466.868C470.135 466.064 472.384 463.365 472.384 460.165C472.384 456.336 469.16 453.22 465.198 453.22Z" fill="#393185"/>
<path d="M465.198 467.713C469.512 467.713 473.009 464.334 473.009 460.165C473.009 455.996 469.512 452.616 465.198 452.616C460.884 452.616 457.387 455.996 457.387 460.165C457.387 464.334 460.884 467.713 465.198 467.713Z" fill="#FEFEFE"/>
<path d="M467.085 466.379V465.147L468.635 463.075V461.97C468.672 461.391 468.085 461.04 467.566 460.726C467.141 460.473 466.698 460.207 466.723 459.911V459.718L467.335 458.993V457.616C467.335 456.481 466.373 455.557 465.198 455.557C464.023 455.557 463.067 456.481 463.067 457.616V460.394H463.348C463.198 460.509 463.017 460.618 462.836 460.726C462.317 461.04 461.724 461.391 461.761 461.97V463.075L463.311 465.147H463.317V466.379C460.536 465.593 458.499 463.106 458.499 460.165C458.499 456.596 461.505 453.691 465.198 453.691C468.891 453.691 471.903 456.596 471.903 460.165C471.903 463.106 469.866 465.593 467.085 466.379ZM466.598 466.499C466.148 466.59 465.679 466.644 465.198 466.644C464.717 466.644 464.254 466.596 463.804 466.499V465.147H466.598V466.499ZM467.31 461.125C467.735 461.378 468.172 461.644 468.154 461.946H468.147L468.154 462.924L466.835 464.676H466.498C466.36 464.029 465.71 463.365 465.023 462.671C464.354 461.988 463.661 461.288 463.654 460.757C463.848 460.606 464.011 460.449 464.098 460.249L464.242 459.923H463.555V457.616C463.555 456.741 464.292 456.028 465.198 456.028C466.104 456.028 466.848 456.741 466.848 457.616V458.83L466.235 459.549V459.887C466.198 460.461 466.785 460.811 467.31 461.125ZM462.248 461.946C462.223 461.644 462.667 461.378 463.092 461.125C463.13 461.101 463.173 461.077 463.211 461.052C463.373 461.674 464.004 462.32 464.673 462.991C465.248 463.577 465.842 464.18 465.998 464.676H463.561L462.248 462.924V461.946ZM465.198 453.22C461.236 453.22 458.012 456.336 458.012 460.165C458.012 463.365 460.268 466.071 463.317 466.868C463.48 466.91 463.642 466.946 463.804 466.982C464.254 467.067 464.723 467.109 465.198 467.109C465.673 467.109 466.148 467.067 466.598 466.976C466.766 466.946 466.929 466.91 467.085 466.868C470.135 466.064 472.384 463.365 472.384 460.165C472.384 456.336 469.16 453.22 465.198 453.22Z" fill="#393185"/>
<path d="M408.807 404.144C413.121 404.144 416.619 400.764 416.619 396.596C416.619 392.427 413.121 389.047 408.807 389.047C404.494 389.047 400.996 392.427 400.996 396.596C400.996 400.764 404.494 404.144 408.807 404.144Z" fill="#FEFEFE"/>
<path d="M410.688 402.809V401.577L412.244 399.506V398.401C412.276 397.821 411.688 397.471 411.17 397.157C410.745 396.904 410.301 396.638 410.326 396.342V396.149L410.938 395.424V394.047C410.938 392.912 409.982 391.988 408.807 391.988C407.633 391.988 406.67 392.912 406.67 394.047V396.825H406.958C406.808 396.94 406.62 397.048 406.439 397.157C405.92 397.471 405.333 397.821 405.371 398.401V399.506L406.92 401.577H406.927V402.809C404.14 402.024 402.102 399.536 402.102 396.596C402.102 393.027 405.108 390.122 408.807 390.122C412.507 390.122 415.506 393.027 415.506 396.596C415.506 399.536 413.469 402.024 410.688 402.809ZM410.207 402.93C409.757 403.021 409.289 403.069 408.807 403.069C408.326 403.069 407.858 403.027 407.408 402.93V401.577H410.207V402.93ZM410.913 397.556C411.338 397.809 411.776 398.075 411.757 398.371V399.355L410.445 401.106H410.101C409.964 400.46 409.314 399.796 408.626 399.102C407.958 398.419 407.264 397.719 407.264 397.187C407.451 397.036 407.614 396.873 407.701 396.68L407.845 396.354H407.158V394.047C407.158 393.172 407.895 392.459 408.807 392.459C409.72 392.459 410.451 393.172 410.451 394.047V395.255L409.839 395.98V396.318C409.807 396.891 410.395 397.242 410.913 397.556ZM405.852 398.371C405.833 398.075 406.27 397.809 406.695 397.556C406.739 397.532 406.777 397.507 406.814 397.483C406.983 398.105 407.614 398.751 408.276 399.422C408.851 400.007 409.445 400.611 409.601 401.106H407.164L405.852 399.355V398.371ZM408.807 389.651C404.839 389.651 401.615 392.767 401.615 396.596C401.615 399.796 403.871 402.501 406.927 403.299C407.083 403.341 407.245 403.377 407.408 403.407C407.864 403.498 408.326 403.54 408.807 403.54C409.289 403.54 409.751 403.498 410.207 403.407C410.37 403.377 410.532 403.341 410.688 403.299C413.744 402.495 415.994 399.796 415.994 396.596C415.994 392.767 412.769 389.651 408.807 389.651Z" fill="#393185"/>
<path d="M408.807 404.144C413.121 404.144 416.619 400.764 416.619 396.596C416.619 392.427 413.121 389.047 408.807 389.047C404.494 389.047 400.996 392.427 400.996 396.596C400.996 400.764 404.494 404.144 408.807 404.144Z" fill="#FEFEFE"/>
<path d="M410.688 402.809V401.577L412.244 399.506V398.401C412.276 397.821 411.688 397.471 411.17 397.157C410.745 396.904 410.301 396.638 410.326 396.342V396.149L410.938 395.424V394.047C410.938 392.912 409.982 391.988 408.807 391.988C407.633 391.988 406.67 392.912 406.67 394.047V396.825H406.958C406.808 396.94 406.62 397.048 406.439 397.157C405.92 397.471 405.333 397.821 405.371 398.401V399.506L406.92 401.577H406.927V402.809C404.14 402.024 402.102 399.536 402.102 396.596C402.102 393.027 405.108 390.122 408.807 390.122C412.507 390.122 415.506 393.027 415.506 396.596C415.506 399.536 413.469 402.024 410.688 402.809ZM410.207 402.93C409.757 403.021 409.289 403.069 408.807 403.069C408.326 403.069 407.858 403.027 407.408 402.93V401.577H410.207V402.93ZM410.913 397.556C411.338 397.809 411.776 398.075 411.757 398.371V399.355L410.445 401.106H410.101C409.964 400.46 409.314 399.796 408.626 399.102C407.958 398.419 407.264 397.719 407.264 397.187C407.451 397.036 407.614 396.873 407.701 396.68L407.845 396.354H407.158V394.047C407.158 393.172 407.895 392.459 408.807 392.459C409.72 392.459 410.451 393.172 410.451 394.047V395.255L409.839 395.98V396.318C409.807 396.891 410.395 397.242 410.913 397.556ZM405.852 398.371C405.833 398.075 406.27 397.809 406.695 397.556C406.739 397.532 406.777 397.507 406.814 397.483C406.983 398.105 407.614 398.751 408.276 399.422C408.851 400.007 409.445 400.611 409.601 401.106H407.164L405.852 399.355V398.371ZM408.807 389.651C404.839 389.651 401.615 392.767 401.615 396.596C401.615 399.796 403.871 402.501 406.927 403.299C407.083 403.341 407.245 403.377 407.408 403.407C407.864 403.498 408.326 403.54 408.807 403.54C409.289 403.54 409.751 403.498 410.207 403.407C410.37 403.377 410.532 403.341 410.688 403.299C413.744 402.495 415.994 399.796 415.994 396.596C415.994 392.767 412.769 389.651 408.807 389.651Z" fill="#393185"/>
<path d="M331.29 510.4C335.604 510.4 339.101 507.021 339.101 502.852C339.101 498.683 335.604 495.304 331.29 495.304C326.976 495.304 323.479 498.683 323.479 502.852C323.479 507.021 326.976 510.4 331.29 510.4Z" fill="#FEFEFE"/>
<path d="M331.29 509.326C327.597 509.326 324.585 506.421 324.585 502.852C324.585 499.283 327.597 496.373 331.29 496.373C334.983 496.373 337.989 499.277 337.989 502.852C337.989 506.427 334.983 509.326 331.29 509.326ZM331.29 495.908C327.328 495.908 324.104 499.024 324.104 502.852C324.104 506.681 327.328 509.797 331.29 509.797C335.252 509.797 338.476 506.681 338.476 502.852C338.476 499.024 335.252 495.908 331.29 495.908Z" fill="#393185"/>
<path d="M328.353 499.489H334.089V506.403H332.171V504.271H330.265V506.403H328.353V499.489ZM331.69 506.403H330.753V504.742H331.69V506.403ZM334.571 499.018H327.866V506.403H326.541V506.874H335.902V506.403H334.571V499.018Z" fill="#393185"/>
<path d="M330.078 501.554H329.697V500.992H330.078V501.554ZM330.565 500.521H329.209V502.025H330.565V500.521Z" fill="#393185"/>
<path d="M332.815 501.554H332.427V500.992H332.815V501.554ZM333.302 500.521H331.946V502.025H333.302V500.521Z" fill="#393185"/>
<path d="M330.078 503.432H329.697V502.87H330.078V503.432ZM330.565 502.399H329.209V503.903H330.565V502.399Z" fill="#393185"/>
<path d="M332.815 503.432H332.427V502.87H332.815V503.432ZM333.302 502.399H331.946V503.903H333.302V502.399Z" fill="#393185"/>
<path d="M405.352 614.918C409.666 614.918 413.164 611.538 413.164 607.369C413.164 603.201 409.666 599.821 405.352 599.821C401.038 599.821 397.541 603.201 397.541 607.369C397.541 611.538 401.038 614.918 405.352 614.918Z" fill="#FEFEFE"/>
<path d="M405.353 613.849C401.659 613.849 398.654 610.938 398.654 607.369C398.654 603.801 401.659 600.896 405.353 600.896C409.046 600.896 412.051 603.801 412.051 607.369C412.051 610.938 409.046 613.849 405.353 613.849ZM405.353 600.425C401.391 600.425 398.166 603.541 398.166 607.369C398.166 611.198 401.391 614.314 405.353 614.314C409.314 614.314 412.539 611.198 412.539 607.369C412.539 603.541 409.314 600.425 405.353 600.425Z" fill="#393185"/>
<path d="M402.415 604.006H408.152V610.92H406.24V608.795H404.334V610.92H402.415V604.006ZM405.752 610.92H404.815V609.259H405.752V610.92ZM408.639 603.541H401.934V610.926H400.603V611.391H409.964V610.926H408.639V603.541Z" fill="#393185"/>
<path d="M404.147 606.077H403.759V605.509H404.147V606.077ZM404.628 605.044H403.272V606.542H404.628V605.044Z" fill="#393185"/>
<path d="M406.877 606.077H406.496V605.509H406.877V606.077ZM407.365 605.044H406.009V606.542H407.365V605.044Z" fill="#393185"/>
<path d="M404.147 607.949H403.759V607.388H404.147V607.949ZM404.628 606.917H403.272V608.42H404.628V606.917Z" fill="#393185"/>
<path d="M406.877 607.949H406.496V607.388H406.877V607.949ZM407.365 606.917H406.009V608.42H407.365V606.917Z" fill="#393185"/>
<path d="M431.529 408.818C435.843 408.818 439.34 405.438 439.34 401.27C439.34 397.101 435.843 393.721 431.529 393.721C427.215 393.721 423.718 397.101 423.718 401.27C423.718 405.438 427.215 408.818 431.529 408.818Z" fill="#FEFEFE"/>
<path d="M431.529 407.749C427.829 407.749 424.824 404.845 424.824 401.27C424.824 397.695 427.829 394.796 431.529 394.796C435.228 394.796 438.228 397.701 438.228 401.27C438.228 404.839 435.222 407.749 431.529 407.749ZM431.529 394.325C427.567 394.325 424.343 397.441 424.343 401.27C424.343 405.098 427.567 408.214 431.529 408.214C435.491 408.214 438.715 405.098 438.715 401.27C438.715 397.441 435.491 394.325 431.529 394.325Z" fill="#393185"/>
<path d="M428.592 397.906H434.322V404.82H432.41V402.695H430.504V404.82H428.592V397.906ZM431.929 404.82H430.991V403.16H431.929V404.82ZM434.81 397.441H428.104V404.826H426.773V405.297H436.141V404.826H434.81V397.441Z" fill="#393185"/>
<path d="M430.317 399.977H429.935V399.41H430.317V399.977ZM430.804 398.945H429.448V400.442H430.804V398.945Z" fill="#393185"/>
<path d="M433.054 399.977H432.666V399.41H433.054V399.977ZM433.535 398.945H432.179V400.442H433.535V398.945Z" fill="#393185"/>
<path d="M430.317 401.849H429.935V401.288H430.317V401.849ZM430.804 400.817H429.448V402.32H430.804V400.817Z" fill="#393185"/>
<path d="M433.054 401.849H432.666V401.288H433.054V401.849ZM433.535 400.817H432.179V402.32H433.535V400.817Z" fill="#393185"/>
<path d="M593.132 415.388C597.446 415.388 600.944 412.009 600.944 407.84C600.944 403.671 597.446 400.291 593.132 400.291C588.818 400.291 585.321 403.671 585.321 407.84C585.321 412.009 588.818 415.388 593.132 415.388Z" fill="#FEFEFE"/>
<path d="M593.133 414.313C589.439 414.313 586.434 411.409 586.434 407.84C586.434 404.271 589.439 401.366 593.133 401.366C596.826 401.366 599.831 404.271 599.831 407.84C599.831 411.409 596.826 414.313 593.133 414.313ZM593.133 400.895C589.171 400.895 585.946 404.011 585.946 407.84C585.946 411.668 589.171 414.784 593.133 414.784C597.094 414.784 600.319 411.668 600.319 407.84C600.319 404.011 597.094 400.895 593.133 400.895Z" fill="#393185"/>
<path d="M597.569 411.415H588.696V411.239H597.569V411.415ZM589.09 410.593H597.176V410.768H589.09V410.593ZM589.615 406.499H591.021V410.122H589.615V406.499ZM588.933 405.853H597.332V406.028H588.933V405.853ZM593.058 403.142L597.182 405.388H589.077L593.058 403.142ZM593.301 406.499H594.757V410.122H593.301V406.499ZM592.814 410.122H591.508V406.499H592.814V410.122ZM596.651 410.122H595.245V406.499H596.651V410.122ZM597.663 410.768V410.122H597.138V406.499H597.819V405.195L593.058 402.598L588.446 405.201V406.499H589.127V410.122H588.602V410.768H588.208V411.886H598.057V410.768H597.663Z" fill="#393185"/>
<path d="M593.058 404.663C592.889 404.663 592.751 404.531 592.751 404.368C592.751 404.204 592.889 404.072 593.058 404.072C593.226 404.072 593.364 404.204 593.364 404.368C593.364 404.531 593.226 404.663 593.058 404.663ZM593.058 403.601C592.62 403.601 592.264 403.945 592.264 404.368C592.264 404.79 592.62 405.134 593.058 405.134C593.495 405.134 593.851 404.79 593.851 404.368C593.851 403.945 593.495 403.601 593.058 403.601Z" fill="#393185"/>
<path d="M513.027 399.645C517.341 399.645 520.838 396.266 520.838 392.097C520.838 387.928 517.341 384.549 513.027 384.549C508.713 384.549 505.216 387.928 505.216 392.097C505.216 396.266 508.713 399.645 513.027 399.645Z" fill="#FEFEFE"/>
<path d="M513.027 398.57C509.334 398.57 506.328 395.666 506.328 392.097C506.328 388.528 509.334 385.624 513.027 385.624C516.72 385.624 519.726 388.528 519.726 392.097C519.726 395.666 516.72 398.57 513.027 398.57ZM513.027 385.153C509.066 385.153 505.841 388.268 505.841 392.097C505.841 395.926 509.066 399.041 513.027 399.041C516.989 399.041 520.214 395.926 520.214 392.097C520.214 388.268 516.989 385.153 513.027 385.153Z" fill="#393185"/>
<path d="M517.464 395.672H508.584V395.497H517.464V395.672ZM508.984 394.851H517.07V395.026H508.984V394.851ZM509.509 390.756H510.915V394.38H509.509V390.756ZM508.828 390.11H517.227V390.285H508.828V390.11ZM512.952 387.393L517.077 389.639H508.972L512.952 387.393ZM513.196 390.756H514.652V394.38H513.196V390.756ZM512.709 394.38H511.396V390.756H512.709V394.38ZM516.546 394.38H515.14V390.756H516.546V394.38ZM517.558 395.026V394.38H517.033V390.756H517.714V389.452L512.952 386.855L508.341 389.452V390.756H509.022V394.38H508.497V395.026H508.103V396.137H517.952V395.026H517.558Z" fill="#393185"/>
<path d="M512.952 388.921C512.784 388.921 512.646 388.788 512.646 388.619C512.646 388.45 512.784 388.323 512.952 388.323C513.121 388.323 513.259 388.456 513.259 388.619C513.259 388.782 513.121 388.921 512.952 388.921ZM512.952 387.858C512.515 387.858 512.159 388.202 512.159 388.619C512.159 389.035 512.515 389.386 512.952 389.386C513.39 389.386 513.746 389.041 513.746 388.619C513.746 388.196 513.39 387.858 512.952 387.858Z" fill="#393185"/>
<path d="M483.37 537.237C487.684 537.237 491.181 533.857 491.181 529.688C491.181 525.519 487.684 522.14 483.37 522.14C479.056 522.14 475.559 525.519 475.559 529.688C475.559 533.857 479.056 537.237 483.37 537.237Z" fill="#FEFEFE"/>
<path d="M486.694 532.49L486.969 531.143H485.669L486.119 528.734C487.413 528.951 488.231 529.277 488.544 529.422L487.757 532.49H486.694ZM484.757 531.614H486.382L486.201 532.49H484.676L484.757 531.614ZM482.551 532.49L482.47 531.614H484.27L484.188 532.49H482.551ZM480.47 532.49L480.289 531.614H481.989L482.064 532.49H480.47ZM478.196 529.416C478.508 529.277 479.308 528.951 480.627 528.728L481.07 531.143H479.702L479.97 532.49H478.989L478.196 529.416ZM484.801 531.143H481.564L481.108 528.662C481.758 528.571 482.507 528.517 483.37 528.517C484.232 528.517 484.982 528.577 485.638 528.662L485.176 531.143H484.801ZM480.92 527.466L481.17 527.436L481.095 526.971C482.382 526.771 484.432 526.771 485.651 526.971L485.569 527.436L485.819 527.466C486.594 527.562 487.763 527.864 488.85 528.245L488.663 528.957C488.025 528.68 486.263 528.046 483.37 528.046C480.477 528.046 478.708 528.674 478.077 528.951L477.896 528.245C478.977 527.864 480.145 527.562 480.92 527.466ZM489.425 527.949L489.219 527.876C488.156 527.49 486.982 527.17 486.132 527.037L486.207 526.596L485.982 526.554C484.688 526.288 482.157 526.288 480.764 526.554L480.533 526.596L480.614 527.037C479.764 527.17 478.583 527.49 477.521 527.876L477.321 527.949L478.483 532.49H478.196V532.961H488.55V532.49H488.256L489.425 527.949Z" fill="#393185"/>
<path d="M483.37 536.162C479.677 536.162 476.671 533.257 476.671 529.688C476.671 526.119 479.677 523.209 483.37 523.209C487.063 523.209 490.075 526.113 490.075 529.688C490.075 533.263 487.069 536.162 483.37 536.162ZM483.37 522.744C479.408 522.744 476.184 525.86 476.184 529.688C476.184 533.517 479.408 536.633 483.37 536.633C487.332 536.633 490.556 533.517 490.556 529.688C490.556 525.86 487.332 522.744 483.37 522.744Z" fill="#393185"/>
<path d="M408.664 387.441C412.978 387.441 416.475 384.062 416.475 379.893C416.475 375.724 412.978 372.344 408.664 372.344C404.35 372.344 400.853 375.724 400.853 379.893C400.853 384.062 404.35 387.441 408.664 387.441Z" fill="#FEFEFE"/>
<path d="M408.664 386.366C404.971 386.366 401.965 383.462 401.965 379.893C401.965 376.324 404.971 373.419 408.664 373.419C412.357 373.419 415.363 376.324 415.363 379.893C415.363 383.462 412.357 386.366 408.664 386.366ZM408.664 372.948C404.702 372.948 401.478 376.064 401.478 379.893C401.478 383.721 404.702 386.837 408.664 386.837C412.626 386.837 415.851 383.721 415.851 379.893C415.851 376.064 412.626 372.948 408.664 372.948Z" fill="#393185"/>
<path d="M405.727 376.529H411.464V383.444H409.552V381.318H407.646V383.444H405.727V376.529ZM409.064 383.444H408.127V381.783H409.064V383.444ZM411.945 376.064H405.246V383.45H403.915V383.915H413.276V383.45H411.945V376.064Z" fill="#393185"/>
<path d="M407.458 378.601H407.071V378.033H407.458V378.601ZM407.94 377.568H406.583V379.066H407.94V377.568Z" fill="#393185"/>
<path d="M410.189 378.601H409.808V378.033H410.189V378.601ZM410.676 377.568H409.32V379.066H410.676V377.568Z" fill="#393185"/>
<path d="M407.458 380.473H407.071V379.911H407.458V380.473ZM407.94 379.44H406.583V380.944H407.94V379.44Z" fill="#393185"/>
<path d="M410.189 380.473H409.808V379.911H410.189V380.473ZM410.676 379.44H409.32V380.944H410.676V379.44Z" fill="#393185"/>
<path d="M409.027 362.417C413.341 362.417 416.838 359.037 416.838 354.869C416.838 350.7 413.341 347.32 409.027 347.32C404.713 347.32 401.216 350.7 401.216 354.869C401.216 359.037 404.713 362.417 409.027 362.417Z" fill="#FEFEFE"/>
<path d="M409.027 361.342C405.327 361.342 402.322 358.438 402.322 354.869C402.322 351.3 405.327 348.395 409.027 348.395C412.726 348.395 415.726 351.3 415.726 354.869C415.726 358.438 412.72 361.342 409.027 361.342ZM409.027 347.924C405.065 347.924 401.841 351.04 401.841 354.869C401.841 358.697 405.065 361.813 409.027 361.813C412.989 361.813 416.213 358.697 416.213 354.869C416.213 351.04 412.989 347.924 409.027 347.924Z" fill="#393185"/>
<path d="M406.09 351.505H411.82V358.419H409.908V356.294H408.002V358.419H406.09V351.505ZM409.427 358.419H408.49V356.759H409.427V358.419ZM412.308 351.034H405.602V358.419H404.271V358.89H413.639V358.419H412.308V351.034Z" fill="#393185"/>
<path d="M407.815 353.57H407.433V353.009H407.815V353.57ZM408.302 352.538H406.946V354.041H408.302V352.538Z" fill="#393185"/>
<path d="M410.552 353.57H410.164V353.009H410.552V353.57ZM411.033 352.538H409.677V354.041H411.033V352.538Z" fill="#393185"/>
<path d="M407.815 355.448H407.433V354.887H407.815V355.448ZM408.302 354.416H406.946V355.919H408.302V354.416Z" fill="#393185"/>
<path d="M410.552 355.448H410.164V354.887H410.552V355.448ZM411.033 354.416H409.677V355.919H411.033V354.416Z" fill="#393185"/>
<path d="M654.259 313.648C658.573 313.648 662.07 310.269 662.07 306.1C662.07 301.931 658.573 298.552 654.259 298.552C649.945 298.552 646.448 301.931 646.448 306.1C646.448 310.269 649.945 313.648 654.259 313.648Z" fill="#FEFEFE"/>
<path d="M654.259 312.58C650.566 312.58 647.56 309.669 647.56 306.1C647.56 302.531 650.566 299.627 654.259 299.627C657.952 299.627 660.958 302.531 660.958 306.1C660.958 309.669 657.952 312.58 654.259 312.58ZM654.259 299.156C650.297 299.156 647.073 302.272 647.073 306.1C647.073 309.929 650.297 313.045 654.259 313.045C658.221 313.045 661.445 309.929 661.445 306.1C661.445 302.272 658.221 299.156 654.259 299.156Z" fill="#393185"/>
<path d="M651.322 302.737H657.058V309.651H655.146V307.525H653.24V309.651H651.322V302.737ZM654.659 309.651H653.722V307.99H654.659V309.651ZM657.54 302.272H650.841V309.657H649.51V310.122H658.871V309.657H657.54V302.272Z" fill="#393185"/>
<path d="M653.053 304.808H652.666V304.24H653.053V304.808ZM653.534 303.775H652.178V305.273H653.534V303.775Z" fill="#393185"/>
<path d="M655.784 304.808H655.402V304.24H655.784V304.808ZM656.271 303.775H654.915V305.273H656.271V303.775Z" fill="#393185"/>
<path d="M653.053 306.68H652.666V306.118H653.053V306.68ZM653.534 305.647H652.178V307.151H653.534V305.647Z" fill="#393185"/>
<path d="M655.784 306.68H655.402V306.118H655.784V306.68ZM656.271 305.647H654.915V307.151H656.271V305.647Z" fill="#393185"/>
<path d="M522.788 458.45C527.102 458.45 530.599 455.07 530.599 450.901C530.599 446.733 527.102 443.353 522.788 443.353C518.474 443.353 514.977 446.733 514.977 450.901C514.977 455.07 518.474 458.45 522.788 458.45Z" fill="#FEFEFE"/>
<path d="M526.113 453.709L526.381 452.363H525.088L525.532 449.953C526.831 450.171 527.644 450.497 527.962 450.636L527.169 453.709H526.113ZM524.176 452.834H525.794L525.619 453.709H524.094L524.176 452.834ZM521.97 453.709L521.889 452.834H523.688L523.607 453.709H521.97ZM519.883 453.709L519.708 452.834H521.401L521.482 453.709H519.883ZM517.614 450.636C517.92 450.491 518.727 450.165 520.039 449.947L520.489 452.363H519.114L519.389 453.709H518.402L517.614 450.636ZM524.213 452.363H520.982L520.52 449.875C521.17 449.79 521.926 449.736 522.788 449.736C523.651 449.736 524.401 449.79 525.05 449.881L524.594 452.363H524.213ZM520.339 448.685L520.589 448.655L520.507 448.19C521.795 447.991 523.851 447.991 525.069 448.19L524.988 448.655L525.238 448.685C526.013 448.782 527.181 449.084 528.262 449.464L528.081 450.171C527.444 449.893 525.682 449.265 522.788 449.265C519.895 449.265 518.12 449.887 517.489 450.171L517.308 449.464C518.395 449.084 519.564 448.782 520.339 448.685ZM528.837 449.168L528.637 449.096C527.575 448.709 526.394 448.389 525.55 448.257L525.625 447.816L525.394 447.767C524.107 447.508 521.57 447.508 520.183 447.767L519.951 447.816L520.026 448.257C519.176 448.389 518.002 448.709 516.939 449.096L516.733 449.168L517.902 453.709H517.608V454.181H527.962V453.709H527.675L528.837 449.168Z" fill="#393185"/>
<path d="M522.788 457.381C519.089 457.381 516.083 454.476 516.083 450.902C516.083 447.327 519.089 444.428 522.788 444.428C526.488 444.428 529.487 447.333 529.487 450.902C529.487 454.47 526.481 457.381 522.788 457.381ZM522.788 443.957C518.826 443.957 515.602 447.073 515.602 450.902C515.602 454.73 518.826 457.846 522.788 457.846C526.75 457.846 529.975 454.736 529.975 450.902C529.975 447.067 526.75 443.957 522.788 443.957Z" fill="#393185"/>
<path d="M536.655 474.815C540.969 474.815 544.466 471.435 544.466 467.266C544.466 463.098 540.969 459.718 536.655 459.718C532.341 459.718 528.844 463.098 528.844 467.266C528.844 471.435 532.341 474.815 536.655 474.815Z" fill="#FEFEFE"/>
<path d="M539.979 470.074L540.254 468.728H538.954L539.404 466.312C540.698 466.536 541.516 466.856 541.829 467.001L541.041 470.074H539.979ZM538.042 469.193H539.667L539.485 470.074H537.961L538.042 469.193ZM535.836 470.074L535.755 469.193H537.555L537.473 470.074H535.836ZM533.755 470.074L533.574 469.193H535.274L535.349 470.074H533.755ZM531.481 467.001C531.793 466.856 532.593 466.53 533.911 466.312L534.355 468.728H532.987L533.255 470.074H532.274L531.481 467.001ZM538.086 468.728H534.849L534.386 466.24C535.042 466.155 535.792 466.095 536.655 466.095C537.517 466.095 538.267 466.155 538.923 466.246L538.461 468.728H538.086ZM534.205 465.05L534.455 465.014L534.374 464.549C535.667 464.35 537.717 464.35 538.936 464.549L538.854 465.014L539.104 465.05C539.879 465.141 541.048 465.443 542.135 465.823L541.947 466.536C541.31 466.258 539.548 465.624 536.655 465.624C533.761 465.624 531.993 466.252 531.362 466.53L531.181 465.823C532.262 465.443 533.43 465.141 534.205 465.05ZM542.71 465.533L542.504 465.455C541.441 465.068 540.267 464.754 539.417 464.615L539.492 464.181L539.267 464.132C537.973 463.866 535.442 463.866 534.049 464.132L533.818 464.174L533.893 464.615C533.049 464.754 531.868 465.068 530.806 465.455L530.606 465.533L531.768 470.074H531.481V470.539H541.835V470.074H541.541L542.71 465.533Z" fill="#393185"/>
<path d="M536.655 473.74C532.962 473.74 529.956 470.835 529.956 467.266C529.956 463.697 532.962 460.793 536.655 460.793C540.348 460.793 543.36 463.697 543.36 467.266C543.36 470.835 540.354 473.74 536.655 473.74ZM536.655 460.322C532.693 460.322 529.469 463.438 529.469 467.266C529.469 471.095 532.693 474.211 536.655 474.211C540.617 474.211 543.841 471.095 543.841 467.266C543.841 463.438 540.617 460.322 536.655 460.322Z" fill="#393185"/>
<path d="M583.646 324.748C587.96 324.748 591.457 321.368 591.457 317.199C591.457 313.03 587.96 309.651 583.646 309.651C579.332 309.651 575.835 313.03 575.835 317.199C575.835 321.368 579.332 324.748 583.646 324.748Z" fill="#FEFEFE"/>
<path d="M586.97 320.001L587.239 318.655H585.946L586.389 316.245C587.689 316.463 588.501 316.789 588.82 316.934L588.027 320.001H586.97ZM585.027 319.126H586.652L586.471 320.001H584.952L585.027 319.126ZM582.821 320.001L582.746 319.126H584.54L584.465 320.001H582.821ZM580.74 320.001L580.559 319.126H582.259L582.334 320.001H580.74ZM578.466 316.927C578.778 316.783 579.584 316.456 580.896 316.239L581.34 318.655H579.972L580.247 320.001H579.259L578.466 316.927ZM585.071 318.655H581.834L581.378 316.167C582.028 316.082 582.784 316.028 583.646 316.028C584.508 316.028 585.258 316.088 585.908 316.173L585.452 318.655H585.071ZM581.19 314.977L581.44 314.947L581.365 314.482C582.652 314.283 584.708 314.283 585.921 314.482L585.846 314.947L586.096 314.977C586.864 315.074 588.033 315.376 589.12 315.756L588.939 316.469C588.295 316.185 586.539 315.557 583.646 315.557C580.753 315.557 578.978 316.179 578.347 316.463L578.166 315.756C579.253 315.376 580.422 315.074 581.19 314.977ZM589.695 315.46L589.495 315.388C588.433 315.001 587.252 314.681 586.402 314.548L586.477 314.107L586.252 314.065C584.958 313.799 582.427 313.799 581.04 314.059L580.809 314.107L580.884 314.548C580.034 314.681 578.859 315.001 577.791 315.388L577.591 315.46L578.759 320.001H578.466V320.472H588.82V320.001H588.526L589.695 315.46Z" fill="#393185"/>
<path d="M583.646 323.673C579.947 323.673 576.941 320.768 576.941 317.199C576.941 313.63 579.947 310.72 583.646 310.72C587.345 310.72 590.345 313.624 590.345 317.199C590.345 320.774 587.339 323.673 583.646 323.673ZM583.646 310.255C579.678 310.255 576.454 313.365 576.454 317.199C576.454 321.034 579.678 324.144 583.646 324.144C587.614 324.144 590.832 321.028 590.832 317.199C590.832 313.371 587.608 310.255 583.646 310.255Z" fill="#393185"/>
<path d="M598.238 303.697C602.552 303.697 606.049 300.317 606.049 296.148C606.049 291.98 602.552 288.6 598.238 288.6C593.924 288.6 590.427 291.98 590.427 296.148C590.427 300.317 593.924 303.697 598.238 303.697Z" fill="#FEFEFE"/>
<path d="M598.719 290.877L598.544 291.215L598.163 291.263L598.438 291.529L598.375 291.897L598.719 291.722L599.062 291.897L598.994 291.529L599.269 291.263L598.887 291.215L598.719 290.877Z" fill="#393185"/>
<path d="M602.574 297.906C602.512 296.076 600.956 295.279 599.812 294.693C599.112 294.331 598.506 294.023 598.506 293.636H598.487V293.28C598.612 293.274 598.737 293.256 598.862 293.226C599.244 293.111 599.562 292.863 599.756 292.525L599.331 292.296C599.2 292.525 598.981 292.694 598.719 292.773C598.456 292.851 598.175 292.821 597.931 292.694C597.688 292.568 597.506 292.356 597.431 292.096C597.356 291.867 597.375 291.619 597.475 291.402L597.031 291.209C596.882 291.529 596.857 291.891 596.963 292.229C597.081 292.61 597.344 292.918 597.7 293.105C597.8 293.159 597.9 293.196 598.006 293.226V293.733C597.913 294.077 597.35 294.361 596.713 294.693C595.569 295.279 594.013 296.076 593.951 297.906H592.907V300.068C592.051 298.981 591.539 297.622 591.539 296.148C591.539 292.58 594.544 289.675 598.238 289.675C601.931 289.675 604.943 292.58 604.943 296.148C604.943 297.616 604.436 298.968 603.58 300.055V297.906H602.574ZM598.263 294.246C598.544 294.572 599.037 294.826 599.587 295.104C600.731 295.696 602.024 296.36 602.087 297.906H594.438C594.501 296.36 595.794 295.696 596.938 295.104C597.488 294.826 597.981 294.572 598.263 294.246ZM603.099 300.605C602.468 301.245 601.706 301.764 600.856 302.115V300.291C600.856 299.609 599.937 299.307 599.9 299.295L599.825 299.27L599.75 299.295C599.719 299.307 599.306 299.44 599.031 299.729C598.756 299.44 598.344 299.307 598.319 299.295L598.244 299.27L598.169 299.295C598.169 299.295 597.731 299.44 597.456 299.729C597.181 299.44 596.769 299.307 596.744 299.295L596.663 299.27L596.588 299.295C596.55 299.307 595.632 299.609 595.632 300.291V302.115C594.782 301.77 594.02 301.257 593.395 300.617V298.377H603.099V300.605ZM600.368 302.29C600.018 302.405 599.65 302.489 599.275 302.549V300.291C599.275 300.043 599.625 299.85 599.825 299.772C600.018 299.85 600.368 300.043 600.368 300.291V302.29ZM597.7 302.604V300.291C597.7 300.043 598.05 299.85 598.244 299.772C598.444 299.85 598.794 300.043 598.794 300.291V302.604C598.606 302.616 598.425 302.628 598.238 302.628C598.05 302.628 597.875 302.616 597.7 302.604ZM597.213 302.549C596.838 302.495 596.475 302.411 596.119 302.296V300.291C596.119 300.043 596.469 299.85 596.663 299.772C596.863 299.85 597.213 300.043 597.213 300.291V302.549ZM598.238 289.204C594.276 289.204 591.051 292.32 591.051 296.148C591.051 297.936 591.757 299.566 592.907 300.798C593.057 300.967 593.22 301.124 593.395 301.269C594.045 301.849 594.801 302.308 595.632 302.622C595.794 302.682 595.957 302.737 596.119 302.785C596.475 302.894 596.838 302.972 597.213 303.02C597.325 303.039 597.444 303.057 597.556 303.063C597.606 303.069 597.65 303.069 597.7 303.075C597.875 303.087 598.056 303.093 598.238 303.093C598.419 303.093 598.606 303.087 598.794 303.075C598.837 303.069 598.875 303.069 598.919 303.063C599.044 303.051 599.156 303.039 599.275 303.02C599.65 302.972 600.018 302.888 600.368 302.785C600.537 302.737 600.7 302.676 600.856 302.616C601.693 302.302 602.449 301.837 603.099 301.263C603.268 301.112 603.43 300.955 603.58 300.786C604.73 299.56 605.424 297.93 605.424 296.148C605.424 292.32 602.199 289.204 598.238 289.204Z" fill="#393185"/>
<path d="M501.654 342.387C505.968 342.387 509.465 339.007 509.465 334.838C509.465 330.67 505.968 327.29 501.654 327.29C497.34 327.29 493.843 330.67 493.843 334.838C493.843 339.007 497.34 342.387 501.654 342.387Z" fill="#FEFEFE"/>
<path d="M501.654 341.318C497.961 341.318 494.955 338.413 494.955 334.838C494.955 331.263 497.961 328.365 501.654 328.365C505.347 328.365 508.359 331.27 508.359 334.838C508.359 338.407 505.353 341.318 501.654 341.318ZM501.654 327.894C497.692 327.894 494.468 331.01 494.468 334.838C494.468 338.667 497.692 341.783 501.654 341.783C505.616 341.783 508.84 338.673 508.84 334.838C508.84 331.004 505.616 327.894 501.654 327.894Z" fill="#393185"/>
<path d="M498.723 331.481H504.453V338.395H502.541V336.264H500.635V338.395H498.723V331.481ZM502.054 338.395H501.117V336.735H502.054V338.395ZM504.941 331.01H498.236V338.395H496.905V338.866H506.266V338.395H504.941V331.01Z" fill="#393185"/>
<path d="M500.448 333.546H500.061V332.985H500.448V333.546ZM500.929 332.513H499.579V334.017H500.929V332.513Z" fill="#393185"/>
<path d="M503.179 333.546H502.797V332.985H503.179V333.546ZM503.666 332.513H502.31V334.017H503.666V332.513Z" fill="#393185"/>
<path d="M500.448 335.424H500.061V334.856H500.448V335.424ZM500.929 334.392H499.579V335.889H500.929V334.392Z" fill="#393185"/>
<path d="M503.179 335.424H502.797V334.856H503.179V335.424ZM503.666 334.392H502.31V335.889H503.666V334.392Z" fill="#393185"/>
<path d="M451.307 357.84C455.621 357.84 459.118 354.46 459.118 350.291C459.118 346.122 455.621 342.743 451.307 342.743C446.993 342.743 443.496 346.122 443.496 350.291C443.496 354.46 446.993 357.84 451.307 357.84Z" fill="#FEFEFE"/>
<path d="M454.844 353.353C454.769 353.353 454.707 353.413 454.707 353.486V354.065H454.982V353.486C454.982 353.413 454.92 353.353 454.844 353.353Z" fill="#393185"/>
<path d="M447.764 353.353C447.689 353.353 447.633 353.413 447.633 353.486V354.065H447.902V353.486C447.902 353.413 447.84 353.353 447.764 353.353Z" fill="#393185"/>
<path d="M455.956 354.941V352.882C456.094 352.785 456.213 352.64 456.281 352.459C456.412 352.139 456.387 351.777 456.219 351.469C456.031 351.119 455.706 350.907 455.444 350.738C455.281 350.636 455.088 350.509 455.088 350.43V349.808H455.725V349.343H455.088V348.721H454.6V349.343H453.957V349.808H454.6V350.43C454.6 350.509 454.4 350.636 454.244 350.738C453.982 350.907 453.657 351.119 453.463 351.469C453.294 351.777 453.269 352.139 453.401 352.459C453.476 352.64 453.594 352.785 453.732 352.882V354.108L452.944 353.673V351.155C453.169 351.028 453.363 350.793 453.482 350.503C453.675 350.032 453.638 349.494 453.388 349.029C453.101 348.504 452.594 348.178 452.188 347.912C451.845 347.695 451.545 347.501 451.545 347.302V346.68H452.188V346.215H451.545V345.593H451.063V346.215H450.42V346.68H451.063V347.302C451.063 347.501 450.763 347.695 450.42 347.912C450.014 348.178 449.507 348.504 449.226 349.029C448.97 349.494 448.933 350.032 449.126 350.503C449.245 350.793 449.439 351.028 449.664 351.155V353.673L448.883 354.108V352.882C449.014 352.785 449.132 352.64 449.207 352.459C449.339 352.139 449.314 351.777 449.145 351.469C448.958 351.119 448.626 350.907 448.37 350.738C448.208 350.636 448.008 350.509 448.008 350.43V349.808H448.651V349.343H448.008V348.721H447.527V349.343H446.883V349.808H447.527V350.43C447.527 350.509 447.327 350.636 447.164 350.738C446.902 350.907 446.577 351.119 446.389 351.469C446.22 351.777 446.196 352.139 446.327 352.459C446.402 352.64 446.514 352.785 446.652 352.882V354.941C445.389 353.764 444.602 352.115 444.602 350.291C444.602 346.716 447.608 343.812 451.301 343.812C454.994 343.812 458.006 346.716 458.006 350.291C458.006 352.115 457.219 353.764 455.956 354.941ZM454.213 354.379V352.972H455.469V355.074L454.213 354.379ZM453.85 352.284C453.807 352.175 453.75 351.946 453.894 351.686C454.025 351.439 454.275 351.282 454.513 351.131C454.625 351.052 454.744 350.98 454.844 350.889C454.944 350.98 455.056 351.052 455.175 351.131C455.413 351.282 455.656 351.439 455.794 351.686C455.931 351.946 455.881 352.175 455.831 352.284C455.788 352.399 455.713 352.471 455.669 352.501H454.019C453.969 352.471 453.9 352.399 453.85 352.284ZM450.151 351.239H452.457V353.407L451.52 352.888V352.206C451.52 352.091 451.426 351.994 451.301 351.994C451.176 351.994 451.088 352.091 451.088 352.206V352.882L450.151 353.407V351.239ZM452.663 350.768H449.945C449.826 350.714 449.676 350.563 449.576 350.328C449.495 350.128 449.395 349.718 449.651 349.247C449.882 348.824 450.314 348.552 450.688 348.305C450.92 348.154 451.145 348.009 451.301 347.846C451.463 348.009 451.688 348.154 451.92 348.305C452.294 348.546 452.726 348.824 452.957 349.247C453.213 349.718 453.113 350.128 453.032 350.328C452.932 350.563 452.782 350.714 452.663 350.768ZM452.501 356.662C452.301 356.215 451.838 355.901 451.301 355.901C450.763 355.901 450.307 356.215 450.107 356.662C449.089 356.481 448.145 356.076 447.339 355.503L451.301 353.305L455.269 355.503C454.463 356.076 453.519 356.481 452.501 356.662ZM451.301 356.765C451.076 356.765 450.845 356.753 450.62 356.729C450.763 356.511 451.02 356.366 451.301 356.366C451.582 356.366 451.845 356.511 451.988 356.729C451.763 356.753 451.532 356.765 451.301 356.765ZM447.139 355.074V352.972H448.395V354.379L447.139 355.074ZM446.777 352.284C446.733 352.175 446.677 351.946 446.82 351.686C446.952 351.439 447.195 351.282 447.433 351.131C447.551 351.052 447.67 350.98 447.764 350.889C447.864 350.98 447.983 351.052 448.095 351.131C448.339 351.282 448.583 351.439 448.714 351.686C448.858 351.946 448.801 352.175 448.758 352.284C448.708 352.399 448.639 352.471 448.589 352.501H446.939C446.895 352.471 446.827 352.399 446.777 352.284ZM451.301 343.347C447.345 343.347 444.121 346.457 444.121 350.291C444.121 352.405 445.102 354.301 446.652 355.575C446.808 355.702 446.97 355.829 447.139 355.943C447.976 356.523 448.951 356.934 450.007 357.121C450.164 357.145 450.326 357.169 450.489 357.187C450.757 357.218 451.026 357.236 451.301 357.236C451.576 357.236 451.851 357.218 452.119 357.187C452.282 357.169 452.444 357.145 452.601 357.121C453.657 356.934 454.632 356.523 455.469 355.943C455.638 355.829 455.8 355.708 455.956 355.575C457.506 354.301 458.493 352.405 458.493 350.291C458.493 346.457 455.269 343.347 451.301 343.347Z" fill="#393185"/>
<path d="M426.942 311.837C431.256 311.837 434.753 308.457 434.753 304.289C434.753 300.12 431.256 296.74 426.942 296.74C422.628 296.74 419.131 300.12 419.131 304.289C419.131 308.457 422.628 311.837 426.942 311.837Z" fill="#FEFEFE"/>
<path d="M426.942 310.762C423.243 310.762 420.237 307.857 420.237 304.289C420.237 300.72 423.243 297.809 426.942 297.809C430.641 297.809 433.641 300.714 433.641 304.289C433.641 307.863 430.635 310.762 426.942 310.762ZM426.942 297.344C422.974 297.344 419.756 300.454 419.756 304.289C419.756 308.123 422.974 311.233 426.942 311.233C430.91 311.233 434.122 308.117 434.122 304.289C434.122 300.46 430.904 297.344 426.942 297.344Z" fill="#393185"/>
<path d="M424.005 300.925H429.735V307.839H427.823V305.708H425.917V307.839H424.005V300.925ZM427.336 307.839H426.405V306.179H427.336V307.839ZM430.223 300.454H423.518V307.839H422.187V308.31H431.554V307.839H430.223V300.454Z" fill="#393185"/>
<path d="M425.73 302.99H425.349V302.429H425.73V302.99ZM426.217 301.958H424.861V303.461H426.217V301.958Z" fill="#393185"/>
<path d="M428.467 302.99H428.079V302.429H428.467V302.99ZM428.948 301.958H427.592V303.461H428.948V301.958Z" fill="#393185"/>
<path d="M425.73 304.868H425.349V304.301H425.73V304.868ZM426.217 303.836H424.861V305.333H426.217V303.836Z" fill="#393185"/>
<path d="M428.467 304.868H428.079V304.301H428.467V304.868ZM428.948 303.836H427.592V305.333H428.948V303.836Z" fill="#393185"/>
<path d="M525.706 283.763C530.02 283.763 533.517 280.384 533.517 276.215C533.517 272.046 530.02 268.667 525.706 268.667C521.392 268.667 517.895 272.046 517.895 276.215C517.895 280.384 521.392 283.763 525.706 283.763Z" fill="#FEFEFE"/>
<path d="M525.706 282.688C522.007 282.688 519.001 279.784 519.001 276.215C519.001 272.646 522.007 269.742 525.706 269.742C529.406 269.742 532.405 272.646 532.405 276.215C532.405 279.784 529.399 282.688 525.706 282.688ZM525.706 269.271C521.744 269.271 518.52 272.386 518.52 276.215C518.52 280.043 521.744 283.159 525.706 283.159C529.668 283.159 532.893 280.043 532.893 276.215C532.893 272.386 529.668 269.271 525.706 269.271Z" fill="#393185"/>
<path d="M522.769 272.851H528.5V279.766H526.587V277.64H524.682V279.766H522.769V272.851ZM526.106 279.766H525.169V278.105H526.106V279.766ZM528.987 272.38H522.282V279.766H520.951V280.237H530.318V279.766H528.987V272.38Z" fill="#393185"/>
<path d="M524.494 274.917H524.113V274.355H524.494V274.917ZM524.981 273.89H523.625V275.388H524.981V273.89Z" fill="#393185"/>
<path d="M527.231 274.917H526.844V274.355H527.231V274.917ZM527.712 273.89H526.356V275.388H527.712V273.89Z" fill="#393185"/>
<path d="M524.494 276.795H524.113V276.233H524.494V276.795ZM524.981 275.762H523.625V277.266H524.981V275.762Z" fill="#393185"/>
<path d="M527.231 276.795H526.844V276.233H527.231V276.795ZM527.712 275.762H526.356V277.266H527.712V275.762Z" fill="#393185"/>
<path d="M543.504 307.254C547.818 307.254 551.315 303.874 551.315 299.705C551.315 295.536 547.818 292.157 543.504 292.157C539.19 292.157 535.692 295.536 535.692 299.705C535.692 303.874 539.19 307.254 543.504 307.254Z" fill="#FEFEFE"/>
<path d="M545.46 305.901V304.059C545.716 304.162 545.991 304.216 546.266 304.216C547.428 304.216 548.372 303.304 548.372 302.181C548.372 301.457 547.959 300.774 547.303 300.418C547.19 299.391 546.303 298.606 545.216 298.606C544.916 298.606 544.628 298.667 544.366 298.775V297.749C544.366 296.227 543.079 294.983 541.498 294.983C539.917 294.983 538.636 296.227 538.636 297.749V300.46C538.636 301.922 539.811 303.117 541.291 303.22V305.816C538.679 304.935 536.805 302.525 536.805 299.705C536.805 296.136 539.811 293.232 543.504 293.232C547.197 293.232 550.202 296.136 550.202 299.705C550.202 302.622 548.203 305.092 545.46 305.901ZM541.779 305.961V303.214C541.954 303.196 542.129 303.165 542.298 303.117C542.648 303.769 543.354 304.216 544.166 304.216C544.447 304.216 544.716 304.162 544.972 304.059V306.022C544.497 306.124 544.01 306.179 543.504 306.179C542.91 306.179 542.329 306.106 541.779 305.961ZM543.879 300.46C543.879 301.094 543.61 301.668 543.179 302.085C543.004 302.254 542.804 302.399 542.579 302.507C542.435 302.58 542.285 302.634 542.123 302.676C542.01 302.707 541.898 302.731 541.779 302.743V300.635C541.779 300.484 542.06 300.194 542.266 299.989C542.585 299.663 542.891 299.355 542.891 299.017H542.404C542.404 299.168 542.123 299.452 541.916 299.663C541.866 299.711 541.823 299.76 541.779 299.802V298.256H541.291V301.179C541.248 301.13 541.204 301.082 541.154 301.034C540.948 300.829 540.667 300.539 540.667 300.388H540.179C540.179 300.726 540.485 301.034 540.804 301.36C541.01 301.571 541.291 301.855 541.291 302.006V302.749C540.079 302.646 539.123 301.662 539.123 300.46V297.749C539.123 296.481 540.192 295.454 541.498 295.454C542.804 295.454 543.879 296.481 543.879 297.749V300.46ZM545.46 302.809C545.535 302.725 545.616 302.64 545.703 302.55C546.028 302.223 546.328 301.922 546.328 301.583H545.841C545.841 301.71 545.647 301.928 545.46 302.121V300.792H544.972V303.534C544.728 303.673 544.453 303.745 544.166 303.745C543.56 303.745 543.029 303.425 542.754 302.948C543.71 302.495 544.366 301.553 544.366 300.46V299.307C544.61 299.156 544.903 299.071 545.216 299.071C546.084 299.071 546.797 299.729 546.828 300.575V300.714L546.966 300.774C547.528 301.034 547.884 301.589 547.884 302.181C547.884 303.045 547.159 303.745 546.266 303.745C545.984 303.745 545.703 303.673 545.46 303.534V302.809ZM543.504 292.761C539.542 292.761 536.317 295.877 536.317 299.705C536.317 303.534 539.542 306.65 543.504 306.65C547.465 306.65 550.69 303.534 550.69 299.705C550.69 295.877 547.465 292.761 543.504 292.761Z" fill="#393185"/>
<path d="M516.352 361.354C520.666 361.354 524.163 357.974 524.163 353.806C524.163 349.637 520.666 346.257 516.352 346.257C512.038 346.257 508.541 349.637 508.541 353.806C508.541 357.974 512.038 361.354 516.352 361.354Z" fill="#FEFEFE"/>
<path d="M509.678 353.806C509.678 350.243 512.671 347.344 516.352 347.338C520.039 347.344 523.032 350.243 523.032 353.806C523.032 357.368 520.039 360.261 516.352 360.267C512.671 360.261 509.678 357.362 509.678 353.806ZM516.365 346.867H516.346C512.39 346.867 509.166 349.977 509.166 353.806C509.166 357.634 512.39 360.738 516.346 360.738H516.365C520.32 360.738 523.538 357.628 523.538 353.806C523.538 349.983 520.32 346.867 516.365 346.867Z" fill="#393185"/>
<path d="M516.121 353.027H516.608V352.302H516.121V353.027Z" fill="#393185"/>
<path d="M516.121 354.935H516.608V354.204H516.121V354.935Z" fill="#393185"/>
<path d="M519.295 357.35V351.638H520.189V357.35H519.295ZM517.808 352.513H518.814V357.35H517.808V352.513ZM516.952 357.35V356.354H515.783V357.35H515.409V351.638H517.327V357.35H516.952ZM516.265 356.825H516.465V357.35H516.265V356.825ZM513.734 352.513H514.921V357.35H513.734V352.513ZM512.359 357.35V351.638H513.253V357.35H512.359ZM516.608 349.832H517.152V350.019H516.608V349.832ZM520.67 351.167H518.814V352.048H517.808V351.167H516.608V350.49H517.639V349.361H516.121V351.167H514.921V352.048H513.734V351.167H511.878V357.35H511.597V357.821H520.951V357.35H520.67V351.167Z" fill="#393185"/>
<path d="M540.173 333.709C544.487 333.709 547.984 330.33 547.984 326.161C547.984 321.992 544.487 318.612 540.173 318.612C535.859 318.612 532.362 321.992 532.362 326.161C532.362 330.33 535.859 333.709 540.173 333.709Z" fill="#FEFEFE"/>
<path d="M540.173 332.64C536.48 332.64 533.474 329.73 533.474 326.161C533.474 322.592 536.48 319.687 540.173 319.687C543.866 319.687 546.878 322.592 546.878 326.161C546.878 329.73 543.866 332.64 540.173 332.64ZM540.173 319.216C536.211 319.216 532.987 322.332 532.987 326.161C532.987 329.989 536.211 333.105 540.173 333.105C544.135 333.105 547.359 329.989 547.359 326.161C547.359 322.332 544.135 319.216 540.173 319.216Z" fill="#393185"/>
<path d="M543.891 325.327V328.329L541.698 326.982V326.571L543.891 325.327ZM541.216 328.522H536.905V325.146H541.216V328.522ZM541.698 324.681H536.424V328.987H541.698V327.538L544.378 329.18V324.5L541.698 326.028V324.681Z" fill="#393185"/>
<path d="M536.461 323.256C536.461 322.833 536.811 322.489 537.248 322.489C537.686 322.489 538.036 322.833 538.036 323.256C538.036 323.679 537.68 324.017 537.248 324.017C536.817 324.017 536.461 323.673 536.461 323.256ZM538.523 323.256C538.523 322.574 537.948 322.024 537.248 322.024C536.549 322.024 535.974 322.574 535.974 323.256C535.974 323.939 536.549 324.482 537.248 324.482C537.948 324.482 538.523 323.933 538.523 323.256Z" fill="#393185"/>
<path d="M540.398 321.891C541.004 321.891 541.498 322.369 541.498 322.954C541.498 323.54 541.004 324.017 540.398 324.017C539.792 324.017 539.298 323.54 539.298 322.954C539.298 322.369 539.792 321.891 540.398 321.891ZM540.398 324.482C541.273 324.482 541.979 323.8 541.979 322.954C541.979 322.109 541.273 321.42 540.398 321.42C539.523 321.42 538.811 322.109 538.811 322.954C538.811 323.8 539.523 324.482 540.398 324.482Z" fill="#393185"/>
</svg>
