<svg width="1922" height="1089" viewBox="0 0 1922 1089" fill="none" xmlns="http://www.w3.org/2000/svg">
<g clip-path="url(#clip0_193_327)">
<path fill-rule="evenodd" clip-rule="evenodd" d="M1920.76 1081.95V2.08008H1638.27L1604.74 47.2501L1590.56 81.8401L1530.32 194.38L1440.68 361.84L1466.71 375.77L1318.86 639.95L1301.64 630.68L1297.95 628.49L1272.97 675.14L1216.66 780.34L1206.71 798.93L1228.18 810.43L1210.29 842.55L1204.99 842.88L1177.16 893.16L1169.27 888.6L1161.97 924.36L1147.79 941.64L1129.83 959.32L1092.4 973.88L1038.29 1026.16L995.37 1067.63L977.48 1084.92L1299.74 1084.88L1920.76 1081.95ZM628.59 417.86L846.62 403.33L863.73 391.78L857.58 314.66L860.15 314.36C857.88 294.26 855.57 273.83 853.33 253.96C845.21 256.43 839.17 258.2 839.17 258.2C839.17 258.2 831.09 272.76 824.29 274.37C817.5 275.99 811.03 269.84 803.27 267.9C795.51 265.96 788.71 267.9 783.54 272.11C778.36 276.31 779.66 283.11 769.31 281.49C758.95 279.87 744.07 268.88 725.96 271.46C707.84 274.05 703.32 280.19 695.23 276.31C687.14 272.43 676.26 242.6 673.49 241.54C670.73 240.48 657.54 236.01 656.05 233.67C654.56 231.33 659.03 213.68 663.07 210.27C667.11 206.87 675.19 203.89 675.83 199.85C676.47 195.81 673.91 178.82 663.7 178.82C653.49 178.82 609.24 192.01 602.44 191.59C595.63 191.16 587.76 193.29 571.17 172.23C554.57 151.17 534.53 99.7501 536.76 93.8001C538.99 87.8501 557.97 74.0801 578.43 74.0801C578.43 74.0801 554.72 73.9701 541.99 73.9701C529.26 73.9701 516.89 69.8501 482.8 69.8501C448.71 69.8501 426.98 61.2301 400.75 41.0001C380.76 25.5701 379.49 9.06008 380.02 2.08008H1V1084.92H883.9L851.38 1052.14L771.29 971.42L753.29 953.28L752.04 952.02C752.04 952.02 737.31 934.46 706.16 925.97C666.78 915.22 657.16 890.38 658.61 859.71C643.29 861.35 615.39 864.32 585.1 867.45L570.48 757.74L524.28 763.9L534.05 844.88L468.56 852.71L450.55 856.14L427.4 874.15L427.51 884.33C409.4 888.11 399.55 892.58 391.35 896.38C378.13 902.49 357.82 928.44 343.87 948.75C329.92 969.06 316.46 976.89 307.16 982.52C301.06 986.22 286.2 988.43 276.72 989.52C277.01 988.98 277.23 988.44 277.37 987.92C279.07 981.7 297.83 972.79 307.13 969.44C316.42 966.1 345.81 939.32 349.52 932.62C353.24 925.93 352.13 914.77 348.41 908.82C344.69 902.87 345.73 902.58 346.48 895.85C347.23 889.12 386.87 874.91 401.83 859.2C416.79 843.49 407.82 828.53 403.33 819.55C398.84 810.58 399.59 778.41 398.84 764.2C398.09 749.99 377.47 676.78 370.41 651.12C370.29 650.69 370.15 650.25 370 649.81C366.68 640.16 355.9 629.66 343.39 620.01C322.93 604.24 297.82 590.79 293.05 587.16C285.24 581.21 264.78 538.34 261.53 527.94C258.28 517.53 279.74 462.24 279.74 462.24L343.48 412.16L391.87 465.74L406.62 462.3L413.51 470.66C413.51 470.66 417.45 466.23 426.3 466.23C435.15 466.23 444.01 465.25 451.88 458.85C459.75 452.46 469.58 444.59 476.96 444.59C484.34 444.59 489.75 445.08 496.15 438.19C502.54 431.31 509.92 421.96 513.36 415.07C516.81 408.19 525.17 380.15 530.09 376.22C535.01 372.28 540.91 368.84 544.35 372.77C547.8 376.71 556.16 387.04 556.16 387.04C556.16 387.04 558.56 382.98 559.13 379.61C559.69 376.23 561.09 369.48 561.09 369.48C561.09 369.48 554.91 367.24 554.06 363.3C553.22 359.36 549.56 356.55 551.25 352.33C552.94 348.11 557.44 347.55 560.25 351.48C563.06 355.42 570.37 360.77 572.06 363.3C573.75 365.83 575.16 371.45 575.16 371.45L594.84 377.64C594.84 377.64 588.66 409.98 589.22 417.02C589.78 424.05 593.44 445.98 594.28 449.64C595.12 453.3 607.78 451.05 615.94 449.64C624.09 448.23 636.19 448.51 636.19 444.3C636.19 440.09 629.16 438.95 629.16 438.95L628.59 417.86ZM553.86 845.54L557.16 866.5L506 872.27L502.53 851.81L553.86 845.54ZM1267.97 738.89L1231.96 807.12L1214.51 797.42L1226.93 772.51L1247.7 767.24L1246.71 760.15L1237.32 754.22L1249.51 732.79L1267.97 738.89Z" fill="#F24D44"/>
<path d="M427.51 884.33C438.59 882.02 452.75 879.97 471.51 878.48C495.35 876.59 542.59 871.85 585.1 867.45M427.51 884.33L427.4 874.15L450.55 856.14L468.56 852.71L534.05 844.88L524.28 763.9L570.48 757.74L585.1 867.45M427.51 884.33C409.4 888.11 399.55 892.58 391.35 896.38C378.13 902.49 357.82 928.44 343.87 948.75C329.92 969.06 316.46 976.89 307.16 982.52C301.06 986.22 286.2 988.43 276.72 989.52C277.01 988.98 277.23 988.44 277.37 987.92C279.07 981.7 297.83 972.79 307.13 969.44C316.42 966.1 345.81 939.32 349.52 932.62C353.24 925.93 352.13 914.77 348.41 908.82C344.69 902.87 345.73 902.58 346.48 895.85C347.23 889.12 386.87 874.91 401.83 859.2C416.79 843.49 407.82 828.53 403.33 819.55C398.84 810.58 399.59 778.41 398.84 764.2C398.09 749.99 377.47 676.78 370.41 651.12C370.29 650.69 370.15 650.25 370 649.81C366.68 640.16 355.9 629.66 343.39 620.01C322.93 604.24 297.82 590.79 293.05 587.16C285.24 581.21 264.78 538.34 261.53 527.94C258.28 517.53 279.74 462.24 279.74 462.24L343.48 412.16L391.87 465.74L406.62 462.3L413.51 470.66C413.51 470.66 417.45 466.23 426.3 466.23C435.15 466.23 444.01 465.25 451.88 458.85C459.75 452.46 469.58 444.59 476.96 444.59C484.34 444.59 489.75 445.08 496.15 438.19C502.54 431.31 509.92 421.96 513.36 415.07C516.81 408.19 525.17 380.15 530.09 376.22C535.01 372.28 540.91 368.84 544.35 372.77C547.8 376.71 556.16 387.04 556.16 387.04C556.16 387.04 558.56 382.98 559.13 379.61C559.69 376.23 561.09 369.48 561.09 369.48C561.09 369.48 554.91 367.24 554.06 363.3C553.22 359.36 549.56 356.55 551.25 352.33C552.94 348.11 557.44 347.55 560.25 351.48C563.06 355.42 570.37 360.77 572.06 363.3C573.75 365.83 575.16 371.45 575.16 371.45L594.84 377.64C594.84 377.64 588.66 409.98 589.22 417.02C589.78 424.05 593.44 445.98 594.28 449.64C595.12 453.3 607.78 451.05 615.94 449.64C624.09 448.23 636.19 448.51 636.19 444.3C636.19 440.09 629.16 438.95 629.16 438.95L628.59 417.86L846.62 403.33L863.73 391.78L857.58 314.66L860.15 314.36C857.88 294.26 855.57 273.83 853.33 253.96C845.21 256.43 839.17 258.2 839.17 258.2C839.17 258.2 831.09 272.76 824.29 274.37C817.5 275.99 811.03 269.84 803.27 267.9C795.51 265.96 788.71 267.9 783.54 272.11C778.36 276.31 779.66 283.11 769.31 281.49C758.95 279.87 744.07 268.88 725.96 271.46C707.84 274.05 703.32 280.19 695.23 276.31C687.14 272.43 676.26 242.6 673.49 241.54C670.73 240.48 657.54 236.01 656.05 233.67C654.56 231.33 659.03 213.68 663.07 210.27C667.11 206.87 675.19 203.89 675.83 199.85C676.47 195.81 673.91 178.82 663.7 178.82C653.49 178.82 609.24 192.01 602.44 191.59C595.63 191.16 587.76 193.29 571.17 172.23C554.57 151.17 534.53 99.7501 536.76 93.8001C538.99 87.8501 557.97 74.0801 578.43 74.0801C578.43 74.0801 554.72 73.9701 541.99 73.9701C529.26 73.9701 516.89 69.8501 482.8 69.8501C448.71 69.8501 426.98 61.2301 400.75 41.0001C380.76 25.5701 379.49 9.06008 380.02 2.08008H1V1084.92H883.9L851.38 1052.14L771.29 971.42L753.29 953.28L752.04 952.02C752.04 952.02 737.31 934.46 706.16 925.97C666.78 915.22 657.16 890.38 658.61 859.71C643.29 861.35 615.39 864.32 585.1 867.45M1318.12 1051.84L1165.2 960.56M1920.76 1081.95V2.08008H1638.27L1604.74 47.2501L1590.56 81.8401L1530.32 194.38L1440.68 361.84L1466.71 375.77L1318.86 639.95L1301.64 630.68L1297.95 628.49L1272.97 675.14L1216.66 780.34L1206.71 798.93L1228.18 810.43L1210.29 842.55L1204.99 842.88L1177.16 893.16L1169.27 888.6L1161.97 924.36L1147.79 941.64L1129.83 959.32L1092.4 973.88L1038.29 1026.16L995.37 1067.63L977.48 1084.92L1299.74 1084.88L1920.76 1081.95ZM553.86 845.54L557.16 866.5L506 872.27L502.53 851.81L553.86 845.54ZM1267.97 738.89L1231.96 807.12L1214.51 797.42L1226.93 772.51L1247.7 767.24L1246.71 760.15L1237.32 754.22L1249.51 732.79L1267.97 738.89Z" stroke="#F24D44" stroke-width="2" stroke-miterlimit="22.93"/>
<path fill-rule="evenodd" clip-rule="evenodd" d="M1169.27 888.6L1177.16 893.16L1204.99 842.88L1210.29 842.55L1228.18 810.43L1206.71 798.93L1175.78 856.7L1169.27 888.6ZM1071.91 255.75L1141.1 318.88L1192.85 366.16L1291.31 422.15L1313.7 382.82L1391.7 424.57L1403.67 430.98L1338.45 552.82L1297.95 628.49L1301.64 630.68L1318.86 639.95L1466.71 375.77L1440.68 361.84L1530.32 194.38L1590.56 81.8401L1604.74 47.2501L1638.27 2.08008H1627.46L1598.03 42.5401L1585.8 74.3001L1485.79 256.94L1430.67 234.19L1365.93 232.01L1217.28 255.71L1182.41 269.77L1166.65 279.77L1160.65 260.26L1127.14 259.26L1118.13 214.49L1071.11 219.49L1073.36 246.51L1064.2 249.62L985.38 186.99L959.91 212.08L955.36 214.44C957.52 217.28 958.88 221.04 959.12 225.7L944.49 241.45L947.59 293.83L964.33 321.73L959.87 347.76L941.27 338.09L916.35 307.96L860.15 314.36L857.58 314.66L863.73 391.78L816.48 389.76L628.59 417.86L629.16 438.95C629.16 438.95 636.19 440.08 636.19 444.3C636.19 448.52 624.09 448.23 615.94 449.64C607.78 451.05 595.12 453.3 594.28 449.64C593.44 445.98 589.78 424.05 589.22 417.02C588.66 409.98 594.84 377.64 594.84 377.64L575.16 371.45C575.16 371.45 573.75 365.83 572.06 363.3C570.37 360.77 563.06 355.42 560.25 351.48C557.44 347.55 552.94 348.11 551.25 352.33C549.56 356.55 553.22 359.36 554.06 363.3C554.91 367.24 561.09 369.48 561.09 369.48C561.09 369.48 559.69 376.23 559.13 379.61C558.56 382.98 556.16 387.04 556.16 387.04L568.81 400.59C568.81 400.59 572.1 441.85 574.69 448.75C577.28 455.65 594.81 455.08 600.27 458.81C605.73 462.55 600.99 495.18 600.99 495.18C600.99 495.18 613.64 492.31 619.39 497.48C625.14 502.66 609.9 512.43 609.9 512.43L612.2 535.71C612.2 535.71 643.82 533.7 642.67 538.58C641.52 543.47 634.05 577.67 632.03 582.27C630.02 586.87 620.54 586.01 607.89 586.87C595.24 587.73 600.71 595.21 594.67 600.09C588.63 604.98 588.06 623.66 588.06 623.66C588.06 623.66 582.31 630.27 580.87 624.23C579.44 618.2 567.37 616.47 567.37 616.47C567.37 616.47 570.82 636.31 573.11 644.64C575.42 652.98 566.79 653.84 557.02 654.7C547.25 655.56 537.48 628.83 533.45 623.37C529.43 617.91 542.65 615.9 542.07 610.44C541.5 604.98 516.49 589.17 518.79 599.23C521.09 609.29 515.63 621.36 510.17 622.8C504.71 624.23 483.44 604.12 483.44 604.12C483.44 604.12 496.09 595.49 496.09 591.18C496.09 586.87 490.91 590.61 489.48 588.02C488.04 585.43 489.19 564.17 492.64 562.73C496.09 561.29 492.35 554.11 497.52 546.92C502.7 539.73 502.41 535.14 509.02 530.82C515.63 526.51 522.53 515.3 523.1 510.13C523.68 504.96 516.78 490.87 516.78 490.87L495.22 489.73L492.35 484.26L476.26 483.11L471.66 471.33L430.33 492.25L459.38 521.82L445.78 539.95L438.85 560.55L444.35 613.17L450.75 674.37L513.6 675.5L642.7 659.62L656.3 657.94L655.17 619.44L660.83 586.6L652.13 509.58L647.24 451.4C647.24 451.4 646.87 433.5 669.99 427.53C693.12 421.56 773.68 411.12 773.68 411.12C773.68 411.12 813.21 405.53 821.04 407.02C828.87 408.51 840.44 420.07 849.76 420.07C852.3 420.07 860.84 419.32 871.91 418.23C889.25 416.53 912.79 413.99 929.28 412.18L968.11 369.59L1066.78 261.37L1071.91 255.75ZM460.54 772.4C440.17 775.12 412.18 759.35 410.65 736.89C410.65 736.89 408.75 720.39 406.16 696.94C403.65 674.26 400.5 645.1 397.78 618.04C395.28 593.01 393.15 569.78 392.26 555.2C391.98 550.52 391.82 546.73 391.82 544.05C391.82 516.67 421.28 491.25 425.27 487.92L413.6 477.94C413.6 477.94 385.02 523.36 383.06 524.66C381.1 525.97 377.84 539.01 378.28 544.01C378.71 549 371.54 550.53 371.54 550.53L374.8 578.13L365.46 579.86L378.5 647.23L370 649.81C370.15 650.25 370.29 650.69 370.41 651.12C377.47 676.78 398.09 749.99 398.84 764.2C399.59 778.41 398.84 810.58 403.33 819.55C407.82 828.53 416.79 843.49 401.83 859.2C386.87 874.91 347.23 889.12 346.48 895.85C345.73 902.58 344.69 902.87 348.41 908.82C352.13 914.77 353.24 925.93 349.52 932.62C345.81 939.32 316.42 966.1 307.13 969.44C297.83 972.79 279.07 981.7 277.37 987.92C277.23 988.44 277.01 988.98 276.72 989.52C286.2 988.43 301.06 986.22 307.16 982.52C316.46 976.89 329.92 969.06 343.87 948.75C357.82 928.44 378.13 902.49 391.35 896.38C399.55 892.58 409.4 888.11 427.51 884.33L427.4 874.15L450.55 856.14L468.56 852.71L465.26 819.62L460.54 772.4ZM295.3 486.87C295.3 486.87 313.22 463.26 326.34 463.26C339.46 463.26 391.87 465.74 391.87 465.74L343.48 412.16L279.74 462.24C279.74 462.24 258.28 517.53 261.53 527.94C264.78 538.34 285.24 581.21 293.05 587.16C297.82 590.79 322.93 604.24 343.39 620.01L320.66 578.22C320.66 578.22 290.5 567.73 288.31 555.93C286.13 544.13 295.3 486.87 295.3 486.87ZM1167.51 302.09L1175.27 291.23L1420.74 261.78L1472.02 287.65L1400.27 420.65L1309.7 372.96L1289.14 409.72L1195.95 357.65L1179.32 340.15L1192.01 326.59L1167.51 302.09ZM1219.51 265.19L1367.06 241.04L1431.53 243.49L1479.66 263.62L1473.53 277.18L1423.67 252.91L1190.39 280.01L1184.77 279.08L1219.51 265.19Z" fill="#F24D44"/>
<path fill-rule="evenodd" clip-rule="evenodd" d="M853.33 253.96C855.57 273.83 857.88 294.26 860.15 314.36L916.35 307.96L941.27 338.09L959.87 347.76L964.33 321.73L947.59 293.83L944.49 241.45L959.12 225.7C958.88 221.04 957.52 217.28 955.36 214.44C949.85 207.18 939.19 205.93 929.1 210.97C918.75 216.15 898.37 236.53 895.78 239.44C894.06 241.38 869.53 249.05 853.33 253.96Z" fill="#F24D44" stroke="#F24D44" stroke-width="2" stroke-miterlimit="22.93"/>
<path fill-rule="evenodd" clip-rule="evenodd" d="M774.28 644.98L828.35 639.03L893.7 631.85L879.55 485.49L878.73 485.57L652.13 509.58L660.83 586.6L655.17 619.44L656.3 657.94L774.28 644.98Z" fill="#E0292E" stroke="#F24D44" stroke-width="8" stroke-linecap="round" stroke-linejoin="round"/>
<path fill-rule="evenodd" clip-rule="evenodd" d="M871.91 418.23C876.37 457.53 879.44 484.51 879.55 485.46C879.44 484.5 876.37 457.53 871.91 418.23ZM849.76 420.07C840.44 420.07 828.87 408.51 821.04 407.02C813.21 405.53 773.68 411.12 773.68 411.12C773.68 411.12 693.12 421.56 669.99 427.53C646.87 433.5 647.24 451.4 647.24 451.4L652.13 509.58L878.73 485.57L879.55 485.49L1000.69 472.65C1000.69 472.65 997.5 440.94 992.6 422.68C987.71 404.42 948.97 410 948.97 410C948.97 410 940.87 410.91 929.28 412.18C912.79 413.99 889.25 416.53 871.91 418.23C860.84 419.32 852.3 420.07 849.76 420.07Z" fill="#E0292E"/>
<path d="M871.91 418.23C876.37 457.53 879.44 484.51 879.55 485.46C879.44 484.5 876.37 457.53 871.91 418.23ZM871.91 418.23C889.25 416.53 912.79 413.99 929.28 412.18C940.87 410.91 948.97 410 948.97 410C948.97 410 987.71 404.42 992.6 422.68C997.5 440.94 1000.69 472.65 1000.69 472.65L879.55 485.49L878.73 485.57L652.13 509.58L647.24 451.4C647.24 451.4 646.87 433.5 669.99 427.53C693.12 421.56 773.68 411.12 773.68 411.12C773.68 411.12 813.21 405.53 821.04 407.02C828.87 408.51 840.44 420.07 849.76 420.07C852.3 420.07 860.84 419.32 871.91 418.23Z" stroke="#F24D44" stroke-width="8" stroke-linecap="round" stroke-linejoin="round"/>
<path fill-rule="evenodd" clip-rule="evenodd" d="M1000.69 472.65L879.55 485.49L893.7 631.85C893.7 631.85 897.31 669.67 901.78 680.95C906.25 692.24 908.16 697.99 914.55 704.59C915.45 705.51 920.69 710.85 929.06 719.37L990.97 645.51L1027.19 602.28C1025.85 601.23 1024.99 599.6 1024.99 597.76C1024.99 595.41 1026.39 593.4 1028.4 592.51L1012.68 575.88L1000.69 472.65Z" fill="#E0292E" stroke="#F24D44" stroke-width="8" stroke-linecap="round" stroke-linejoin="round"/>
<path fill-rule="evenodd" clip-rule="evenodd" d="M948.97 410C948.97 410 987.71 404.42 992.6 422.68C997.5 440.94 1000.69 472.65 1000.69 472.65L1076.64 389.48L1141.1 318.88L1071.91 255.75L929.28 412.18C940.87 410.91 948.97 410 948.97 410Z" fill="#E0292E" stroke="#F24D44" stroke-width="8" stroke-linecap="round" stroke-linejoin="round"/>
<path fill-rule="evenodd" clip-rule="evenodd" d="M1076.64 389.48L1000.69 472.65L1012.68 575.88L1028.4 592.51C1029.11 592.19 1029.9 592.01 1030.73 592.01C1033.9 592.01 1036.47 594.58 1036.47 597.76C1036.47 598.64 1036.27 599.49 1035.91 600.24L1125.24 601.9L1138.16 602.14L1180.51 625.07L1246.76 503.74L1145.13 449.34L1076.64 389.48Z" fill="#E0292E" stroke="#F24D44" stroke-width="8" stroke-linecap="round" stroke-linejoin="round"/>
<path fill-rule="evenodd" clip-rule="evenodd" d="M1076.64 389.48L1145.13 449.34L1246.76 503.74L1291.31 422.15L1192.85 366.16L1141.1 318.88L1076.64 389.48Z" fill="#E0292E" stroke="#F24D44" stroke-width="8" stroke-linecap="round" stroke-linejoin="round"/>
<path fill-rule="evenodd" clip-rule="evenodd" d="M1246.76 503.74L1180.51 625.07L1272.97 675.14L1338.45 552.82L1246.76 503.74Z" fill="#E0292E" stroke="#F24D44" stroke-width="8" stroke-linecap="round" stroke-linejoin="round"/>
<path fill-rule="evenodd" clip-rule="evenodd" d="M1246.76 503.74L1338.45 552.82L1403.67 430.98L1391.7 424.57L1313.7 382.82L1291.31 422.15L1246.76 503.74Z" fill="#E0292E" stroke="#F24D44" stroke-width="8" stroke-linecap="round" stroke-linejoin="round"/>
<path fill-rule="evenodd" clip-rule="evenodd" d="M1272.97 675.14L1180.51 625.07L1133.94 710.35L1122.66 731.01L1216.66 780.34L1272.97 675.14Z" fill="#E0292E" stroke="#F24D44" stroke-width="8" stroke-linecap="round" stroke-linejoin="round"/>
<path fill-rule="evenodd" clip-rule="evenodd" d="M1133.94 710.35L1180.51 625.07L1138.16 602.14L1125.24 601.9L1078.22 681.35L1133.94 710.35Z" fill="#E0292E" stroke="#F24D44" stroke-width="8" stroke-linecap="round" stroke-linejoin="round"/>
<path fill-rule="evenodd" clip-rule="evenodd" d="M1133.94 710.35L1078.22 681.35L1063.87 705.61L1049.51 729.86L1096.24 779.39L1122.66 731.01L1133.94 710.35Z" fill="#E0292E" stroke="#F24D44" stroke-width="8" stroke-linecap="round" stroke-linejoin="round"/>
<path fill-rule="evenodd" clip-rule="evenodd" d="M1078.22 681.35L1125.24 601.9L1035.91 600.24C1034.98 602.16 1033.01 603.5 1030.73 603.5C1029.4 603.5 1028.17 603.04 1027.19 602.28L990.97 645.51L1063.87 705.61L1078.22 681.35Z" fill="#E0292E" stroke="#F24D44" stroke-width="8" stroke-linecap="round" stroke-linejoin="round"/>
<path fill-rule="evenodd" clip-rule="evenodd" d="M1063.87 705.61L990.97 645.51L929.06 719.37C941 731.51 959.28 750.09 980.31 771.47C1004.29 795.83 1031.84 823.83 1057.65 850.06L1096.24 779.39L1049.51 729.86L1063.87 705.61Z" fill="#E0292E" stroke="#F24D44" stroke-width="8" stroke-linecap="round" stroke-linejoin="round"/>
<path fill-rule="evenodd" clip-rule="evenodd" d="M1122.66 731.01L1096.24 779.39L1057.65 850.06L1056.91 851.42L989.88 917.57L970.19 955.67L1038.29 1026.16L1092.4 973.88L1129.83 959.32L1147.79 941.64L1161.97 924.36L1175.78 856.7L1216.66 780.34L1122.66 731.01Z" fill="#E0292E"/>
<path d="M1147.79 941.64C1139.25 932.96 1100.88 893.98 1057.65 850.06M1147.79 941.64L1129.83 959.32L1092.4 973.88L1038.29 1026.16L970.19 955.67L989.88 917.57L1056.91 851.42L1057.65 850.06M1147.79 941.64L1161.97 924.36L1175.78 856.7L1216.66 780.34L1122.66 731.01L1096.24 779.39L1057.65 850.06" stroke="#F24D44" stroke-width="8" stroke-linecap="round" stroke-linejoin="round"/>
<path fill-rule="evenodd" clip-rule="evenodd" d="M1038.29 1026.16L970.19 955.67L950.92 977.51L934.09 982.91C934.43 983.72 934.62 984.61 934.62 985.54C934.62 989.31 931.56 992.36 927.8 992.36C927.41 992.36 927.03 992.33 926.66 992.26L995.37 1067.63L1038.29 1026.16Z" fill="#E0292E" stroke="#F24D44" stroke-width="8" stroke-linecap="round" stroke-linejoin="round"/>
<path fill-rule="evenodd" clip-rule="evenodd" d="M995.37 1067.63L926.66 992.26C924.29 991.86 922.33 990.24 921.46 988.06L883.65 1022.63L851.38 1052.14L883.9 1084.92H977.48L995.37 1067.63Z" fill="#E0292E" stroke="#F24D44" stroke-width="8" stroke-linecap="round" stroke-linejoin="round"/>
<path fill-rule="evenodd" clip-rule="evenodd" d="M883.65 1022.63L801.97 942.07L771.29 971.42L851.38 1052.14L883.65 1022.63Z" fill="#E0292E" stroke="#F24D44" stroke-width="8" stroke-linecap="round" stroke-linejoin="round"/>
<path fill-rule="evenodd" clip-rule="evenodd" d="M801.97 942.07L883.65 1022.63L921.46 988.06C921.15 987.28 920.98 986.43 920.98 985.54C920.98 983.28 922.08 981.27 923.77 980.03L911.53 959.95L909.39 929.98L893.8 914.25L863.27 883.44L801.97 942.07Z" fill="#E0292E" stroke="#F24D44" stroke-width="8" stroke-linecap="round" stroke-linejoin="round"/>
<path fill-rule="evenodd" clip-rule="evenodd" d="M909.39 929.98L911.53 959.95L923.77 980.03C924.9 979.21 926.29 978.72 927.8 978.72C930.63 978.72 933.07 980.45 934.09 982.91L950.92 977.51L970.19 955.67L989.88 917.57C989.88 917.57 970.52 884.92 942.17 884.92C913.82 884.92 893.8 914.25 893.8 914.25L909.39 929.98Z" fill="#E0292E" stroke="#F24D44" stroke-width="8" stroke-linecap="round" stroke-linejoin="round"/>
<path fill-rule="evenodd" clip-rule="evenodd" d="M942.17 884.92C970.52 884.92 989.88 917.57 989.88 917.57L1056.91 851.42L1057.65 850.06C1031.84 823.83 1004.29 795.83 980.31 771.47L927.86 821.65L863.27 883.44L893.8 914.25C893.8 914.25 913.81 884.92 942.17 884.92Z" fill="#E0292E" stroke="#F24D44" stroke-width="8" stroke-linecap="round" stroke-linejoin="round"/>
<path fill-rule="evenodd" clip-rule="evenodd" d="M863.27 883.44L927.86 821.65L877.41 770.59L815.28 832.01L813.43 833.14L843.65 863.63L863.27 883.44Z" fill="#E0292E" stroke="#F24D44" stroke-width="8" stroke-linecap="round" stroke-linejoin="round"/>
<path fill-rule="evenodd" clip-rule="evenodd" d="M877.41 770.59L927.86 821.65L980.31 771.47C959.28 750.09 941 731.51 929.06 719.37L928.3 720.28L877.41 770.59Z" fill="#E0292E" stroke="#F24D44" stroke-width="8" stroke-linecap="round" stroke-linejoin="round"/>
<path fill-rule="evenodd" clip-rule="evenodd" d="M877.41 770.59L928.3 720.28L929.06 719.37C920.69 710.85 915.45 705.51 914.55 704.59C908.16 697.99 906.25 692.24 901.78 680.95C897.31 669.67 893.7 631.85 893.7 631.85L828.35 639.03L835.69 728.36L877.41 770.59Z" fill="#E0292E" stroke="#F24D44" stroke-width="8" stroke-linecap="round" stroke-linejoin="round"/>
<path fill-rule="evenodd" clip-rule="evenodd" d="M835.69 728.36L828.35 639.03L774.28 644.98C774.28 644.98 777.72 688.62 782.16 729.53C784.53 751.36 787.18 772.42 789.74 785.65C797.12 823.65 813.43 833.14 813.43 833.14L815.28 832.01L877.41 770.59L835.69 728.36Z" fill="#E0292E" stroke="#F24D44" stroke-width="8" stroke-linecap="round" stroke-linejoin="round"/>
<path fill-rule="evenodd" clip-rule="evenodd" d="M782.16 729.531C777.72 688.621 774.28 644.98 774.28 644.98L656.3 657.94L642.7 659.62L654.26 746.581L782.16 729.531Z" fill="#E0292E" stroke="#F24D44" stroke-width="8" stroke-linecap="round" stroke-linejoin="round"/>
<path fill-rule="evenodd" clip-rule="evenodd" d="M782.16 729.53L654.26 746.58L664.24 821.74C661.42 834.96 659.18 847.78 658.61 859.71C666.37 858.88 670.91 858.39 670.91 858.39L796.61 843.39L813.43 833.14C813.43 833.14 797.12 823.65 789.74 785.65C787.18 772.42 784.53 751.36 782.16 729.53Z" fill="#E0292E" stroke="#F24D44" stroke-width="8" stroke-linecap="round" stroke-linejoin="round"/>
<path fill-rule="evenodd" clip-rule="evenodd" d="M796.61 843.39L670.91 858.39C670.91 858.39 666.37 858.88 658.61 859.71C657.16 890.38 666.78 915.22 706.16 925.97C737.31 934.46 752.04 952.02 752.04 952.02L753.29 953.28L843.65 863.63L813.43 833.14L796.61 843.39Z" fill="#E0292E" stroke="#F24D44" stroke-width="8" stroke-linecap="round" stroke-linejoin="round"/>
<path fill-rule="evenodd" clip-rule="evenodd" d="M843.65 863.63L753.29 953.28L771.29 971.42L801.97 942.07L863.27 883.44L843.65 863.63Z" fill="#E0292E" stroke="#F24D44" stroke-width="8" stroke-linecap="round" stroke-linejoin="round"/>
<path fill-rule="evenodd" clip-rule="evenodd" d="M658.61 859.71C659.18 847.78 661.42 834.96 664.24 821.74L654.26 746.58L570.48 757.74L585.1 867.45C615.39 864.32 643.29 861.35 658.61 859.71Z" fill="#E0292E" stroke="#F24D44" stroke-width="8" stroke-linecap="round" stroke-linejoin="round"/>
<path fill-rule="evenodd" clip-rule="evenodd" d="M570.48 757.74L654.26 746.58L642.7 659.62L513.6 675.5L524.28 763.9L570.48 757.74Z" fill="#E0292E" stroke="#F24D44" stroke-width="8" stroke-linecap="round" stroke-linejoin="round"/>
<path fill-rule="evenodd" clip-rule="evenodd" d="M524.28 763.9L513.6 675.5L450.75 674.37L452.54 692.3L460.54 772.4L524.28 763.9Z" fill="#E0292E" stroke="#F24D44" stroke-width="8" stroke-linecap="round" stroke-linejoin="round"/>
<path fill-rule="evenodd" clip-rule="evenodd" d="M524.28 763.9L460.54 772.4L465.26 819.62L468.56 852.71L534.05 844.88L524.28 763.9Z" fill="#E0292E" stroke="#F24D44" stroke-width="8" stroke-linecap="round" stroke-linejoin="round"/>
<path fill-rule="evenodd" clip-rule="evenodd" d="M534.05 844.88L468.56 852.71L450.55 856.14L427.4 874.15L427.51 884.33C438.59 882.02 452.75 879.97 471.51 878.48C495.35 876.59 542.59 871.85 585.1 867.45L570.48 757.74L524.28 763.9L534.05 844.88Z" fill="#E0292E" stroke="#F24D44" stroke-width="8" stroke-linecap="round" stroke-linejoin="round"/>
<path fill-rule="evenodd" clip-rule="evenodd" d="M460.54 772.4L452.54 692.3L406.16 696.94C408.75 720.39 410.65 736.89 410.65 736.89C412.18 759.35 440.17 775.12 460.54 772.4Z" fill="#E0292E" stroke="#F24D44" stroke-width="8" stroke-linecap="round" stroke-linejoin="round"/>
<path fill-rule="evenodd" clip-rule="evenodd" d="M406.16 696.94L452.54 692.3L450.75 674.37L444.35 613.17L397.78 618.04C400.5 645.1 403.65 674.26 406.16 696.94Z" fill="#E0292E" stroke="#F24D44" stroke-width="8" stroke-linecap="round" stroke-linejoin="round"/>
<path fill-rule="evenodd" clip-rule="evenodd" d="M397.78 618.04L444.35 613.17L438.85 560.55L392.26 555.2C393.15 569.78 395.28 593.01 397.78 618.04Z" fill="#E0292E" stroke="#F24D44" stroke-width="8" stroke-linecap="round" stroke-linejoin="round"/>
<path fill-rule="evenodd" clip-rule="evenodd" d="M392.26 555.2L438.85 560.55L445.78 539.95L459.38 521.82L425.72 487.56C425.72 487.56 391.82 514.68 391.82 544.05C391.82 546.73 391.98 550.52 392.26 555.2Z" fill="#E0292E" stroke="#F24D44" stroke-width="8" stroke-linecap="round" stroke-linejoin="round"/>
<path d="M1041.3 1085.83L1159.4 966.99L1190.04 925.45L1686.58 3" stroke="#E22B30" stroke-width="6" stroke-miterlimit="22.93" stroke-linecap="round"/>
<path d="M1471.92 502.39L1400.31 632.87L1330.83 678.37M1235.78 840.47C1234.13 843.47 1230.86 848.75 1231.8 856.66C1234.13 876.38 1247.79 906.23 1287.84 921.78" stroke="#E22B30" stroke-width="6" stroke-miterlimit="22.93" stroke-linecap="round"/>
<path d="M1454.85 684.86C1454.85 684.86 1413.33 662.19 1372.29 672.77C1331.26 683.35 1314.54 706.9 1314.54 706.9" stroke="#E22B30" stroke-width="6" stroke-miterlimit="22.93" stroke-linecap="round"/>
<path d="M832.78 12.6499C832.78 12.6499 828.25 22.8599 828.81 33.6299C829.38 44.4099 872.15 420.3 872.15 420.3" stroke="#E0292E" stroke-width="8" stroke-miterlimit="22.93"/>
<path fill-rule="evenodd" clip-rule="evenodd" d="M767.93 135.46L806.16 80L814.03 83.37L822.27 71.38L817.4 64.26L833.89 40.28L808.78 20.79L794.54 24.54L760.81 67.26L732.71 103.98L767.93 135.46Z" fill="#F24D44"/>
<path fill-rule="evenodd" clip-rule="evenodd" d="M578.43 74.0801C598.89 74.0801 682.12 69.8701 715.09 46.7401C746.91 24.4201 761.77 20.8901 766.31 2.08008H380.02C379.49 9.06008 380.76 25.5701 400.75 41.0001C426.98 61.2301 448.71 69.8501 482.8 69.8501C516.89 69.8501 529.25 73.9701 541.99 73.9701C554.73 73.9701 578.43 74.0801 578.43 74.0801Z" fill="#FB7E68"/>
<mask id="mask0_193_327" style="mask-type:luminance" maskUnits="userSpaceOnUse" x="379" y="2" width="388" height="73">
<path d="M578.43 74.0801C598.89 74.0801 682.12 69.8701 715.09 46.7401C746.91 24.4201 761.77 20.8901 766.31 2.08008H380.02C379.49 9.06008 380.76 25.5701 400.75 41.0001C426.98 61.2301 448.71 69.8501 482.8 69.8501C516.89 69.8501 529.25 73.9701 541.99 73.9701C554.73 73.9701 578.43 74.0801 578.43 74.0801Z" fill="white"/>
</mask>
<g mask="url(#mask0_193_327)">
<path d="M383.79 -43.1099H377.26V119.28H383.79V-43.1099Z" fill="#F24D44"/>
<path d="M390.32 -43.1099H383.79V119.28H390.32V-43.1099Z" fill="#FB7E68"/>
<path d="M396.85 -43.1099H390.32V119.28H396.85V-43.1099Z" fill="#F24D44"/>
<path d="M403.38 -43.1099H396.85V119.28H403.38V-43.1099Z" fill="#FB7E68"/>
<path d="M409.91 -43.1099H403.38V119.28H409.91V-43.1099Z" fill="#F24D44"/>
<path d="M416.43 -43.1099H409.9V119.28H416.43V-43.1099Z" fill="#FB7E68"/>
<path d="M422.96 -43.1099H416.43V119.28H422.96V-43.1099Z" fill="#F24D44"/>
<path d="M429.49 -43.1099H422.96V119.28H429.49V-43.1099Z" fill="#FB7E68"/>
<path d="M436.02 -43.1099H429.49V119.28H436.02V-43.1099Z" fill="#F24D44"/>
<path d="M442.55 -43.1099H436.02V119.28H442.55V-43.1099Z" fill="#FB7E68"/>
<path d="M449.08 -43.1099H442.55V119.28H449.08V-43.1099Z" fill="#F24D44"/>
<path d="M455.61 -43.1099H449.08V119.28H455.61V-43.1099Z" fill="#FB7E68"/>
<path d="M462.14 -43.1099H455.61V119.28H462.14V-43.1099Z" fill="#F24D44"/>
<path d="M468.66 -43.1099H462.13V119.28H468.66V-43.1099Z" fill="#FB7E68"/>
<path d="M475.19 -43.1099H468.66V119.28H475.19V-43.1099Z" fill="#F24D44"/>
<path d="M481.72 -43.1099H475.19V119.28H481.72V-43.1099Z" fill="#FB7E68"/>
<path d="M488.25 -43.1099H481.72V119.28H488.25V-43.1099Z" fill="#F24D44"/>
<path d="M494.78 -43.1099H488.25V119.28H494.78V-43.1099Z" fill="#FB7E68"/>
<path d="M501.31 -43.1099H494.78V119.28H501.31V-43.1099Z" fill="#F24D44"/>
<path d="M507.84 -43.1099H501.31V119.28H507.84V-43.1099Z" fill="#FB7E68"/>
<path d="M514.36 -43.1099H507.83V119.28H514.36V-43.1099Z" fill="#F24D44"/>
<path d="M520.89 -43.1099H514.36V119.28H520.89V-43.1099Z" fill="#FB7E68"/>
<path d="M527.42 -43.1099H520.89V119.28H527.42V-43.1099Z" fill="#F24D44"/>
<path d="M533.95 -43.1099H527.42V119.28H533.95V-43.1099Z" fill="#FB7E68"/>
<path d="M540.48 -43.1099H533.95V119.28H540.48V-43.1099Z" fill="#F24D44"/>
<path d="M547.01 -43.1099H540.48V119.28H547.01V-43.1099Z" fill="#FB7E68"/>
<path d="M553.54 -43.1099H547.01V119.28H553.54V-43.1099Z" fill="#F24D44"/>
<path d="M560.06 -43.1099H553.53V119.28H560.06V-43.1099Z" fill="#FB7E68"/>
<path d="M566.59 -43.1099H560.06V119.28H566.59V-43.1099Z" fill="#F24D44"/>
<path d="M573.12 -43.1099H566.59V119.28H573.12V-43.1099Z" fill="#FB7E68"/>
<path d="M579.65 -43.1099H573.12V119.28H579.65V-43.1099Z" fill="#F24D44"/>
<path d="M586.18 -43.1099H579.65V119.28H586.18V-43.1099Z" fill="#FB7E68"/>
<path d="M592.71 -43.1099H586.18V119.28H592.71V-43.1099Z" fill="#F24D44"/>
<path d="M599.24 -43.1099H592.71V119.28H599.24V-43.1099Z" fill="#FB7E68"/>
<path d="M605.77 -43.1099H599.24V119.28H605.77V-43.1099Z" fill="#F24D44"/>
<path d="M612.29 -43.1099H605.76V119.28H612.29V-43.1099Z" fill="#FB7E68"/>
<path d="M618.82 -43.1099H612.29V119.28H618.82V-43.1099Z" fill="#F24D44"/>
<path d="M625.35 -43.1099H618.82V119.28H625.35V-43.1099Z" fill="#FB7E68"/>
<path d="M631.88 -43.1099H625.35V119.28H631.88V-43.1099Z" fill="#F24D44"/>
<path d="M638.41 -43.1099H631.88V119.28H638.41V-43.1099Z" fill="#FB7E68"/>
<path d="M644.94 -43.1099H638.41V119.28H644.94V-43.1099Z" fill="#F24D44"/>
<path d="M651.47 -43.1099H644.94V119.28H651.47V-43.1099Z" fill="#FB7E68"/>
<path d="M657.99 -43.1099H651.46V119.28H657.99V-43.1099Z" fill="#F24D44"/>
<path d="M664.52 -43.1099H657.99V119.28H664.52V-43.1099Z" fill="#FB7E68"/>
<path d="M671.05 -43.1099H664.52V119.28H671.05V-43.1099Z" fill="#F24D44"/>
<path d="M677.58 -43.1099H671.05V119.28H677.58V-43.1099Z" fill="#FB7E68"/>
<path d="M684.11 -43.1099H677.58V119.28H684.11V-43.1099Z" fill="#F24D44"/>
<path d="M690.64 -43.1099H684.11V119.28H690.64V-43.1099Z" fill="#FB7E68"/>
<path d="M697.17 -43.1099H690.64V119.28H697.17V-43.1099Z" fill="#F24D44"/>
<path d="M703.7 -43.1099H697.17V119.28H703.7V-43.1099Z" fill="#FB7E68"/>
<path d="M710.22 -43.1099H703.69V119.28H710.22V-43.1099Z" fill="#F24D44"/>
<path d="M716.75 -43.1099H710.22V119.28H716.75V-43.1099Z" fill="#FB7E68"/>
<path d="M723.28 -43.1099H716.75V119.28H723.28V-43.1099Z" fill="#F24D44"/>
<path d="M729.81 -43.1099H723.28V119.28H729.81V-43.1099Z" fill="#FB7E68"/>
<path d="M736.34 -43.1099H729.81V119.28H736.34V-43.1099Z" fill="#F24D44"/>
<path d="M742.87 -43.1099H736.34V119.28H742.87V-43.1099Z" fill="#FB7E68"/>
<path d="M749.4 -43.1099H742.87V119.28H749.4V-43.1099Z" fill="#F24D44"/>
<path d="M755.92 -43.1099H749.39V119.28H755.92V-43.1099Z" fill="#FB7E68"/>
<path d="M762.45 -43.1099H755.92V119.28H762.45V-43.1099Z" fill="#F24D44"/>
<path d="M768.98 -43.1099H762.45V119.28H768.98V-43.1099Z" fill="#FB7E68"/>
</g>
<path fill-rule="evenodd" clip-rule="evenodd" d="M806.16 80.0001L767.93 135.46L732.71 103.98L760.81 67.2601L794.54 24.5401L808.78 20.7901L833.89 40.2801L817.4 64.2601L822.27 71.3801L814.03 83.3701L806.16 80.0001ZM1309.7 372.96L1400.27 420.65L1472.02 287.65L1420.74 261.78L1175.27 291.23L1167.51 302.09L1192.01 326.59L1179.32 340.15L1195.95 357.65L1289.14 409.72L1309.7 372.96ZM1190.39 280.01L1423.67 252.91L1473.53 277.18L1479.66 263.62L1431.53 243.49L1367.06 241.04L1219.51 265.19L1184.77 279.08L1190.39 280.01ZM1217.28 255.71L1365.93 232.01L1430.67 234.19L1485.79 256.94L1585.8 74.3001L1598.03 42.5401L1627.46 2.08008H766.31C761.77 20.8901 746.91 24.4201 715.09 46.7401C682.12 69.8701 598.89 74.0801 578.43 74.0801C557.97 74.0801 538.99 87.8501 536.76 93.8001C534.53 99.7501 554.57 151.17 571.17 172.23C587.76 193.29 595.63 191.16 602.44 191.59C609.24 192.01 653.49 178.82 663.7 178.82C673.91 178.82 676.47 195.81 675.83 199.85C675.19 203.89 667.11 206.87 663.07 210.27C659.03 213.68 654.56 231.33 656.05 233.67C657.54 236.01 670.73 240.48 673.49 241.54C676.26 242.6 687.14 272.43 695.23 276.31C703.32 280.19 707.84 274.05 725.96 271.46C744.07 268.88 758.95 279.87 769.31 281.49C779.66 283.11 778.36 276.31 783.54 272.11C788.71 267.9 795.51 265.96 803.27 267.9C811.03 269.84 817.5 275.99 824.29 274.37C831.09 272.76 839.17 258.2 839.17 258.2C839.17 258.2 845.21 256.43 853.33 253.96C869.53 249.05 894.06 241.38 895.78 239.44C898.37 236.53 918.75 216.15 929.1 210.97C939.19 205.93 949.85 207.18 955.36 214.44L959.91 212.08L985.38 186.99L1064.2 249.62L1073.36 246.51L1071.11 219.49L1118.13 214.49L1127.14 259.26L1160.65 260.26L1166.65 279.77L1182.41 269.77L1217.28 255.71ZM600.99 495.18C600.99 495.18 605.73 462.55 600.27 458.81C594.81 455.08 577.28 455.65 574.69 448.75C572.1 441.85 568.81 400.59 568.81 400.59L556.16 387.04C556.16 387.04 547.8 376.71 544.35 372.77C540.91 368.84 535.01 372.28 530.09 376.22C525.17 380.15 516.81 408.19 513.36 415.07C509.92 421.96 502.54 431.31 496.15 438.19C489.75 445.08 484.34 444.59 476.96 444.59C469.58 444.59 459.75 452.46 451.88 458.85C444.01 465.25 435.15 466.23 426.3 466.23C417.45 466.23 413.51 470.66 413.51 470.66L406.62 462.3L391.87 465.74C391.87 465.74 339.45 463.26 326.34 463.26C313.23 463.26 295.3 486.87 295.3 486.87C295.3 486.87 286.13 544.13 288.31 555.93C290.5 567.73 320.66 578.22 320.66 578.22L343.39 620.01C355.9 629.66 366.68 640.16 370 649.81L378.5 647.23L365.46 579.86L374.8 578.13L371.54 550.53C371.54 550.53 378.71 549 378.28 544.01C377.84 539.01 381.1 525.97 383.06 524.66C385.02 523.36 413.6 477.94 413.6 477.94L425.27 487.92C425.56 487.68 425.72 487.56 425.72 487.56L430.33 492.25L471.66 471.33L476.26 483.11L492.35 484.26L495.22 489.73L516.78 490.87C516.78 490.87 523.68 504.96 523.1 510.13C522.53 515.3 515.63 526.51 509.02 530.82C502.41 535.14 502.7 539.73 497.52 546.92C492.35 554.11 496.09 561.29 492.64 562.73C489.19 564.17 488.04 585.43 489.48 588.02C490.91 590.61 496.09 586.87 496.09 591.18C496.09 595.49 483.44 604.12 483.44 604.12C483.44 604.12 504.71 624.23 510.17 622.8C515.63 621.36 521.09 609.29 518.79 599.23C516.49 589.17 541.5 604.98 542.07 610.44C542.65 615.9 529.43 617.91 533.45 623.37C537.48 628.83 547.25 655.56 557.02 654.7C566.79 653.84 575.42 652.98 573.11 644.64C570.82 636.31 567.37 616.47 567.37 616.47C567.37 616.47 579.44 618.2 580.87 624.23C582.31 630.27 588.06 623.66 588.06 623.66C588.06 623.66 588.63 604.98 594.67 600.09C600.71 595.21 595.24 587.73 607.89 586.87C620.54 586.01 630.02 586.87 632.03 582.27C634.05 577.67 641.52 543.47 642.67 538.58C643.82 533.7 612.2 535.71 612.2 535.71L609.9 512.43C609.9 512.43 625.14 502.66 619.39 497.48C613.64 492.31 600.99 495.18 600.99 495.18Z" fill="#FB7E68" stroke="#FB7E68" stroke-width="2" stroke-miterlimit="22.93"/>
<path fill-rule="evenodd" clip-rule="evenodd" d="M1012.61 476.73L1078.78 404.61L1137.26 458.26L1207.34 496.2L1169.61 572.43C1169.61 572.43 1128.47 559.8 1119.1 564.69C1109.74 569.58 1097.92 568.77 1097.92 573.65C1097.92 578.53 1078.78 573.24 1078.78 573.24L1071.85 586.69L1049.86 588.32L1047.41 578.13L1060.04 561.43C1060.04 561.43 1045.38 551.66 1042.53 551.66C1039.68 551.66 1043.75 520.29 1036.82 517.03C1029.9 513.78 1017.18 508.89 1017.18 508.89L1012.61 476.73Z" fill="#FB7E68"/>
<path fill-rule="evenodd" clip-rule="evenodd" d="M913.98 692.89C914.48 692.02 922.7 684.54 922.7 684.54L936.88 697.49L927.55 707.91L913.98 692.89Z" fill="#FB7E68"/>
<path fill-rule="evenodd" clip-rule="evenodd" d="M1085.23 719.2L1093.52 703.29L1117.93 715.27L1107.68 734.02L1085.23 719.2Z" fill="#FB7E68"/>
<path fill-rule="evenodd" clip-rule="evenodd" d="M1217.99 795.43L1230.41 770.52L1251.18 765.25L1250.19 758.16L1240.8 752.23L1252.99 730.8L1271.45 736.9L1235.43 805.13L1217.99 795.43Z" fill="#FB7E68"/>
<path fill-rule="evenodd" clip-rule="evenodd" d="M657.99 825.99L617.06 829.61L617.81 834.6L627.17 833.85L629.04 849.33L613.57 851.07L614.2 858.06L652.88 854.32C652.88 854.32 652 840.59 657.99 825.99Z" fill="#FB7E68"/>
<path fill-rule="evenodd" clip-rule="evenodd" d="M504.09 853.63L553.29 848.88L556.59 865.43L505.43 869.99L504.09 853.63Z" fill="#FB7E68"/>
<path fill-rule="evenodd" clip-rule="evenodd" d="M568.32 717.381L592.27 714.601L593.6 729.201L570.36 732.191L568.32 717.381Z" fill="#FB7E68"/>
<path fill-rule="evenodd" clip-rule="evenodd" d="M661.01 694.7L668.29 693.95L670.55 710.76L663.27 711.77L661.01 694.7Z" fill="#FB7E68"/>
<path fill-rule="evenodd" clip-rule="evenodd" d="M965.93 985.061L979.21 972.351L1006.93 999.491L999.52 1006.32L1004.46 1011.64L992.69 1016.19L981.91 1009.37L968.96 1012.02L977.5 1002.15L968.58 993.231L965.93 985.061Z" fill="#FB7E68"/>
<path fill-rule="evenodd" clip-rule="evenodd" d="M1044.42 380.76L1061.26 390.6L1128.41 320.38L1071.68 270.2L988.02 364.96C988.92 369.72 988.66 373.64 986.26 376.39C983.85 379.13 978.82 387.54 982.76 389.94C986.69 392.35 1004.84 394.75 1008.12 399.13C1011.4 403.5 1015.12 408.53 1020.59 406.12C1026.05 403.72 1044.42 380.76 1044.42 380.76Z" fill="#FB7E68"/>
<path fill-rule="evenodd" clip-rule="evenodd" d="M897.65 583.73L916.93 582.28L934.43 562.5L932.49 546.78L980.14 543.22L983.05 562.83L1001.21 575.79L991.16 586.98L1011.42 604.8L974.63 648.56L961.99 639.16L955.34 646.13L948.7 640.46L955.67 633.16L935.89 616.96L933.14 589.73L897.16 593.46L896.36 583.82L897.65 583.73Z" fill="#FB7E68"/>
</g>
<defs>
<clipPath id="clip0_193_327">
<rect width="1921.76" height="1088.92" fill="white"/>
</clipPath>
</defs>
</svg>
