<svg width="26" height="25" viewBox="0 0 26 25" fill="none" xmlns="http://www.w3.org/2000/svg">
<path d="M12.6104 25.0098C19.5139 25.0098 25.1104 19.4133 25.1104 12.5098C25.1104 5.60621 19.5139 0.00976562 12.6104 0.00976562C5.70679 0.00976562 0.110352 5.60621 0.110352 12.5098C0.110352 19.4133 5.70679 25.0098 12.6104 25.0098Z" fill="#FEFEFE"/>
<path d="M12.6104 23.2397C9.60035 23.2397 6.88036 21.9897 4.93036 19.9897H20.2903C18.3403 21.9897 15.6204 23.2397 12.6104 23.2397ZM14.3104 15.0197L14.8503 16.6998H10.3104L10.8503 15.0197H14.3104ZM10.6304 10.1097L11.9803 9.90973L12.5804 8.68976L13.1904 9.90973L14.5403 10.1097L13.5604 11.0598L13.7903 12.4097L12.5804 11.7697L11.3804 12.4097L11.6104 11.0598L10.6304 10.1097ZM9.38037 17.5297H15.8503L16.7804 19.2097H8.44037L9.38037 17.5297ZM12.6104 1.78973C18.5304 1.78973 23.3404 6.59977 23.3404 12.5098C23.3404 15.0398 22.4503 17.3697 20.9803 19.2097H17.6703L16.3104 16.7498H15.6804L14.8804 14.2397H12.9703V12.8497L14.8204 13.8297L14.3904 11.3297L16.2104 9.56976L13.7004 9.19977L12.5804 6.93976L11.4604 9.19977L8.96039 9.56976L10.7704 11.3297L10.3404 13.8297L12.1904 12.8497V14.2397H10.2903L9.48035 16.7498H8.92035L7.56036 19.2097H4.25037C2.77037 17.3797 1.89038 15.0498 1.89038 12.5098C1.89038 6.59977 6.70035 1.78973 12.6104 1.78973ZM12.6104 1.00977C6.27035 1.00977 1.11035 6.16977 1.11035 12.5098C1.11035 18.8498 6.27035 24.0098 12.6104 24.0098C18.9504 24.0098 24.1104 18.8498 24.1104 12.5098C24.1104 6.16977 18.9504 1.00977 12.6104 1.00977Z" fill="#393185"/>
</svg>
