<svg width="113" height="36" viewBox="0 0 113 36" fill="none" xmlns="http://www.w3.org/2000/svg">
<path fill-rule="evenodd" clip-rule="evenodd" d="M52.0401 0.25H60.1501C88.8501 0.25 112.12 5.80998 112.12 12.67V22.76C112.12 29.62 88.8501 35.18 60.1501 35.18H52.0401C23.3401 35.18 0.0700684 29.62 0.0700684 22.76V12.67C0.0700684 5.80998 23.3401 0.25 52.0401 0.25Z" fill="#FEFEFE"/>
<path d="M47.4901 13.6697C47.1801 13.6497 46.7801 13.6897 46.3501 13.7597C43.9501 14.1397 42.7101 15.8597 42.4501 17.7297H42.4801C43.0101 17.0097 43.9601 16.4197 45.2001 16.4197C47.1801 16.4197 48.5801 17.8697 48.5801 20.0397C48.5801 22.2097 47.1801 24.0097 44.8401 24.0097C42.5001 24.0097 40.8901 22.1497 40.8901 19.2297C40.8901 17.0197 41.6701 15.2797 42.7901 14.1797C43.7201 13.2697 44.9601 12.6997 46.3801 12.5197C46.8301 12.4497 47.2101 12.4297 47.4801 12.4297V13.6697H47.4901ZM47.0601 20.1397C47.0601 18.5397 46.1501 17.5697 44.7501 17.5697C43.8401 17.5697 42.9701 18.1197 42.5601 18.9497C42.4701 19.1197 42.4001 19.3297 42.4001 19.6097C42.4201 21.4497 43.2801 22.8297 44.8801 22.8297C46.1701 22.8297 47.0501 21.7397 47.0501 20.1397H47.0601Z" fill="#2B2A29"/>
<path d="M55.5801 15.4604V19.0804H55.9401L59.0601 15.4604H60.9101L57.2901 19.2204C58.6301 19.3804 59.4501 20.2704 60.1001 21.7704C60.3201 22.3204 60.6001 23.1304 60.9801 23.8004H59.3901C59.1701 23.4404 58.8901 22.7805 58.6101 22.0905C58.0401 20.7505 57.2701 20.1204 55.8701 20.1204H55.5801V23.7904H54.0801V15.4404H55.5801V15.4604Z" fill="#2B2A29"/>
<path d="M62.4401 15.46H64.3L65.8 19.6699C66.02 20.2899 66.3701 21.31 66.5601 21.96H66.5901C66.7801 21.32 67.2501 20.0099 67.5901 19.0999L68.9201 15.46H70.8L71.3901 23.8099H69.9401L69.7501 19.83C69.7201 18.92 69.65 17.8699 69.61 16.8499H69.5601C69.3401 17.6099 69.0901 18.2599 68.6301 19.5599L67.0301 23.77H65.9401L64.4601 19.6299C64.1801 18.8499 63.8201 17.6499 63.6201 16.8699H63.55C63.52 17.8499 63.4801 18.9599 63.4301 19.8699L63.2101 23.8199H61.8101L62.4501 15.4699L62.4401 15.46Z" fill="#2B2A29"/>
<path d="M7.78003 17.71H33.46" stroke="#393185" stroke-miterlimit="22.93"/>
<path d="M10.77 21.2899L7.78003 17.7099L10.77 14.1299" stroke="#393185" stroke-miterlimit="22.93"/>
<path d="M92.2711 29.8401C98.9701 29.8401 104.401 24.4091 104.401 17.7101C104.401 11.0111 98.9701 5.58008 92.2711 5.58008C85.5711 5.58008 80.1411 11.0111 80.1411 17.7101C80.1411 24.4091 85.5711 29.8401 92.2711 29.8401Z" fill="#FEFEFE"/>
<path d="M89.3511 27.6998V25.7098L86.9411 22.3898V20.6098C86.8811 19.6798 87.8011 19.1198 88.6011 18.6098C89.2611 18.1998 89.9511 17.7798 89.9111 17.2998V16.9898L88.9611 15.8298V13.6198C88.9611 11.7898 90.4511 10.3098 92.2711 10.3098C94.0911 10.3098 95.5911 11.7898 95.5911 13.6198V18.0798H95.1511C95.3811 18.2598 95.6611 18.4398 95.9511 18.6098C96.7511 19.1198 97.6711 19.6798 97.6111 20.6098V22.3898L95.2011 25.7098H95.1911V27.6998C99.5111 26.4298 102.681 22.4398 102.681 17.7098C102.681 11.9698 98.0111 7.30981 92.2711 7.30981C86.5311 7.30981 81.8711 11.9698 81.8711 17.7098C81.8711 22.4298 85.0311 26.4298 89.3511 27.6998ZM90.1011 27.8898C90.8011 28.0398 91.5311 28.1198 92.2711 28.1198C93.0111 28.1198 93.7411 28.0398 94.4411 27.8898V25.7098H90.1011V27.8898ZM89.0011 19.2498C88.3411 19.6598 87.6611 20.0898 87.6911 20.5698V22.1398L89.7311 24.9598H90.2611C90.4711 23.9198 91.4811 22.8598 92.5511 21.7298C93.5911 20.6398 94.6611 19.5098 94.6711 18.6598C94.3711 18.4198 94.1211 18.1598 93.9911 17.8498L93.7611 17.3198H94.8311V13.6198C94.8311 12.2098 93.6911 11.0598 92.2711 11.0598C90.8511 11.0598 89.7211 12.2098 89.7211 13.6198V15.5598L90.6611 16.7198V17.2598C90.7211 18.1798 89.8111 18.7498 89.0011 19.2498ZM96.8611 20.5698C96.8911 20.0898 96.2111 19.6598 95.5511 19.2498C95.4911 19.2098 95.4211 19.1698 95.3611 19.1398C95.1111 20.1398 94.1311 21.1698 93.1011 22.2498C92.2011 23.1898 91.2811 24.1598 91.0411 24.9598H94.8211L96.8611 22.1398V20.5698ZM92.2711 6.5498C98.4311 6.5498 103.431 11.5598 103.431 17.7098C103.431 22.8498 99.9311 27.1998 95.1911 28.4798C94.9411 28.5498 94.6911 28.6098 94.4411 28.6598C93.7411 28.7998 93.0111 28.8698 92.2711 28.8698C91.5311 28.8698 90.8011 28.7998 90.1011 28.6598C89.8411 28.6098 89.5911 28.5498 89.3511 28.4798C84.6111 27.1898 81.1211 22.8498 81.1211 17.7098C81.1211 11.5598 86.1211 6.5498 92.2711 6.5498Z" fill="#393185"/>
</svg>
