<svg width="26" height="26" viewBox="0 0 26 26" fill="none" xmlns="http://www.w3.org/2000/svg">
<path d="M12.8896 25.7798C19.7932 25.7798 25.3896 20.1833 25.3896 13.2798C25.3896 6.37623 19.7932 0.779785 12.8896 0.779785C5.98609 0.779785 0.389648 6.37623 0.389648 13.2798C0.389648 20.1833 5.98609 25.7798 12.8896 25.7798Z" fill="#FEFEFE"/>
<path d="M18.2097 17.9198L18.6396 15.6898H16.5696L17.2797 11.6999C19.3597 12.0599 20.6596 12.5998 21.1696 12.8398L19.8997 17.9198H18.2097ZM15.0996 16.4698H17.6996L17.4096 17.9198H14.9796L15.0996 16.4698ZM11.5696 17.9198L11.4496 16.4698H14.3196L14.1996 17.9198H11.5696ZM8.23962 17.9198L7.94965 16.4698H10.6696L10.7896 17.9198H8.23962ZM4.59961 12.8298C5.09961 12.5898 6.38962 12.0498 8.48962 11.6898L9.19965 15.6898H7.00964L7.44965 17.9198H5.86963L4.59961 12.8298ZM15.1696 15.6898H9.98962L9.25964 11.5699C10.2996 11.4299 11.5096 11.3398 12.8896 11.3398C14.2696 11.3398 15.4696 11.4398 16.5096 11.5798L15.7797 15.6898H15.1696ZM8.95966 9.59982L9.35962 9.54983L9.23962 8.77981C11.2996 8.44981 14.5897 8.44981 16.5297 8.77981L16.4096 9.54983L16.8096 9.59982C18.0396 9.75982 19.9097 10.2598 21.6497 10.8898L21.3596 12.0699C20.3296 11.5999 17.5196 10.5598 12.8896 10.5598C8.25965 10.5598 5.41961 11.5898 4.40961 12.0598L4.11963 10.8898C5.85963 10.2598 7.72966 9.75982 8.95966 9.59982ZM22.5696 10.3998L22.2496 10.2798C20.5496 9.63981 18.6596 9.1098 17.2996 8.8898L17.4196 8.15982L17.0596 8.08981C14.9896 7.64981 10.9396 7.6498 8.7196 8.0798L8.34961 8.15982L8.4696 8.8898C7.1096 9.1098 5.22965 9.63981 3.51965 10.2798L3.19965 10.3998L5.06964 17.9198H4.59961V18.6999H21.1696V17.9198H20.6996L22.5696 10.3998Z" fill="#393185"/>
<path d="M12.8896 23.9998C6.96965 23.9998 2.15961 19.1898 2.15961 13.2798C2.15961 7.36979 6.96965 2.5498 12.8896 2.5498C18.8096 2.5498 23.6096 7.35979 23.6096 13.2798C23.6096 19.1998 18.7996 23.9998 12.8896 23.9998ZM12.8896 1.77979C6.53965 1.77979 1.37964 6.92979 1.37964 13.2798C1.37964 19.6298 6.53965 24.7798 12.8896 24.7798C19.2396 24.7798 24.3896 19.6198 24.3896 13.2798C24.3896 6.93979 19.2296 1.77979 12.8896 1.77979Z" fill="#393185"/>
</svg>
