<svg width="26" height="26" viewBox="0 0 26 26" fill="none" xmlns="http://www.w3.org/2000/svg">
<path d="M12.6504 25.8101C19.5539 25.8101 25.1504 20.2136 25.1504 13.3101C25.1504 6.4065 19.5539 0.810059 12.6504 0.810059C5.74683 0.810059 0.150391 6.4065 0.150391 13.3101C0.150391 20.2136 5.74683 25.8101 12.6504 25.8101Z" fill="#FEFEFE"/>
<path d="M15.7804 23.5701V20.52C16.1904 20.69 16.6304 20.78 17.0704 20.78C18.9304 20.78 20.4404 19.27 20.4404 17.41C20.4404 16.21 19.7803 15.0801 18.7303 14.4901C18.5503 12.7901 17.1304 11.4901 15.3904 11.4901C14.9104 11.4901 14.4504 11.59 14.0304 11.77V10.0701C14.0304 7.55007 11.9704 5.49005 9.44037 5.49005C6.91037 5.49005 4.86035 7.55007 4.86035 10.0701V14.5601C4.86035 16.9801 6.74035 18.9601 9.11035 19.1301V23.4301C4.93035 21.9701 1.93036 17.9801 1.93036 13.3101C1.93036 7.40006 6.74039 2.59003 12.6504 2.59003C18.5604 2.59003 23.3704 7.40006 23.3704 13.3101C23.3704 18.1401 20.1704 22.2301 15.7804 23.5701ZM9.89038 23.67V19.1201C10.1704 19.0901 10.4503 19.04 10.7203 18.96C11.2803 20.04 12.4104 20.78 13.7104 20.78C14.1604 20.78 14.5904 20.69 15.0004 20.52V23.77C14.2404 23.94 13.4604 24.03 12.6504 24.03C11.7004 24.03 10.7704 23.91 9.89038 23.67ZM13.2504 14.5601C13.2504 15.6101 12.8204 16.5601 12.1304 17.2501C11.8504 17.5301 11.5303 17.7701 11.1703 17.9501C10.9403 18.0701 10.7004 18.16 10.4404 18.23C10.2604 18.28 10.0804 18.32 9.89038 18.34V14.85C9.89038 14.6 10.3403 14.12 10.6703 13.78C11.1803 13.24 11.6703 12.73 11.6703 12.17H10.8904C10.8904 12.42 10.4404 12.8901 10.1104 13.2401C10.0304 13.3201 9.96038 13.4 9.89038 13.47V10.91H9.11035V15.7501C9.04035 15.6701 8.97038 15.5901 8.89038 15.5101C8.56038 15.1701 8.11035 14.6901 8.11035 14.4401H7.33038C7.33038 15.0001 7.82038 15.51 8.33038 16.05C8.66038 16.4 9.11035 16.8701 9.11035 17.1201V18.35C7.17035 18.18 5.64038 16.5501 5.64038 14.5601V10.0701C5.64038 7.97007 7.35037 6.27002 9.44037 6.27002C11.5304 6.27002 13.2504 7.97007 13.2504 10.0701V14.5601ZM15.7804 18.4501C15.9004 18.3101 16.0303 18.17 16.1703 18.02C16.6903 17.48 17.1703 16.98 17.1703 16.42H16.3904C16.3904 16.63 16.0804 16.9901 15.7804 17.3101V15.11H15.0004V19.65C14.6104 19.88 14.1704 20.0001 13.7104 20.0001C12.7404 20.0001 11.8904 19.4701 11.4504 18.6801C12.9804 17.9301 14.0304 16.3701 14.0304 14.5601V12.65C14.4204 12.4 14.8904 12.2601 15.3904 12.2601C16.7804 12.2601 17.9203 13.3501 17.9703 14.7501V14.98L18.1904 15.08C19.0904 15.51 19.6603 16.43 19.6603 17.41C19.6603 18.84 18.5004 20.0001 17.0704 20.0001C16.6204 20.0001 16.1704 19.88 15.7804 19.65V18.4501ZM12.6504 1.81006C6.31039 1.81006 1.15039 6.97006 1.15039 13.3101C1.15039 19.6501 6.31039 24.8101 12.6504 24.8101C18.9904 24.8101 24.1504 19.6501 24.1504 13.3101C24.1504 6.97006 18.9904 1.81006 12.6504 1.81006Z" fill="#393185"/>
</svg>
