<svg width="26" height="26" viewBox="0 0 26 26" fill="none" xmlns="http://www.w3.org/2000/svg">
<path d="M13.2002 25.3999C20.1038 25.3999 25.7002 19.8035 25.7002 12.8999C25.7002 5.99634 20.1038 0.399902 13.2002 0.399902C6.29664 0.399902 0.700195 5.99634 0.700195 12.8999C0.700195 19.8035 6.29664 25.3999 13.2002 25.3999Z" fill="#FEFEFE"/>
<path d="M2.5202 12.8999C2.5202 6.9999 7.3102 2.19994 13.2002 2.18994C19.1002 2.19994 23.8902 6.9999 23.8902 12.8999C23.8902 18.7999 19.1002 23.5899 13.2002 23.5999C7.3102 23.5899 2.5202 18.7899 2.5202 12.8999ZM13.2202 1.40991H13.1902C6.86019 1.40991 1.7002 6.5599 1.7002 12.8999C1.7002 19.2399 6.86019 24.3799 13.1902 24.3799H13.2202C19.5502 24.3799 24.7002 19.2299 24.7002 12.8999C24.7002 6.5699 19.5502 1.40991 13.2202 1.40991Z" fill="#393185"/>
<path d="M12.8302 11.6099H13.6102V10.4099H12.8302V11.6099Z" fill="#393185"/>
<path d="M12.8302 14.7699H13.6102V13.5599H12.8302V14.7699Z" fill="#393185"/>
<path d="M17.9102 18.7699V9.30994H19.3402V18.7699H17.9102ZM15.5302 10.7599H17.1402V18.7699H15.5302V10.7599ZM14.1602 18.7699V17.1199H12.2902V18.7699H11.6902V9.30994H14.7602V18.7699H14.1602ZM13.0602 17.8999H13.3802V18.7699H13.0602V17.8999ZM9.01019 10.7599H10.9102V18.7699H9.01019V10.7599ZM6.81018 18.7699V9.30994H8.24017V18.7699H6.81018ZM13.6102 6.31995H14.4802V6.62994H13.6102V6.31995ZM20.1102 8.52991H17.1402V9.98993H15.5302V8.52991H13.6102V7.40991H15.2602V5.53992H12.8302V8.52991H10.9102V9.98993H9.01019V8.52991H6.04016V18.7699H5.59021V19.5499H20.5602V18.7699H20.1102V8.52991Z" fill="#393185"/>
</svg>
