<svg width="26" height="26" viewBox="0 0 26 26" fill="none" xmlns="http://www.w3.org/2000/svg">
<path d="M12.8799 25.8101C19.7834 25.8101 25.3799 20.2136 25.3799 13.3101C25.3799 6.4065 19.7834 0.810059 12.8799 0.810059C5.97632 0.810059 0.379883 6.4065 0.379883 13.3101C0.379883 20.2136 5.97632 25.8101 12.8799 25.8101Z" fill="#FEFEFE"/>
<path d="M12.8799 24.03C6.96988 24.03 2.15985 19.2201 2.15985 13.3101C2.15985 7.40006 6.96988 2.59003 12.8799 2.59003C18.7899 2.59003 23.5999 7.40006 23.5999 13.3101C23.5999 19.2201 18.7899 24.03 12.8799 24.03ZM12.8799 1.81006C6.53988 1.81006 1.37988 6.97006 1.37988 13.3101C1.37988 19.6501 6.53988 24.8101 12.8799 24.8101C19.2199 24.8101 24.3799 19.6501 24.3799 13.3101C24.3799 6.97006 19.2199 1.81006 12.8799 1.81006Z" fill="#393185"/>
<path d="M19.9799 19.23H5.7699V18.9401H19.9799V19.23ZM6.40985 17.8701H19.3499V18.16H6.40985V17.8701ZM7.24988 11.09H9.49988V17.09H7.24988V11.09ZM6.15985 10.02H19.5999V10.3101H6.15985V10.02ZM12.7599 5.52002L19.3599 9.24005H6.38989L12.7599 5.52002ZM13.1499 11.09H15.4799V17.09H13.1499V11.09ZM12.3699 17.09H10.2699V11.09H12.3699V17.09ZM18.5099 17.09H16.2599V11.09H18.5099V17.09ZM20.1299 18.16V17.09H19.2899V11.09H20.3799V8.93005L12.7599 4.63007L5.37988 8.93005V11.09H6.46985V17.09H5.62988V18.16H4.99988V20.0001H20.7599V18.16H20.1299Z" fill="#393185"/>
<path d="M12.7599 8.05005C12.4899 8.05005 12.2699 7.83005 12.2699 7.55005C12.2699 7.27005 12.4899 7.06006 12.7599 7.06006C13.0299 7.06006 13.2499 7.28005 13.2499 7.55005C13.2499 7.82005 13.0299 8.05005 12.7599 8.05005ZM12.7599 6.29004C12.0599 6.29004 11.4899 6.86005 11.4899 7.55005C11.4899 8.24005 12.0599 8.82007 12.7599 8.82007C13.4599 8.82007 14.0299 8.25005 14.0299 7.55005C14.0299 6.85005 13.4599 6.29004 12.7599 6.29004Z" fill="#393185"/>
</svg>
