<svg width="26" height="26" viewBox="0 0 26 26" fill="none" xmlns="http://www.w3.org/2000/svg">
<path d="M13.3398 25.5298C20.2434 25.5298 25.8398 19.9333 25.8398 13.0298C25.8398 6.12623 20.2434 0.529785 13.3398 0.529785C6.43628 0.529785 0.839844 6.12623 0.839844 13.0298C0.839844 19.9333 6.43628 25.5298 13.3398 25.5298Z" fill="#FEFEFE"/>
<path d="M16.3598 23.3198V21.2798L18.8398 17.8498V16.0198C18.8998 15.0598 17.9598 14.4798 17.1298 13.9598C16.4498 13.5398 15.7398 13.0998 15.7798 12.6098V12.2898L16.7598 11.0898V8.80981C16.7598 6.92981 15.2198 5.39978 13.3398 5.39978C11.4598 5.39978 9.92981 6.92981 9.92981 8.80981V13.4098H10.3798C10.1398 13.5998 9.84981 13.7798 9.55981 13.9598C8.72981 14.4798 7.77984 15.0598 7.83984 16.0198V17.8498L10.3198 21.2798H10.3298V23.3198C5.87983 22.0198 2.61981 17.8998 2.61981 13.0298C2.61981 7.11979 7.42984 2.30981 13.3398 2.30981C19.2498 2.30981 24.0698 7.11979 24.0698 13.0298C24.0698 17.8998 20.8098 22.0198 16.3598 23.3198ZM15.5798 23.5198C14.8598 23.6698 14.1098 23.7598 13.3398 23.7598C12.5698 23.7598 11.8298 23.6798 11.1098 23.5198V21.2798H15.5798V23.5198ZM16.7198 14.6198C17.3998 15.0398 18.0998 15.4798 18.0698 15.9798H18.0598L18.0698 17.5998L15.9598 20.4998H15.4198C15.1998 19.4298 14.1598 18.3298 13.0598 17.1798C11.9898 16.0498 10.8798 14.8898 10.8698 14.0098C11.1798 13.7598 11.4398 13.4998 11.5798 13.1698L11.8098 12.6298H10.7098V8.80981C10.7098 7.35981 11.8898 6.17981 13.3398 6.17981C14.7898 6.17981 15.9798 7.35981 15.9798 8.80981V10.8198L14.9998 12.0098V12.5698C14.9398 13.5198 15.8798 14.0998 16.7198 14.6198ZM8.61981 15.9798C8.57981 15.4798 9.28979 15.0398 9.96979 14.6198C10.0298 14.5798 10.0998 14.5398 10.1598 14.4998C10.4198 15.5298 11.4298 16.5998 12.4998 17.7098C13.4198 18.6798 14.3698 19.6798 14.6198 20.4998H10.7198L8.61981 17.5998V15.9798ZM13.3398 1.52979C6.99984 1.52979 1.83984 6.68979 1.83984 13.0298C1.83984 18.3298 5.44983 22.8098 10.3298 24.1298C10.5898 24.1998 10.8498 24.2598 11.1098 24.3198C11.8298 24.4598 12.5798 24.5298 13.3398 24.5298C14.0998 24.5298 14.8598 24.4598 15.5798 24.3098C15.8498 24.2598 16.1098 24.1998 16.3598 24.1298C21.2398 22.7998 24.8398 18.3298 24.8398 13.0298C24.8398 6.68979 19.6798 1.52979 13.3398 1.52979Z" fill="#393185"/>
<path d="M13.3398 25.5298C20.2434 25.5298 25.8398 19.9333 25.8398 13.0298C25.8398 6.12623 20.2434 0.529785 13.3398 0.529785C6.43628 0.529785 0.839844 6.12623 0.839844 13.0298C0.839844 19.9333 6.43628 25.5298 13.3398 25.5298Z" fill="#FEFEFE"/>
<path d="M16.3598 23.3198V21.2798L18.8398 17.8498V16.0198C18.8998 15.0598 17.9598 14.4798 17.1298 13.9598C16.4498 13.5398 15.7398 13.0998 15.7798 12.6098V12.2898L16.7598 11.0898V8.80981C16.7598 6.92981 15.2198 5.39978 13.3398 5.39978C11.4598 5.39978 9.92981 6.92981 9.92981 8.80981V13.4098H10.3798C10.1398 13.5998 9.84981 13.7798 9.55981 13.9598C8.72981 14.4798 7.77984 15.0598 7.83984 16.0198V17.8498L10.3198 21.2798H10.3298V23.3198C5.87983 22.0198 2.61981 17.8998 2.61981 13.0298C2.61981 7.11979 7.42984 2.30981 13.3398 2.30981C19.2498 2.30981 24.0698 7.11979 24.0698 13.0298C24.0698 17.8998 20.8098 22.0198 16.3598 23.3198ZM15.5798 23.5198C14.8598 23.6698 14.1098 23.7598 13.3398 23.7598C12.5698 23.7598 11.8298 23.6798 11.1098 23.5198V21.2798H15.5798V23.5198ZM16.7198 14.6198C17.3998 15.0398 18.0998 15.4798 18.0698 15.9798H18.0598L18.0698 17.5998L15.9598 20.4998H15.4198C15.1998 19.4298 14.1598 18.3298 13.0598 17.1798C11.9898 16.0498 10.8798 14.8898 10.8698 14.0098C11.1798 13.7598 11.4398 13.4998 11.5798 13.1698L11.8098 12.6298H10.7098V8.80981C10.7098 7.35981 11.8898 6.17981 13.3398 6.17981C14.7898 6.17981 15.9798 7.35981 15.9798 8.80981V10.8198L14.9998 12.0098V12.5698C14.9398 13.5198 15.8798 14.0998 16.7198 14.6198ZM8.61981 15.9798C8.57981 15.4798 9.28979 15.0398 9.96979 14.6198C10.0298 14.5798 10.0998 14.5398 10.1598 14.4998C10.4198 15.5298 11.4298 16.5998 12.4998 17.7098C13.4198 18.6798 14.3698 19.6798 14.6198 20.4998H10.7198L8.61981 17.5998V15.9798ZM13.3398 1.52979C6.99984 1.52979 1.83984 6.68979 1.83984 13.0298C1.83984 18.3298 5.44983 22.8098 10.3298 24.1298C10.5898 24.1998 10.8498 24.2598 11.1098 24.3198C11.8298 24.4598 12.5798 24.5298 13.3398 24.5298C14.0998 24.5298 14.8598 24.4598 15.5798 24.3098C15.8498 24.2598 16.1098 24.1998 16.3598 24.1298C21.2398 22.7998 24.8398 18.3298 24.8398 13.0298C24.8398 6.68979 19.6798 1.52979 13.3398 1.52979Z" fill="#393185"/>
</svg>
