<svg width="412" height="412" viewBox="0 0 412 412" fill="none" xmlns="http://www.w3.org/2000/svg">
<g opacity="0.2">
<path d="M206.001 0C211.608 4.78147 214.494 9.56294 216.606 14.3444C218.633 19.1259 219.499 23.9073 219.525 28.6888C219.531 33.4637 218.666 38.2452 216.652 43.0267C214.54 47.8081 211.641 52.5896 206.001 57.3711C200.353 52.5896 197.454 47.8081 195.349 43.0267C193.336 38.2452 192.47 33.4637 192.47 28.6888C192.503 23.9073 193.362 19.1259 195.388 14.3444C197.5 9.56294 200.386 4.78147 206.001 0Z" fill="#52C0DA"/>
<path d="M206.001 354.629C211.608 359.41 214.494 364.192 216.606 368.973C218.633 373.755 219.499 378.536 219.525 383.318C219.531 388.099 218.666 392.874 216.652 397.662C214.54 402.444 211.641 407.225 206.001 412C200.353 407.225 197.454 402.444 195.349 397.662C193.336 392.874 192.47 388.099 192.47 383.318C192.503 378.536 193.362 373.755 195.388 368.973C197.5 364.192 200.386 359.41 206.001 354.629Z" fill="#52C0DA"/>
<path d="M0 205.997C4.77484 200.389 9.56278 197.503 14.3442 195.391C19.1256 193.364 23.9004 192.505 28.6884 192.472C33.4632 192.472 38.2447 193.338 43.026 195.352C47.8074 197.457 52.5888 200.356 57.3702 205.997C52.5888 211.644 47.8074 214.543 43.026 216.655C38.2447 218.669 33.4633 219.534 28.6819 219.528C23.9005 219.502 19.1256 218.636 14.3442 216.609C9.56278 214.497 4.77484 211.611 0 205.997Z" fill="#52C0DA"/>
<path d="M354.623 205.997C359.404 200.389 364.186 197.503 368.967 195.391C373.749 193.364 378.53 192.505 383.312 192.472C388.086 192.472 392.874 193.338 397.656 195.352C402.437 197.457 407.219 200.356 412 205.997C407.219 211.644 402.437 214.543 397.656 216.655C392.874 218.669 388.086 219.534 383.312 219.528C378.53 219.502 373.749 218.636 368.967 216.609C364.186 214.497 359.404 211.611 354.623 205.997Z" fill="#52C0DA"/>
<path d="M60.335 60.3356C67.6809 59.7518 73.0985 61.0833 77.9783 62.9723C82.7925 64.9203 86.7868 67.6948 90.1843 71.053C93.5621 74.4308 96.3365 78.4252 98.2911 83.2329C100.18 88.0996 101.511 93.5305 100.901 100.903C93.5293 101.513 88.0986 100.181 83.2319 98.2922C78.4243 96.3376 74.43 93.5632 71.0522 90.1853C67.694 86.7878 64.9196 82.7869 62.9716 77.9792C61.0827 73.1059 59.7512 67.6816 60.335 60.3356Z" fill="#52C0DA"/>
<path d="M311.092 311.097C318.438 310.514 323.862 311.852 328.742 313.741C333.55 315.689 337.544 318.456 340.942 321.821C344.326 325.193 347.094 329.187 349.048 333.995C350.937 338.868 352.269 344.292 351.659 351.671C344.287 352.274 338.862 350.943 333.989 349.054C329.182 347.099 325.187 344.332 321.816 340.947C318.451 337.55 315.684 333.555 313.729 328.741C311.847 323.868 310.509 318.443 311.092 311.097Z" fill="#52C0DA"/>
<path d="M60.335 351.671C59.7512 344.318 61.0827 338.894 62.9716 334.021C64.9196 329.213 67.694 325.219 71.0522 321.821C74.43 318.437 78.4243 315.663 83.2319 313.715C88.0986 311.826 93.5293 310.488 100.901 311.097C101.511 318.47 100.18 323.901 98.2911 328.774C96.3365 333.575 93.5621 337.569 90.1843 340.947C86.7868 344.312 82.7925 347.08 77.9783 349.028C73.0985 350.917 67.6809 352.248 60.335 351.671Z" fill="#52C0DA"/>
<path d="M311.092 100.903C310.509 93.5568 311.847 88.1325 313.729 83.2526C315.684 78.4449 318.451 74.4571 321.816 71.053C325.187 67.6752 329.182 64.9072 333.989 62.9461C338.862 61.0571 344.287 59.7257 351.659 60.3356C352.269 67.7079 350.937 73.1322 349.048 78.0055C347.094 82.8132 344.326 86.8076 340.942 90.1854C337.544 93.5436 333.55 96.3181 328.742 98.2661C323.862 100.148 318.438 101.487 311.092 100.903Z" fill="#52C0DA"/>
<path d="M125.811 16.2465C132.842 18.4634 137.361 21.7428 141.172 25.324C144.891 28.938 147.547 33.0111 149.436 37.4056C151.299 41.8067 152.361 46.5488 152.368 51.7303C152.289 56.9578 151.476 62.4935 148.144 69.0984C141.087 66.888 136.555 63.6086 132.75 60.0274C129.038 56.4069 126.375 52.3404 124.519 47.9328C122.683 43.5186 121.62 38.7765 121.62 33.5884C121.705 28.3609 122.506 22.8251 125.811 16.2465Z" fill="#52C0DA"/>
<path d="M263.849 342.908C270.88 345.132 275.399 348.411 279.21 351.992C282.935 355.606 285.592 359.679 287.474 364.067C289.343 368.468 290.406 373.21 290.406 378.399C290.327 383.626 289.521 389.155 286.182 395.76C279.125 393.55 274.593 390.27 270.789 386.689C267.076 383.069 264.42 379.002 262.564 374.601C260.721 370.18 259.658 365.445 259.658 360.257C259.743 355.029 260.544 349.5 263.849 342.908Z" fill="#52C0DA"/>
<path d="M16.2461 286.186C18.463 279.162 21.7425 274.636 25.3236 270.832C28.9441 267.1 33.0105 264.45 37.4049 262.561C41.8059 260.698 46.5414 259.636 51.736 259.629C56.9634 259.708 62.4925 260.515 69.0907 263.853C66.8804 270.917 63.6075 275.443 60.0198 279.247C56.4059 282.959 52.3394 285.622 47.9385 287.485C43.5178 289.315 38.7757 290.384 33.5811 290.377C28.3603 290.292 22.8312 289.492 16.2461 286.186Z" fill="#52C0DA"/>
<path d="M342.903 148.147C345.127 141.116 348.406 136.597 351.987 132.786C355.601 129.067 359.668 126.41 364.062 124.521C368.463 122.659 373.205 121.596 378.393 121.59C383.621 121.668 389.15 122.475 395.755 125.814C393.544 132.878 390.265 137.403 386.684 141.207C383.063 144.92 378.997 147.583 374.589 149.439C370.175 151.275 365.439 152.338 360.245 152.338C355.017 152.253 349.495 151.452 342.903 148.147Z" fill="#52C0DA"/>
<path d="M15.125 128.523C21.6576 125.125 27.1801 124.246 32.4075 124.089C37.5956 124.01 42.3508 125.007 46.7911 126.778C51.2183 128.575 55.3241 131.172 58.9971 134.839C62.6307 138.591 65.9757 143.077 68.2844 150.102C61.7321 153.532 56.2095 154.417 50.9887 154.575C45.8006 154.647 41.0455 153.65 36.6183 151.846C32.1977 150.023 28.0918 147.419 24.4254 143.753C20.7852 139.994 17.4403 135.521 15.125 128.523Z" fill="#52C0DA"/>
<path d="M343.716 261.899C350.255 258.501 355.771 257.622 360.998 257.458C366.186 257.386 370.935 258.383 375.382 260.154C379.816 261.951 383.915 264.555 387.588 268.215C391.228 271.973 394.567 276.453 396.875 283.478C390.323 286.908 384.8 287.793 379.58 287.951C374.391 288.023 369.636 287.026 365.203 285.222C360.788 283.399 356.683 280.802 353.016 277.129C349.376 273.37 346.031 268.897 343.716 261.899Z" fill="#52C0DA"/>
<path d="M128.52 396.875C125.123 390.336 124.244 384.826 124.08 379.599C124.008 374.404 125.005 369.649 126.776 365.209C128.573 360.781 131.17 356.675 134.836 353.002C138.595 349.362 143.068 346.024 150.099 343.715C153.529 350.267 154.414 355.79 154.572 361.017C154.644 366.199 153.64 370.961 151.843 375.388C150.02 379.809 147.423 383.908 143.75 387.575C139.992 391.215 135.518 394.56 128.52 396.875Z" fill="#52C0DA"/>
<path d="M261.894 68.285C258.497 61.7458 257.624 56.2297 257.46 51.0022C257.382 45.8141 258.379 41.0589 260.15 36.6185C261.947 32.1847 264.55 28.0788 268.21 24.4058C271.968 20.7721 276.448 17.427 283.473 15.1183C286.903 21.6707 287.788 27.1933 287.946 32.4142C288.018 37.6023 287.015 42.3576 285.217 46.7915C283.394 51.2056 280.797 55.3181 277.124 58.9845C273.366 62.6182 268.892 65.9632 261.894 68.285Z" fill="#52C0DA"/>
<path d="M171.796 18.7193L180.985 89.1886L162.942 20.4574C162.312 18.0372 163.755 15.571 166.169 14.9348C168.582 14.2986 171.048 15.7416 171.684 18.1553C171.73 18.3389 171.77 18.5422 171.796 18.7193Z" fill="#52C0DA"/>
<path d="M235.541 391.549L226.353 321.073L244.396 389.818C245.032 392.232 243.589 394.704 241.175 395.334C238.762 395.97 236.289 394.527 235.659 392.113C235.607 391.93 235.568 391.726 235.541 391.549Z" fill="#52C0DA"/>
<path d="M17.2565 237.007L87.7312 227.818L18.9881 245.855C16.5744 246.492 14.1017 245.055 13.4721 242.641C12.8359 240.221 14.2854 237.755 16.6925 237.119C16.8761 237.073 17.0795 237.033 17.2565 237.007Z" fill="#52C0DA"/>
<path d="M49.3168 95.8591L105.651 139.187L44.2861 103.343C42.1282 102.084 41.4068 99.3156 42.6595 97.1643C43.9188 95.0064 46.6867 94.2784 48.8445 95.5377C49.002 95.6295 49.1725 95.7541 49.3168 95.8591Z" fill="#52C0DA"/>
<path d="M94.3945 359.489L137.722 303.161L101.878 364.52C100.619 366.678 97.851 367.406 95.6997 366.146C93.5484 364.887 92.8138 362.119 94.0731 359.961C94.1715 359.811 94.2895 359.633 94.3945 359.489Z" fill="#52C0DA"/>
<path d="M101.747 45.8273L137.65 107.167L94.2697 50.8712C92.748 48.8904 93.1153 46.0569 95.0896 44.5353C97.0638 43.0136 99.9037 43.3743 101.425 45.3551C101.537 45.4994 101.655 45.6699 101.747 45.8273Z" fill="#52C0DA"/>
<path d="M44.3711 307.057L105.703 271.16L49.4083 314.534C47.4341 316.056 44.5941 315.695 43.0725 313.714C41.5508 311.74 41.9116 308.9 43.8923 307.378C44.0366 307.267 44.2137 307.149 44.3711 307.057Z" fill="#52C0DA"/>
<path d="M18.9552 164.557L87.7115 182.542L17.2302 173.412C14.7575 173.091 13.0129 170.821 13.3277 168.349C13.6491 165.876 15.9185 164.131 18.3911 164.452C18.5748 164.472 18.7847 164.518 18.9552 164.557Z" fill="#52C0DA"/>
<path d="M163.092 389.851L181.083 321.1L171.947 391.576C171.625 394.055 169.356 395.793 166.883 395.478C164.411 395.157 162.666 392.887 162.987 390.415C163.014 390.231 163.053 390.021 163.092 389.851Z" fill="#52C0DA"/>
<path d="M390.337 172.612L319.901 182.017L388.586 163.77C390.993 163.127 393.472 164.564 394.108 166.971C394.751 169.385 393.314 171.864 390.901 172.5C390.724 172.553 390.52 172.592 390.337 172.612Z" fill="#52C0DA"/>
<path d="M312.824 50.3726L269.667 106.839L305.327 45.3616C306.58 43.2037 309.341 42.4691 311.499 43.7218C313.664 44.968 314.392 47.7359 313.145 49.8938C313.054 50.0578 312.929 50.2283 312.824 50.3726Z" fill="#52C0DA"/>
<path d="M358.716 313.865L302.251 270.707L363.727 306.368C365.885 307.621 366.619 310.382 365.373 312.54C364.121 314.698 361.353 315.433 359.195 314.187C359.037 314.088 358.86 313.97 358.716 313.865Z" fill="#52C0DA"/>
<path d="M246.659 20.8114L227.907 89.3589L237.824 18.988C238.178 16.5153 240.461 14.7968 242.934 15.151C245.406 15.4921 247.125 17.7811 246.777 20.2473C246.744 20.4309 246.705 20.6408 246.659 20.8114Z" fill="#52C0DA"/>
<path d="M388.277 247.698L319.73 228.94L390.1 238.864C392.573 239.211 394.291 241.494 393.944 243.966C393.596 246.439 391.314 248.164 388.841 247.81C388.657 247.784 388.447 247.738 388.277 247.698Z" fill="#52C0DA"/>
<path d="M364.455 104.924L302.723 140.139L359.496 97.3939C361.49 95.8854 364.33 96.2855 365.825 98.2794C367.327 100.273 366.927 103.107 364.933 104.609C364.789 104.72 364.612 104.838 364.455 104.924Z" fill="#52C0DA"/>
<path d="M304.167 365.497L268.959 303.764L311.703 360.538C313.205 362.532 312.805 365.366 310.811 366.861C308.817 368.37 305.984 367.97 304.482 365.976C304.377 365.825 304.259 365.648 304.167 365.497Z" fill="#52C0DA"/>
<path d="M166.09 83.3316L160.804 95.9773L148.158 90.6907L153.445 78.045L166.09 83.3316Z" fill="#52C0DA"/>
<path d="M263.783 321.336L258.497 333.988L245.845 328.695L251.131 316.05L263.783 321.336Z" fill="#52C0DA"/>
<path d="M83.2838 245.888L95.9358 251.175L90.6428 263.827L78.0039 258.541L83.2838 245.888Z" fill="#52C0DA"/>
<path d="M321.291 148.199L333.937 153.486L328.65 166.132L316.005 160.852L321.291 148.199Z" fill="#52C0DA"/>
<path d="M91.0229 147.465L96.2241 160.137L83.5393 165.345L78.3447 152.666L91.0229 147.465Z" fill="#52C0DA"/>
<path d="M328.387 246.675L333.595 259.36L320.91 264.561L315.709 251.883L328.387 246.675Z" fill="#52C0DA"/>
<path d="M147.416 320.962L160.094 315.754L165.302 328.433L152.624 333.64L147.416 320.962Z" fill="#52C0DA"/>
<path d="M246.632 83.5872L259.31 78.3794L264.518 91.0645L251.84 96.2656L246.632 83.5872Z" fill="#52C0DA"/>
<path d="M121.719 108.321L121.738 122.029L108.03 122.049L108.011 108.341L121.719 108.321Z" fill="#52C0DA"/>
<path d="M303.904 289.978L303.924 303.679L290.216 303.705L290.196 289.997L303.904 289.978Z" fill="#52C0DA"/>
<path d="M108.279 290.259L121.987 290.24L122.007 303.948L108.299 303.974L108.279 290.259Z" fill="#52C0DA"/>
<path d="M289.934 108.078L303.635 108.059L303.655 121.76L289.947 121.78L289.934 108.078Z" fill="#52C0DA"/>
<path d="M77.3149 196.506L87.0286 206.187L77.3477 215.894L67.6406 206.22L77.3149 196.506Z" fill="#52C0DA"/>
<path d="M334.586 196.132L344.3 205.807L334.613 215.521L324.912 205.84L334.586 196.132Z" fill="#52C0DA"/>
<path d="M196.464 334.664L206.145 324.956L215.852 334.637L206.171 344.345L196.464 334.664Z" fill="#52C0DA"/>
<path d="M196.083 77.3888L205.764 67.6816L215.471 77.3626L205.797 87.0698L196.083 77.3888Z" fill="#52C0DA"/>
</g>
</svg>
