<svg width="24" height="24" viewBox="0 0 24 24" fill="none" xmlns="http://www.w3.org/2000/svg">
<path fill-rule="evenodd" clip-rule="evenodd" d="M21.0004 16.92V19.92C21.0027 20.4832 20.7675 21.0212 20.3525 21.4019C19.9375 21.7826 19.3813 21.9707 18.8204 21.92C15.7433 21.5856 12.7874 20.5342 10.1904 18.85C7.77426 17.3147 5.72576 15.2662 4.19043 12.85C2.50041 10.2412 1.44867 7.271 1.12043 4.18001C1.0699 3.62088 1.2567 3.06626 1.63519 2.65163C2.01369 2.237 2.54902 2.00054 3.11043 2.00001H6.11043C7.11429 1.99013 7.96993 2.72597 8.11043 3.72001C8.23705 4.68007 8.47188 5.62273 8.81043 6.53001C9.08516 7.26088 8.90944 8.08481 8.36043 8.64001L7.09043 9.91001C8.51398 12.4136 10.5869 14.4865 13.0904 15.91L14.3604 14.64C14.9156 14.091 15.7396 13.9153 16.4704 14.19C17.3777 14.5286 18.3204 14.7634 19.2804 14.89C20.286 15.0319 21.0256 15.9048 21.0004 16.92Z" stroke="#5AC38A" stroke-width="2" stroke-linecap="round" stroke-linejoin="round"/>
</svg>
