<svg width="335" height="335" viewBox="0 0 335 335" fill="none" xmlns="http://www.w3.org/2000/svg">
<g opacity="0.1">
<path d="M183.789 16.298C173.994 16.298 167.496 22.7901 167.496 32.5855C167.496 22.7901 161.004 16.298 151.203 16.298C161.004 16.298 167.496 9.80061 167.496 0C167.496 9.80061 173.994 16.298 183.789 16.298Z" fill="url(#paint0_linear_444_1045)"/>
<path d="M183.789 318.707C173.994 318.707 167.496 325.199 167.496 335C167.496 325.199 161.004 318.707 151.203 318.707C161.004 318.707 167.496 312.21 167.496 302.409C167.496 312.21 173.994 318.707 183.789 318.707Z" fill="url(#paint1_linear_444_1045)"/>
<path d="M16.293 151.207C16.293 161.008 22.7852 167.5 32.586 167.5C22.7852 167.5 16.293 173.992 16.293 183.793C16.293 173.992 9.80077 167.5 0 167.5C9.80077 167.5 16.293 161.008 16.293 151.207Z" fill="url(#paint2_linear_444_1045)"/>
<path d="M318.707 151.207C318.707 161.008 325.199 167.5 335 167.5C325.199 167.5 318.707 173.992 318.707 183.793C318.707 173.992 312.21 167.5 302.414 167.5C312.21 167.5 318.707 161.008 318.707 151.207Z" fill="url(#paint3_linear_444_1045)"/>
<path d="M72.102 49.0601C65.1728 55.9892 65.1728 65.1707 72.102 72.105C65.1728 65.1707 55.991 65.1707 49.0566 72.105C55.991 65.1707 55.991 55.9892 49.0566 49.0601C55.991 55.9892 65.1728 55.9892 72.102 49.0601Z" fill="url(#paint4_linear_444_1045)"/>
<path d="M285.939 262.895C279.009 269.824 279.009 279.011 285.939 285.94C279.009 279.011 269.828 279.011 262.898 285.94C269.828 279.011 269.828 269.824 262.898 262.895C269.828 269.824 279.009 269.824 285.939 262.895Z" fill="url(#paint5_linear_444_1045)"/>
<path d="M49.0605 262.895C55.9845 269.824 65.1715 269.824 72.1007 262.895C65.1715 269.824 65.1715 279.011 72.1007 285.94C65.1715 279.011 55.9845 279.011 49.0605 285.94C55.9845 279.011 55.9845 269.824 49.0605 262.895Z" fill="url(#paint6_linear_444_1045)"/>
<path d="M262.898 49.0601C269.828 55.9892 279.009 55.9892 285.939 49.0601C279.009 55.9892 279.009 65.1707 285.939 72.105C279.009 65.1707 269.828 65.1707 262.898 72.105C269.828 65.1707 269.828 55.9892 262.898 49.0601Z" fill="url(#paint7_linear_444_1045)"/>
<path d="M124.002 21.7703C114.966 25.5626 111.497 34.0679 115.289 43.0986C111.497 34.0679 102.991 30.5877 93.9551 34.38C102.991 30.5877 106.466 22.0876 102.679 13.0569C106.466 22.0876 114.966 25.5626 124.002 21.7703Z" fill="url(#paint8_linear_444_1045)"/>
<path d="M241.04 300.62C232.003 304.412 228.528 312.912 232.321 321.948C228.528 312.912 220.028 309.437 210.992 313.229C220.028 309.437 223.503 300.932 219.711 291.901C223.503 300.932 232.003 304.412 241.04 300.62Z" fill="url(#paint9_linear_444_1045)"/>
<path d="M21.7715 210.994C25.5638 220.03 34.064 223.505 43.0949 219.707C34.064 223.505 30.589 232.005 34.3814 241.041C30.589 232.005 22.0836 228.53 13.0527 232.322C22.0836 228.53 25.5638 220.03 21.7715 210.994Z" fill="url(#paint10_linear_444_1045)"/>
<path d="M300.621 93.9641C304.413 102.995 312.914 106.47 321.95 102.678C312.914 106.47 309.439 114.97 313.231 124.006C309.439 114.97 300.938 111.495 291.902 115.287C300.938 111.495 304.413 102.995 300.621 93.9641Z" fill="url(#paint11_linear_444_1045)"/>
<path d="M33.6985 95.2125C29.9894 104.28 33.5424 112.749 42.6149 116.458C33.5424 112.749 25.0734 116.302 21.3695 125.374C25.0734 116.302 21.5204 107.833 12.4531 104.129C21.5204 107.833 29.9894 104.28 33.6985 95.2125Z" fill="url(#paint12_linear_444_1045)"/>
<path d="M313.63 209.626C309.921 218.698 313.479 227.167 322.547 230.876C313.479 227.167 305.01 230.72 301.301 239.792C305.01 230.72 301.452 222.251 292.385 218.542C301.452 222.251 309.921 218.698 313.63 209.626Z" fill="url(#paint13_linear_444_1045)"/>
<path d="M95.2109 301.301C104.278 305.01 112.747 301.452 116.456 292.385C112.747 301.452 116.3 309.921 125.373 313.63C116.3 309.921 107.831 313.474 104.122 322.546C107.831 313.474 104.278 305.01 95.2109 301.301Z" fill="url(#paint14_linear_444_1045)"/>
<path d="M209.629 21.3698C218.696 25.0789 227.165 21.5259 230.874 12.4587C227.165 21.5259 230.723 29.9947 239.791 33.7038C230.723 29.9947 222.254 33.5477 218.545 42.6201C222.254 33.5477 218.696 25.0789 209.629 21.3698Z" fill="url(#paint15_linear_444_1045)"/>
<path d="M126.558 57.2484C125.175 60.5829 121.351 62.1695 118.011 60.7858C114.671 59.4072 113.09 55.5785 114.469 52.2388C115.852 48.8991 119.681 47.3177 123.016 48.7014C126.355 50.0799 127.942 53.9087 126.558 57.2484Z" fill="url(#paint16_linear_444_1045)"/>
<path d="M220.529 284.103C219.145 287.438 215.316 289.024 211.982 287.64C208.642 286.262 207.061 282.433 208.439 279.094C209.823 275.759 213.652 274.172 216.992 275.556C220.326 276.935 221.913 280.763 220.529 284.103Z" fill="url(#paint17_linear_444_1045)"/>
<path d="M56.5745 209.111C59.909 210.495 61.5009 214.323 60.1119 217.658C58.7334 220.998 54.9046 222.584 51.57 221.201C48.2303 219.817 46.6437 215.988 48.0274 212.648C49.4112 209.314 53.2347 207.727 56.5745 209.111Z" fill="url(#paint18_linear_444_1045)"/>
<path d="M283.432 115.142C286.766 116.525 288.358 120.354 286.969 123.688C285.591 127.023 281.762 128.61 278.427 127.226C275.088 125.847 273.501 122.019 274.885 118.684C276.269 115.35 280.092 113.758 283.432 115.142Z" fill="url(#paint19_linear_444_1045)"/>
<path d="M60.1172 118.684C61.4958 122.024 59.9091 125.853 56.5694 127.236C53.2348 128.615 49.4112 127.028 48.0275 123.694C46.6437 120.354 48.2304 116.525 51.5649 115.147C54.9047 113.763 58.7282 115.35 60.1172 118.684Z" fill="url(#paint20_linear_444_1045)"/>
<path d="M286.975 212.648C288.358 215.988 286.772 219.817 283.432 221.195C280.092 222.579 276.269 220.992 274.885 217.658C273.501 214.318 275.088 210.495 278.427 209.111C281.762 207.727 285.591 209.309 286.975 212.648Z" fill="url(#paint21_linear_444_1045)"/>
<path d="M118.016 275.556C121.351 274.172 125.179 275.759 126.558 279.094C127.942 282.433 126.355 286.262 123.02 287.646C119.681 289.024 115.857 287.443 114.473 284.103C113.09 280.763 114.671 276.94 118.016 275.556Z" fill="url(#paint22_linear_444_1045)"/>
<path d="M211.98 48.7013C215.315 47.3123 219.144 48.899 220.522 52.2387C221.906 55.5784 220.324 59.4019 216.985 60.7856C213.645 62.1694 209.821 60.5827 208.438 57.243C207.054 53.9085 208.64 50.0798 211.98 48.7013Z" fill="url(#paint23_linear_444_1045)"/>
<path d="M86.8177 81.734C86.8333 85.3494 83.9202 88.2886 80.3099 88.3042C76.6944 88.325 73.7552 85.4118 73.7344 81.7964C73.7188 78.181 76.6372 75.2419 80.2475 75.2211C83.8577 75.2055 86.8021 78.1186 86.8177 81.734Z" fill="url(#paint24_linear_444_1045)"/>
<path d="M261.261 254.545C261.277 258.161 258.364 261.1 254.753 261.116C251.138 261.136 248.199 258.223 248.178 254.608C248.162 250.992 251.075 248.053 254.691 248.038C258.301 248.017 261.245 250.935 261.261 254.545Z" fill="url(#paint25_linear_444_1045)"/>
<path d="M81.0587 248.849C84.6741 248.834 87.6185 251.752 87.6341 255.362C87.6497 258.973 84.7366 261.917 81.1211 261.932C77.5056 261.948 74.5664 259.035 74.5508 255.42C74.5352 251.809 77.4484 248.865 81.0587 248.849Z" fill="url(#paint26_linear_444_1045)"/>
<path d="M253.873 74.4096C257.489 74.394 260.433 77.3071 260.443 80.9173C260.464 84.5328 257.551 87.4771 253.936 87.4927C250.325 87.5083 247.381 84.5952 247.365 80.9798C247.345 77.3696 250.263 74.4252 253.873 74.4096Z" fill="url(#paint27_linear_444_1045)"/>
<path d="M49.3331 164.098C51.8977 166.642 51.9185 170.782 49.3747 173.352C46.8309 175.917 42.69 175.938 40.1202 173.394C37.5555 170.85 37.5347 166.709 40.0785 164.139C42.6224 161.575 46.7632 161.559 49.3331 164.098Z" fill="url(#paint28_linear_444_1045)"/>
<path d="M294.877 162.948C297.441 165.492 297.462 169.633 294.924 172.197C292.374 174.767 288.239 174.783 285.669 172.244C283.104 169.7 283.084 165.56 285.627 162.99C288.171 160.425 292.312 160.41 294.877 162.948Z" fill="url(#paint29_linear_444_1045)"/>
<path d="M163.428 286.34C165.967 283.776 170.108 283.755 172.677 286.293C175.242 288.842 175.263 292.978 172.719 295.548C170.175 298.112 166.04 298.133 163.47 295.589C160.905 293.046 160.879 288.905 163.428 286.34Z" fill="url(#paint30_linear_444_1045)"/>
<path d="M162.273 40.7942C164.817 38.2296 168.958 38.2088 171.523 40.7526C174.092 43.2964 174.113 47.4371 171.569 50.0017C169.026 52.5663 164.885 52.5924 162.32 50.0434C159.75 47.5048 159.729 43.3588 162.273 40.7942Z" fill="url(#paint31_linear_444_1045)"/>
<path d="M200.427 38.2139L192.307 43.6396L186.881 35.5245L199.772 6.04456L200.427 38.2139Z" fill="url(#paint32_linear_444_1045)"/>
<path d="M134.574 299.069L142.69 293.644L148.115 301.759L135.224 331.244L134.574 299.069Z" fill="url(#paint33_linear_444_1045)"/>
<path d="M37.0695 135.721L42.4954 143.836L34.3801 149.262L4.89453 136.371L37.0695 135.721Z" fill="url(#paint34_linear_444_1045)"/>
<path d="M297.93 201.568L292.504 193.448L300.614 188.027L330.1 200.918L297.93 201.568Z" fill="url(#paint35_linear_444_1045)"/>
<path d="M98.5536 53.1333L96.6496 62.7102L87.0725 60.8063L75.3418 30.853L98.5536 53.1333Z" fill="url(#paint36_linear_444_1045)"/>
<path d="M236.447 284.15L238.346 274.578L247.923 276.477L259.654 306.436L236.447 284.15Z" fill="url(#paint37_linear_444_1045)"/>
<path d="M51.9909 237.587L61.568 239.491L59.664 249.068L29.7051 260.798L51.9909 237.587Z" fill="url(#paint38_linear_444_1045)"/>
<path d="M283.011 99.6968L273.434 97.7981L275.338 88.2212L305.291 76.4906L283.011 99.6968Z" fill="url(#paint39_linear_444_1045)"/>
<path d="M147.38 35.6337L141.996 43.7801L133.85 38.396L134.328 6.22668L147.38 35.6337Z" fill="url(#paint40_linear_444_1045)"/>
<path d="M187.613 301.65L192.997 293.503L201.144 298.888L200.665 331.062L187.613 301.65Z" fill="url(#paint41_linear_444_1045)"/>
<path d="M34.4889 188.761L42.6354 194.145L37.2512 202.291L5.07617 201.813L34.4889 188.761Z" fill="url(#paint42_linear_444_1045)"/>
<path d="M300.51 148.528L292.363 143.144L297.747 134.998L329.917 135.471L300.51 148.528Z" fill="url(#paint43_linear_444_1045)"/>
<path d="M59.2219 88.8194L61.1778 98.386L51.6112 100.337L29.1953 77.2501L59.2219 88.8194Z" fill="url(#paint44_linear_444_1045)"/>
<path d="M275.775 248.469L273.824 238.903L283.391 236.947L305.802 260.034L275.775 248.469Z" fill="url(#paint45_linear_444_1045)"/>
<path d="M87.6717 276.919L97.2384 274.963L99.1944 284.53L76.1074 306.945L87.6717 276.919Z" fill="url(#paint46_linear_444_1045)"/>
<path d="M247.324 60.3644L237.757 62.3203L235.807 52.759L258.888 30.3435L247.324 60.3644Z" fill="url(#paint47_linear_444_1045)"/>
</g>
<defs>
<linearGradient id="paint0_linear_444_1045" x1="167.496" y1="0" x2="167.496" y2="32.5855" gradientUnits="userSpaceOnUse">
<stop stop-color="#3FD6FC"/>
<stop offset="1" stop-color="#FF4299"/>
</linearGradient>
<linearGradient id="paint1_linear_444_1045" x1="167.496" y1="302.409" x2="167.496" y2="335" gradientUnits="userSpaceOnUse">
<stop stop-color="#3FD6FC"/>
<stop offset="1" stop-color="#FF4299"/>
</linearGradient>
<linearGradient id="paint2_linear_444_1045" x1="16.293" y1="151.207" x2="16.293" y2="183.793" gradientUnits="userSpaceOnUse">
<stop stop-color="#3FD6FC"/>
<stop offset="1" stop-color="#FF4299"/>
</linearGradient>
<linearGradient id="paint3_linear_444_1045" x1="318.707" y1="151.207" x2="318.707" y2="183.793" gradientUnits="userSpaceOnUse">
<stop stop-color="#3FD6FC"/>
<stop offset="1" stop-color="#FF4299"/>
</linearGradient>
<linearGradient id="paint4_linear_444_1045" x1="60.5793" y1="49.0601" x2="60.5793" y2="72.105" gradientUnits="userSpaceOnUse">
<stop stop-color="#3FD6FC"/>
<stop offset="1" stop-color="#FF4299"/>
</linearGradient>
<linearGradient id="paint5_linear_444_1045" x1="274.419" y1="262.895" x2="274.419" y2="285.94" gradientUnits="userSpaceOnUse">
<stop stop-color="#3FD6FC"/>
<stop offset="1" stop-color="#FF4299"/>
</linearGradient>
<linearGradient id="paint6_linear_444_1045" x1="60.5806" y1="262.895" x2="60.5806" y2="285.94" gradientUnits="userSpaceOnUse">
<stop stop-color="#3FD6FC"/>
<stop offset="1" stop-color="#FF4299"/>
</linearGradient>
<linearGradient id="paint7_linear_444_1045" x1="274.419" y1="49.0601" x2="274.419" y2="72.105" gradientUnits="userSpaceOnUse">
<stop stop-color="#3FD6FC"/>
<stop offset="1" stop-color="#FF4299"/>
</linearGradient>
<linearGradient id="paint8_linear_444_1045" x1="108.979" y1="13.0569" x2="108.979" y2="43.0986" gradientUnits="userSpaceOnUse">
<stop stop-color="#3FD6FC"/>
<stop offset="1" stop-color="#FF4299"/>
</linearGradient>
<linearGradient id="paint9_linear_444_1045" x1="226.016" y1="291.901" x2="226.016" y2="321.948" gradientUnits="userSpaceOnUse">
<stop stop-color="#3FD6FC"/>
<stop offset="1" stop-color="#FF4299"/>
</linearGradient>
<linearGradient id="paint10_linear_444_1045" x1="28.0738" y1="210.994" x2="28.0738" y2="241.041" gradientUnits="userSpaceOnUse">
<stop stop-color="#3FD6FC"/>
<stop offset="1" stop-color="#FF4299"/>
</linearGradient>
<linearGradient id="paint11_linear_444_1045" x1="306.926" y1="93.9641" x2="306.926" y2="124.006" gradientUnits="userSpaceOnUse">
<stop stop-color="#3FD6FC"/>
<stop offset="1" stop-color="#FF4299"/>
</linearGradient>
<linearGradient id="paint12_linear_444_1045" x1="27.534" y1="95.2125" x2="27.534" y2="125.374" gradientUnits="userSpaceOnUse">
<stop stop-color="#3FD6FC"/>
<stop offset="1" stop-color="#FF4299"/>
</linearGradient>
<linearGradient id="paint13_linear_444_1045" x1="307.466" y1="209.626" x2="307.466" y2="239.792" gradientUnits="userSpaceOnUse">
<stop stop-color="#3FD6FC"/>
<stop offset="1" stop-color="#FF4299"/>
</linearGradient>
<linearGradient id="paint14_linear_444_1045" x1="110.292" y1="292.385" x2="110.292" y2="322.546" gradientUnits="userSpaceOnUse">
<stop stop-color="#3FD6FC"/>
<stop offset="1" stop-color="#FF4299"/>
</linearGradient>
<linearGradient id="paint15_linear_444_1045" x1="224.71" y1="12.4587" x2="224.71" y2="42.6201" gradientUnits="userSpaceOnUse">
<stop stop-color="#3FD6FC"/>
<stop offset="1" stop-color="#FF4299"/>
</linearGradient>
<linearGradient id="paint16_linear_444_1045" x1="120.515" y1="48.2006" x2="120.515" y2="61.2859" gradientUnits="userSpaceOnUse">
<stop stop-color="#3FD6FC"/>
<stop offset="1" stop-color="#FF4299"/>
</linearGradient>
<linearGradient id="paint17_linear_444_1045" x1="214.485" y1="275.056" x2="214.485" y2="288.141" gradientUnits="userSpaceOnUse">
<stop stop-color="#3FD6FC"/>
<stop offset="1" stop-color="#FF4299"/>
</linearGradient>
<linearGradient id="paint18_linear_444_1045" x1="54.0708" y1="208.611" x2="54.0708" y2="221.701" gradientUnits="userSpaceOnUse">
<stop stop-color="#3FD6FC"/>
<stop offset="1" stop-color="#FF4299"/>
</linearGradient>
<linearGradient id="paint19_linear_444_1045" x1="280.928" y1="114.642" x2="280.928" y2="127.726" gradientUnits="userSpaceOnUse">
<stop stop-color="#3FD6FC"/>
<stop offset="1" stop-color="#FF4299"/>
</linearGradient>
<linearGradient id="paint20_linear_444_1045" x1="54.0708" y1="114.647" x2="54.0708" y2="127.734" gradientUnits="userSpaceOnUse">
<stop stop-color="#3FD6FC"/>
<stop offset="1" stop-color="#FF4299"/>
</linearGradient>
<linearGradient id="paint21_linear_444_1045" x1="280.93" y1="208.61" x2="280.93" y2="221.695" gradientUnits="userSpaceOnUse">
<stop stop-color="#3FD6FC"/>
<stop offset="1" stop-color="#FF4299"/>
</linearGradient>
<linearGradient id="paint22_linear_444_1045" x1="120.515" y1="275.056" x2="120.515" y2="288.144" gradientUnits="userSpaceOnUse">
<stop stop-color="#3FD6FC"/>
<stop offset="1" stop-color="#FF4299"/>
</linearGradient>
<linearGradient id="paint23_linear_444_1045" x1="214.48" y1="48.1982" x2="214.48" y2="61.2857" gradientUnits="userSpaceOnUse">
<stop stop-color="#3FD6FC"/>
<stop offset="1" stop-color="#FF4299"/>
</linearGradient>
<linearGradient id="paint24_linear_444_1045" x1="80.2761" y1="75.2211" x2="80.2761" y2="88.3043" gradientUnits="userSpaceOnUse">
<stop stop-color="#3FD6FC"/>
<stop offset="1" stop-color="#FF4299"/>
</linearGradient>
<linearGradient id="paint25_linear_444_1045" x1="254.719" y1="248.038" x2="254.719" y2="261.116" gradientUnits="userSpaceOnUse">
<stop stop-color="#3FD6FC"/>
<stop offset="1" stop-color="#FF4299"/>
</linearGradient>
<linearGradient id="paint26_linear_444_1045" x1="81.0925" y1="248.849" x2="81.0925" y2="261.933" gradientUnits="userSpaceOnUse">
<stop stop-color="#3FD6FC"/>
<stop offset="1" stop-color="#FF4299"/>
</linearGradient>
<linearGradient id="paint27_linear_444_1045" x1="253.904" y1="74.4095" x2="253.904" y2="87.4928" gradientUnits="userSpaceOnUse">
<stop stop-color="#3FD6FC"/>
<stop offset="1" stop-color="#FF4299"/>
</linearGradient>
<linearGradient id="paint28_linear_444_1045" x1="44.7266" y1="162.205" x2="44.7266" y2="175.289" gradientUnits="userSpaceOnUse">
<stop stop-color="#3FD6FC"/>
<stop offset="1" stop-color="#FF4299"/>
</linearGradient>
<linearGradient id="paint29_linear_444_1045" x1="290.273" y1="161.055" x2="290.273" y2="174.137" gradientUnits="userSpaceOnUse">
<stop stop-color="#3FD6FC"/>
<stop offset="1" stop-color="#FF4299"/>
</linearGradient>
<linearGradient id="paint30_linear_444_1045" x1="168.073" y1="284.403" x2="168.073" y2="297.484" gradientUnits="userSpaceOnUse">
<stop stop-color="#3FD6FC"/>
<stop offset="1" stop-color="#FF4299"/>
</linearGradient>
<linearGradient id="paint31_linear_444_1045" x1="166.921" y1="38.8577" x2="166.921" y2="51.9402" gradientUnits="userSpaceOnUse">
<stop stop-color="#3FD6FC"/>
<stop offset="1" stop-color="#FF4299"/>
</linearGradient>
<linearGradient id="paint32_linear_444_1045" x1="193.654" y1="6.04456" x2="193.654" y2="43.6396" gradientUnits="userSpaceOnUse">
<stop stop-color="#3FD6FC"/>
<stop offset="1" stop-color="#FF4299"/>
</linearGradient>
<linearGradient id="paint33_linear_444_1045" x1="141.345" y1="293.644" x2="141.345" y2="331.244" gradientUnits="userSpaceOnUse">
<stop stop-color="#3FD6FC"/>
<stop offset="1" stop-color="#FF4299"/>
</linearGradient>
<linearGradient id="paint34_linear_444_1045" x1="23.6949" y1="135.721" x2="23.6949" y2="149.262" gradientUnits="userSpaceOnUse">
<stop stop-color="#3FD6FC"/>
<stop offset="1" stop-color="#FF4299"/>
</linearGradient>
<linearGradient id="paint35_linear_444_1045" x1="311.302" y1="188.027" x2="311.302" y2="201.568" gradientUnits="userSpaceOnUse">
<stop stop-color="#3FD6FC"/>
<stop offset="1" stop-color="#FF4299"/>
</linearGradient>
<linearGradient id="paint36_linear_444_1045" x1="86.9477" y1="30.853" x2="86.9477" y2="62.7102" gradientUnits="userSpaceOnUse">
<stop stop-color="#3FD6FC"/>
<stop offset="1" stop-color="#FF4299"/>
</linearGradient>
<linearGradient id="paint37_linear_444_1045" x1="248.051" y1="274.578" x2="248.051" y2="306.436" gradientUnits="userSpaceOnUse">
<stop stop-color="#3FD6FC"/>
<stop offset="1" stop-color="#FF4299"/>
</linearGradient>
<linearGradient id="paint38_linear_444_1045" x1="45.6365" y1="237.587" x2="45.6365" y2="260.798" gradientUnits="userSpaceOnUse">
<stop stop-color="#3FD6FC"/>
<stop offset="1" stop-color="#FF4299"/>
</linearGradient>
<linearGradient id="paint39_linear_444_1045" x1="289.362" y1="76.4906" x2="289.362" y2="99.6968" gradientUnits="userSpaceOnUse">
<stop stop-color="#3FD6FC"/>
<stop offset="1" stop-color="#FF4299"/>
</linearGradient>
<linearGradient id="paint40_linear_444_1045" x1="140.615" y1="6.22668" x2="140.615" y2="43.7801" gradientUnits="userSpaceOnUse">
<stop stop-color="#3FD6FC"/>
<stop offset="1" stop-color="#FF4299"/>
</linearGradient>
<linearGradient id="paint41_linear_444_1045" x1="194.379" y1="293.503" x2="194.379" y2="331.062" gradientUnits="userSpaceOnUse">
<stop stop-color="#3FD6FC"/>
<stop offset="1" stop-color="#FF4299"/>
</linearGradient>
<linearGradient id="paint42_linear_444_1045" x1="23.8558" y1="188.761" x2="23.8558" y2="202.291" gradientUnits="userSpaceOnUse">
<stop stop-color="#3FD6FC"/>
<stop offset="1" stop-color="#FF4299"/>
</linearGradient>
<linearGradient id="paint43_linear_444_1045" x1="311.14" y1="134.998" x2="311.14" y2="148.528" gradientUnits="userSpaceOnUse">
<stop stop-color="#3FD6FC"/>
<stop offset="1" stop-color="#FF4299"/>
</linearGradient>
<linearGradient id="paint44_linear_444_1045" x1="45.1866" y1="77.2501" x2="45.1866" y2="100.337" gradientUnits="userSpaceOnUse">
<stop stop-color="#3FD6FC"/>
<stop offset="1" stop-color="#FF4299"/>
</linearGradient>
<linearGradient id="paint45_linear_444_1045" x1="289.813" y1="236.947" x2="289.813" y2="260.034" gradientUnits="userSpaceOnUse">
<stop stop-color="#3FD6FC"/>
<stop offset="1" stop-color="#FF4299"/>
</linearGradient>
<linearGradient id="paint46_linear_444_1045" x1="87.6509" y1="274.963" x2="87.6509" y2="306.945" gradientUnits="userSpaceOnUse">
<stop stop-color="#3FD6FC"/>
<stop offset="1" stop-color="#FF4299"/>
</linearGradient>
<linearGradient id="paint47_linear_444_1045" x1="247.348" y1="30.3435" x2="247.348" y2="62.3203" gradientUnits="userSpaceOnUse">
<stop stop-color="#3FD6FC"/>
<stop offset="1" stop-color="#FF4299"/>
</linearGradient>
</defs>
</svg>
