<svg width="24" height="24" viewBox="0 0 24 24" xmlns="http://www.w3.org/2000/svg">
<path fill-rule="evenodd" clip-rule="evenodd" d="M8.9795 4.39749C9.22644 4.34324 9.48308 4.35228 9.72558 4.42378C9.96748 4.4951 10.1875 4.62626 10.3652 4.80511C10.3657 4.80556 10.3661 4.80601 10.3666 4.80646L19.1933 13.6331C19.1938 13.6336 19.1942 13.6341 19.1947 13.6346C19.3735 13.8123 19.5046 14.0323 19.5759 14.2741C19.6474 14.5166 19.6565 14.7733 19.6022 15.0202C19.548 15.2672 19.4322 15.4964 19.2656 15.6866C19.0991 15.8768 18.8871 16.0218 18.6495 16.1081L18.6494 16.1082L4.76994 21.1502C4.50297 21.2507 4.21269 21.2726 3.93359 21.213C3.6521 21.153 3.39402 21.0127 3.1905 20.8092C2.98698 20.6057 2.84674 20.3476 2.7867 20.0661C2.72717 19.787 2.74902 19.4968 2.84956 19.2298L7.89155 5.3503L7.89158 5.35021C7.97794 5.11259 8.12295 4.90065 8.31315 4.73409C8.50335 4.56753 8.73257 4.45174 8.9795 4.39749ZM9.83398 5.3345L9.30137 5.86255L4.26037 19.7394L18.1372 14.6984L18.1349 14.6961L9.30365 5.86483L9.30137 5.86255" />
<path fill-rule="evenodd" clip-rule="evenodd" d="M20.25 1.5C20.6642 1.5 21 1.83579 21 2.25H20.25C21 2.25 21 2.25038 21 2.25076L21 2.25157L21 2.25336L21 2.25758L20.9998 2.26855C20.9997 2.27696 20.9995 2.28758 20.999 2.30025C20.9982 2.32558 20.9966 2.35926 20.9937 2.40011C20.9879 2.48158 20.9766 2.59306 20.9546 2.72486C20.9113 2.98492 20.8232 3.34312 20.6396 3.71041C20.4545 4.08063 20.165 4.47367 19.7168 4.77248C19.2639 5.07441 18.6937 5.25 18 5.25C17.5687 5.25 17.2952 5.35566 17.1152 5.4756C16.9306 5.59867 16.7982 5.76813 16.7021 5.96041C16.6045 6.15562 16.5519 6.35992 16.525 6.52174C16.5118 6.60087 16.5055 6.66517 16.5025 6.70676C16.501 6.72742 16.5004 6.74208 16.5001 6.74972L16.5 6.75524C16.4972 7.16704 16.1625 7.5 15.75 7.5C15.3358 7.5 15 7.16421 15 6.75H15.75C15 6.75 15 6.74962 15 6.74924L15 6.74843L15 6.74664L15 6.74242L15.0002 6.73145C15.0003 6.72304 15.0005 6.71242 15.001 6.69975C15.0018 6.67442 15.0034 6.64074 15.0063 6.59988C15.0121 6.51842 15.0234 6.40694 15.0454 6.27514C15.0887 6.01508 15.1768 5.65688 15.3604 5.28959C15.5455 4.91937 15.835 4.52633 16.2832 4.22752C16.7361 3.92559 17.3063 3.75 18 3.75C18.4313 3.75 18.7048 3.64434 18.8848 3.5244C19.0694 3.40133 19.2018 3.23187 19.2979 3.03959C19.3955 2.84438 19.4481 2.64008 19.475 2.47826C19.4882 2.39913 19.4945 2.33483 19.4975 2.29324C19.499 2.27258 19.4996 2.25792 19.4999 2.25028L19.5 2.24476C19.5028 1.83296 19.8375 1.5 20.25 1.5ZM19.5 2.24436V2.24436Z" />
<path fill-rule="evenodd" clip-rule="evenodd" d="M4.87006 13.8696C5.16295 13.5767 5.63783 13.5767 5.93072 13.8696L10.1307 18.0696C10.4236 18.3625 10.4236 18.8373 10.1307 19.1302C9.83783 19.4231 9.36295 19.4231 9.07006 19.1302L4.87006 14.9302C4.57717 14.6373 4.57717 14.1625 4.87006 13.8696Z" />
<path fill-rule="evenodd" clip-rule="evenodd" d="M13.5 0.75C13.9142 0.75 14.25 1.08579 14.25 1.5V3.75C14.25 4.16421 13.9142 4.5 13.5 4.5C13.0858 4.5 12.75 4.16421 12.75 3.75V1.5C12.75 1.08579 13.0858 0.75 13.5 0.75Z" />
<path fill-rule="evenodd" clip-rule="evenodd" d="M19.7197 9.96967C20.0126 9.67678 20.4874 9.67678 20.7803 9.96967L22.2803 11.4697C22.5732 11.7626 22.5732 12.2374 22.2803 12.5303C21.9874 12.8232 21.5126 12.8232 21.2197 12.5303L19.7197 11.0303C19.4268 10.7374 19.4268 10.2626 19.7197 9.96967Z" />
<path fill-rule="evenodd" clip-rule="evenodd" d="M23.2117 6.51279C23.3427 6.90575 23.1303 7.33049 22.7374 7.46147L20.4874 8.21147C20.0944 8.34246 19.6697 8.13009 19.5387 7.73713C19.4077 7.34417 19.6201 6.91943 20.013 6.78845L22.263 6.03845C22.656 5.90746 23.0807 6.11983 23.2117 6.51279Z" />
<path fill-rule="evenodd" clip-rule="evenodd" d="M6.66987 8.91962C6.96276 8.62673 7.43763 8.62673 7.73053 8.91962L15.0805 16.2696C15.3734 16.5625 15.3734 17.0374 15.0805 17.3303C14.7876 17.6232 14.3128 17.6232 14.0199 17.3303L6.66987 9.98028C6.37697 9.68739 6.37697 9.21251 6.66987 8.91962Z" />
</svg>
