<svg width="240" height="240" viewBox="0 0 240 240" fill="none" xmlns="http://www.w3.org/2000/svg">
<path d="M120.002 0L117.161 5.75441L110.811 6.67742L115.406 11.1594L114.32 17.4874L117.879 15.6149L120.109 51.5469L122.437 15.7782L125.684 17.4874L124.598 11.1594L129.198 6.67742L122.843 5.75441L120.002 0Z" fill="#C883DD"/>
<path d="M125.684 222.516L122.125 224.385L119.896 188.453L117.567 224.222L114.32 222.516L115.406 228.844L110.807 233.323L117.161 234.246L120.002 240L122.843 234.246L129.198 233.323L124.598 228.844L125.684 222.516Z" fill="#C883DD"/>
<path d="M17.4871 125.682L15.6184 122.123L51.5498 119.894L15.7817 117.565L17.4871 114.318L11.1631 115.404L6.68115 110.808L5.76191 117.159L0 120L5.76191 122.841L6.68115 129.192L11.1631 124.596L17.4871 125.682Z" fill="#C883DD"/>
<path d="M234.246 117.159L233.323 110.808L228.841 115.404L222.517 114.318L224.23 117.58L188.667 119.894L224.393 122.112L222.517 125.682L228.841 124.596L233.323 129.196L234.246 122.841L240 120L234.246 117.159Z" fill="#C883DD"/>
<path d="M39.7901 46.2861L43.4972 51.5278L44.6898 47.6878L71.6725 71.5222L48.0285 44.5807L51.5304 43.4944L46.2889 39.7872L46.3725 33.368L41.2296 37.2082L35.1524 35.1457L37.2111 41.2268L33.3711 46.3697L39.7901 46.2861Z" fill="#C883DD"/>
<path d="M200.213 193.714L196.506 188.472L195.461 191.83L168.691 168.33L192.476 195.26L188.473 196.509L193.714 200.213L193.631 206.632L198.774 202.792L204.851 204.85L202.792 198.777L206.632 193.63L200.213 193.714Z" fill="#C883DD"/>
<path d="M47.6905 195.313L71.5244 168.33L44.5835 191.974L43.4972 188.472L39.7901 193.714L33.3711 193.63L37.2111 198.777L35.1486 204.854L41.2296 202.792L46.3725 206.632L46.2889 200.213L51.5304 196.505L47.6905 195.313Z" fill="#C883DD"/>
<path d="M192.141 44.6338L168.539 71.5221L195.358 47.8358L196.509 51.5315L200.209 46.286L206.632 46.3696L202.792 41.2229L204.85 35.1456L198.773 37.2081L193.634 33.3718L193.714 39.7872L188.472 43.4943L192.141 44.6338Z" fill="#C883DD"/>
<path d="M75.0918 27.6706L77.4695 24.7839L93.4564 56.9062L81.6362 22.9341L85.5674 23.276L82.1186 17.8596L84.6254 11.9494L78.4115 13.5599L73.5649 9.35138L73.17 15.7553L67.6738 19.0636L73.6409 21.4186L75.0918 27.6706Z" fill="#C883DD"/>
<path d="M164.912 212.329L161.854 216.04L146.058 183.39L157.323 216.978L154.437 216.728L157.885 222.14L155.379 228.05L161.592 226.44L166.439 230.652L166.834 224.244L172.334 220.936L166.359 218.581L164.912 212.329Z" fill="#C883DD"/>
<path d="M24.7877 162.534L56.9095 146.546L22.9342 158.367L23.2798 154.436L17.8673 157.884L11.9534 155.381L13.5601 161.592L9.35547 166.442L15.7631 166.833L19.0675 172.333L21.4224 166.359L27.6744 164.915L24.7877 162.534Z" fill="#C883DD"/>
<path d="M216.28 78.3477L183.6 94.1562L216.952 82.9702L216.728 85.5645L222.137 82.1156L228.051 84.6225L226.444 78.4046L230.649 73.5618L224.241 73.1705L220.933 67.6706L218.581 73.6415L212.33 75.0887L216.28 78.3477Z" fill="#C883DD"/>
<path d="M11.6263 85.6328L17.5135 83.0728L22.9602 86.4684L22.5994 82.7461L56.6165 94.16L24.2364 78.492L27.2598 75.9509L20.9927 74.5646L18.5846 68.6125L15.3258 74.1467L8.92188 74.5949L13.1759 79.4036L11.6263 85.6328Z" fill="#C883DD"/>
<path d="M228.378 154.367L222.49 156.927L217.044 153.532L217.519 158.45L183.308 146.546L214.875 162.26L212.744 164.049L219.011 165.436L221.419 171.387L224.678 165.857L231.078 165.405L226.828 160.596L228.378 154.367Z" fill="#C883DD"/>
<path d="M78.4945 215.767L75.9573 212.747L74.5671 219.01L68.6152 221.419L74.1455 224.677L74.5975 231.081L79.4061 226.823L85.6352 228.377L83.0752 222.49L86.4746 217.043L82.7486 217.404L94.1622 183.39L78.4945 215.767Z" fill="#C883DD"/>
<path d="M162.459 25.3612L164.046 27.2565L165.437 20.9893L171.385 18.5812L165.855 15.3222L165.403 8.91827L160.598 13.1724L154.369 11.6227L156.929 17.5101L153.529 22.9568L158.744 22.4554L146.761 56.9024L162.459 25.3612Z" fill="#C883DD"/>
<path d="M101.535 12.0103C101.52 11.9077 101.497 11.7861 101.47 11.6836C101.106 10.2858 99.6738 9.4464 98.276 9.81484C96.8745 10.1833 96.0389 11.6152 96.4073 13.013L106.864 52.8421L101.535 12.0103Z" fill="#C883DD"/>
<path d="M133.147 187.2L138.473 228.035C138.488 228.138 138.511 228.256 138.537 228.362C138.902 229.76 140.334 230.596 141.735 230.223C143.133 229.859 143.969 228.431 143.604 227.033L133.147 187.2Z" fill="#C883DD"/>
<path d="M11.6683 138.555C10.2706 138.923 9.43121 140.351 9.79964 141.749C10.1681 143.147 11.6 143.986 12.9977 143.618L52.8262 133.161L11.995 138.49C11.8925 138.505 11.7709 138.524 11.6683 138.555Z" fill="#C883DD"/>
<path d="M27.6514 61.0388L63.2067 81.8117L30.5684 56.7049C30.4886 56.6404 30.3861 56.572 30.2949 56.5188C29.0453 55.7895 27.4425 56.2111 26.7132 57.457C25.9839 58.7066 26.4055 60.3095 27.6514 61.0388Z" fill="#C883DD"/>
<path d="M56.6892 209.458C56.6247 209.541 56.5563 209.64 56.5031 209.731C55.7738 210.981 56.1954 212.584 57.4451 213.313C58.6909 214.042 60.2975 213.621 61.023 212.375L81.7957 176.819L56.6892 209.458Z" fill="#C883DD"/>
<path d="M81.7494 63.2571L60.9502 27.7162C60.8933 27.625 60.8287 27.5263 60.7641 27.4427C59.8791 26.2956 58.2383 26.0829 57.0913 26.9641C55.948 27.8492 55.7315 29.49 56.6165 30.6371L81.7494 63.2571Z" fill="#C883DD"/>
<path d="M27.7006 179.075C27.6133 179.132 27.5107 179.197 27.4272 179.265C26.2801 180.142 26.0674 181.791 26.9486 182.934C27.8298 184.077 29.4783 184.294 30.6215 183.409L63.2408 158.279L27.7006 179.075Z" fill="#C883DD"/>
<path d="M12.6526 96.4468C11.2169 96.2645 9.90648 97.2748 9.71657 98.7068C9.53426 100.143 10.5446 101.453 11.9803 101.639L52.8152 106.934L12.9792 96.5113C12.8767 96.4848 12.759 96.462 12.6526 96.4468Z" fill="#C883DD"/>
<path d="M96.434 227.374C96.2441 228.81 97.2582 230.12 98.6901 230.307C100.126 230.493 101.436 229.482 101.622 228.047L106.913 187.211L96.4947 227.048C96.4682 227.15 96.4454 227.268 96.434 227.374Z" fill="#C883DD"/>
<path d="M227.147 96.0513L187.353 106.63L228.161 101.175C228.267 101.164 228.385 101.141 228.491 101.115C229.889 100.742 230.717 99.3065 230.349 97.9088C229.976 96.511 228.544 95.6829 227.147 96.0513Z" fill="#C883DD"/>
<path d="M183.251 30.3485C183.312 30.2649 183.38 30.1662 183.437 30.075C184.162 28.8216 183.733 27.2187 182.483 26.497C181.234 25.7677 179.631 26.1969 178.906 27.4466L158.243 63.0672L183.251 30.3485Z" fill="#C883DD"/>
<path d="M212.743 178.676L177.127 158.013L209.837 183.021C209.921 183.082 210.024 183.15 210.119 183.204C211.368 183.929 212.971 183.504 213.697 182.254C214.422 181.001 213.993 179.402 212.743 178.676Z" fill="#C883DD"/>
<path d="M142.753 9.93613C141.321 9.73862 139.996 10.73 139.795 12.1619L134.048 52.9406L144.915 13.2179C144.937 13.1191 144.964 13.0014 144.979 12.895C145.181 11.4631 144.182 10.1374 142.753 9.93613Z" fill="#C883DD"/>
<path d="M227.295 144.75C228.727 144.951 230.049 143.952 230.25 142.524C230.451 141.092 229.456 139.763 228.024 139.565L187.25 133.818L226.968 144.682C227.067 144.708 227.188 144.735 227.295 144.75Z" fill="#C883DD"/>
<path d="M213.166 61.958C213.257 61.9011 213.359 61.8403 213.443 61.7719C214.601 60.9021 214.833 59.2613 213.959 58.1066C213.09 56.9519 211.449 56.7202 210.294 57.59L177.401 82.3588L213.166 61.958Z" fill="#C883DD"/>
<path d="M157.833 177.168L178.233 212.937C178.287 213.028 178.351 213.127 178.42 213.214C179.289 214.369 180.93 214.601 182.085 213.731C183.24 212.861 183.467 211.22 182.598 210.066L157.833 177.168Z" fill="#C883DD"/>
</svg>
