<svg width="26" height="26" viewBox="0 0 26 26" fill="none" xmlns="http://www.w3.org/2000/svg">
<path fill-rule="evenodd" clip-rule="evenodd" d="M5 0H21C23.8 0 26 0.599988 26 1.29999V24.7C26 25.4 23.8 26 21 26H5C2.2 26 0 25.4 0 24.7V1.29999C0 0.599988 2.2 0 5 0Z" fill="#5DC482"/>
<path d="M12.4 16.4H11.3L9.3 11.1L7.3 16.4H6.09999L4.5 9.80005H5.39999L6.7 15.3L8.8 9.80005H9.7L11.8 15.3L13.1 9.80005H14L12.4 16.4Z" fill="#FEFEFE"/>
<path d="M18.0996 15.7001C16.5996 15.7001 15.4996 14.5001 15.4996 13.1001C15.4996 11.7001 16.6996 10.5001 18.0996 10.5001C19.1996 10.5001 20.1996 11.2001 20.5996 12.3001H21.4996C21.0996 10.8001 19.6996 9.6001 18.0996 9.6001C16.1996 9.6001 14.5996 11.2001 14.5996 13.1001C14.5996 15.0001 16.1996 16.6001 18.0996 16.6001C19.6996 16.6001 20.9996 15.5001 21.4996 14.1001H20.5996C20.0996 15.0001 19.1996 15.7001 18.0996 15.7001Z" fill="#FEFEFE"/>
</svg>
