<svg width="34" height="34" viewBox="0 0 34 34" xmlns="http://www.w3.org/2000/svg">
<path d="M27.6677 7.83468C28.0826 7.41974 28.0826 6.74701 27.6677 6.33207C27.2527 5.91714 26.58 5.91714 26.1651 6.33207L16.9997 15.4975L7.83431 6.33208C7.41938 5.91715 6.74664 5.91715 6.33171 6.33208C5.91677 6.74701 5.91677 7.41975 6.33171 7.83468L15.4971 17.0001L6.33175 26.1654C5.91681 26.5803 5.91681 27.2531 6.33175 27.668C6.74668 28.0829 7.41941 28.0829 7.83435 27.668L16.9997 18.5027L26.165 27.668C26.58 28.0829 27.2527 28.0829 27.6676 27.668C28.0826 27.2531 28.0826 26.5803 27.6676 26.1654L18.5023 17.0001L27.6677 7.83468Z"/>
</svg>
