<svg width="35" height="36" viewBox="0 0 35 36" xmlns="http://www.w3.org/2000/svg">
<path d="M2.50082 22.1671C2.61034 21.6718 2.68363 21.1656 2.83612 20.6836C3.58253 18.3253 5.12674 16.6787 7.43674 15.733C7.53531 15.6922 7.63389 15.6514 7.7611 15.5998C6.48057 14.6666 5.80158 13.4254 5.81 11.8687C5.81674 10.64 6.28765 9.57196 7.20087 8.72868C9.02563 7.04378 11.8419 7.12286 13.5201 8.84855C15.1999 10.5759 15.3701 13.7459 12.9001 15.559C13.6574 15.9752 14.4333 16.4023 15.2505 16.8518C15.8436 16.3174 16.6128 15.9911 17.494 15.9927C18.3651 15.9944 19.13 16.3057 19.7315 16.8535C20.5352 16.4114 21.3137 15.9836 22.0946 15.554C20.8402 14.615 20.1485 13.3305 20.2218 11.7014C20.28 10.4119 20.8419 9.34969 21.8385 8.5189C23.6894 6.97552 26.456 7.2136 28.0903 9.04252C29.6304 10.7665 29.675 13.8267 27.2605 15.5832C27.6919 15.7913 28.1375 15.9736 28.5503 16.2125C30.7087 17.462 31.9884 19.3234 32.4012 21.7542C32.5132 22.416 32.5789 23.0919 32.322 23.7504C32.0297 24.4996 31.4939 25.049 30.8561 25.5102C29.6944 26.351 28.3768 26.8671 27.0078 27.2717C24.9842 27.8703 22.9126 28.1899 20.8116 28.3622C18.7947 28.5279 16.7762 28.5454 14.7594 28.408C11.8546 28.2099 8.98688 27.7912 6.28092 26.6657C5.49828 26.3402 4.75184 25.9015 4.0425 25.4353C3.2607 24.9217 2.72578 24.1883 2.5 23.2651C2.5 22.8988 2.5 22.5325 2.5 22.1654L2.50082 22.1671ZM15.3415 21.7758C14.7973 21.2788 14.4165 20.6903 14.2547 19.971C14.0905 19.2401 14.1992 18.5409 14.4839 17.8707C12.5117 16.1634 9.33144 15.8845 7.05682 17.2081C5.16551 18.3086 4.0779 19.9386 3.72913 22.0797C3.56822 23.0653 3.84115 23.847 4.65496 24.4339C4.96077 24.6553 5.27334 24.8717 5.60359 25.0549C6.96668 25.8091 8.45106 26.2336 9.9641 26.5658C10.5858 26.7023 11.2143 26.8047 11.8419 26.9229C12.2025 24.1683 12.8588 23.2051 15.3415 21.7758ZM23.1409 26.9179C23.7365 26.8114 24.3162 26.7364 24.8815 26.6008C25.702 26.4035 26.52 26.1862 27.3246 25.9331C28.376 25.6018 29.3835 25.1623 30.2622 24.4855C30.8031 24.0692 31.2993 23.5906 31.2967 22.8572C31.2925 21.7442 31.0246 20.682 30.4543 19.713C28.8048 16.9109 25.6582 15.7238 22.5377 16.7278C21.7837 16.97 21.1031 17.353 20.5041 17.8608C21.1031 19.37 20.8107 20.6703 19.6489 21.7841C21.8351 22.8164 23.007 24.5055 23.1409 26.9188V26.9179ZM24.7028 15.1786C26.5318 15.1736 27.9825 13.7359 27.9825 11.9295C27.9825 10.1172 26.5108 8.67374 24.6708 8.67956C22.8554 8.68539 21.4004 10.1414 21.4072 11.947C21.4139 13.7526 22.8739 15.1836 24.7028 15.1786ZM10.2901 15.1786C12.1191 15.1786 13.574 13.7451 13.5774 11.9386C13.5808 10.1347 12.1233 8.68289 10.3053 8.67956C8.46793 8.67623 6.9987 10.1247 7.00207 11.9378C7.00459 13.7426 8.4612 15.1786 10.2893 15.1786H10.2901ZM21.9506 27.0744C21.8941 25.2838 21.1586 23.8994 19.5681 23.0794C17.9084 22.2237 16.2665 22.371 14.7686 23.4932C13.5825 24.3822 13.0551 25.6093 13.0433 27.0761C16.0256 27.4082 18.97 27.4091 21.9506 27.0744ZM17.5007 17.1798C16.3179 17.1765 15.3777 18.0947 15.3752 19.2551C15.3727 20.4256 16.296 21.3563 17.4696 21.3662C18.6616 21.3762 19.6043 20.453 19.6094 19.2718C19.6144 18.1097 18.681 17.184 17.5007 17.1806V17.1798Z" />
<path d="M30.3539 22.5958C30.332 22.7748 30.337 22.9629 30.2806 23.1311C30.2022 23.3675 29.9074 23.5082 29.6664 23.4649C29.3648 23.4108 29.1635 23.2143 29.1576 22.8846C29.1399 21.8998 28.829 21.0224 28.2486 20.2249C28.0236 19.9153 28.0902 19.5806 28.3666 19.3841C28.6479 19.1835 28.9874 19.2535 29.2284 19.5748C29.8998 20.4713 30.2764 21.4745 30.3539 22.5966V22.5958Z" />
<path d="M27.9741 18.7215C27.9716 19.0495 27.7365 19.2942 27.4181 19.2992C27.0878 19.3042 26.8385 19.0503 26.8418 18.7124C26.8452 18.3869 27.0844 18.1371 27.3987 18.1305C27.7205 18.1238 27.9757 18.386 27.9732 18.7223L27.9741 18.7215Z" />
</svg>
