<svg width="17" height="18" viewBox="0 0 17 18" xmlns="http://www.w3.org/2000/svg">
<path fill-rule="evenodd" clip-rule="evenodd" d="M8.49967 3.375C5.78427 3.375 3.58301 5.57627 3.58301 8.29167C3.58301 10.8922 5.63937 13.1629 8.49967 14.547C11.36 13.1629 13.4163 10.8922 13.4163 8.29167C13.4163 5.57627 11.2151 3.375 8.49967 3.375ZM2.08301 8.29167C2.08301 4.74784 4.95585 1.875 8.49967 1.875C12.0435 1.875 14.9163 4.74784 14.9163 8.29167C14.9163 11.8575 12.048 14.5921 8.80896 16.0583C8.61237 16.1472 8.38698 16.1472 8.19039 16.0583C4.95134 14.5921 2.08301 11.8575 2.08301 8.29167ZM8.49967 6.91667C7.74028 6.91667 7.12467 7.53228 7.12467 8.29167C7.12467 9.05106 7.74028 9.66667 8.49967 9.66667C9.25907 9.66667 9.87467 9.05106 9.87467 8.29167C9.87467 7.53228 9.25907 6.91667 8.49967 6.91667ZM5.62467 8.29167C5.62467 6.70385 6.91186 5.41667 8.49967 5.41667C10.0875 5.41667 11.3747 6.70385 11.3747 8.29167C11.3747 9.87949 10.0875 11.1667 8.49967 11.1667C6.91186 11.1667 5.62467 9.87949 5.62467 8.29167Z"/>
</svg>
