<svg xmlns="http://www.w3.org/2000/svg" xmlns:xlink="http://www.w3.org/1999/xlink"><defs><style>
    .sprite-symbol-usage {display: none;}
    .sprite-symbol-usage:target {display: inline;}
  </style><symbol viewBox="0 0 24 25" id="icon-arrow-circle">
<path d="M22 12.5C22 6.98 17.52 2.5 12 2.5C6.48 2.5 2 6.98 2 12.5C2 18.02 6.48 22.5 12 22.5C17.52 22.5 22 18.02 22 12.5ZM4 12.5C4 8.08 7.58 4.5 12 4.5C16.42 4.5 20 8.08 20 12.5C20 16.92 16.42 20.5 12 20.5C7.58 20.5 4 16.92 4 12.5ZM16 12.5L12 16.5L10.59 15.09L12.17 13.5H8V11.5H12.17L10.58 9.91L12 8.5L16 12.5Z" />
</symbol><symbol viewBox="0 0 21 21" id="icon-arrow-right">
<path d="M2.625 9.625H15.0238L11.8913 6.48375L13.125 5.25L18.375 10.5L13.125 15.75L11.8913 14.5163L15.0238 11.375H2.625V9.625Z" />
</symbol><symbol viewBox="0 0 26 26" fill="none" id="icon-bus">
<path fill-rule="evenodd" clip-rule="evenodd" d="M5 0H21C23.8 0 26 0.599988 26 1.29999V24.7C26 25.4 23.8 26 21 26H5C2.2 26 0 25.4 0 24.7V1.29999C0 0.499988 2.2 0 5 0Z" fill="#4C2BEF" />
<path d="M18.7984 10.3H6.89844V9.5H18.7984V10.3Z" fill="#FEFEFE" />
<path d="M18.7984 14.8H6.89844V14H18.7984V14.8Z" fill="#FEFEFE" />
<path d="M12.498 14.5999V9.8999H13.298V14.5999H12.498Z" fill="#FEFEFE" />
<path d="M8.79767 20.3H7.09766V19.5H8.79767V20.3Z" fill="#FEFEFE" />
<path d="M18.698 20.3H16.998V19.5H18.698V20.3Z" fill="#FEFEFE" />
<path d="M19.2988 11.4V9.5H20.0988V11.4H19.2988Z" fill="#FEFEFE" />
<path d="M5.59766 11.4V9.5H6.39767V11.4H5.59766Z" fill="#FEFEFE" />
<path d="M17.4988 16.9999H15.7988V16.2H17.4988V16.9999Z" fill="#FEFEFE" />
<path d="M9.99884 16.9999H8.29883V16.2H9.99884V16.9999Z" fill="#FEFEFE" />
<path d="M18.9988 19.6H6.69882V18.8H18.9988L19.3988 19.2L18.9988 19.6ZM19.4988 19.2V19.6H19.0988L19.4988 19.2ZM19.4988 7.79999V19.2H18.6988V7.79999L19.0988 7.39996L19.4988 7.79999ZM18.9988 7.39996H19.3988V7.79999L18.9988 7.39996ZM18.2988 7.39996H19.0988V8.20001H18.2988L17.8988 7.70001L18.2988 7.39996ZM18.2988 8.20001H17.7988L17.8988 7.70001L18.2988 8.20001ZM18.8988 6.79999L18.6988 7.79999L17.8988 7.70001L18.0988 6.70001L18.5988 6.39996L18.8988 6.79999ZM18.4988 6.39996L18.8988 6.5L18.7988 6.89996L18.4988 6.39996ZM7.69882 6.70001L6.89883 6.79999L7.19882 6.29999L7.49884 6.20001L7.79883 6.09998L8.09882 6H8.39883H8.69882H9.09882H9.49884H9.89883H10.2988H10.6988H11.0988H11.4988H11.8988H12.2988H12.6988H13.0988H13.4988H13.8988H14.2988H14.6988H15.0988H15.4988H15.8988H16.2988H16.6988H17.0988H17.3988H17.6988L17.9988 6.09998H18.2988L18.5988 6.20001L18.8988 6.29999L18.6988 7.09998L18.3988 7H18.0988L17.7988 6.89996H17.4988H17.1988H16.8988H16.5988H16.1988H15.7988H15.3988H14.9988H14.5988H14.1988H13.7988H13.2988H12.8988H12.4988H12.0988H11.6988H11.2988H10.8988H10.4988H10.0988H9.69882H9.29883H8.99884H8.69882H8.39883H8.09882H7.79883L7.49884 7L7.19882 7.09998L7.69882 6.70001ZM6.79883 6.79999L6.69882 6.39996L7.09882 6.29999L6.79883 6.79999ZM6.99884 7.89996L6.79883 6.89996L7.59882 6.79999L7.79883 7.79999L7.39883 8.29999L6.99884 7.89996ZM7.79883 7.70001L7.89883 8.20001H7.39883L7.79883 7.70001ZM6.69882 7.39996H7.39883V8.20001H6.69882L6.29883 7.79999L6.69882 7.39996ZM6.29883 7.79999V7.39996H6.69882L6.29883 7.79999ZM6.29883 19.2V7.79999H7.09882V19.2L6.69882 19.6L6.29883 19.2ZM6.69882 19.6H6.29883V19.2L6.69882 19.6Z" fill="#FEFEFE" />
<path d="M21.9984 21.1H3.89844V20.3H21.9984V21.1Z" fill="#FEFEFE" />
</symbol><symbol viewBox="0 0 24 24" id="icon-confetti">
<path fill-rule="evenodd" clip-rule="evenodd" d="M8.9795 4.39749C9.22644 4.34324 9.48308 4.35228 9.72558 4.42378C9.96748 4.4951 10.1875 4.62626 10.3652 4.80511C10.3657 4.80556 10.3661 4.80601 10.3666 4.80646L19.1933 13.6331C19.1938 13.6336 19.1942 13.6341 19.1947 13.6346C19.3735 13.8123 19.5046 14.0323 19.5759 14.2741C19.6474 14.5166 19.6565 14.7733 19.6022 15.0202C19.548 15.2672 19.4322 15.4964 19.2656 15.6866C19.0991 15.8768 18.8871 16.0218 18.6495 16.1081L18.6494 16.1082L4.76994 21.1502C4.50297 21.2507 4.21269 21.2726 3.93359 21.213C3.6521 21.153 3.39402 21.0127 3.1905 20.8092C2.98698 20.6057 2.84674 20.3476 2.7867 20.0661C2.72717 19.787 2.74902 19.4968 2.84956 19.2298L7.89155 5.3503L7.89158 5.35021C7.97794 5.11259 8.12295 4.90065 8.31315 4.73409C8.50335 4.56753 8.73257 4.45174 8.9795 4.39749ZM9.83398 5.3345L9.30137 5.86255L4.26037 19.7394L18.1372 14.6984L18.1349 14.6961L9.30365 5.86483L9.30137 5.86255" />
<path fill-rule="evenodd" clip-rule="evenodd" d="M20.25 1.5C20.6642 1.5 21 1.83579 21 2.25H20.25C21 2.25 21 2.25038 21 2.25076L21 2.25157L21 2.25336L21 2.25758L20.9998 2.26855C20.9997 2.27696 20.9995 2.28758 20.999 2.30025C20.9982 2.32558 20.9966 2.35926 20.9937 2.40011C20.9879 2.48158 20.9766 2.59306 20.9546 2.72486C20.9113 2.98492 20.8232 3.34312 20.6396 3.71041C20.4545 4.08063 20.165 4.47367 19.7168 4.77248C19.2639 5.07441 18.6937 5.25 18 5.25C17.5687 5.25 17.2952 5.35566 17.1152 5.4756C16.9306 5.59867 16.7982 5.76813 16.7021 5.96041C16.6045 6.15562 16.5519 6.35992 16.525 6.52174C16.5118 6.60087 16.5055 6.66517 16.5025 6.70676C16.501 6.72742 16.5004 6.74208 16.5001 6.74972L16.5 6.75524C16.4972 7.16704 16.1625 7.5 15.75 7.5C15.3358 7.5 15 7.16421 15 6.75H15.75C15 6.75 15 6.74962 15 6.74924L15 6.74843L15 6.74664L15 6.74242L15.0002 6.73145C15.0003 6.72304 15.0005 6.71242 15.001 6.69975C15.0018 6.67442 15.0034 6.64074 15.0063 6.59988C15.0121 6.51842 15.0234 6.40694 15.0454 6.27514C15.0887 6.01508 15.1768 5.65688 15.3604 5.28959C15.5455 4.91937 15.835 4.52633 16.2832 4.22752C16.7361 3.92559 17.3063 3.75 18 3.75C18.4313 3.75 18.7048 3.64434 18.8848 3.5244C19.0694 3.40133 19.2018 3.23187 19.2979 3.03959C19.3955 2.84438 19.4481 2.64008 19.475 2.47826C19.4882 2.39913 19.4945 2.33483 19.4975 2.29324C19.499 2.27258 19.4996 2.25792 19.4999 2.25028L19.5 2.24476C19.5028 1.83296 19.8375 1.5 20.25 1.5ZM19.5 2.24436V2.24436Z" />
<path fill-rule="evenodd" clip-rule="evenodd" d="M4.87006 13.8696C5.16295 13.5767 5.63783 13.5767 5.93072 13.8696L10.1307 18.0696C10.4236 18.3625 10.4236 18.8373 10.1307 19.1302C9.83783 19.4231 9.36295 19.4231 9.07006 19.1302L4.87006 14.9302C4.57717 14.6373 4.57717 14.1625 4.87006 13.8696Z" />
<path fill-rule="evenodd" clip-rule="evenodd" d="M13.5 0.75C13.9142 0.75 14.25 1.08579 14.25 1.5V3.75C14.25 4.16421 13.9142 4.5 13.5 4.5C13.0858 4.5 12.75 4.16421 12.75 3.75V1.5C12.75 1.08579 13.0858 0.75 13.5 0.75Z" />
<path fill-rule="evenodd" clip-rule="evenodd" d="M19.7197 9.96967C20.0126 9.67678 20.4874 9.67678 20.7803 9.96967L22.2803 11.4697C22.5732 11.7626 22.5732 12.2374 22.2803 12.5303C21.9874 12.8232 21.5126 12.8232 21.2197 12.5303L19.7197 11.0303C19.4268 10.7374 19.4268 10.2626 19.7197 9.96967Z" />
<path fill-rule="evenodd" clip-rule="evenodd" d="M23.2117 6.51279C23.3427 6.90575 23.1303 7.33049 22.7374 7.46147L20.4874 8.21147C20.0944 8.34246 19.6697 8.13009 19.5387 7.73713C19.4077 7.34417 19.6201 6.91943 20.013 6.78845L22.263 6.03845C22.656 5.90746 23.0807 6.11983 23.2117 6.51279Z" />
<path fill-rule="evenodd" clip-rule="evenodd" d="M6.66987 8.91962C6.96276 8.62673 7.43763 8.62673 7.73053 8.91962L15.0805 16.2696C15.3734 16.5625 15.3734 17.0374 15.0805 17.3303C14.7876 17.6232 14.3128 17.6232 14.0199 17.3303L6.66987 9.98028C6.37697 9.68739 6.37697 9.21251 6.66987 8.91962Z" />
</symbol><symbol viewBox="0 0 34 34" id="icon-cross">
<path d="M27.6677 7.83468C28.0826 7.41974 28.0826 6.74701 27.6677 6.33207C27.2527 5.91714 26.58 5.91714 26.1651 6.33207L16.9997 15.4975L7.83431 6.33208C7.41938 5.91715 6.74664 5.91715 6.33171 6.33208C5.91677 6.74701 5.91677 7.41975 6.33171 7.83468L15.4971 17.0001L6.33175 26.1654C5.91681 26.5803 5.91681 27.2531 6.33175 27.668C6.74668 28.0829 7.41941 28.0829 7.83435 27.668L16.9997 18.5027L26.165 27.668C26.58 28.0829 27.2527 28.0829 27.6676 27.668C28.0826 27.2531 28.0826 26.5803 27.6676 26.1654L18.5023 17.0001L27.6677 7.83468Z" />
</symbol><symbol viewBox="0 0 24 24" id="icon-eye">
<path fill-rule="evenodd" clip-rule="evenodd" d="M3.40717 8.09467C5.19504 6.3068 8.00057 4.5 12 4.5C15.9994 4.5 18.805 6.3068 20.5928 8.09467C21.4846 8.98644 22.1276 9.87691 22.5487 10.5457C22.7597 10.8807 22.916 11.1618 23.0208 11.362C23.0733 11.4621 23.113 11.5422 23.1402 11.5988C23.1539 11.6272 23.1644 11.6497 23.1719 11.6659L23.1809 11.6855L23.1837 11.6917L23.1847 11.6938L23.185 11.6947C23.1852 11.6951 23.1854 11.6954 22.5 12C23.1854 12.3046 23.1852 12.3049 23.185 12.3053L23.1847 12.3062L23.1837 12.3083L23.1809 12.3145L23.1719 12.3341C23.1644 12.3503 23.1539 12.3728 23.1402 12.4012C23.113 12.4578 23.0733 12.5379 23.0208 12.638C22.916 12.8382 22.7597 13.1193 22.5487 13.4543C22.1276 14.1231 21.4846 15.0136 20.5928 15.9053C18.805 17.6932 15.9994 19.5 12 19.5C8.00057 19.5 5.19504 17.6932 3.40717 15.9053C2.5154 15.0136 1.87235 14.1231 1.45126 13.4543C1.24035 13.1193 1.08405 12.8382 0.979181 12.638C0.92672 12.5379 0.887047 12.4578 0.859771 12.4012C0.846131 12.3728 0.835583 12.3503 0.82808 12.3341L0.819098 12.3145L0.816307 12.3083L0.815334 12.3062L0.814952 12.3053C0.814791 12.3049 0.814641 12.3046 1.5 12C0.814641 11.6954 0.814791 11.6951 0.814952 11.6947L0.815334 11.6938L0.816307 11.6917L0.819098 11.6855L0.82808 11.6659C0.835583 11.6497 0.846131 11.6272 0.859771 11.5988C0.887047 11.5422 0.92672 11.4621 0.979181 11.362C1.08405 11.1618 1.24035 10.8807 1.45126 10.5457C1.87235 9.87691 2.5154 8.98644 3.40717 8.09467ZM1.5 12L0.814641 11.6954C0.728453 11.8893 0.728453 12.1107 0.814641 12.3046L1.5 12ZM2.33859 12C2.42682 12.1653 2.55353 12.3897 2.72061 12.6551C3.0964 13.2519 3.6721 14.0489 4.46783 14.8447C6.05496 16.4318 8.49943 18 12 18C15.5006 18 17.945 16.4318 19.5322 14.8447C20.3279 14.0489 20.9036 13.2519 21.2794 12.6551C21.4465 12.3897 21.5732 12.1653 21.6614 12C21.5732 11.8347 21.4465 11.6103 21.2794 11.3449C20.9036 10.7481 20.3279 9.95106 19.5322 9.15533C17.945 7.5682 15.5006 6 12 6C8.49943 6 6.05496 7.5682 4.46783 9.15533C3.6721 9.95106 3.0964 10.7481 2.72061 11.3449C2.55353 11.6103 2.42682 11.8347 2.33859 12ZM22.5 12L23.1854 12.3046C23.2715 12.1107 23.2715 11.8893 23.1854 11.6954L22.5 12Z" />
<path fill-rule="evenodd" clip-rule="evenodd" d="M12 9C10.3431 9 9 10.3431 9 12C9 13.6569 10.3431 15 12 15C13.6569 15 15 13.6569 15 12C15 10.3431 13.6569 9 12 9ZM7.5 12C7.5 9.51472 9.51472 7.5 12 7.5C14.4853 7.5 16.5 9.51472 16.5 12C16.5 14.4853 14.4853 16.5 12 16.5C9.51472 16.5 7.5 14.4853 7.5 12Z" />
</symbol><symbol viewBox="0 0 35 36" id="icon-family">
<path d="M2.50082 22.1671C2.61034 21.6718 2.68363 21.1656 2.83612 20.6836C3.58253 18.3253 5.12674 16.6787 7.43674 15.733C7.53531 15.6922 7.63389 15.6514 7.7611 15.5998C6.48057 14.6666 5.80158 13.4254 5.81 11.8687C5.81674 10.64 6.28765 9.57196 7.20087 8.72868C9.02563 7.04378 11.8419 7.12286 13.5201 8.84855C15.1999 10.5759 15.3701 13.7459 12.9001 15.559C13.6574 15.9752 14.4333 16.4023 15.2505 16.8518C15.8436 16.3174 16.6128 15.9911 17.494 15.9927C18.3651 15.9944 19.13 16.3057 19.7315 16.8535C20.5352 16.4114 21.3137 15.9836 22.0946 15.554C20.8402 14.615 20.1485 13.3305 20.2218 11.7014C20.28 10.4119 20.8419 9.34969 21.8385 8.5189C23.6894 6.97552 26.456 7.2136 28.0903 9.04252C29.6304 10.7665 29.675 13.8267 27.2605 15.5832C27.6919 15.7913 28.1375 15.9736 28.5503 16.2125C30.7087 17.462 31.9884 19.3234 32.4012 21.7542C32.5132 22.416 32.5789 23.0919 32.322 23.7504C32.0297 24.4996 31.4939 25.049 30.8561 25.5102C29.6944 26.351 28.3768 26.8671 27.0078 27.2717C24.9842 27.8703 22.9126 28.1899 20.8116 28.3622C18.7947 28.5279 16.7762 28.5454 14.7594 28.408C11.8546 28.2099 8.98688 27.7912 6.28092 26.6657C5.49828 26.3402 4.75184 25.9015 4.0425 25.4353C3.2607 24.9217 2.72578 24.1883 2.5 23.2651C2.5 22.8988 2.5 22.5325 2.5 22.1654L2.50082 22.1671ZM15.3415 21.7758C14.7973 21.2788 14.4165 20.6903 14.2547 19.971C14.0905 19.2401 14.1992 18.5409 14.4839 17.8707C12.5117 16.1634 9.33144 15.8845 7.05682 17.2081C5.16551 18.3086 4.0779 19.9386 3.72913 22.0797C3.56822 23.0653 3.84115 23.847 4.65496 24.4339C4.96077 24.6553 5.27334 24.8717 5.60359 25.0549C6.96668 25.8091 8.45106 26.2336 9.9641 26.5658C10.5858 26.7023 11.2143 26.8047 11.8419 26.9229C12.2025 24.1683 12.8588 23.2051 15.3415 21.7758ZM23.1409 26.9179C23.7365 26.8114 24.3162 26.7364 24.8815 26.6008C25.702 26.4035 26.52 26.1862 27.3246 25.9331C28.376 25.6018 29.3835 25.1623 30.2622 24.4855C30.8031 24.0692 31.2993 23.5906 31.2967 22.8572C31.2925 21.7442 31.0246 20.682 30.4543 19.713C28.8048 16.9109 25.6582 15.7238 22.5377 16.7278C21.7837 16.97 21.1031 17.353 20.5041 17.8608C21.1031 19.37 20.8107 20.6703 19.6489 21.7841C21.8351 22.8164 23.007 24.5055 23.1409 26.9188V26.9179ZM24.7028 15.1786C26.5318 15.1736 27.9825 13.7359 27.9825 11.9295C27.9825 10.1172 26.5108 8.67374 24.6708 8.67956C22.8554 8.68539 21.4004 10.1414 21.4072 11.947C21.4139 13.7526 22.8739 15.1836 24.7028 15.1786ZM10.2901 15.1786C12.1191 15.1786 13.574 13.7451 13.5774 11.9386C13.5808 10.1347 12.1233 8.68289 10.3053 8.67956C8.46793 8.67623 6.9987 10.1247 7.00207 11.9378C7.00459 13.7426 8.4612 15.1786 10.2893 15.1786H10.2901ZM21.9506 27.0744C21.8941 25.2838 21.1586 23.8994 19.5681 23.0794C17.9084 22.2237 16.2665 22.371 14.7686 23.4932C13.5825 24.3822 13.0551 25.6093 13.0433 27.0761C16.0256 27.4082 18.97 27.4091 21.9506 27.0744ZM17.5007 17.1798C16.3179 17.1765 15.3777 18.0947 15.3752 19.2551C15.3727 20.4256 16.296 21.3563 17.4696 21.3662C18.6616 21.3762 19.6043 20.453 19.6094 19.2718C19.6144 18.1097 18.681 17.184 17.5007 17.1806V17.1798Z" />
<path d="M30.3539 22.5958C30.332 22.7748 30.337 22.9629 30.2806 23.1311C30.2022 23.3675 29.9074 23.5082 29.6664 23.4649C29.3648 23.4108 29.1635 23.2143 29.1576 22.8846C29.1399 21.8998 28.829 21.0224 28.2486 20.2249C28.0236 19.9153 28.0902 19.5806 28.3666 19.3841C28.6479 19.1835 28.9874 19.2535 29.2284 19.5748C29.8998 20.4713 30.2764 21.4745 30.3539 22.5966V22.5958Z" />
<path d="M27.9741 18.7215C27.9716 19.0495 27.7365 19.2942 27.4181 19.2992C27.0878 19.3042 26.8385 19.0503 26.8418 18.7124C26.8452 18.3869 27.0844 18.1371 27.3987 18.1305C27.7205 18.1238 27.9757 18.386 27.9732 18.7223L27.9741 18.7215Z" />
</symbol><symbol viewBox="0 0 17 18" id="icon-location">
<path fill-rule="evenodd" clip-rule="evenodd" d="M8.49967 3.375C5.78427 3.375 3.58301 5.57627 3.58301 8.29167C3.58301 10.8922 5.63937 13.1629 8.49967 14.547C11.36 13.1629 13.4163 10.8922 13.4163 8.29167C13.4163 5.57627 11.2151 3.375 8.49967 3.375ZM2.08301 8.29167C2.08301 4.74784 4.95585 1.875 8.49967 1.875C12.0435 1.875 14.9163 4.74784 14.9163 8.29167C14.9163 11.8575 12.048 14.5921 8.80896 16.0583C8.61237 16.1472 8.38698 16.1472 8.19039 16.0583C4.95134 14.5921 2.08301 11.8575 2.08301 8.29167ZM8.49967 6.91667C7.74028 6.91667 7.12467 7.53228 7.12467 8.29167C7.12467 9.05106 7.74028 9.66667 8.49967 9.66667C9.25907 9.66667 9.87467 9.05106 9.87467 8.29167C9.87467 7.53228 9.25907 6.91667 8.49967 6.91667ZM5.62467 8.29167C5.62467 6.70385 6.91186 5.41667 8.49967 5.41667C10.0875 5.41667 11.3747 6.70385 11.3747 8.29167C11.3747 9.87949 10.0875 11.1667 8.49967 11.1667C6.91186 11.1667 5.62467 9.87949 5.62467 8.29167Z" />
</symbol><symbol viewBox="0 0 24 24" fill="none" id="icon-mail">
<path fill-rule="evenodd" clip-rule="evenodd" d="M4 4H20C21.1 4 22 4.9 22 6V18C22 19.1 21.1 20 20 20H4C2.9 20 2 19.1 2 18V6C2 4.9 2.9 4 4 4Z" stroke="#5AC38A" stroke-width="2" stroke-linecap="round" stroke-linejoin="round" />
<path d="M22 6L12 13L2 6" stroke="#5AC38A" stroke-width="2" stroke-linecap="round" stroke-linejoin="round" />
</symbol><symbol viewBox="0 0 26 26" fill="none" id="icon-parking">
<path fill-rule="evenodd" clip-rule="evenodd" d="M5 0H21C23.8 0 26 0.599988 26 1.29999V24.7C26 25.4 23.8 26 21 26H5C2.2 26 0 25.4 0 24.7V1.29999C0 0.599988 2.2 0 5 0Z" fill="#00A0E3" />
<path d="M10.2984 13.6002H14.0984C14.8984 13.6002 15.5984 13.3002 16.0984 12.8002C16.5984 12.3002 16.8984 11.6002 16.8984 10.8002C16.8984 10.0002 16.5984 9.30017 16.0984 8.80017C15.5984 8.30017 14.8984 8.00018 14.0984 8.00018H10.2984V13.6002ZM9.49844 6.90015H14.0984C15.0984 6.90015 16.0984 7.30018 16.7984 8.00018C17.4984 8.70018 17.8984 9.60013 17.8984 10.7001C17.8984 11.8001 17.4984 12.7001 16.7984 13.4001C16.0984 14.1001 15.1984 14.5002 14.0984 14.5002H10.2984V19.2001H9.39844V7.00018L9.49844 6.90015Z" fill="#FEFEFE" />
</symbol><symbol viewBox="0 0 24 24" fill="none" id="icon-pin">
<path fill-rule="evenodd" clip-rule="evenodd" d="M21 10C21 17 12 23 12 23C12 23 3 17 3 10C3 5.02944 7.02944 1 12 1C16.9706 1 21 5.02944 21 10V10Z" stroke="#5AC38A" stroke-width="2" stroke-linecap="round" stroke-linejoin="round" />
<path fill-rule="evenodd" clip-rule="evenodd" d="M12 13C13.6569 13 15 11.6569 15 10C15 8.34315 13.6569 7 12 7C10.3431 7 9 8.34315 9 10C9 11.6569 10.3431 13 12 13Z" stroke="#5AC38A" stroke-width="2" stroke-linecap="round" stroke-linejoin="round" />
</symbol><symbol viewBox="0 0 25 25" fill="none" id="icon-refresh">
<path d="M9.04661 20.2675C11.4457 21.3319 14.3032 21.2741 16.7502 19.8613C20.8157 17.5141 22.2086 12.3156 19.8614 8.25008L19.6114 7.81706M5.13851 16.7502C2.7913 12.6847 4.18424 7.48619 8.24972 5.13898C10.6967 3.72621 13.5542 3.66841 15.9533 4.73277M2.99341 16.8338L5.72546 17.5659L6.45751 14.8338M18.5426 10.1659L19.2747 7.43385L22.0067 8.1659" stroke="#4C2BEF" stroke-width="2" stroke-linecap="round" stroke-linejoin="round" />
</symbol><symbol viewBox="0 0 21 23" id="icon-search">
<path fill-rule="evenodd" clip-rule="evenodd" d="M10.1074 2C5.63605 2 2 5.6507 2 10.1681C2 14.6855 5.63605 18.3362 10.1074 18.3362C14.5787 18.3362 18.2147 14.6855 18.2147 10.1681C18.2147 5.6507 14.5787 2 10.1074 2ZM0 10.1681C0 4.55869 4.51897 0 10.1074 0C15.6958 0 20.2147 4.55869 20.2147 10.1681C20.2147 13.0906 18.9881 15.7279 17.0227 17.5839L20.7095 21.2952C21.0987 21.6871 21.0966 22.3202 20.7048 22.7095C20.3129 23.0987 19.6798 23.0966 19.2905 22.7048L15.4272 18.8157C13.8827 19.7794 12.0603 20.3362 10.1074 20.3362C4.51897 20.3362 0 15.7775 0 10.1681Z" />
</symbol><symbol viewBox="0 0 240 240" fill="none" id="icon-stars-1">
<path d="M120.002 0L117.161 5.75441L110.811 6.67742L115.406 11.1594L114.32 17.4874L117.879 15.6149L120.109 51.5469L122.437 15.7782L125.684 17.4874L124.598 11.1594L129.198 6.67742L122.843 5.75441L120.002 0Z" fill="#C883DD" />
<path d="M125.684 222.516L122.125 224.385L119.896 188.453L117.567 224.222L114.32 222.516L115.406 228.844L110.807 233.323L117.161 234.246L120.002 240L122.843 234.246L129.198 233.323L124.598 228.844L125.684 222.516Z" fill="#C883DD" />
<path d="M17.4871 125.682L15.6184 122.123L51.5498 119.894L15.7817 117.565L17.4871 114.318L11.1631 115.404L6.68115 110.808L5.76191 117.159L0 120L5.76191 122.841L6.68115 129.192L11.1631 124.596L17.4871 125.682Z" fill="#C883DD" />
<path d="M234.246 117.159L233.323 110.808L228.841 115.404L222.517 114.318L224.23 117.58L188.667 119.894L224.393 122.112L222.517 125.682L228.841 124.596L233.323 129.196L234.246 122.841L240 120L234.246 117.159Z" fill="#C883DD" />
<path d="M39.7901 46.2861L43.4972 51.5278L44.6898 47.6878L71.6725 71.5222L48.0285 44.5807L51.5304 43.4944L46.2889 39.7872L46.3725 33.368L41.2296 37.2082L35.1524 35.1457L37.2111 41.2268L33.3711 46.3697L39.7901 46.2861Z" fill="#C883DD" />
<path d="M200.213 193.714L196.506 188.472L195.461 191.83L168.691 168.33L192.476 195.26L188.473 196.509L193.714 200.213L193.631 206.632L198.774 202.792L204.851 204.85L202.792 198.777L206.632 193.63L200.213 193.714Z" fill="#C883DD" />
<path d="M47.6905 195.313L71.5244 168.33L44.5835 191.974L43.4972 188.472L39.7901 193.714L33.3711 193.63L37.2111 198.777L35.1486 204.854L41.2296 202.792L46.3725 206.632L46.2889 200.213L51.5304 196.505L47.6905 195.313Z" fill="#C883DD" />
<path d="M192.141 44.6338L168.539 71.5221L195.358 47.8358L196.509 51.5315L200.209 46.286L206.632 46.3696L202.792 41.2229L204.85 35.1456L198.773 37.2081L193.634 33.3718L193.714 39.7872L188.472 43.4943L192.141 44.6338Z" fill="#C883DD" />
<path d="M75.0918 27.6706L77.4695 24.7839L93.4564 56.9062L81.6362 22.9341L85.5674 23.276L82.1186 17.8596L84.6254 11.9494L78.4115 13.5599L73.5649 9.35138L73.17 15.7553L67.6738 19.0636L73.6409 21.4186L75.0918 27.6706Z" fill="#C883DD" />
<path d="M164.912 212.329L161.854 216.04L146.058 183.39L157.323 216.978L154.437 216.728L157.885 222.14L155.379 228.05L161.592 226.44L166.439 230.652L166.834 224.244L172.334 220.936L166.359 218.581L164.912 212.329Z" fill="#C883DD" />
<path d="M24.7877 162.534L56.9095 146.546L22.9342 158.367L23.2798 154.436L17.8673 157.884L11.9534 155.381L13.5601 161.592L9.35547 166.442L15.7631 166.833L19.0675 172.333L21.4224 166.359L27.6744 164.915L24.7877 162.534Z" fill="#C883DD" />
<path d="M216.28 78.3477L183.6 94.1562L216.952 82.9702L216.728 85.5645L222.137 82.1156L228.051 84.6225L226.444 78.4046L230.649 73.5618L224.241 73.1705L220.933 67.6706L218.581 73.6415L212.33 75.0887L216.28 78.3477Z" fill="#C883DD" />
<path d="M11.6263 85.6328L17.5135 83.0728L22.9602 86.4684L22.5994 82.7461L56.6165 94.16L24.2364 78.492L27.2598 75.9509L20.9927 74.5646L18.5846 68.6125L15.3258 74.1467L8.92188 74.5949L13.1759 79.4036L11.6263 85.6328Z" fill="#C883DD" />
<path d="M228.378 154.367L222.49 156.927L217.044 153.532L217.519 158.45L183.308 146.546L214.875 162.26L212.744 164.049L219.011 165.436L221.419 171.387L224.678 165.857L231.078 165.405L226.828 160.596L228.378 154.367Z" fill="#C883DD" />
<path d="M78.4945 215.767L75.9573 212.747L74.5671 219.01L68.6152 221.419L74.1455 224.677L74.5975 231.081L79.4061 226.823L85.6352 228.377L83.0752 222.49L86.4746 217.043L82.7486 217.404L94.1622 183.39L78.4945 215.767Z" fill="#C883DD" />
<path d="M162.459 25.3612L164.046 27.2565L165.437 20.9893L171.385 18.5812L165.855 15.3222L165.403 8.91827L160.598 13.1724L154.369 11.6227L156.929 17.5101L153.529 22.9568L158.744 22.4554L146.761 56.9024L162.459 25.3612Z" fill="#C883DD" />
<path d="M101.535 12.0103C101.52 11.9077 101.497 11.7861 101.47 11.6836C101.106 10.2858 99.6738 9.4464 98.276 9.81484C96.8745 10.1833 96.0389 11.6152 96.4073 13.013L106.864 52.8421L101.535 12.0103Z" fill="#C883DD" />
<path d="M133.147 187.2L138.473 228.035C138.488 228.138 138.511 228.256 138.537 228.362C138.902 229.76 140.334 230.596 141.735 230.223C143.133 229.859 143.969 228.431 143.604 227.033L133.147 187.2Z" fill="#C883DD" />
<path d="M11.6683 138.555C10.2706 138.923 9.43121 140.351 9.79964 141.749C10.1681 143.147 11.6 143.986 12.9977 143.618L52.8262 133.161L11.995 138.49C11.8925 138.505 11.7709 138.524 11.6683 138.555Z" fill="#C883DD" />
<path d="M27.6514 61.0388L63.2067 81.8117L30.5684 56.7049C30.4886 56.6404 30.3861 56.572 30.2949 56.5188C29.0453 55.7895 27.4425 56.2111 26.7132 57.457C25.9839 58.7066 26.4055 60.3095 27.6514 61.0388Z" fill="#C883DD" />
<path d="M56.6892 209.458C56.6247 209.541 56.5563 209.64 56.5031 209.731C55.7738 210.981 56.1954 212.584 57.4451 213.313C58.6909 214.042 60.2975 213.621 61.023 212.375L81.7957 176.819L56.6892 209.458Z" fill="#C883DD" />
<path d="M81.7494 63.2571L60.9502 27.7162C60.8933 27.625 60.8287 27.5263 60.7641 27.4427C59.8791 26.2956 58.2383 26.0829 57.0913 26.9641C55.948 27.8492 55.7315 29.49 56.6165 30.6371L81.7494 63.2571Z" fill="#C883DD" />
<path d="M27.7006 179.075C27.6133 179.132 27.5107 179.197 27.4272 179.265C26.2801 180.142 26.0674 181.791 26.9486 182.934C27.8298 184.077 29.4783 184.294 30.6215 183.409L63.2408 158.279L27.7006 179.075Z" fill="#C883DD" />
<path d="M12.6526 96.4468C11.2169 96.2645 9.90648 97.2748 9.71657 98.7068C9.53426 100.143 10.5446 101.453 11.9803 101.639L52.8152 106.934L12.9792 96.5113C12.8767 96.4848 12.759 96.462 12.6526 96.4468Z" fill="#C883DD" />
<path d="M96.434 227.374C96.2441 228.81 97.2582 230.12 98.6901 230.307C100.126 230.493 101.436 229.482 101.622 228.047L106.913 187.211L96.4947 227.048C96.4682 227.15 96.4454 227.268 96.434 227.374Z" fill="#C883DD" />
<path d="M227.147 96.0513L187.353 106.63L228.161 101.175C228.267 101.164 228.385 101.141 228.491 101.115C229.889 100.742 230.717 99.3065 230.349 97.9088C229.976 96.511 228.544 95.6829 227.147 96.0513Z" fill="#C883DD" />
<path d="M183.251 30.3485C183.312 30.2649 183.38 30.1662 183.437 30.075C184.162 28.8216 183.733 27.2187 182.483 26.497C181.234 25.7677 179.631 26.1969 178.906 27.4466L158.243 63.0672L183.251 30.3485Z" fill="#C883DD" />
<path d="M212.743 178.676L177.127 158.013L209.837 183.021C209.921 183.082 210.024 183.15 210.119 183.204C211.368 183.929 212.971 183.504 213.697 182.254C214.422 181.001 213.993 179.402 212.743 178.676Z" fill="#C883DD" />
<path d="M142.753 9.93613C141.321 9.73862 139.996 10.73 139.795 12.1619L134.048 52.9406L144.915 13.2179C144.937 13.1191 144.964 13.0014 144.979 12.895C145.181 11.4631 144.182 10.1374 142.753 9.93613Z" fill="#C883DD" />
<path d="M227.295 144.75C228.727 144.951 230.049 143.952 230.25 142.524C230.451 141.092 229.456 139.763 228.024 139.565L187.25 133.818L226.968 144.682C227.067 144.708 227.188 144.735 227.295 144.75Z" fill="#C883DD" />
<path d="M213.166 61.958C213.257 61.9011 213.359 61.8403 213.443 61.7719C214.601 60.9021 214.833 59.2613 213.959 58.1066C213.09 56.9519 211.449 56.7202 210.294 57.59L177.401 82.3588L213.166 61.958Z" fill="#C883DD" />
<path d="M157.833 177.168L178.233 212.937C178.287 213.028 178.351 213.127 178.42 213.214C179.289 214.369 180.93 214.601 182.085 213.731C183.24 212.861 183.467 211.22 182.598 210.066L157.833 177.168Z" fill="#C883DD" />
</symbol><symbol viewBox="0 0 335 335" fill="none" id="icon-stars-2">
<g opacity="0.1">
<path d="M183.789 16.298C173.994 16.298 167.496 22.7901 167.496 32.5855C167.496 22.7901 161.004 16.298 151.203 16.298C161.004 16.298 167.496 9.80061 167.496 0C167.496 9.80061 173.994 16.298 183.789 16.298Z" fill="url(#icon-stars-2_paint0_linear_444_1045)" />
<path d="M183.789 318.707C173.994 318.707 167.496 325.199 167.496 335C167.496 325.199 161.004 318.707 151.203 318.707C161.004 318.707 167.496 312.21 167.496 302.409C167.496 312.21 173.994 318.707 183.789 318.707Z" fill="url(#icon-stars-2_paint1_linear_444_1045)" />
<path d="M16.293 151.207C16.293 161.008 22.7852 167.5 32.586 167.5C22.7852 167.5 16.293 173.992 16.293 183.793C16.293 173.992 9.80077 167.5 0 167.5C9.80077 167.5 16.293 161.008 16.293 151.207Z" fill="url(#icon-stars-2_paint2_linear_444_1045)" />
<path d="M318.707 151.207C318.707 161.008 325.199 167.5 335 167.5C325.199 167.5 318.707 173.992 318.707 183.793C318.707 173.992 312.21 167.5 302.414 167.5C312.21 167.5 318.707 161.008 318.707 151.207Z" fill="url(#icon-stars-2_paint3_linear_444_1045)" />
<path d="M72.102 49.0601C65.1728 55.9892 65.1728 65.1707 72.102 72.105C65.1728 65.1707 55.991 65.1707 49.0566 72.105C55.991 65.1707 55.991 55.9892 49.0566 49.0601C55.991 55.9892 65.1728 55.9892 72.102 49.0601Z" fill="url(#icon-stars-2_paint4_linear_444_1045)" />
<path d="M285.939 262.895C279.009 269.824 279.009 279.011 285.939 285.94C279.009 279.011 269.828 279.011 262.898 285.94C269.828 279.011 269.828 269.824 262.898 262.895C269.828 269.824 279.009 269.824 285.939 262.895Z" fill="url(#icon-stars-2_paint5_linear_444_1045)" />
<path d="M49.0605 262.895C55.9845 269.824 65.1715 269.824 72.1007 262.895C65.1715 269.824 65.1715 279.011 72.1007 285.94C65.1715 279.011 55.9845 279.011 49.0605 285.94C55.9845 279.011 55.9845 269.824 49.0605 262.895Z" fill="url(#icon-stars-2_paint6_linear_444_1045)" />
<path d="M262.898 49.0601C269.828 55.9892 279.009 55.9892 285.939 49.0601C279.009 55.9892 279.009 65.1707 285.939 72.105C279.009 65.1707 269.828 65.1707 262.898 72.105C269.828 65.1707 269.828 55.9892 262.898 49.0601Z" fill="url(#icon-stars-2_paint7_linear_444_1045)" />
<path d="M124.002 21.7703C114.966 25.5626 111.497 34.0679 115.289 43.0986C111.497 34.0679 102.991 30.5877 93.9551 34.38C102.991 30.5877 106.466 22.0876 102.679 13.0569C106.466 22.0876 114.966 25.5626 124.002 21.7703Z" fill="url(#icon-stars-2_paint8_linear_444_1045)" />
<path d="M241.04 300.62C232.003 304.412 228.528 312.912 232.321 321.948C228.528 312.912 220.028 309.437 210.992 313.229C220.028 309.437 223.503 300.932 219.711 291.901C223.503 300.932 232.003 304.412 241.04 300.62Z" fill="url(#icon-stars-2_paint9_linear_444_1045)" />
<path d="M21.7715 210.994C25.5638 220.03 34.064 223.505 43.0949 219.707C34.064 223.505 30.589 232.005 34.3814 241.041C30.589 232.005 22.0836 228.53 13.0527 232.322C22.0836 228.53 25.5638 220.03 21.7715 210.994Z" fill="url(#icon-stars-2_paint10_linear_444_1045)" />
<path d="M300.621 93.9641C304.413 102.995 312.914 106.47 321.95 102.678C312.914 106.47 309.439 114.97 313.231 124.006C309.439 114.97 300.938 111.495 291.902 115.287C300.938 111.495 304.413 102.995 300.621 93.9641Z" fill="url(#icon-stars-2_paint11_linear_444_1045)" />
<path d="M33.6985 95.2125C29.9894 104.28 33.5424 112.749 42.6149 116.458C33.5424 112.749 25.0734 116.302 21.3695 125.374C25.0734 116.302 21.5204 107.833 12.4531 104.129C21.5204 107.833 29.9894 104.28 33.6985 95.2125Z" fill="url(#icon-stars-2_paint12_linear_444_1045)" />
<path d="M313.63 209.626C309.921 218.698 313.479 227.167 322.547 230.876C313.479 227.167 305.01 230.72 301.301 239.792C305.01 230.72 301.452 222.251 292.385 218.542C301.452 222.251 309.921 218.698 313.63 209.626Z" fill="url(#icon-stars-2_paint13_linear_444_1045)" />
<path d="M95.2109 301.301C104.278 305.01 112.747 301.452 116.456 292.385C112.747 301.452 116.3 309.921 125.373 313.63C116.3 309.921 107.831 313.474 104.122 322.546C107.831 313.474 104.278 305.01 95.2109 301.301Z" fill="url(#icon-stars-2_paint14_linear_444_1045)" />
<path d="M209.629 21.3698C218.696 25.0789 227.165 21.5259 230.874 12.4587C227.165 21.5259 230.723 29.9947 239.791 33.7038C230.723 29.9947 222.254 33.5477 218.545 42.6201C222.254 33.5477 218.696 25.0789 209.629 21.3698Z" fill="url(#icon-stars-2_paint15_linear_444_1045)" />
<path d="M126.558 57.2484C125.175 60.5829 121.351 62.1695 118.011 60.7858C114.671 59.4072 113.09 55.5785 114.469 52.2388C115.852 48.8991 119.681 47.3177 123.016 48.7014C126.355 50.0799 127.942 53.9087 126.558 57.2484Z" fill="url(#icon-stars-2_paint16_linear_444_1045)" />
<path d="M220.529 284.103C219.145 287.438 215.316 289.024 211.982 287.64C208.642 286.262 207.061 282.433 208.439 279.094C209.823 275.759 213.652 274.172 216.992 275.556C220.326 276.935 221.913 280.763 220.529 284.103Z" fill="url(#icon-stars-2_paint17_linear_444_1045)" />
<path d="M56.5745 209.111C59.909 210.495 61.5009 214.323 60.1119 217.658C58.7334 220.998 54.9046 222.584 51.57 221.201C48.2303 219.817 46.6437 215.988 48.0274 212.648C49.4112 209.314 53.2347 207.727 56.5745 209.111Z" fill="url(#icon-stars-2_paint18_linear_444_1045)" />
<path d="M283.432 115.142C286.766 116.525 288.358 120.354 286.969 123.688C285.591 127.023 281.762 128.61 278.427 127.226C275.088 125.847 273.501 122.019 274.885 118.684C276.269 115.35 280.092 113.758 283.432 115.142Z" fill="url(#icon-stars-2_paint19_linear_444_1045)" />
<path d="M60.1172 118.684C61.4958 122.024 59.9091 125.853 56.5694 127.236C53.2348 128.615 49.4112 127.028 48.0275 123.694C46.6437 120.354 48.2304 116.525 51.5649 115.147C54.9047 113.763 58.7282 115.35 60.1172 118.684Z" fill="url(#icon-stars-2_paint20_linear_444_1045)" />
<path d="M286.975 212.648C288.358 215.988 286.772 219.817 283.432 221.195C280.092 222.579 276.269 220.992 274.885 217.658C273.501 214.318 275.088 210.495 278.427 209.111C281.762 207.727 285.591 209.309 286.975 212.648Z" fill="url(#icon-stars-2_paint21_linear_444_1045)" />
<path d="M118.016 275.556C121.351 274.172 125.179 275.759 126.558 279.094C127.942 282.433 126.355 286.262 123.02 287.646C119.681 289.024 115.857 287.443 114.473 284.103C113.09 280.763 114.671 276.94 118.016 275.556Z" fill="url(#icon-stars-2_paint22_linear_444_1045)" />
<path d="M211.98 48.7013C215.315 47.3123 219.144 48.899 220.522 52.2387C221.906 55.5784 220.324 59.4019 216.985 60.7856C213.645 62.1694 209.821 60.5827 208.438 57.243C207.054 53.9085 208.64 50.0798 211.98 48.7013Z" fill="url(#icon-stars-2_paint23_linear_444_1045)" />
<path d="M86.8177 81.734C86.8333 85.3494 83.9202 88.2886 80.3099 88.3042C76.6944 88.325 73.7552 85.4118 73.7344 81.7964C73.7188 78.181 76.6372 75.2419 80.2475 75.2211C83.8577 75.2055 86.8021 78.1186 86.8177 81.734Z" fill="url(#icon-stars-2_paint24_linear_444_1045)" />
<path d="M261.261 254.545C261.277 258.161 258.364 261.1 254.753 261.116C251.138 261.136 248.199 258.223 248.178 254.608C248.162 250.992 251.075 248.053 254.691 248.038C258.301 248.017 261.245 250.935 261.261 254.545Z" fill="url(#icon-stars-2_paint25_linear_444_1045)" />
<path d="M81.0587 248.849C84.6741 248.834 87.6185 251.752 87.6341 255.362C87.6497 258.973 84.7366 261.917 81.1211 261.932C77.5056 261.948 74.5664 259.035 74.5508 255.42C74.5352 251.809 77.4484 248.865 81.0587 248.849Z" fill="url(#icon-stars-2_paint26_linear_444_1045)" />
<path d="M253.873 74.4096C257.489 74.394 260.433 77.3071 260.443 80.9173C260.464 84.5328 257.551 87.4771 253.936 87.4927C250.325 87.5083 247.381 84.5952 247.365 80.9798C247.345 77.3696 250.263 74.4252 253.873 74.4096Z" fill="url(#icon-stars-2_paint27_linear_444_1045)" />
<path d="M49.3331 164.098C51.8977 166.642 51.9185 170.782 49.3747 173.352C46.8309 175.917 42.69 175.938 40.1202 173.394C37.5555 170.85 37.5347 166.709 40.0785 164.139C42.6224 161.575 46.7632 161.559 49.3331 164.098Z" fill="url(#icon-stars-2_paint28_linear_444_1045)" />
<path d="M294.877 162.948C297.441 165.492 297.462 169.633 294.924 172.197C292.374 174.767 288.239 174.783 285.669 172.244C283.104 169.7 283.084 165.56 285.627 162.99C288.171 160.425 292.312 160.41 294.877 162.948Z" fill="url(#icon-stars-2_paint29_linear_444_1045)" />
<path d="M163.428 286.34C165.967 283.776 170.108 283.755 172.677 286.293C175.242 288.842 175.263 292.978 172.719 295.548C170.175 298.112 166.04 298.133 163.47 295.589C160.905 293.046 160.879 288.905 163.428 286.34Z" fill="url(#icon-stars-2_paint30_linear_444_1045)" />
<path d="M162.273 40.7942C164.817 38.2296 168.958 38.2088 171.523 40.7526C174.092 43.2964 174.113 47.4371 171.569 50.0017C169.026 52.5663 164.885 52.5924 162.32 50.0434C159.75 47.5048 159.729 43.3588 162.273 40.7942Z" fill="url(#icon-stars-2_paint31_linear_444_1045)" />
<path d="M200.427 38.2139L192.307 43.6396L186.881 35.5245L199.772 6.04456L200.427 38.2139Z" fill="url(#icon-stars-2_paint32_linear_444_1045)" />
<path d="M134.574 299.069L142.69 293.644L148.115 301.759L135.224 331.244L134.574 299.069Z" fill="url(#icon-stars-2_paint33_linear_444_1045)" />
<path d="M37.0695 135.721L42.4954 143.836L34.3801 149.262L4.89453 136.371L37.0695 135.721Z" fill="url(#icon-stars-2_paint34_linear_444_1045)" />
<path d="M297.93 201.568L292.504 193.448L300.614 188.027L330.1 200.918L297.93 201.568Z" fill="url(#icon-stars-2_paint35_linear_444_1045)" />
<path d="M98.5536 53.1333L96.6496 62.7102L87.0725 60.8063L75.3418 30.853L98.5536 53.1333Z" fill="url(#icon-stars-2_paint36_linear_444_1045)" />
<path d="M236.447 284.15L238.346 274.578L247.923 276.477L259.654 306.436L236.447 284.15Z" fill="url(#icon-stars-2_paint37_linear_444_1045)" />
<path d="M51.9909 237.587L61.568 239.491L59.664 249.068L29.7051 260.798L51.9909 237.587Z" fill="url(#icon-stars-2_paint38_linear_444_1045)" />
<path d="M283.011 99.6968L273.434 97.7981L275.338 88.2212L305.291 76.4906L283.011 99.6968Z" fill="url(#icon-stars-2_paint39_linear_444_1045)" />
<path d="M147.38 35.6337L141.996 43.7801L133.85 38.396L134.328 6.22668L147.38 35.6337Z" fill="url(#icon-stars-2_paint40_linear_444_1045)" />
<path d="M187.613 301.65L192.997 293.503L201.144 298.888L200.665 331.062L187.613 301.65Z" fill="url(#icon-stars-2_paint41_linear_444_1045)" />
<path d="M34.4889 188.761L42.6354 194.145L37.2512 202.291L5.07617 201.813L34.4889 188.761Z" fill="url(#icon-stars-2_paint42_linear_444_1045)" />
<path d="M300.51 148.528L292.363 143.144L297.747 134.998L329.917 135.471L300.51 148.528Z" fill="url(#icon-stars-2_paint43_linear_444_1045)" />
<path d="M59.2219 88.8194L61.1778 98.386L51.6112 100.337L29.1953 77.2501L59.2219 88.8194Z" fill="url(#icon-stars-2_paint44_linear_444_1045)" />
<path d="M275.775 248.469L273.824 238.903L283.391 236.947L305.802 260.034L275.775 248.469Z" fill="url(#icon-stars-2_paint45_linear_444_1045)" />
<path d="M87.6717 276.919L97.2384 274.963L99.1944 284.53L76.1074 306.945L87.6717 276.919Z" fill="url(#icon-stars-2_paint46_linear_444_1045)" />
<path d="M247.324 60.3644L237.757 62.3203L235.807 52.759L258.888 30.3435L247.324 60.3644Z" fill="url(#icon-stars-2_paint47_linear_444_1045)" />
</g>
<defs>
















































</defs>
</symbol><linearGradient id="icon-stars-2_paint0_linear_444_1045" x1="167.496" y1="0" x2="167.496" y2="32.5855" gradientUnits="userSpaceOnUse">
<stop stop-color="#3FD6FC" />
<stop offset="1" stop-color="#FF4299" />
</linearGradient><linearGradient id="icon-stars-2_paint1_linear_444_1045" x1="167.496" y1="302.409" x2="167.496" y2="335" gradientUnits="userSpaceOnUse">
<stop stop-color="#3FD6FC" />
<stop offset="1" stop-color="#FF4299" />
</linearGradient><linearGradient id="icon-stars-2_paint2_linear_444_1045" x1="16.293" y1="151.207" x2="16.293" y2="183.793" gradientUnits="userSpaceOnUse">
<stop stop-color="#3FD6FC" />
<stop offset="1" stop-color="#FF4299" />
</linearGradient><linearGradient id="icon-stars-2_paint3_linear_444_1045" x1="318.707" y1="151.207" x2="318.707" y2="183.793" gradientUnits="userSpaceOnUse">
<stop stop-color="#3FD6FC" />
<stop offset="1" stop-color="#FF4299" />
</linearGradient><linearGradient id="icon-stars-2_paint4_linear_444_1045" x1="60.5793" y1="49.0601" x2="60.5793" y2="72.105" gradientUnits="userSpaceOnUse">
<stop stop-color="#3FD6FC" />
<stop offset="1" stop-color="#FF4299" />
</linearGradient><linearGradient id="icon-stars-2_paint5_linear_444_1045" x1="274.419" y1="262.895" x2="274.419" y2="285.94" gradientUnits="userSpaceOnUse">
<stop stop-color="#3FD6FC" />
<stop offset="1" stop-color="#FF4299" />
</linearGradient><linearGradient id="icon-stars-2_paint6_linear_444_1045" x1="60.5806" y1="262.895" x2="60.5806" y2="285.94" gradientUnits="userSpaceOnUse">
<stop stop-color="#3FD6FC" />
<stop offset="1" stop-color="#FF4299" />
</linearGradient><linearGradient id="icon-stars-2_paint7_linear_444_1045" x1="274.419" y1="49.0601" x2="274.419" y2="72.105" gradientUnits="userSpaceOnUse">
<stop stop-color="#3FD6FC" />
<stop offset="1" stop-color="#FF4299" />
</linearGradient><linearGradient id="icon-stars-2_paint8_linear_444_1045" x1="108.979" y1="13.0569" x2="108.979" y2="43.0986" gradientUnits="userSpaceOnUse">
<stop stop-color="#3FD6FC" />
<stop offset="1" stop-color="#FF4299" />
</linearGradient><linearGradient id="icon-stars-2_paint9_linear_444_1045" x1="226.016" y1="291.901" x2="226.016" y2="321.948" gradientUnits="userSpaceOnUse">
<stop stop-color="#3FD6FC" />
<stop offset="1" stop-color="#FF4299" />
</linearGradient><linearGradient id="icon-stars-2_paint10_linear_444_1045" x1="28.0738" y1="210.994" x2="28.0738" y2="241.041" gradientUnits="userSpaceOnUse">
<stop stop-color="#3FD6FC" />
<stop offset="1" stop-color="#FF4299" />
</linearGradient><linearGradient id="icon-stars-2_paint11_linear_444_1045" x1="306.926" y1="93.9641" x2="306.926" y2="124.006" gradientUnits="userSpaceOnUse">
<stop stop-color="#3FD6FC" />
<stop offset="1" stop-color="#FF4299" />
</linearGradient><linearGradient id="icon-stars-2_paint12_linear_444_1045" x1="27.534" y1="95.2125" x2="27.534" y2="125.374" gradientUnits="userSpaceOnUse">
<stop stop-color="#3FD6FC" />
<stop offset="1" stop-color="#FF4299" />
</linearGradient><linearGradient id="icon-stars-2_paint13_linear_444_1045" x1="307.466" y1="209.626" x2="307.466" y2="239.792" gradientUnits="userSpaceOnUse">
<stop stop-color="#3FD6FC" />
<stop offset="1" stop-color="#FF4299" />
</linearGradient><linearGradient id="icon-stars-2_paint14_linear_444_1045" x1="110.292" y1="292.385" x2="110.292" y2="322.546" gradientUnits="userSpaceOnUse">
<stop stop-color="#3FD6FC" />
<stop offset="1" stop-color="#FF4299" />
</linearGradient><linearGradient id="icon-stars-2_paint15_linear_444_1045" x1="224.71" y1="12.4587" x2="224.71" y2="42.6201" gradientUnits="userSpaceOnUse">
<stop stop-color="#3FD6FC" />
<stop offset="1" stop-color="#FF4299" />
</linearGradient><linearGradient id="icon-stars-2_paint16_linear_444_1045" x1="120.515" y1="48.2006" x2="120.515" y2="61.2859" gradientUnits="userSpaceOnUse">
<stop stop-color="#3FD6FC" />
<stop offset="1" stop-color="#FF4299" />
</linearGradient><linearGradient id="icon-stars-2_paint17_linear_444_1045" x1="214.485" y1="275.056" x2="214.485" y2="288.141" gradientUnits="userSpaceOnUse">
<stop stop-color="#3FD6FC" />
<stop offset="1" stop-color="#FF4299" />
</linearGradient><linearGradient id="icon-stars-2_paint18_linear_444_1045" x1="54.0708" y1="208.611" x2="54.0708" y2="221.701" gradientUnits="userSpaceOnUse">
<stop stop-color="#3FD6FC" />
<stop offset="1" stop-color="#FF4299" />
</linearGradient><linearGradient id="icon-stars-2_paint19_linear_444_1045" x1="280.928" y1="114.642" x2="280.928" y2="127.726" gradientUnits="userSpaceOnUse">
<stop stop-color="#3FD6FC" />
<stop offset="1" stop-color="#FF4299" />
</linearGradient><linearGradient id="icon-stars-2_paint20_linear_444_1045" x1="54.0708" y1="114.647" x2="54.0708" y2="127.734" gradientUnits="userSpaceOnUse">
<stop stop-color="#3FD6FC" />
<stop offset="1" stop-color="#FF4299" />
</linearGradient><linearGradient id="icon-stars-2_paint21_linear_444_1045" x1="280.93" y1="208.61" x2="280.93" y2="221.695" gradientUnits="userSpaceOnUse">
<stop stop-color="#3FD6FC" />
<stop offset="1" stop-color="#FF4299" />
</linearGradient><linearGradient id="icon-stars-2_paint22_linear_444_1045" x1="120.515" y1="275.056" x2="120.515" y2="288.144" gradientUnits="userSpaceOnUse">
<stop stop-color="#3FD6FC" />
<stop offset="1" stop-color="#FF4299" />
</linearGradient><linearGradient id="icon-stars-2_paint23_linear_444_1045" x1="214.48" y1="48.1982" x2="214.48" y2="61.2857" gradientUnits="userSpaceOnUse">
<stop stop-color="#3FD6FC" />
<stop offset="1" stop-color="#FF4299" />
</linearGradient><linearGradient id="icon-stars-2_paint24_linear_444_1045" x1="80.2761" y1="75.2211" x2="80.2761" y2="88.3043" gradientUnits="userSpaceOnUse">
<stop stop-color="#3FD6FC" />
<stop offset="1" stop-color="#FF4299" />
</linearGradient><linearGradient id="icon-stars-2_paint25_linear_444_1045" x1="254.719" y1="248.038" x2="254.719" y2="261.116" gradientUnits="userSpaceOnUse">
<stop stop-color="#3FD6FC" />
<stop offset="1" stop-color="#FF4299" />
</linearGradient><linearGradient id="icon-stars-2_paint26_linear_444_1045" x1="81.0925" y1="248.849" x2="81.0925" y2="261.933" gradientUnits="userSpaceOnUse">
<stop stop-color="#3FD6FC" />
<stop offset="1" stop-color="#FF4299" />
</linearGradient><linearGradient id="icon-stars-2_paint27_linear_444_1045" x1="253.904" y1="74.4095" x2="253.904" y2="87.4928" gradientUnits="userSpaceOnUse">
<stop stop-color="#3FD6FC" />
<stop offset="1" stop-color="#FF4299" />
</linearGradient><linearGradient id="icon-stars-2_paint28_linear_444_1045" x1="44.7266" y1="162.205" x2="44.7266" y2="175.289" gradientUnits="userSpaceOnUse">
<stop stop-color="#3FD6FC" />
<stop offset="1" stop-color="#FF4299" />
</linearGradient><linearGradient id="icon-stars-2_paint29_linear_444_1045" x1="290.273" y1="161.055" x2="290.273" y2="174.137" gradientUnits="userSpaceOnUse">
<stop stop-color="#3FD6FC" />
<stop offset="1" stop-color="#FF4299" />
</linearGradient><linearGradient id="icon-stars-2_paint30_linear_444_1045" x1="168.073" y1="284.403" x2="168.073" y2="297.484" gradientUnits="userSpaceOnUse">
<stop stop-color="#3FD6FC" />
<stop offset="1" stop-color="#FF4299" />
</linearGradient><linearGradient id="icon-stars-2_paint31_linear_444_1045" x1="166.921" y1="38.8577" x2="166.921" y2="51.9402" gradientUnits="userSpaceOnUse">
<stop stop-color="#3FD6FC" />
<stop offset="1" stop-color="#FF4299" />
</linearGradient><linearGradient id="icon-stars-2_paint32_linear_444_1045" x1="193.654" y1="6.04456" x2="193.654" y2="43.6396" gradientUnits="userSpaceOnUse">
<stop stop-color="#3FD6FC" />
<stop offset="1" stop-color="#FF4299" />
</linearGradient><linearGradient id="icon-stars-2_paint33_linear_444_1045" x1="141.345" y1="293.644" x2="141.345" y2="331.244" gradientUnits="userSpaceOnUse">
<stop stop-color="#3FD6FC" />
<stop offset="1" stop-color="#FF4299" />
</linearGradient><linearGradient id="icon-stars-2_paint34_linear_444_1045" x1="23.6949" y1="135.721" x2="23.6949" y2="149.262" gradientUnits="userSpaceOnUse">
<stop stop-color="#3FD6FC" />
<stop offset="1" stop-color="#FF4299" />
</linearGradient><linearGradient id="icon-stars-2_paint35_linear_444_1045" x1="311.302" y1="188.027" x2="311.302" y2="201.568" gradientUnits="userSpaceOnUse">
<stop stop-color="#3FD6FC" />
<stop offset="1" stop-color="#FF4299" />
</linearGradient><linearGradient id="icon-stars-2_paint36_linear_444_1045" x1="86.9477" y1="30.853" x2="86.9477" y2="62.7102" gradientUnits="userSpaceOnUse">
<stop stop-color="#3FD6FC" />
<stop offset="1" stop-color="#FF4299" />
</linearGradient><linearGradient id="icon-stars-2_paint37_linear_444_1045" x1="248.051" y1="274.578" x2="248.051" y2="306.436" gradientUnits="userSpaceOnUse">
<stop stop-color="#3FD6FC" />
<stop offset="1" stop-color="#FF4299" />
</linearGradient><linearGradient id="icon-stars-2_paint38_linear_444_1045" x1="45.6365" y1="237.587" x2="45.6365" y2="260.798" gradientUnits="userSpaceOnUse">
<stop stop-color="#3FD6FC" />
<stop offset="1" stop-color="#FF4299" />
</linearGradient><linearGradient id="icon-stars-2_paint39_linear_444_1045" x1="289.362" y1="76.4906" x2="289.362" y2="99.6968" gradientUnits="userSpaceOnUse">
<stop stop-color="#3FD6FC" />
<stop offset="1" stop-color="#FF4299" />
</linearGradient><linearGradient id="icon-stars-2_paint40_linear_444_1045" x1="140.615" y1="6.22668" x2="140.615" y2="43.7801" gradientUnits="userSpaceOnUse">
<stop stop-color="#3FD6FC" />
<stop offset="1" stop-color="#FF4299" />
</linearGradient><linearGradient id="icon-stars-2_paint41_linear_444_1045" x1="194.379" y1="293.503" x2="194.379" y2="331.062" gradientUnits="userSpaceOnUse">
<stop stop-color="#3FD6FC" />
<stop offset="1" stop-color="#FF4299" />
</linearGradient><linearGradient id="icon-stars-2_paint42_linear_444_1045" x1="23.8558" y1="188.761" x2="23.8558" y2="202.291" gradientUnits="userSpaceOnUse">
<stop stop-color="#3FD6FC" />
<stop offset="1" stop-color="#FF4299" />
</linearGradient><linearGradient id="icon-stars-2_paint43_linear_444_1045" x1="311.14" y1="134.998" x2="311.14" y2="148.528" gradientUnits="userSpaceOnUse">
<stop stop-color="#3FD6FC" />
<stop offset="1" stop-color="#FF4299" />
</linearGradient><linearGradient id="icon-stars-2_paint44_linear_444_1045" x1="45.1866" y1="77.2501" x2="45.1866" y2="100.337" gradientUnits="userSpaceOnUse">
<stop stop-color="#3FD6FC" />
<stop offset="1" stop-color="#FF4299" />
</linearGradient><linearGradient id="icon-stars-2_paint45_linear_444_1045" x1="289.813" y1="236.947" x2="289.813" y2="260.034" gradientUnits="userSpaceOnUse">
<stop stop-color="#3FD6FC" />
<stop offset="1" stop-color="#FF4299" />
</linearGradient><linearGradient id="icon-stars-2_paint46_linear_444_1045" x1="87.6509" y1="274.963" x2="87.6509" y2="306.945" gradientUnits="userSpaceOnUse">
<stop stop-color="#3FD6FC" />
<stop offset="1" stop-color="#FF4299" />
</linearGradient><linearGradient id="icon-stars-2_paint47_linear_444_1045" x1="247.348" y1="30.3435" x2="247.348" y2="62.3203" gradientUnits="userSpaceOnUse">
<stop stop-color="#3FD6FC" />
<stop offset="1" stop-color="#FF4299" />
</linearGradient><symbol viewBox="0 0 412 412" fill="none" id="icon-stars-3">
<g opacity="0.2">
<path d="M206.001 0C211.608 4.78147 214.494 9.56294 216.606 14.3444C218.633 19.1259 219.499 23.9073 219.525 28.6888C219.531 33.4637 218.666 38.2452 216.652 43.0267C214.54 47.8081 211.641 52.5896 206.001 57.3711C200.353 52.5896 197.454 47.8081 195.349 43.0267C193.336 38.2452 192.47 33.4637 192.47 28.6888C192.503 23.9073 193.362 19.1259 195.388 14.3444C197.5 9.56294 200.386 4.78147 206.001 0Z" fill="#52C0DA" />
<path d="M206.001 354.629C211.608 359.41 214.494 364.192 216.606 368.973C218.633 373.755 219.499 378.536 219.525 383.318C219.531 388.099 218.666 392.874 216.652 397.662C214.54 402.444 211.641 407.225 206.001 412C200.353 407.225 197.454 402.444 195.349 397.662C193.336 392.874 192.47 388.099 192.47 383.318C192.503 378.536 193.362 373.755 195.388 368.973C197.5 364.192 200.386 359.41 206.001 354.629Z" fill="#52C0DA" />
<path d="M0 205.997C4.77484 200.389 9.56278 197.503 14.3442 195.391C19.1256 193.364 23.9004 192.505 28.6884 192.472C33.4632 192.472 38.2447 193.338 43.026 195.352C47.8074 197.457 52.5888 200.356 57.3702 205.997C52.5888 211.644 47.8074 214.543 43.026 216.655C38.2447 218.669 33.4633 219.534 28.6819 219.528C23.9005 219.502 19.1256 218.636 14.3442 216.609C9.56278 214.497 4.77484 211.611 0 205.997Z" fill="#52C0DA" />
<path d="M354.623 205.997C359.404 200.389 364.186 197.503 368.967 195.391C373.749 193.364 378.53 192.505 383.312 192.472C388.086 192.472 392.874 193.338 397.656 195.352C402.437 197.457 407.219 200.356 412 205.997C407.219 211.644 402.437 214.543 397.656 216.655C392.874 218.669 388.086 219.534 383.312 219.528C378.53 219.502 373.749 218.636 368.967 216.609C364.186 214.497 359.404 211.611 354.623 205.997Z" fill="#52C0DA" />
<path d="M60.335 60.3356C67.6809 59.7518 73.0985 61.0833 77.9783 62.9723C82.7925 64.9203 86.7868 67.6948 90.1843 71.053C93.5621 74.4308 96.3365 78.4252 98.2911 83.2329C100.18 88.0996 101.511 93.5305 100.901 100.903C93.5293 101.513 88.0986 100.181 83.2319 98.2922C78.4243 96.3376 74.43 93.5632 71.0522 90.1853C67.694 86.7878 64.9196 82.7869 62.9716 77.9792C61.0827 73.1059 59.7512 67.6816 60.335 60.3356Z" fill="#52C0DA" />
<path d="M311.092 311.097C318.438 310.514 323.862 311.852 328.742 313.741C333.55 315.689 337.544 318.456 340.942 321.821C344.326 325.193 347.094 329.187 349.048 333.995C350.937 338.868 352.269 344.292 351.659 351.671C344.287 352.274 338.862 350.943 333.989 349.054C329.182 347.099 325.187 344.332 321.816 340.947C318.451 337.55 315.684 333.555 313.729 328.741C311.847 323.868 310.509 318.443 311.092 311.097Z" fill="#52C0DA" />
<path d="M60.335 351.671C59.7512 344.318 61.0827 338.894 62.9716 334.021C64.9196 329.213 67.694 325.219 71.0522 321.821C74.43 318.437 78.4243 315.663 83.2319 313.715C88.0986 311.826 93.5293 310.488 100.901 311.097C101.511 318.47 100.18 323.901 98.2911 328.774C96.3365 333.575 93.5621 337.569 90.1843 340.947C86.7868 344.312 82.7925 347.08 77.9783 349.028C73.0985 350.917 67.6809 352.248 60.335 351.671Z" fill="#52C0DA" />
<path d="M311.092 100.903C310.509 93.5568 311.847 88.1325 313.729 83.2526C315.684 78.4449 318.451 74.4571 321.816 71.053C325.187 67.6752 329.182 64.9072 333.989 62.9461C338.862 61.0571 344.287 59.7257 351.659 60.3356C352.269 67.7079 350.937 73.1322 349.048 78.0055C347.094 82.8132 344.326 86.8076 340.942 90.1854C337.544 93.5436 333.55 96.3181 328.742 98.2661C323.862 100.148 318.438 101.487 311.092 100.903Z" fill="#52C0DA" />
<path d="M125.811 16.2465C132.842 18.4634 137.361 21.7428 141.172 25.324C144.891 28.938 147.547 33.0111 149.436 37.4056C151.299 41.8067 152.361 46.5488 152.368 51.7303C152.289 56.9578 151.476 62.4935 148.144 69.0984C141.087 66.888 136.555 63.6086 132.75 60.0274C129.038 56.4069 126.375 52.3404 124.519 47.9328C122.683 43.5186 121.62 38.7765 121.62 33.5884C121.705 28.3609 122.506 22.8251 125.811 16.2465Z" fill="#52C0DA" />
<path d="M263.849 342.908C270.88 345.132 275.399 348.411 279.21 351.992C282.935 355.606 285.592 359.679 287.474 364.067C289.343 368.468 290.406 373.21 290.406 378.399C290.327 383.626 289.521 389.155 286.182 395.76C279.125 393.55 274.593 390.27 270.789 386.689C267.076 383.069 264.42 379.002 262.564 374.601C260.721 370.18 259.658 365.445 259.658 360.257C259.743 355.029 260.544 349.5 263.849 342.908Z" fill="#52C0DA" />
<path d="M16.2461 286.186C18.463 279.162 21.7425 274.636 25.3236 270.832C28.9441 267.1 33.0105 264.45 37.4049 262.561C41.8059 260.698 46.5414 259.636 51.736 259.629C56.9634 259.708 62.4925 260.515 69.0907 263.853C66.8804 270.917 63.6075 275.443 60.0198 279.247C56.4059 282.959 52.3394 285.622 47.9385 287.485C43.5178 289.315 38.7757 290.384 33.5811 290.377C28.3603 290.292 22.8312 289.492 16.2461 286.186Z" fill="#52C0DA" />
<path d="M342.903 148.147C345.127 141.116 348.406 136.597 351.987 132.786C355.601 129.067 359.668 126.41 364.062 124.521C368.463 122.659 373.205 121.596 378.393 121.59C383.621 121.668 389.15 122.475 395.755 125.814C393.544 132.878 390.265 137.403 386.684 141.207C383.063 144.92 378.997 147.583 374.589 149.439C370.175 151.275 365.439 152.338 360.245 152.338C355.017 152.253 349.495 151.452 342.903 148.147Z" fill="#52C0DA" />
<path d="M15.125 128.523C21.6576 125.125 27.1801 124.246 32.4075 124.089C37.5956 124.01 42.3508 125.007 46.7911 126.778C51.2183 128.575 55.3241 131.172 58.9971 134.839C62.6307 138.591 65.9757 143.077 68.2844 150.102C61.7321 153.532 56.2095 154.417 50.9887 154.575C45.8006 154.647 41.0455 153.65 36.6183 151.846C32.1977 150.023 28.0918 147.419 24.4254 143.753C20.7852 139.994 17.4403 135.521 15.125 128.523Z" fill="#52C0DA" />
<path d="M343.716 261.899C350.255 258.501 355.771 257.622 360.998 257.458C366.186 257.386 370.935 258.383 375.382 260.154C379.816 261.951 383.915 264.555 387.588 268.215C391.228 271.973 394.567 276.453 396.875 283.478C390.323 286.908 384.8 287.793 379.58 287.951C374.391 288.023 369.636 287.026 365.203 285.222C360.788 283.399 356.683 280.802 353.016 277.129C349.376 273.37 346.031 268.897 343.716 261.899Z" fill="#52C0DA" />
<path d="M128.52 396.875C125.123 390.336 124.244 384.826 124.08 379.599C124.008 374.404 125.005 369.649 126.776 365.209C128.573 360.781 131.17 356.675 134.836 353.002C138.595 349.362 143.068 346.024 150.099 343.715C153.529 350.267 154.414 355.79 154.572 361.017C154.644 366.199 153.64 370.961 151.843 375.388C150.02 379.809 147.423 383.908 143.75 387.575C139.992 391.215 135.518 394.56 128.52 396.875Z" fill="#52C0DA" />
<path d="M261.894 68.285C258.497 61.7458 257.624 56.2297 257.46 51.0022C257.382 45.8141 258.379 41.0589 260.15 36.6185C261.947 32.1847 264.55 28.0788 268.21 24.4058C271.968 20.7721 276.448 17.427 283.473 15.1183C286.903 21.6707 287.788 27.1933 287.946 32.4142C288.018 37.6023 287.015 42.3576 285.217 46.7915C283.394 51.2056 280.797 55.3181 277.124 58.9845C273.366 62.6182 268.892 65.9632 261.894 68.285Z" fill="#52C0DA" />
<path d="M171.796 18.7193L180.985 89.1886L162.942 20.4574C162.312 18.0372 163.755 15.571 166.169 14.9348C168.582 14.2986 171.048 15.7416 171.684 18.1553C171.73 18.3389 171.77 18.5422 171.796 18.7193Z" fill="#52C0DA" />
<path d="M235.541 391.549L226.353 321.073L244.396 389.818C245.032 392.232 243.589 394.704 241.175 395.334C238.762 395.97 236.289 394.527 235.659 392.113C235.607 391.93 235.568 391.726 235.541 391.549Z" fill="#52C0DA" />
<path d="M17.2565 237.007L87.7312 227.818L18.9881 245.855C16.5744 246.492 14.1017 245.055 13.4721 242.641C12.8359 240.221 14.2854 237.755 16.6925 237.119C16.8761 237.073 17.0795 237.033 17.2565 237.007Z" fill="#52C0DA" />
<path d="M49.3168 95.8591L105.651 139.187L44.2861 103.343C42.1282 102.084 41.4068 99.3156 42.6595 97.1643C43.9188 95.0064 46.6867 94.2784 48.8445 95.5377C49.002 95.6295 49.1725 95.7541 49.3168 95.8591Z" fill="#52C0DA" />
<path d="M94.3945 359.489L137.722 303.161L101.878 364.52C100.619 366.678 97.851 367.406 95.6997 366.146C93.5484 364.887 92.8138 362.119 94.0731 359.961C94.1715 359.811 94.2895 359.633 94.3945 359.489Z" fill="#52C0DA" />
<path d="M101.747 45.8273L137.65 107.167L94.2697 50.8712C92.748 48.8904 93.1153 46.0569 95.0896 44.5353C97.0638 43.0136 99.9037 43.3743 101.425 45.3551C101.537 45.4994 101.655 45.6699 101.747 45.8273Z" fill="#52C0DA" />
<path d="M44.3711 307.057L105.703 271.16L49.4083 314.534C47.4341 316.056 44.5941 315.695 43.0725 313.714C41.5508 311.74 41.9116 308.9 43.8923 307.378C44.0366 307.267 44.2137 307.149 44.3711 307.057Z" fill="#52C0DA" />
<path d="M18.9552 164.557L87.7115 182.542L17.2302 173.412C14.7575 173.091 13.0129 170.821 13.3277 168.349C13.6491 165.876 15.9185 164.131 18.3911 164.452C18.5748 164.472 18.7847 164.518 18.9552 164.557Z" fill="#52C0DA" />
<path d="M163.092 389.851L181.083 321.1L171.947 391.576C171.625 394.055 169.356 395.793 166.883 395.478C164.411 395.157 162.666 392.887 162.987 390.415C163.014 390.231 163.053 390.021 163.092 389.851Z" fill="#52C0DA" />
<path d="M390.337 172.612L319.901 182.017L388.586 163.77C390.993 163.127 393.472 164.564 394.108 166.971C394.751 169.385 393.314 171.864 390.901 172.5C390.724 172.553 390.52 172.592 390.337 172.612Z" fill="#52C0DA" />
<path d="M312.824 50.3726L269.667 106.839L305.327 45.3616C306.58 43.2037 309.341 42.4691 311.499 43.7218C313.664 44.968 314.392 47.7359 313.145 49.8938C313.054 50.0578 312.929 50.2283 312.824 50.3726Z" fill="#52C0DA" />
<path d="M358.716 313.865L302.251 270.707L363.727 306.368C365.885 307.621 366.619 310.382 365.373 312.54C364.121 314.698 361.353 315.433 359.195 314.187C359.037 314.088 358.86 313.97 358.716 313.865Z" fill="#52C0DA" />
<path d="M246.659 20.8114L227.907 89.3589L237.824 18.988C238.178 16.5153 240.461 14.7968 242.934 15.151C245.406 15.4921 247.125 17.7811 246.777 20.2473C246.744 20.4309 246.705 20.6408 246.659 20.8114Z" fill="#52C0DA" />
<path d="M388.277 247.698L319.73 228.94L390.1 238.864C392.573 239.211 394.291 241.494 393.944 243.966C393.596 246.439 391.314 248.164 388.841 247.81C388.657 247.784 388.447 247.738 388.277 247.698Z" fill="#52C0DA" />
<path d="M364.455 104.924L302.723 140.139L359.496 97.3939C361.49 95.8854 364.33 96.2855 365.825 98.2794C367.327 100.273 366.927 103.107 364.933 104.609C364.789 104.72 364.612 104.838 364.455 104.924Z" fill="#52C0DA" />
<path d="M304.167 365.497L268.959 303.764L311.703 360.538C313.205 362.532 312.805 365.366 310.811 366.861C308.817 368.37 305.984 367.97 304.482 365.976C304.377 365.825 304.259 365.648 304.167 365.497Z" fill="#52C0DA" />
<path d="M166.09 83.3316L160.804 95.9773L148.158 90.6907L153.445 78.045L166.09 83.3316Z" fill="#52C0DA" />
<path d="M263.783 321.336L258.497 333.988L245.845 328.695L251.131 316.05L263.783 321.336Z" fill="#52C0DA" />
<path d="M83.2838 245.888L95.9358 251.175L90.6428 263.827L78.0039 258.541L83.2838 245.888Z" fill="#52C0DA" />
<path d="M321.291 148.199L333.937 153.486L328.65 166.132L316.005 160.852L321.291 148.199Z" fill="#52C0DA" />
<path d="M91.0229 147.465L96.2241 160.137L83.5393 165.345L78.3447 152.666L91.0229 147.465Z" fill="#52C0DA" />
<path d="M328.387 246.675L333.595 259.36L320.91 264.561L315.709 251.883L328.387 246.675Z" fill="#52C0DA" />
<path d="M147.416 320.962L160.094 315.754L165.302 328.433L152.624 333.64L147.416 320.962Z" fill="#52C0DA" />
<path d="M246.632 83.5872L259.31 78.3794L264.518 91.0645L251.84 96.2656L246.632 83.5872Z" fill="#52C0DA" />
<path d="M121.719 108.321L121.738 122.029L108.03 122.049L108.011 108.341L121.719 108.321Z" fill="#52C0DA" />
<path d="M303.904 289.978L303.924 303.679L290.216 303.705L290.196 289.997L303.904 289.978Z" fill="#52C0DA" />
<path d="M108.279 290.259L121.987 290.24L122.007 303.948L108.299 303.974L108.279 290.259Z" fill="#52C0DA" />
<path d="M289.934 108.078L303.635 108.059L303.655 121.76L289.947 121.78L289.934 108.078Z" fill="#52C0DA" />
<path d="M77.3149 196.506L87.0286 206.187L77.3477 215.894L67.6406 206.22L77.3149 196.506Z" fill="#52C0DA" />
<path d="M334.586 196.132L344.3 205.807L334.613 215.521L324.912 205.84L334.586 196.132Z" fill="#52C0DA" />
<path d="M196.464 334.664L206.145 324.956L215.852 334.637L206.171 344.345L196.464 334.664Z" fill="#52C0DA" />
<path d="M196.083 77.3888L205.764 67.6816L215.471 77.3626L205.797 87.0698L196.083 77.3888Z" fill="#52C0DA" />
</g>
</symbol><symbol viewBox="0 0 24 24" fill="none" id="icon-tel">
<path fill-rule="evenodd" clip-rule="evenodd" d="M21.0004 16.92V19.92C21.0027 20.4832 20.7675 21.0212 20.3525 21.4019C19.9375 21.7826 19.3813 21.9707 18.8204 21.92C15.7433 21.5856 12.7874 20.5342 10.1904 18.85C7.77426 17.3147 5.72576 15.2662 4.19043 12.85C2.50041 10.2412 1.44867 7.271 1.12043 4.18001C1.0699 3.62088 1.2567 3.06626 1.63519 2.65163C2.01369 2.237 2.54902 2.00054 3.11043 2.00001H6.11043C7.11429 1.99013 7.96993 2.72597 8.11043 3.72001C8.23705 4.68007 8.47188 5.62273 8.81043 6.53001C9.08516 7.26088 8.90944 8.08481 8.36043 8.64001L7.09043 9.91001C8.51398 12.4136 10.5869 14.4865 13.0904 15.91L14.3604 14.64C14.9156 14.091 15.7396 13.9153 16.4704 14.19C17.3777 14.5286 18.3204 14.7634 19.2804 14.89C20.286 15.0319 21.0256 15.9048 21.0004 16.92Z" stroke="#5AC38A" stroke-width="2" stroke-linecap="round" stroke-linejoin="round" />
</symbol><symbol viewBox="0 0 26 26" fill="none" id="icon-toilet">
<path fill-rule="evenodd" clip-rule="evenodd" d="M5 0H21C23.8 0 26 0.599988 26 1.29999V24.7C26 25.4 23.8 26 21 26H5C2.2 26 0 25.4 0 24.7V1.29999C0 0.599988 2.2 0 5 0Z" fill="#5DC482" />
<path d="M12.4 16.4H11.3L9.3 11.1L7.3 16.4H6.09999L4.5 9.80005H5.39999L6.7 15.3L8.8 9.80005H9.7L11.8 15.3L13.1 9.80005H14L12.4 16.4Z" fill="#FEFEFE" />
<path d="M18.0996 15.7001C16.5996 15.7001 15.4996 14.5001 15.4996 13.1001C15.4996 11.7001 16.6996 10.5001 18.0996 10.5001C19.1996 10.5001 20.1996 11.2001 20.5996 12.3001H21.4996C21.0996 10.8001 19.6996 9.6001 18.0996 9.6001C16.1996 9.6001 14.5996 11.2001 14.5996 13.1001C14.5996 15.0001 16.1996 16.6001 18.0996 16.6001C19.6996 16.6001 20.9996 15.5001 21.4996 14.1001H20.5996C20.0996 15.0001 19.1996 15.7001 18.0996 15.7001Z" fill="#FEFEFE" />
</symbol><symbol viewBox="0 0 26 26" fill="none" id="icon-train">
<path fill-rule="evenodd" clip-rule="evenodd" d="M5 0H21C23.8 0 26 0.599988 26 1.29999V24.7C26 25.4 23.8 26 21 26H5C2.2 26 0 25.4 0 24.7V1.29999C0 0.499988 2.2 0 5 0Z" fill="#EF7F1A" />
<path d="M18.3981 11.7001H7.49805V10.9H18.3981V11.7001Z" fill="#FEFEFE" />
<path d="M18.3981 15.7999H7.49805V14.9999H18.3981V15.7999Z" fill="#FEFEFE" />
<path d="M12.5996 15.5999V11.2999H13.3996V15.5999H12.5996Z" fill="#FEFEFE" />
<path d="M12.5996 8.00006V5.40002H13.3996V8.00006H12.5996Z" fill="#FEFEFE" />
<path d="M15.5984 20.2001H10.1984V19.4H15.5984V20.2001ZM18.1984 16.9H18.9984V17.1V17.3V17.5001V17.7001V17.9V18.1L18.8985 18.3L18.7984 18.5001L18.6984 18.7001L18.5984 18.8L18.4984 18.9L18.3985 19.0001L18.2984 19.1L18.1984 19.2001L18.0984 19.3L17.9984 19.4L17.8985 19.5001L17.7984 19.6L17.6984 19.7001L17.5984 19.8L17.4984 19.9L17.1984 19.8L17.0984 19.9L16.9984 20.0001L16.8985 20.1L16.7984 20.2001L16.5984 20.3H16.3985H16.1984H15.9984H15.7984H15.5984V19.5001H15.6984H15.7984H15.8985H15.9984H16.0984H16.1984H16.2984L16.3985 19.4L16.4984 19.3L16.5984 19.2001L16.6984 19.1L16.7984 19.0001L16.8985 18.9L16.9984 18.8L17.0984 18.7001L17.1984 18.6L17.2984 18.5001L17.3985 18.4L17.4984 18.3L17.5984 18.2001L17.6984 18.1L17.7984 18.0001L17.8985 17.9L17.9984 17.8V17.7001V17.6V17.5001V17.4V17.3V17.2001V17.1L18.1984 16.9ZM18.9984 9.40002V16.9H18.1984V9.40002L18.5984 9.00006L18.9984 9.40002ZM18.5984 9.00006H18.9984V9.40002L18.5984 9.00006ZM17.8985 9.00006H18.5984V9.80005H17.8985L17.4984 9.40002L17.8985 9.00006ZM17.8985 9.80005H17.4984L17.5984 9.40002L17.8985 9.80005ZM18.3985 8.50006L18.2984 9.40002L17.4984 9.30005L17.5984 8.40002L18.0984 8.10004L18.3985 8.50006ZM18.0984 8.10004L18.4984 8.20007L18.3985 8.60004L18.0984 8.10004ZM8.19844 8.40002L7.39845 8.50006L7.69844 8.10004L7.99843 8.00006H8.29845L8.59843 7.90002H8.89845H9.19844H9.49843H9.79845H10.0984H10.3985H10.6984H11.0984H11.4984H11.8985H12.2984H12.6984H13.0984H13.4984H13.8985H14.2984H14.6984H15.0984H15.4984H15.7984H16.0984H16.3985H16.6984H16.9984H17.2984H17.5984H17.8985L18.1984 8.00006L18.4984 8.10004L18.2984 8.90002L18.0984 8.80005L17.7984 8.70007H17.4984H17.1984H16.8985H16.5984H16.2984H15.9984H15.6984H15.3985H15.0984H14.6984H14.3985H13.9984H13.5984H13.1984H12.7984H12.1984H11.7984H11.3985H11.0984H10.7984H10.4984H10.1984H9.89845H9.59843H9.29845H8.99843H8.69844H8.39845H8.09843L7.89845 8.80005L8.19844 8.40002ZM7.39845 8.50006L7.29845 8.10004L7.69844 8.00006L7.39845 8.50006ZM7.59843 9.40002L7.49843 8.50006L8.29845 8.40002L8.39845 9.30005L7.99843 9.70007L7.59843 9.40002ZM8.29845 9.30005L8.39845 9.70007H7.89845L8.29845 9.30005ZM7.29845 9.00006H7.89845V9.80005H7.29845L6.89844 9.40002L7.29845 9.00006ZM6.89844 9.40002V9.00006H7.29845L6.89844 9.40002ZM6.89844 16.9V9.40002H7.69844V16.9H6.89844ZM10.2984 19.5001V20.3H10.0984H9.89845H9.69844H9.49843H9.29845L9.09843 20.2001L8.99843 20.1L8.89845 20.0001L8.79845 19.9L8.69844 19.8L8.59843 19.7001L8.49843 19.6L8.39845 19.5001L8.29845 19.4L8.19844 19.3L8.09843 19.2001L7.99843 19.1L7.89845 19.0001L7.79845 18.9L7.69844 18.8L7.59843 18.7001L7.49843 18.6L7.39845 18.5001L7.29845 18.3L7.19844 18.1L7.09843 17.9L6.99844 17.7001V17.5001V17.3V17.1V16.9V16.7001H7.79845V16.8V16.9V17.0001V17.1V17.2001V17.3V17.4L7.89845 17.5001V17.6L7.99843 17.7001L8.09843 17.8L8.19844 17.9L8.29845 18.0001L8.39845 18.1L8.49843 18.2001L8.59843 18.3L8.69844 18.4L8.79845 18.5001L8.89845 18.6L8.99843 18.7001L9.09843 18.8L9.19844 18.9L9.29845 19.0001L9.39845 19.1L9.49843 19.2001H9.59843H9.69844H9.79845H9.89845H9.99843H10.0984L10.2984 19.5001Z" fill="#FEFEFE" />
<path d="M18.3988 5.70001L18.2988 6.59998L17.4988 6.5L17.5988 5.59998L18.0988 5.29999L18.3988 5.70001ZM18.0988 5.29999L18.4988 5.39996L18.3988 5.79999L18.0988 5.29999ZM8.19882 5.59998L7.39883 5.70001L7.69882 5.29999L7.99881 5.20001L8.29883 5.09998H8.59882H8.89883H9.19882H9.49881H9.79883H10.0988H10.3988H10.6988H11.0988H11.4988H11.8988H12.2988H12.6988H13.0988H13.4988H13.8988H14.2988H14.6988H15.0988H15.4988H15.7988H16.0988H16.3988H16.6988H16.9988H17.2988H17.5988L17.8988 5.20001L18.1988 5.29999L18.4988 5.39996L18.2988 6.09998H18.0988L17.7988 6H17.4988H17.1988H16.8988H16.5988H16.2988H15.9988H15.6988H15.3988H15.0988H14.6988H14.3988H13.9988H13.5988H13.1988H12.7988H12.3988H11.9988H11.5988H11.2988H10.9988H10.6988H10.3988H10.0988H9.79883H9.49881H9.19882H8.89883H8.59882L8.29883 6.09998H8.09882L8.19882 5.59998ZM7.39883 5.70001L7.29883 5.29999L7.69882 5.20001L7.39883 5.70001ZM7.59882 6.70001L7.49881 5.79999L8.29883 5.70001L8.39883 6.59998L7.59882 6.70001Z" fill="#FEFEFE" />
<path d="M9.99841 17.3998C9.99841 17.6998 9.79841 17.9998 9.49841 17.9998C9.19841 17.9998 8.89844 17.7998 8.89844 17.3998C8.89844 17.0998 9.09841 16.7998 9.49841 16.7998C9.79841 16.8998 9.99841 17.0998 9.99841 17.3998Z" fill="#FEFEFE" />
<path d="M16.9984 17.3998C16.9984 17.6998 16.7984 17.9998 16.4984 17.9998C16.1984 17.9998 15.8984 17.7998 15.8984 17.3998C15.8984 17.0998 16.0984 16.7998 16.4984 16.7998C16.8984 16.7998 16.9984 17.0998 16.9984 17.3998Z" fill="#FEFEFE" />
<path d="M8.79922 20.2001L6.49922 21.0001L6.19922 20.3L8.49921 19.5001H8.59921L8.79922 20.2001ZM17.1992 20.2001H8.59921V19.4H17.1992H17.2992L17.1992 20.2001ZM19.3992 21.0001L17.0992 20.2001L17.3992 19.5001L19.6992 20.3L19.3992 21.0001Z" fill="#FEFEFE" />
</symbol></defs><use id="icon-arrow-circle-usage" xlink:href="#icon-arrow-circle" class="sprite-symbol-usage" /><use id="icon-arrow-right-usage" xlink:href="#icon-arrow-right" class="sprite-symbol-usage" /><use id="icon-bus-usage" xlink:href="#icon-bus" class="sprite-symbol-usage" /><use id="icon-confetti-usage" xlink:href="#icon-confetti" class="sprite-symbol-usage" /><use id="icon-cross-usage" xlink:href="#icon-cross" class="sprite-symbol-usage" /><use id="icon-eye-usage" xlink:href="#icon-eye" class="sprite-symbol-usage" /><use id="icon-family-usage" xlink:href="#icon-family" class="sprite-symbol-usage" /><use id="icon-location-usage" xlink:href="#icon-location" class="sprite-symbol-usage" /><use id="icon-mail-usage" xlink:href="#icon-mail" class="sprite-symbol-usage" /><use id="icon-parking-usage" xlink:href="#icon-parking" class="sprite-symbol-usage" /><use id="icon-pin-usage" xlink:href="#icon-pin" class="sprite-symbol-usage" /><use id="icon-refresh-usage" xlink:href="#icon-refresh" class="sprite-symbol-usage" /><use id="icon-search-usage" xlink:href="#icon-search" class="sprite-symbol-usage" /><use id="icon-stars-1-usage" xlink:href="#icon-stars-1" class="sprite-symbol-usage" /><use id="icon-stars-2-usage" xlink:href="#icon-stars-2" class="sprite-symbol-usage" /><use id="icon-stars-3-usage" xlink:href="#icon-stars-3" class="sprite-symbol-usage" /><use id="icon-tel-usage" xlink:href="#icon-tel" class="sprite-symbol-usage" /><use id="icon-toilet-usage" xlink:href="#icon-toilet" class="sprite-symbol-usage" /><use id="icon-train-usage" xlink:href="#icon-train" class="sprite-symbol-usage" /></svg>