<svg width="26" height="26" viewBox="0 0 26 26" fill="none" xmlns="http://www.w3.org/2000/svg">
<path d="M13.0098 25.21C19.9133 25.21 25.5098 19.6135 25.5098 12.71C25.5098 5.8064 19.9133 0.209961 13.0098 0.209961C6.10621 0.209961 0.509766 5.8064 0.509766 12.71C0.509766 19.6135 6.10621 25.21 13.0098 25.21Z" fill="#FEFEFE"/>
<path d="M13.0098 23.43C10.0098 23.43 7.28978 22.19 5.33978 20.18H20.6898C18.7398 22.19 16.0198 23.43 13.0098 23.43ZM8.56976 8.37L7.98975 6.63C8.03975 6.44 8.35978 6.09999 8.58978 5.85999C8.73978 5.69999 8.88978 5.54 9.01978 5.38C9.14978 5.54 9.29978 5.69999 9.45978 5.85999C9.67978 6.09999 10.0098 6.44 10.0598 6.63L9.47974 8.37H8.56976ZM11.2698 17.9H18.0497V19.41H11.2698V17.9ZM13.0098 1.97998C18.9298 1.97998 23.7397 6.79996 23.7397 12.71C23.7397 15.24 22.8498 17.57 21.3798 19.41H18.8298V15.58H18.0497V17.12H11.2698V15.58H10.4897V19.41H9.40973V9.14996H10.0397L10.8398 6.72998V6.66998C10.8398 6.18998 10.4398 5.76996 10.0198 5.32996C9.77978 5.06996 9.40973 4.68996 9.40973 4.51996H8.62976C8.62976 4.68996 8.26978 5.06996 8.01978 5.32996C7.59978 5.76996 7.19977 6.18998 7.19977 6.66998V6.72998L8.00977 9.14996H8.62976V19.41H4.64978C3.17978 17.57 2.28973 15.24 2.28973 12.71C2.28973 6.79996 7.09977 1.97998 13.0098 1.97998ZM13.0098 1.20996C6.66977 1.20996 1.50977 6.36996 1.50977 12.71C1.50977 19.05 6.66977 24.21 13.0098 24.21C19.3498 24.21 24.5198 19.05 24.5198 12.71C24.5198 6.36996 19.3598 1.20996 13.0098 1.20996Z" fill="#393185"/>
<path d="M17.7397 16.04H11.5798V16.82H17.7397V16.04Z" fill="#393185"/>
<path d="M17.7397 14.96H11.5798V15.73H17.7397V14.96Z" fill="#393185"/>
</svg>
