<svg width="26" height="26" viewBox="0 0 26 26" fill="none" xmlns="http://www.w3.org/2000/svg">
<path d="M13.2402 25.9199C20.1438 25.9199 25.7402 20.3235 25.7402 13.4199C25.7402 6.51636 20.1438 0.919922 13.2402 0.919922C6.33668 0.919922 0.740234 6.51636 0.740234 13.4199C0.740234 20.3235 6.33668 25.9199 13.2402 25.9199Z" fill="#FEFEFE"/>
<path d="M14.0103 4.68994L13.7302 5.24994L13.1202 5.3299L13.5602 5.7699L13.4603 6.37994L14.0103 6.0899L14.5602 6.37994L14.4503 5.7699L14.8903 5.3299L14.2803 5.24994L14.0103 4.68994Z" fill="#393185"/>
<path d="M20.1802 16.3299C20.0802 13.2999 17.5903 11.9799 15.7603 11.0099C14.6403 10.4099 13.6702 9.89995 13.6702 9.25995H13.6403V8.66992C13.8403 8.65992 14.0402 8.6299 14.2402 8.5799C14.8502 8.38989 15.3602 7.97992 15.6702 7.41992L14.9902 7.03992C14.7802 7.41992 14.4303 7.69989 14.0103 7.8299C13.5903 7.9599 13.1402 7.90995 12.7502 7.69995C12.3602 7.48995 12.0703 7.1399 11.9503 6.7099C11.8303 6.3299 11.8603 5.91994 12.0203 5.55994L11.3102 5.23993C11.0702 5.76993 11.0303 6.36993 11.2003 6.92993C11.3903 7.55993 11.8102 8.06994 12.3802 8.37994C12.5402 8.46994 12.7002 8.52989 12.8702 8.5799V9.41992C12.7202 9.98992 11.8202 10.4599 10.8002 11.0099C8.97023 11.9799 6.48025 13.2999 6.38025 16.3299H4.71027V19.9099C3.34027 18.1099 2.52026 15.8599 2.52026 13.4199C2.52026 7.50992 7.33023 2.69995 13.2402 2.69995C19.1502 2.69995 23.9702 7.50992 23.9702 13.4199C23.9702 15.8499 23.1602 18.0899 21.7902 19.8899V16.3299H20.1802ZM13.2803 10.2699C13.7303 10.8099 14.5203 11.2299 15.4003 11.6899C17.2303 12.6699 19.3003 13.7699 19.4003 16.3299H7.16022C7.26022 13.7699 9.33022 12.6699 11.1602 11.6899C12.0402 11.2299 12.8303 10.8099 13.2803 10.2699ZM21.0203 20.7999C20.0103 21.8599 18.7902 22.7199 17.4302 23.2999V20.2799C17.4302 19.1499 15.9603 18.6499 15.9003 18.6299L15.7803 18.5899L15.6602 18.6299C15.6102 18.6499 14.9503 18.8699 14.5103 19.3499C14.0703 18.8699 13.4102 18.6499 13.3702 18.6299L13.2502 18.5899L13.1302 18.6299C13.1302 18.6299 12.4302 18.8699 11.9902 19.3499C11.5502 18.8699 10.8902 18.6499 10.8502 18.6299L10.7202 18.5899L10.6002 18.6299C10.5402 18.6499 9.07025 19.1499 9.07025 20.2799V23.2999C7.71025 22.7299 6.49023 21.8799 5.49023 20.8199V17.1099H21.0203V20.7999ZM16.6503 23.5899C16.0903 23.7799 15.5003 23.9199 14.9003 24.0199V20.2799C14.9003 19.8699 15.4603 19.5499 15.7803 19.4199C16.0903 19.5499 16.6503 19.8699 16.6503 20.2799V23.5899ZM12.3802 24.1099V20.2799C12.3802 19.8699 12.9402 19.5499 13.2502 19.4199C13.5702 19.5499 14.1302 19.8699 14.1302 20.2799V24.1099C13.8302 24.1299 13.5402 24.1499 13.2402 24.1499C12.9402 24.1499 12.6602 24.1299 12.3802 24.1099ZM11.6002 24.0199C11.0002 23.9299 10.4202 23.7899 9.85022 23.5999V20.2799C9.85022 19.8699 10.4102 19.5499 10.7202 19.4199C11.0402 19.5499 11.6002 19.8699 11.6002 20.2799V24.0199ZM13.2402 1.91992C6.90023 1.91992 1.74023 7.07992 1.74023 13.4199C1.74023 16.3799 2.87027 19.0799 4.71027 21.1199C4.95027 21.3999 5.21023 21.6599 5.49023 21.8999C6.53023 22.8599 7.74025 23.6199 9.07025 24.1399C9.33025 24.2399 9.59022 24.3299 9.85022 24.4099C10.4202 24.5899 11.0002 24.7199 11.6002 24.7999C11.7802 24.8299 11.9703 24.8599 12.1503 24.8699C12.2303 24.8799 12.3002 24.8799 12.3802 24.8899C12.6602 24.9099 12.9502 24.9199 13.2402 24.9199C13.5302 24.9199 13.8302 24.9099 14.1302 24.8899C14.2002 24.8799 14.2603 24.8799 14.3303 24.8699C14.5303 24.8499 14.7103 24.8299 14.9003 24.7999C15.5003 24.7199 16.0903 24.5799 16.6503 24.4099C16.9203 24.3299 17.1802 24.2299 17.4302 24.1299C18.7702 23.6099 19.9803 22.8399 21.0203 21.8899C21.2903 21.6399 21.5502 21.3799 21.7902 21.0999C23.6302 19.0699 24.7402 16.3699 24.7402 13.4199C24.7402 7.07992 19.5802 1.91992 13.2402 1.91992Z" fill="#393185"/>
</svg>
