<svg width="113" height="36" viewBox="0 0 113 36" fill="none" xmlns="http://www.w3.org/2000/svg">
<path fill-rule="evenodd" clip-rule="evenodd" d="M52.61 0.349609H60.72C89.42 0.349609 112.69 5.90965 112.69 12.7697V22.8596C112.69 29.7196 89.42 35.2797 60.72 35.2797H52.61C23.91 35.2797 0.640015 29.7196 0.640015 22.8596V12.7697C0.640015 5.90965 23.91 0.349609 52.61 0.349609Z" fill="#FEFEFE"/>
<path d="M40.09 22.8398C40.42 22.8798 40.8001 22.8397 41.3101 22.7897C42.1901 22.6697 43.02 22.3298 43.65 21.6998C44.39 21.0298 44.93 20.0397 45.13 18.7297H45.08C44.46 19.4897 43.56 19.9197 42.42 19.9197C40.42 19.9197 39.13 18.3997 39.13 16.4897C39.13 14.3697 40.66 12.5098 42.96 12.5098C45.26 12.5098 46.67 14.3498 46.67 17.2498C46.67 19.6998 45.84 21.4197 44.74 22.4897C43.88 23.3297 42.69 23.8497 41.48 23.9897C40.93 24.0797 40.45 24.0898 40.08 24.0798V22.8398H40.09ZM40.64 16.4097C40.64 17.8097 41.48 18.7897 42.8 18.7897C43.82 18.7897 44.61 18.2898 45.01 17.6198C45.1 17.4698 45.15 17.3097 45.15 17.0497C45.15 15.1397 44.44 13.6697 42.84 13.6697C41.56 13.6697 40.65 14.8097 40.65 16.4097H40.64Z" fill="#2B2A29"/>
<path d="M53.6899 15.5601V19.1801H54.05L57.17 15.5601H59.01L55.39 19.3201C56.74 19.4801 57.55 20.3701 58.2 21.8701C58.42 22.4201 58.7 23.2301 59.08 23.9001H57.49C57.27 23.5401 56.99 22.8801 56.71 22.1901C56.14 20.8501 55.37 20.22 53.97 20.22H53.6801V23.8901H52.1801V15.54H53.6801L53.6899 15.5601Z" fill="#2B2A29"/>
<path d="M60.55 15.5596H62.41L63.91 19.7696C64.13 20.3896 64.48 21.4096 64.67 22.0596H64.71C64.9 21.4196 65.36 20.1096 65.71 19.1996L67.04 15.5596H68.92L69.51 23.9095H68.0601L67.87 19.9296C67.84 19.0196 67.77 17.9696 67.73 16.9496H67.6801C67.4601 17.7096 67.22 18.3595 66.75 19.6595L65.15 23.8696H64.0601L62.58 19.7296C62.3 18.9496 61.94 17.7495 61.74 16.9695H61.67C61.64 17.9495 61.6 19.0595 61.55 19.9695L61.33 23.9196H59.9301L60.5699 15.5696L60.55 15.5596Z" fill="#2B2A29"/>
<path d="M104.97 17.8096H79.29" stroke="#393185" stroke-miterlimit="22.93"/>
<path d="M101.99 21.3905L104.97 17.8105L101.99 14.2305" stroke="#393185" stroke-miterlimit="22.93"/>
<path d="M20.48 29.9397C27.18 29.9397 32.61 24.5087 32.61 17.8097C32.61 11.1107 27.18 5.67969 20.48 5.67969C13.78 5.67969 8.34998 11.1107 8.34998 17.8097C8.34998 24.5087 13.78 29.9397 20.48 29.9397Z" fill="#FEFEFE"/>
<path d="M23.41 27.7903V25.8104L25.8199 22.4904V20.7104C25.8799 19.7804 24.96 19.2104 24.15 18.7104C23.49 18.3004 22.81 17.8804 22.85 17.4004V17.0904L23.79 15.9304V13.7203C23.79 11.8903 22.31 10.4103 20.48 10.4103C18.65 10.4103 17.17 11.8903 17.17 13.7203V18.1804H17.61C17.38 18.3604 17.0901 18.5404 16.8101 18.7104C16.0001 19.2104 15.09 19.7804 15.15 20.7104V22.4904L17.55 25.8104H17.5601V27.7903C13.2501 26.5303 10.08 22.5304 10.08 17.8104C10.08 12.0704 14.75 7.41034 20.48 7.41034C26.21 7.41034 30.89 12.0704 30.89 17.8104C30.89 22.5304 27.73 26.5303 23.41 27.7903ZM22.66 27.9803C21.96 28.1303 21.23 28.2104 20.48 28.2104C19.73 28.2104 19.0199 28.1404 18.3199 27.9904V25.8104H22.66V27.9803ZM23.76 19.3503C24.42 19.7603 25.0999 20.1903 25.0699 20.6703H25.0601L25.0699 22.2404L23.03 25.0604H22.49C22.29 24.0204 21.27 22.9504 20.21 21.8304C19.17 20.7404 18.09 19.6104 18.09 18.7604C18.39 18.5204 18.64 18.2604 18.77 17.9504L18.99 17.4203H17.9301V13.7203C17.9301 12.3103 19.07 11.1603 20.48 11.1603C21.89 11.1603 23.04 12.3103 23.04 13.7203V15.6603L22.09 16.8204V17.3604C22.04 18.2804 22.95 18.8503 23.76 19.3503ZM15.9 20.6703C15.86 20.1903 16.55 19.7603 17.21 19.3503C17.27 19.3103 17.34 19.2703 17.4 19.2303C17.65 20.2403 18.63 21.2703 19.66 22.3503C20.56 23.2903 21.48 24.2604 21.72 25.0604H17.9399L15.9 22.2404V20.6703ZM20.48 6.65039C14.33 6.65039 9.31995 11.6604 9.31995 17.8104C9.31995 22.9504 12.8201 27.2904 17.5601 28.5804C17.8101 28.6504 18.0599 28.7104 18.3199 28.7604C19.0199 28.9004 19.74 28.9703 20.48 28.9703C21.22 28.9703 21.96 28.8904 22.66 28.7504C22.91 28.7004 23.16 28.6504 23.41 28.5804C28.15 27.2904 31.64 22.9504 31.64 17.8104C31.64 11.6604 26.64 6.65039 20.48 6.65039Z" fill="#393185"/>
</svg>
