<svg width="26" height="26" viewBox="0 0 26 26" fill="none" xmlns="http://www.w3.org/2000/svg">
<path d="M13.1201 25.3999C20.0237 25.3999 25.6201 19.8035 25.6201 12.8999C25.6201 5.99634 20.0237 0.399902 13.1201 0.399902C6.21656 0.399902 0.620117 5.99634 0.620117 12.8999C0.620117 19.8035 6.21656 25.3999 13.1201 25.3999Z" fill="#FEFEFE"/>
<path d="M13.1201 23.6199C7.20012 23.6199 2.39014 18.8099 2.39014 12.8999C2.39014 6.9899 7.20012 2.16992 13.1201 2.16992C19.0401 2.16992 23.8401 6.9799 23.8401 12.8999C23.8401 18.8199 19.0301 23.6199 13.1201 23.6199ZM13.1201 1.3999C6.77012 1.3999 1.62012 6.5499 1.62012 12.8999C1.62012 19.2499 6.77012 24.3999 13.1201 24.3999C19.4701 24.3999 24.6101 19.2399 24.6101 12.8999C24.6101 6.5599 19.4601 1.3999 13.1201 1.3999Z" fill="#393185"/>
<path d="M8.4201 7.3299H17.5901V18.7799H14.5302V15.2499H11.4801V18.7799H8.4201V7.3299ZM13.7501 18.7799H12.2601V16.0299H13.7501V18.7799ZM18.3701 6.54993H7.64014V18.7799H5.51013V19.5599H20.5001V18.7799H18.3701V6.54993Z" fill="#393185"/>
<path d="M11.1801 10.7499H10.5701V9.81995H11.1801V10.7499ZM11.9601 9.03992H9.7901V11.5299H11.9601V9.03992Z" fill="#393185"/>
<path d="M15.5601 10.7499H14.9401V9.81995H15.5601V10.7499ZM16.3301 9.03992H14.1601V11.5299H16.3301V9.03992Z" fill="#393185"/>
<path d="M11.1801 13.8599H10.5701V12.9199H11.1801V13.8599ZM11.9601 12.1499H9.7901V14.6299H11.9601V12.1499Z" fill="#393185"/>
<path d="M15.5601 13.8599H14.9401V12.9199H15.5601V13.8599ZM16.3301 12.1499H14.1601V14.6299H16.3301V12.1499Z" fill="#393185"/>
</svg>
