<svg width="26" height="26" viewBox="0 0 26 26" fill="none" xmlns="http://www.w3.org/2000/svg">
<path d="M13.1104 25.5801C20.0139 25.5801 25.6104 19.9836 25.6104 13.0801C25.6104 6.17652 20.0139 0.580078 13.1104 0.580078C6.20679 0.580078 0.610352 6.17652 0.610352 13.0801C0.610352 19.9836 6.20679 25.5801 13.1104 25.5801Z" fill="#FEFEFE"/>
<path d="M18.7704 18.1501C18.6504 18.1501 18.5504 18.2501 18.5504 18.3701V19.3301H18.9904V18.3701C18.9904 18.2501 18.8904 18.1501 18.7704 18.1501Z" fill="#393185"/>
<path d="M7.44037 18.1501C7.32037 18.1501 7.23035 18.2501 7.23035 18.3701V19.3301H7.66034V18.3701C7.66034 18.2501 7.56037 18.1501 7.44037 18.1501Z" fill="#393185"/>
<path d="M20.5504 20.7801V17.3701C20.7704 17.2101 20.9604 16.9701 21.0704 16.6701C21.2804 16.1401 21.2403 15.5401 20.9703 15.0301C20.6703 14.4501 20.1503 14.1001 19.7303 13.8201C19.4703 13.6501 19.1603 13.4401 19.1603 13.3101V12.2801H20.1804V11.5101H19.1603V10.4801H18.3804V11.5101H17.3503V12.2801H18.3804V13.3101C18.3804 13.4401 18.0604 13.6501 17.8104 13.8201C17.3904 14.1001 16.8704 14.4501 16.5604 15.0301C16.2904 15.5401 16.2504 16.1401 16.4604 16.6701C16.5804 16.9701 16.7704 17.2101 16.9904 17.3701V19.4001L15.7303 18.6801V14.5101C16.0903 14.3001 16.4004 13.9101 16.5904 13.4301C16.9004 12.6501 16.8404 11.7601 16.4404 10.9901C15.9804 10.1201 15.1704 9.58008 14.5204 9.14008C13.9704 8.78008 13.4904 8.46013 13.4904 8.13013V7.1001H14.5204V6.33008H13.4904V5.30011H12.7203V6.33008H11.6904V7.1001H12.7203V8.13013C12.7203 8.46013 12.2404 8.78008 11.6904 9.14008C11.0404 9.58008 10.2304 10.1201 9.7804 10.9901C9.3704 11.7601 9.31036 12.6501 9.62036 13.4301C9.81036 13.9101 10.1203 14.3001 10.4803 14.5101V18.6801L9.23035 19.4001V17.3701C9.44035 17.2101 9.63037 16.9701 9.75037 16.6701C9.96037 16.1401 9.92039 15.5401 9.65039 15.0301C9.35039 14.4501 8.82034 14.1001 8.41034 13.8201C8.15034 13.6501 7.83038 13.4401 7.83038 13.3101V12.2801H8.86035V11.5101H7.83038V10.4801H7.06036V11.5101H6.0304V12.2801H7.06036V13.3101C7.06036 13.4401 6.74035 13.6501 6.48035 13.8201C6.06035 14.1001 5.54036 14.4501 5.24036 15.0301C4.97036 15.5401 4.93038 16.1401 5.14038 16.6701C5.26038 16.9701 5.44034 17.2101 5.66034 17.3701V20.7801C3.64034 18.8301 2.38037 16.1001 2.38037 13.0801C2.38037 7.16008 7.19034 2.3501 13.1003 2.3501C19.0103 2.3501 23.8304 7.16008 23.8304 13.0801C23.8304 16.1001 22.5704 18.8301 20.5504 20.7801ZM17.7604 19.8501V17.5201H19.7704V21.0001L17.7604 19.8501ZM17.1804 16.3801C17.1104 16.2001 17.0204 15.8201 17.2504 15.3901C17.4604 14.9801 17.8604 14.7201 18.2404 14.4701C18.4204 14.3401 18.6104 14.2201 18.7704 14.0701C18.9304 14.2201 19.1104 14.3401 19.3004 14.4701C19.6804 14.7201 20.0703 14.9801 20.2903 15.3901C20.5103 15.8201 20.4303 16.2001 20.3503 16.3801C20.2803 16.5701 20.1604 16.6901 20.0904 16.7401H17.4504C17.3704 16.6901 17.2604 16.5701 17.1804 16.3801ZM11.2604 14.6501H14.9504V18.2401L13.4504 17.3801V16.2501C13.4504 16.0601 13.3003 15.9001 13.1003 15.9001C12.9003 15.9001 12.7604 16.0601 12.7604 16.2501V17.3701L11.2604 18.2401V14.6501ZM15.2804 13.8701H10.9304C10.7404 13.7801 10.5004 13.5301 10.3404 13.1401C10.2104 12.8101 10.0504 12.1301 10.4604 11.3501C10.8304 10.6501 11.5204 10.2001 12.1204 9.7901C12.4904 9.5401 12.8503 9.30009 13.1003 9.03009C13.3603 9.30009 13.7204 9.5401 14.0904 9.7901C14.6904 10.1901 15.3804 10.6501 15.7504 11.3501C16.1604 12.1301 16.0004 12.8101 15.8704 13.1401C15.7104 13.5301 15.4704 13.7801 15.2804 13.8701ZM15.0204 23.6301C14.7004 22.8901 13.9603 22.3701 13.1003 22.3701C12.2403 22.3701 11.5104 22.8901 11.1904 23.6301C9.56037 23.3301 8.05038 22.6601 6.76038 21.7101L13.1003 18.0701L19.4504 21.7101C18.1604 22.6601 16.6504 23.3301 15.0204 23.6301ZM13.1003 23.8001C12.7403 23.8001 12.3704 23.7801 12.0104 23.7401C12.2404 23.3801 12.6503 23.1401 13.1003 23.1401C13.5503 23.1401 13.9704 23.3801 14.2004 23.7401C13.8404 23.7801 13.4703 23.8001 13.1003 23.8001ZM6.44037 21.0001V17.5201H8.45038V19.8501L6.44037 21.0001ZM5.86035 16.3801C5.79035 16.2001 5.70036 15.8201 5.93036 15.3901C6.14036 14.9801 6.53034 14.7201 6.91034 14.4701C7.10034 14.3401 7.29037 14.2201 7.44037 14.0701C7.60037 14.2201 7.79034 14.3401 7.97034 14.4701C8.36034 14.7201 8.75039 14.9801 8.96039 15.3901C9.19039 15.8201 9.1004 16.2001 9.0304 16.3801C8.9504 16.5701 8.84038 16.6901 8.76038 16.7401H6.12036C6.05036 16.6901 5.94035 16.5701 5.86035 16.3801ZM13.1003 1.58008C6.77034 1.58008 1.61035 6.73008 1.61035 13.0801C1.61035 16.5801 3.18034 19.7201 5.66034 21.8301C5.91034 22.0401 6.17037 22.2501 6.44037 22.4401C7.78037 23.4001 9.3404 24.0801 11.0304 24.3901C11.2804 24.4301 11.5404 24.4701 11.8004 24.5001C12.2304 24.5501 12.6603 24.5801 13.1003 24.5801C13.5403 24.5801 13.9803 24.5501 14.4103 24.5001C14.6703 24.4701 14.9304 24.4301 15.1804 24.3901C16.8704 24.0801 18.4304 23.4001 19.7704 22.4401C20.0404 22.2501 20.3004 22.0501 20.5504 21.8301C23.0304 19.7201 24.6104 16.5801 24.6104 13.0801C24.6104 6.73008 19.4503 1.58008 13.1003 1.58008Z" fill="#393185"/>
</svg>
