<svg width="26" height="26" viewBox="0 0 26 26" fill="none" xmlns="http://www.w3.org/2000/svg">
<path d="M13.3203 25.6201C20.2239 25.6201 25.8203 20.0237 25.8203 13.1201C25.8203 6.21656 20.2239 0.620117 13.3203 0.620117C6.41675 0.620117 0.820312 6.21656 0.820312 13.1201C0.820312 20.0237 6.41675 25.6201 13.3203 25.6201Z" fill="#FEFEFE"/>
<path d="M13.3203 23.8501C7.41031 23.8501 2.60028 19.0301 2.60028 13.1201C2.60028 7.21012 7.41031 2.40009 13.3203 2.40009C19.2303 2.40009 24.0503 7.21012 24.0503 13.1201C24.0503 19.0301 19.2303 23.8501 13.3203 23.8501ZM13.3203 1.62012C6.98031 1.62012 1.82031 6.78012 1.82031 13.1201C1.82031 19.4601 6.98031 24.6201 13.3203 24.6201C19.6603 24.6201 24.8203 19.4601 24.8203 13.1201C24.8203 6.78012 19.6603 1.62012 13.3203 1.62012Z" fill="#393185"/>
<path d="M19.2703 11.7401V16.7101L15.7603 14.4801V13.8001L19.2703 11.7401ZM14.9903 17.0301H8.09033V11.4401H14.9903V17.0301ZM15.7603 10.6701H7.32031V17.8001H15.7603V15.4001L20.0503 18.1201V10.3701L15.7603 12.9001V10.6701Z" fill="#393185"/>
<path d="M7.38031 8.31012C7.38031 7.61012 7.94032 7.0401 8.64032 7.0401C9.34032 7.0401 9.90033 7.61012 9.90033 8.31012C9.90033 9.01012 9.33032 9.57013 8.64032 9.57013C7.95032 9.57013 7.38031 9.00012 7.38031 8.31012ZM10.6803 8.31012C10.6803 7.18012 9.76032 6.27008 8.64032 6.27008C7.52032 6.27008 6.60028 7.18012 6.60028 8.31012C6.60028 9.44012 7.52032 10.3401 8.64032 10.3401C9.76032 10.3401 10.6803 9.43012 10.6803 8.31012Z" fill="#393185"/>
<path d="M13.6803 6.05011C14.6503 6.05011 15.4403 6.84012 15.4403 7.81012C15.4403 8.78012 14.6503 9.57013 13.6803 9.57013C12.7103 9.57013 11.9203 8.78012 11.9203 7.81012C11.9203 6.84012 12.7103 6.05011 13.6803 6.05011ZM13.6803 10.3401C15.0803 10.3401 16.2103 9.21012 16.2103 7.81012C16.2103 6.41012 15.0803 5.27008 13.6803 5.27008C12.2803 5.27008 11.1403 6.41012 11.1403 7.81012C11.1403 9.21012 12.2803 10.3401 13.6803 10.3401Z" fill="#393185"/>
</svg>
